M48
;DRILL file {KiCad 5.0.1} date Sat 17 Nov 2018 09:24:51 PM -02
;FORMAT={3:3/ absolute / metric / suppress leading zeros}
FMAT,2
METRIC,TZ
T1C0.450
T2C0.500
T3C0.750
T4C1.100
T5C1.500
T6C2.500
T7C1.702
T8C3.048
T9C3.988
%
G90
G05
M71
T2
X227525Y-68875
T3
X53200Y-111460
X53200Y-114000
X205200Y-73460
X205200Y-76000
X72200Y-73460
X72200Y-76000
X186200Y-130460
X186200Y-133000
X91200Y-111460
X91200Y-114000
X72200Y-92460
X72200Y-95000
X243200Y-68400
X243200Y-70940
X243200Y-117160
X243200Y-119700
X148200Y-92460
X148200Y-95000
X224200Y-73460
X224200Y-76000
X129200Y-111460
X129200Y-114000
X168698Y-121600
X171237Y-121600
X53200Y-130460
X53200Y-133000
X167200Y-92460
X167200Y-95000
X148200Y-73460
X148200Y-76000
X91200Y-130460
X91200Y-133000
X167200Y-111460
X167200Y-114000
X224200Y-111460
X224200Y-114000
X194513Y-84788
X197053Y-84788
X186200Y-73460
X186200Y-76000
X243200Y-95000
X243200Y-97540
X243200Y-123500
X243200Y-126040
X129200Y-73460
X129200Y-76000
X110200Y-92460
X110200Y-95000
X120960Y-121600
X123500Y-121600
X205200Y-113525
X205200Y-116065
X243200Y-134260
X243200Y-136800
X146775Y-121600
X149315Y-121600
X72200Y-111460
X72200Y-114000
X53200Y-92460
X53200Y-95000
X205200Y-130460
X205200Y-133000
X110200Y-73460
X110200Y-76000
X110200Y-111460
X110200Y-114000
X129200Y-92460
X129200Y-95000
X243200Y-86120
X243200Y-88660
X91200Y-73460
X91200Y-76000
X224200Y-92460
X224200Y-95000
X224200Y-130460
X224200Y-133000
X148200Y-111460
X148200Y-114000
X53200Y-73460
X53200Y-76000
X72200Y-130460
X72200Y-133000
X243200Y-79160
X243200Y-81700
X243200Y-107350
X243200Y-109890
X186200Y-92460
X186200Y-95000
X167200Y-73460
X167200Y-76000
X91200Y-92460
X91200Y-95000
X110200Y-130460
X110200Y-133000
X186200Y-111623
X186200Y-114163
T4
X69825Y-99425
X69825Y-105925
X74325Y-99425
X74325Y-105925
T6
X53200Y-102600
X91200Y-83600
X243200Y-102600
X205200Y-83600
X205200Y-121600
X91200Y-121600
T7
X171620Y-112100
X181780Y-112100
X152620Y-93100
X162780Y-93100
X171620Y-93100
X181780Y-93100
X95620Y-112100
X105780Y-112100
X209620Y-112100
X219780Y-112100
X133620Y-112100
X143780Y-112100
X171620Y-74100
X181780Y-74100
X38620Y-93100
X48780Y-93100
X57620Y-93100
X67780Y-93100
X133620Y-74100
X143780Y-74100
X114620Y-131100
X124780Y-131100
X209620Y-93100
X219780Y-93100
X57620Y-112100
X67780Y-112100
X95620Y-74100
X105780Y-74100
X114620Y-74100
X124780Y-74100
X133620Y-93100
X143780Y-93100
X143120Y-131100
X153280Y-131100
X38620Y-131100
X48780Y-131100
X114620Y-112100
X124780Y-112100
X247620Y-131100
X257780Y-131100
X228620Y-93100
X238780Y-93100
X228620Y-112100
X238780Y-112100
X209620Y-131100
X219780Y-131100
X190620Y-112100
X200780Y-112100
X171620Y-131100
X181780Y-131100
X57620Y-131100
X67780Y-131100
X152620Y-131100
X162780Y-131100
X76620Y-74100
X86780Y-74100
X133620Y-131100
X143780Y-131100
X38620Y-112100
X48780Y-112100
X57620Y-74100
X67780Y-74100
X38620Y-74100
X48780Y-74100
X152620Y-112100
X162780Y-112100
X114620Y-93100
X124780Y-93100
X76620Y-112100
X86780Y-112100
X228620Y-74100
X238780Y-74100
X190620Y-74100
X200780Y-74100
X124120Y-131100
X134280Y-131100
X190620Y-131100
X200780Y-131100
X209620Y-74100
X219780Y-74100
X76620Y-93100
X86780Y-93100
X76620Y-131100
X86780Y-131100
X190620Y-93100
X200780Y-93100
X152620Y-74100
X162780Y-74100
X95620Y-131100
X105780Y-131100
X228620Y-131100
X238780Y-131100
X95620Y-93100
X105780Y-93100
X247620Y-93100
X257780Y-93100
X247620Y-74100
X257780Y-74100
X247620Y-112100
X257780Y-112100
X162120Y-131100
X172280Y-131100
T8
X155262Y-124115
X179138Y-124115
X136262Y-124115
X160138Y-124115
X117262Y-124115
X141138Y-124115
T9
X100700Y-112100
X214700Y-112100
X138700Y-112100
X176700Y-74100
X43700Y-93100
X62700Y-93100
X138700Y-74100
X119700Y-131100
X214700Y-93100
X62700Y-112100
X100700Y-74100
X119700Y-74100
X138700Y-93100
X136262Y-139355
X148200Y-131100
X160138Y-139355
X43700Y-131100
X119700Y-112100
X252700Y-131100
X233700Y-93100
X233700Y-112100
X214700Y-131100
X195700Y-112100
X176700Y-131100
X62700Y-131100
X157700Y-131100
X81700Y-74100
X138700Y-131100
X43700Y-112100
X62700Y-74100
X43700Y-74100
X157700Y-112100
X119700Y-93100
X81700Y-112100
X233700Y-74100
X195700Y-74100
X117262Y-139355
X129200Y-131100
X141138Y-139355
X195700Y-131100
X214700Y-74100
X81700Y-93100
X81700Y-131100
X195700Y-93100
X157700Y-74100
X100700Y-131100
X233700Y-131100
X100700Y-93100
X252700Y-93100
X252700Y-74100
X252700Y-112100
X155262Y-139355
X167200Y-131100
X179138Y-139355
X176700Y-112100
X157700Y-93100
X176700Y-93100
T1
X220800Y-65000G85X220800Y-64200
G05
X227950Y-64200G85X227950Y-65000
G05
T5
X192700Y-127100G85X191890Y-128560
G05
X198240Y-126021G85X198200Y-126599
G05
X211700Y-70100G85X210890Y-71560
G05
X217240Y-69021G85X217200Y-69599
G05
X78700Y-89100G85X77890Y-90560
G05
X84240Y-88021G85X84200Y-88599
G05
X78700Y-127100G85X77890Y-128560
G05
X84240Y-126021G85X84200Y-126599
G05
X192700Y-89100G85X191890Y-90560
G05
X198240Y-88021G85X198200Y-88599
G05
X154700Y-70100G85X153890Y-71560
G05
X160240Y-69021G85X160200Y-69599
G05
X97700Y-127100G85X96890Y-128560
G05
X103240Y-126021G85X103200Y-126599
G05
X230700Y-127100G85X229890Y-128560
G05
X236240Y-126021G85X236200Y-126599
G05
X97700Y-89100G85X96890Y-90560
G05
X103240Y-88021G85X103200Y-88599
G05
X249700Y-89100G85X248890Y-90560
G05
X255240Y-88021G85X255200Y-88599
G05
X249700Y-70100G85X248890Y-71560
G05
X255240Y-69021G85X255200Y-69599
G05
X249700Y-108100G85X248890Y-109560
G05
X255240Y-107021G85X255200Y-107599
G05
X164200Y-127100G85X163390Y-128560
G05
X169740Y-126021G85X169700Y-126599
G05
X173700Y-108100G85X172890Y-109560
G05
X179240Y-107021G85X179200Y-107599
G05
X154700Y-89100G85X153890Y-90560
G05
X160240Y-88021G85X160200Y-88599
G05
X173700Y-89100G85X172890Y-90560
G05
X179240Y-88021G85X179200Y-88599
G05
X97700Y-108100G85X96890Y-109560
G05
X103240Y-107021G85X103200Y-107599
G05
X211700Y-108100G85X210890Y-109560
G05
X217240Y-107021G85X217200Y-107599
G05
X135700Y-108100G85X134890Y-109560
G05
X141240Y-107021G85X141200Y-107599
G05
X173700Y-70100G85X172890Y-71560
G05
X179240Y-69021G85X179200Y-69599
G05
X40700Y-89100G85X39890Y-90560
G05
X46240Y-88021G85X46200Y-88599
G05
X59700Y-89100G85X58890Y-90560
G05
X65240Y-88021G85X65200Y-88599
G05
X135700Y-70100G85X134890Y-71560
G05
X141240Y-69021G85X141200Y-69599
G05
X116700Y-127100G85X115890Y-128560
G05
X122240Y-126021G85X122200Y-126599
G05
X211700Y-89100G85X210890Y-90560
G05
X217240Y-88021G85X217200Y-88599
G05
X59700Y-108100G85X58890Y-109560
G05
X65240Y-107021G85X65200Y-107599
G05
X97700Y-70100G85X96890Y-71560
G05
X103240Y-69021G85X103200Y-69599
G05
X116700Y-70100G85X115890Y-71560
G05
X122240Y-69021G85X122200Y-69599
G05
X135700Y-89100G85X134890Y-90560
G05
X141240Y-88021G85X141200Y-88599
G05
X145200Y-127100G85X144390Y-128560
G05
X150740Y-126021G85X150700Y-126599
G05
X40700Y-127100G85X39890Y-128560
G05
X46240Y-126021G85X46200Y-126599
G05
X116700Y-108100G85X115890Y-109560
G05
X122240Y-107021G85X122200Y-107599
G05
X249700Y-127100G85X248890Y-128560
G05
X255240Y-126021G85X255200Y-126599
G05
X230700Y-89100G85X229890Y-90560
G05
X236240Y-88021G85X236200Y-88599
G05
X230700Y-108100G85X229890Y-109560
G05
X236240Y-107021G85X236200Y-107599
G05
X211700Y-127100G85X210890Y-128560
G05
X217240Y-126021G85X217200Y-126599
G05
X192700Y-108100G85X191890Y-109560
G05
X198240Y-107021G85X198200Y-107599
G05
X173700Y-127100G85X172890Y-128560
G05
X179240Y-126021G85X179200Y-126599
G05
X59700Y-127100G85X58890Y-128560
G05
X65240Y-126021G85X65200Y-126599
G05
X154700Y-127100G85X153890Y-128560
G05
X160240Y-126021G85X160200Y-126599
G05
X78700Y-70100G85X77890Y-71560
G05
X84240Y-69021G85X84200Y-69599
G05
X135700Y-127100G85X134890Y-128560
G05
X141240Y-126021G85X141200Y-126599
G05
X40700Y-108100G85X39890Y-109560
G05
X46240Y-107021G85X46200Y-107599
G05
X59700Y-70100G85X58890Y-71560
G05
X65240Y-69021G85X65200Y-69599
G05
X40700Y-70100G85X39890Y-71560
G05
X46240Y-69021G85X46200Y-69599
G05
X154700Y-108100G85X153890Y-109560
G05
X160240Y-107021G85X160200Y-107599
G05
X116700Y-89100G85X115890Y-90560
G05
X122240Y-88021G85X122200Y-88599
G05
X78700Y-108100G85X77890Y-109560
G05
X84240Y-107021G85X84200Y-107599
G05
X230700Y-70100G85X229890Y-71560
G05
X236240Y-69021G85X236200Y-69599
G05
X192700Y-70100G85X191890Y-71560
G05
X198240Y-69021G85X198200Y-69599
G05
X126200Y-127100G85X125390Y-128560
G05
X131740Y-126021G85X131700Y-126599
G05
T0
M30
