M48
;DRILL file {KiCad 5.0.1} date Wed 20 Feb 2019 09:07:01 PM -03
;FORMAT={-:-/ absolute / metric / decimal}
FMAT,2
METRIC,TZ
T1C0.200
T2C0.203
T3C0.400
T4C0.500
T5C0.600
T6C0.991
T7C1.000
T8C1.016
T9C1.524
T10C1.600
T11C2.200
T12C2.500
T13C0.650
T14C1.702
T15C3.048
T16C3.988
%
G90
G05
M71
T1
X201.604Y-102.149
X205.76Y-108.384
X205.76Y-108.977
X208.3Y-113.893
X217.635Y-100.493
X217.635Y-101.493
X217.635Y-102.493
X217.635Y-103.493
X217.635Y-104.493
X217.635Y-105.493
X218.525Y-99.993
X218.525Y-100.993
X218.525Y-101.993
X218.525Y-102.993
X218.525Y-103.993
X218.525Y-104.993
X221.213Y-72.04
X221.713Y-95.915
X221.713Y-108.68
X222.013Y-72.04
X222.213Y-96.805
X222.213Y-109.571
X222.713Y-95.915
X222.713Y-108.68
X223.213Y-96.805
X223.213Y-109.571
X223.713Y-95.915
X223.713Y-108.68
X224.213Y-96.805
X224.213Y-109.571
X224.464Y-88.493
X224.713Y-95.915
X224.713Y-108.68
X225.213Y-96.805
X225.213Y-109.571
X225.713Y-95.915
X225.713Y-108.68
X226.213Y-96.805
X226.213Y-109.571
X226.713Y-95.915
X226.713Y-108.68
X226.928Y-72.016
X227.213Y-96.805
X227.213Y-109.571
X227.735Y-72.04
X228.027Y-87.899
X230.4Y-100.493
X230.4Y-101.493
X230.4Y-102.493
X230.4Y-103.493
X230.4Y-104.493
X230.4Y-105.493
X231.291Y-99.993
X231.291Y-100.993
X231.291Y-101.993
X231.291Y-102.993
X231.291Y-103.993
X231.291Y-104.993
T2
X223.166Y-104.584
T3
X88.329Y-103.93
X206.354Y-104.227
X37.834Y-103.609
X38.318Y-102.443
X38.318Y-104.776
X39.484Y-101.959
X39.484Y-105.259
X40.651Y-102.443
X40.651Y-104.776
X41.134Y-103.609
T4
X70.013Y-82.143
X70.013Y-120.143
X108.013Y-82.143
X108.013Y-82.143
X108.013Y-120.143
X112.838Y-85.343
X121.391Y-104.677
X124.713Y-136.799
X133.619Y-136.799
X163.307Y-136.799
X172.213Y-136.799
X184.013Y-82.143
X184.013Y-120.143
X188.913Y-85.343
X221.962Y-81.798
X222.013Y-120.143
X222.656Y-79.266
X226.219Y-79.266
X226.254Y-69.196
T6
X168.733Y-136.323
X254.233Y-98.323
X64.233Y-98.323
X216.233Y-136.323
X178.233Y-136.323
X140.208Y-136.323
X178.233Y-79.323
X83.233Y-136.323
X121.233Y-79.323
X254.233Y-79.248
X178.233Y-98.323
X45.233Y-79.323
X254.233Y-117.348
X121.233Y-98.323
X130.683Y-136.323
X197.233Y-117.323
X64.233Y-117.348
X140.208Y-117.323
X149.733Y-136.323
X235.233Y-98.323
X197.233Y-136.323
X213.693Y-69.163
X121.158Y-136.323
X159.233Y-79.323
X216.233Y-98.323
X64.233Y-79.323
X64.233Y-136.323
X102.233Y-79.323
X232.693Y-69.163
X159.233Y-98.323
X235.233Y-117.323
X102.233Y-98.323
X254.233Y-136.323
X102.233Y-117.323
X178.233Y-117.323
X45.233Y-117.348
X121.233Y-117.323
X45.233Y-98.323
X159.233Y-136.323
X197.358Y-79.323
X102.233Y-136.323
X140.233Y-79.323
X197.233Y-98.323
X45.233Y-136.323
X83.233Y-79.323
X140.233Y-98.323
X216.233Y-117.323
X83.233Y-98.323
X235.233Y-136.323
X83.233Y-117.348
X159.233Y-117.323
T7
X41.463Y-123.743
X41.463Y-138.243
X43.963Y-123.743
X46.463Y-123.743
X46.463Y-138.243
T8
X42.693Y-98.323
X156.693Y-136.323
X194.818Y-79.323
X99.693Y-136.323
X137.693Y-79.323
X194.693Y-98.323
X42.693Y-136.323
X80.693Y-79.323
X137.693Y-98.323
X213.693Y-117.323
X80.693Y-98.323
X232.693Y-136.323
X80.693Y-117.348
X156.693Y-117.323
X166.193Y-136.323
X251.693Y-98.323
X61.693Y-98.323
X213.693Y-136.323
X175.693Y-136.323
X137.668Y-136.323
X175.693Y-79.323
X80.693Y-136.323
X118.693Y-79.323
X251.693Y-79.248
X175.693Y-98.323
X42.693Y-79.323
X251.693Y-117.348
X118.693Y-98.323
X128.143Y-136.323
X194.693Y-117.323
X61.693Y-117.348
X137.668Y-117.323
X147.193Y-136.323
X232.693Y-98.323
X194.693Y-136.323
X216.233Y-69.163
X118.618Y-136.323
X156.693Y-79.323
X213.693Y-98.323
X61.693Y-79.323
X61.693Y-136.323
X99.693Y-79.323
X235.233Y-69.163
X156.693Y-98.323
X232.693Y-117.323
X99.693Y-98.323
X251.693Y-136.323
X99.693Y-117.323
X175.693Y-117.323
X42.693Y-117.348
X118.693Y-117.323
T9
X193.423Y-107.163
X199.773Y-109.703
X79.423Y-126.163
X85.773Y-128.703
X136.423Y-88.163
X142.773Y-90.703
X164.923Y-126.163
X171.273Y-128.703
X117.423Y-69.163
X123.773Y-71.703
X98.423Y-107.163
X104.773Y-109.703
X136.398Y-107.163
X142.748Y-109.703
X155.423Y-126.163
X161.773Y-128.703
X126.923Y-126.163
X133.273Y-128.703
X79.423Y-69.163
X85.773Y-71.703
X212.423Y-126.163
X218.773Y-128.703
X155.423Y-107.163
X161.773Y-109.703
X174.423Y-126.163
X180.773Y-128.703
X60.423Y-69.163
X66.773Y-71.703
X41.423Y-69.163
X47.773Y-71.703
X41.423Y-88.163
X47.773Y-90.703
X117.423Y-126.163
X123.773Y-128.703
X231.423Y-126.163
X237.773Y-128.703
X98.423Y-69.163
X104.773Y-71.703
X136.423Y-69.163
X142.773Y-71.703
X155.423Y-69.163
X161.773Y-71.703
X98.423Y-126.163
X104.773Y-128.703
X155.423Y-88.163
X161.773Y-90.703
X212.423Y-88.163
X218.773Y-90.703
X193.423Y-126.163
X199.773Y-128.703
X250.423Y-69.088
X256.773Y-71.628
X231.423Y-107.163
X237.773Y-109.703
X79.423Y-88.163
X85.773Y-90.703
X174.423Y-69.163
X180.773Y-71.703
X211.153Y-76.783
X217.503Y-79.323
X212.423Y-107.163
X218.773Y-109.703
X174.423Y-88.163
X180.773Y-90.703
X145.923Y-126.163
X152.273Y-128.703
X231.423Y-88.163
X237.773Y-90.703
X41.423Y-107.188
X47.773Y-109.728
X41.423Y-126.163
X47.773Y-128.703
X250.423Y-107.188
X256.773Y-109.728
X193.548Y-69.163
X199.898Y-71.703
X60.423Y-88.163
X66.773Y-90.703
X193.423Y-88.163
X199.773Y-90.703
X79.423Y-107.188
X85.773Y-109.728
X250.423Y-88.163
X256.773Y-90.703
X60.423Y-107.188
X66.773Y-109.728
X174.423Y-107.163
X180.773Y-109.703
X60.423Y-126.163
X66.773Y-128.703
X117.423Y-88.163
X123.773Y-90.703
X98.423Y-88.163
X104.773Y-90.703
X117.423Y-107.163
X123.773Y-109.703
X230.153Y-76.783
X236.503Y-79.323
X136.423Y-126.163
X142.773Y-128.703
X250.423Y-126.163
X256.773Y-128.703
T11
X39.484Y-103.609
T12
X205.463Y-121.743
X91.463Y-83.743
X205.463Y-83.743
X91.463Y-121.743
X243.463Y-102.743
X53.463Y-102.743
T13
X221.573Y-70.708
X227.353Y-70.708
T14
X76.883Y-112.268
X87.043Y-112.268
X247.883Y-93.243
X258.043Y-93.243
X57.883Y-112.268
X68.043Y-112.268
X171.883Y-112.243
X182.043Y-112.243
X57.883Y-131.243
X68.043Y-131.243
X114.883Y-93.243
X125.043Y-93.243
X95.883Y-93.243
X106.043Y-93.243
X114.883Y-112.243
X125.043Y-112.243
X228.883Y-74.243
X239.043Y-74.243
X133.883Y-131.243
X144.043Y-131.243
X247.883Y-131.243
X258.043Y-131.243
X190.883Y-112.243
X201.043Y-112.243
X76.883Y-131.243
X87.043Y-131.243
X133.883Y-93.243
X144.043Y-93.243
X162.383Y-131.243
X172.543Y-131.243
X114.883Y-74.243
X125.043Y-74.243
X95.883Y-112.243
X106.043Y-112.243
X133.858Y-112.243
X144.018Y-112.243
X152.883Y-131.243
X163.043Y-131.243
X124.383Y-131.243
X134.543Y-131.243
X76.883Y-74.243
X87.043Y-74.243
X209.883Y-131.243
X220.043Y-131.243
X152.883Y-112.243
X163.043Y-112.243
X171.883Y-131.243
X182.043Y-131.243
X57.883Y-74.243
X68.043Y-74.243
X38.883Y-74.243
X49.043Y-74.243
X38.883Y-93.243
X49.043Y-93.243
X114.883Y-131.243
X125.043Y-131.243
X228.883Y-131.243
X239.043Y-131.243
X95.883Y-74.243
X106.043Y-74.243
X133.883Y-74.243
X144.043Y-74.243
X152.883Y-74.243
X163.043Y-74.243
X95.883Y-131.243
X106.043Y-131.243
X152.883Y-93.243
X163.043Y-93.243
X209.883Y-93.243
X220.043Y-93.243
X190.883Y-131.243
X201.043Y-131.243
X247.883Y-74.168
X258.043Y-74.168
X228.883Y-112.243
X239.043Y-112.243
X76.883Y-93.243
X87.043Y-93.243
X171.883Y-74.243
X182.043Y-74.243
X209.883Y-74.243
X220.043Y-74.243
X209.883Y-112.243
X220.043Y-112.243
X171.883Y-93.243
X182.043Y-93.243
X143.383Y-131.243
X153.543Y-131.243
X228.883Y-93.243
X239.043Y-93.243
X38.883Y-112.268
X49.043Y-112.268
X38.883Y-131.243
X49.043Y-131.243
X247.883Y-112.268
X258.043Y-112.268
X191.008Y-74.243
X201.168Y-74.243
X57.883Y-93.243
X68.043Y-93.243
X190.883Y-93.243
X201.043Y-93.243
T15
X117.525Y-138.228
X141.401Y-138.228
X136.525Y-138.228
X160.401Y-138.228
X155.525Y-138.228
X179.401Y-138.228
T16
X157.963Y-112.243
X176.963Y-131.243
X62.963Y-74.243
X43.963Y-74.243
X43.963Y-93.243
X119.963Y-131.243
X233.963Y-131.243
X100.963Y-74.243
X138.963Y-74.243
X157.963Y-74.243
X100.963Y-131.243
X157.963Y-93.243
X214.963Y-93.243
X195.963Y-131.243
X252.963Y-74.168
X233.963Y-112.243
X81.963Y-93.243
X176.963Y-74.243
X214.963Y-74.243
X214.963Y-112.243
X176.963Y-93.243
X136.525Y-122.988
X148.463Y-131.243
X160.401Y-122.988
X233.963Y-93.243
X43.963Y-112.268
X43.963Y-131.243
X252.963Y-112.268
X196.088Y-74.243
X62.963Y-93.243
X195.963Y-93.243
X81.963Y-112.268
X252.963Y-93.243
X62.963Y-112.268
X176.963Y-112.243
X62.963Y-131.243
X119.963Y-93.243
X100.963Y-93.243
X119.963Y-112.243
X233.963Y-74.243
X138.963Y-131.243
X252.963Y-131.243
X195.963Y-112.243
X81.963Y-131.243
X138.963Y-93.243
X155.525Y-122.988
X167.463Y-131.243
X179.401Y-122.988
X119.963Y-74.243
X100.963Y-112.243
X138.938Y-112.243
X157.963Y-131.243
X117.525Y-122.988
X129.463Y-131.243
X141.401Y-122.988
X81.963Y-74.243
X214.963Y-131.243
T5
X220.163Y-67.359G85X220.163Y-66.759
G05
X220.163Y-71.809G85X220.163Y-70.709
G05
X228.763Y-67.359G85X228.763Y-66.759
G05
X228.763Y-71.809G85X228.763Y-70.709
G05
T10
X37.713Y-131.793G85X37.713Y-130.693
G05
X50.213Y-131.793G85X50.213Y-130.693
G05
T0
M30
