G04 #@! TF.GenerationSoftware,KiCad,Pcbnew,5.0.1*
G04 #@! TF.CreationDate,2019-03-13T00:02:55-03:00*
G04 #@! TF.ProjectId,shark,736861726B2E6B696361645F70636200,V3.1.2*
G04 #@! TF.SameCoordinates,Original*
G04 #@! TF.FileFunction,Profile,NP*
%FSLAX46Y46*%
G04 Gerber Fmt 4.6, Leading zero omitted, Abs format (unit mm)*
G04 Created by KiCad (PCBNEW 5.0.1) date Wed 13 Mar 2019 12:02:55 AM -03*
%MOMM*%
%LPD*%
G01*
G04 APERTURE LIST*
%ADD10C,0.150000*%
G04 APERTURE END LIST*
D10*
X255270000Y-66294000D02*
G75*
G02X261239000Y-72263000I0J-5969000D01*
G01*
X230124000Y-66294000D02*
G75*
G02X229489000Y-65659000I0J635000D01*
G01*
X228854000Y-64516000D02*
G75*
G02X229489000Y-65151000I0J-635000D01*
G01*
X219456000Y-65151000D02*
G75*
G02X220091000Y-64516000I635000J0D01*
G01*
X219456000Y-65659000D02*
G75*
G02X218821000Y-66294000I-635000J0D01*
G01*
X35687000Y-72263000D02*
G75*
G02X41656000Y-66294000I5969000J0D01*
G01*
X41656000Y-139319000D02*
G75*
G02X35687000Y-133350000I0J5969000D01*
G01*
X261239000Y-133350000D02*
G75*
G02X255270000Y-139319000I-5969000J0D01*
G01*
X246330134Y-121743064D02*
G75*
G03X246330134Y-121743064I-2866814J0D01*
G01*
X246330134Y-83742936D02*
G75*
G03X246330134Y-83742936I-2866814J0D01*
G01*
X151329814Y-102743000D02*
G75*
G03X151329814Y-102743000I-2866814J0D01*
G01*
X56329814Y-121743064D02*
G75*
G03X56329814Y-121743064I-2866814J0D01*
G01*
X56329494Y-83742936D02*
G75*
G03X56329494Y-83742936I-2866814J0D01*
G01*
X220091000Y-64516000D02*
X228854000Y-64516000D01*
X219456000Y-65659000D02*
X219456000Y-65151000D01*
X229489000Y-65659000D02*
X229489000Y-65151000D01*
X35687000Y-133350000D02*
X35687000Y-72263000D01*
X255270000Y-139319000D02*
X41656000Y-139319000D01*
X261239000Y-72263000D02*
X261239000Y-133350000D01*
X230124000Y-66294000D02*
X255270000Y-66294000D01*
X41656000Y-66294000D02*
X218821000Y-66294000D01*
M02*
