<?xml version="1.0" encoding="UTF-8" standalone="no"?>
<!-- Created with Inkscape (http://www.inkscape.org/) -->

<svg
   xmlns:dc="http://purl.org/dc/elements/1.1/"
   xmlns:cc="http://creativecommons.org/ns#"
   xmlns:rdf="http://www.w3.org/1999/02/22-rdf-syntax-ns#"
   xmlns:svg="http://www.w3.org/2000/svg"
   xmlns="http://www.w3.org/2000/svg"
   xmlns:sodipodi="http://sodipodi.sourceforge.net/DTD/sodipodi-0.dtd"
   xmlns:inkscape="http://www.inkscape.org/namespaces/inkscape"
   version="1.1"
   id="svg2"
   xml:space="preserve"
   width="2664.8516"
   height="228.44746"
   viewBox="0 0 2664.8515 228.44747"
   sodipodi:docname="acheronDocs.svg"
   inkscape:version="0.92.4 5da689c313, 2019-01-14"
   inkscape:export-filename="/home/alvaro/Desktop/SharkPCB/sharkLogo/shark.png"
   inkscape:export-xdpi="1000"
   inkscape:export-ydpi="1000"><metadata
     id="metadata8"><rdf:RDF><cc:Work
         rdf:about=""><dc:format>image/svg+xml</dc:format><dc:type
           rdf:resource="http://purl.org/dc/dcmitype/StillImage" /><dc:title></dc:title></cc:Work></rdf:RDF></metadata><defs
     id="defs6" /><sodipodi:namedview
     pagecolor="#ffffff"
     bordercolor="#666666"
     borderopacity="1"
     objecttolerance="10"
     gridtolerance="10"
     guidetolerance="10"
     inkscape:pageopacity="0"
     inkscape:pageshadow="2"
     inkscape:window-width="1920"
     inkscape:window-height="1052"
     id="namedview4"
     showgrid="false"
     inkscape:zoom="0.14866306"
     inkscape:cx="2581.9809"
     inkscape:cy="554.26184"
     inkscape:window-x="1920"
     inkscape:window-y="200"
     inkscape:window-maximized="1"
     inkscape:current-layer="g10"
     fit-margin-top="0"
     fit-margin-left="0"
     fit-margin-right="0"
     fit-margin-bottom="0"
     inkscape:snap-object-midpoints="true"
     inkscape:snap-center="true" /><g
     id="g10"
     inkscape:groupmode="layer"
     inkscape:label="shark"
     transform="matrix(1.3333333,0,0,-1.3333333,-663.48977,772.30226)"><flowRoot
       xml:space="preserve"
       id="flowRoot874"
       style="font-style:normal;font-weight:normal;font-size:40px;line-height:1.25;font-family:sans-serif;letter-spacing:0px;word-spacing:0px;fill:#353130;fill-opacity:1;stroke:none"
       transform="matrix(6.0843608,0,0,-6.0843608,6936.7487,1780.1295)"
       inkscape:export-xdpi="1000"
       inkscape:export-ydpi="1000"><flowRegion
         id="flowRegion870"
         style="fill:#353130;fill-opacity:1"><rect
           id="rect868"
           width="851.40259"
           height="596.93311"
           x="-1058.3077"
           y="254.81065"
           style="fill:#353130;fill-opacity:1" /></flowRegion><flowPara
         id="flowPara872"
         style="font-style:normal;font-variant:normal;font-weight:normal;font-stretch:normal;font-family:Pirulen;-inkscape-font-specification:Pirulen;fill:#353130;fill-opacity:1">acheron</flowPara></flowRoot><flowRoot
       inkscape:export-ydpi="1000"
       inkscape:export-xdpi="1000"
       transform="matrix(2.0578738,0,0,-2.0578738,4356.5364,724.90748)"
       style="font-style:normal;font-weight:normal;font-size:40px;line-height:1.25;font-family:sans-serif;letter-spacing:0px;word-spacing:0px;fill:#353130;fill-opacity:1;stroke:none"
       id="flowRoot882"
       xml:space="preserve"><flowRegion
         style="fill:#353130;fill-opacity:1"
         id="flowRegion878"><rect
           style="fill:#353130;fill-opacity:1"
           y="254.81065"
           x="-1058.3077"
           height="596.93311"
           width="851.40259"
           id="rect876" /></flowRegion><flowPara
         style="font-style:normal;font-variant:normal;font-weight:normal;font-stretch:normal;font-family:Pirulen;-inkscape-font-specification:Pirulen;fill:#353130;fill-opacity:1"
         id="flowPara880">docs</flowPara></flowRoot><g
       id="g894"
       transform="matrix(0.56458802,0,0,0.56458802,-1521.8986,-116.47364)" /><g
       aria-label="acheron"
       transform="matrix(6.0843608,0,0,-6.0843608,6936.7487,2173.6368)"
       style="font-style:normal;font-weight:normal;font-size:40px;line-height:1.25;font-family:sans-serif;letter-spacing:0px;word-spacing:0px;fill:#353130;fill-opacity:1;stroke:none"
       id="flowRoot956"><path
         d="m -1058.3086,290.21055 z m 35.2,0 -14.52,-22.68 -14.76,22.68 h -5.92 l 18.72,-28.16 h 3.88 l 18.6,28.16 z"
         style="font-style:normal;font-variant:normal;font-weight:normal;font-stretch:normal;font-family:Pirulen;-inkscape-font-specification:Pirulen;fill:#353130;fill-opacity:1"
         id="path966"
         inkscape:connector-curvature="0" /><path
         d="m -1014.7367,290.21055 z m 8.84,0 q -2.4,0 -4.08,-0.48 -1.68,-0.52 -2.76,-1.4 -1.04,-0.92 -1.52,-2.16 -0.48,-1.24 -0.48,-2.76 v -14.56 q 0,-1.52 0.48,-2.76 0.48,-1.24 1.52,-2.12 1.08,-0.92 2.76,-1.4 1.68,-0.52 4.08,-0.52 h 22.67998 v 4.16 h -22.67998 q -3.52,0 -3.52,2.6 v 14.64 q 0,2.6 3.52,2.6 h 22.67998 v 4.16 z"
         style="font-style:normal;font-variant:normal;font-weight:normal;font-stretch:normal;font-family:Pirulen;-inkscape-font-specification:Pirulen;fill:#353130;fill-opacity:1"
         id="path968"
         inkscape:connector-curvature="0" /><path
         d="m -978.75547,290.21055 z m 28.36,0 v -12.8 h -23.04 v 12.8 h -5.32 v -28.16 h 5.32 v 11.2 h 23.04 v -11.2 h 5.32 v 28.16 z"
         style="font-style:normal;font-variant:normal;font-weight:normal;font-stretch:normal;font-family:Pirulen;-inkscape-font-specification:Pirulen;fill:#353130;fill-opacity:1"
         id="path970"
         inkscape:connector-curvature="0" /><path
         d="m -939.84922,290.21055 z m 0,0 v -28.16 h 28.96 v 4.16 h -23.64 v 7.04 h 22.44 v 4.16 h -22.44 v 8.64 h 23.64 v 4.16 z"
         style="font-style:normal;font-variant:normal;font-weight:normal;font-stretch:normal;font-family:Pirulen;-inkscape-font-specification:Pirulen;fill:#353130;fill-opacity:1"
         id="path972"
         inkscape:connector-curvature="0" /><path
         d="m -906.33359,290.21055 z m 26.76,0 -6.6,-12.56 h -14.84 v 12.56 h -5.32 v -28.16 h 23.92 q 2.4,0 4.08,0.52 1.68,0.48 2.72,1.4 1.08,0.88 1.56,2.12 0.48,1.24 0.48,2.76 v 2 q 0,2.72 -1.6,4.56 -1.6,1.8 -5.36,2.16 l 6.64,12.64 z m 0.68,-21.4 q 0,-2.6 -3.52,-2.6 h -18.6 v 7.28 h 18.6 q 3.52,0 3.52,-2.6 z"
         style="font-style:normal;font-variant:normal;font-weight:normal;font-stretch:normal;font-family:Pirulen;-inkscape-font-specification:Pirulen;fill:#353130;fill-opacity:1"
         id="path974"
         inkscape:connector-curvature="0" /><path
         d="m -869.50234,290.21055 z m 8.84,0 q -2.4,0 -4.08,-0.48 -1.68,-0.52 -2.76,-1.4 -1.04,-0.92 -1.52,-2.16 -0.48,-1.24 -0.48,-2.76 v -14.56 q 0,-1.52 0.48,-2.76 0.48,-1.24 1.52,-2.12 1.08,-0.92 2.76,-1.4 1.68,-0.52 4.08,-0.52 h 18.6 q 2.4,0 4.08,0.52 1.68,0.48 2.72,1.4 1.08,0.88 1.56,2.12 0.48,1.24 0.48,2.76 v 14.56 q 0,1.52 -0.48,2.76 -0.48,1.24 -1.56,2.16 -1.04,0.88 -2.72,1.4 -1.68,0.48 -4.08,0.48 z m 22.12,-21.4 q 0,-2.6 -3.52,-2.6 h -18.6 q -3.52,0 -3.52,2.6 v 14.64 q 0,2.6 3.52,2.6 h 18.6 q 3.52,0 3.52,-2.6 z"
         style="font-style:normal;font-variant:normal;font-weight:normal;font-stretch:normal;font-family:Pirulen;-inkscape-font-specification:Pirulen;fill:#353130;fill-opacity:1"
         id="path976"
         inkscape:connector-curvature="0" /><path
         d="m -828.20859,290.21055 z m 34.68,0 -30.04,-21.92 v 21.92 h -4.64 v -28.16 h 4.6 l 28.04,20.92 v -20.92 h 4.64 v 28.16 z"
         style="font-style:normal;font-variant:normal;font-weight:normal;font-stretch:normal;font-family:Pirulen;-inkscape-font-specification:Pirulen;fill:#353130;fill-opacity:1"
         id="path978"
         inkscape:connector-curvature="0" /></g><g
       aria-label="docs"
       transform="matrix(2.0578738,0,0,-2.0578738,4356.5364,1118.4148)"
       style="font-style:normal;font-weight:normal;font-size:40px;line-height:1.25;font-family:sans-serif;letter-spacing:0px;word-spacing:0px;fill:#353130;fill-opacity:1;stroke:none"
       id="flowRoot964"><path
         d="m -1055.7086,290.21055 z m 0,0 v -28.16 h 25.8 q 3,0 5,0.52 2,0.52 3.2,1.56 1.2,1.04 1.68,2.6 0.52,1.56 0.52,3.64 v 11.8 q 0,2 -0.52,3.52 -0.48,1.48 -1.68,2.48 -1.2,1 -3.2,1.52 -2,0.52 -5,0.52 z m 30.88,-19.84 q 0,-1.2 -0.24,-2 -0.24,-0.8 -0.84,-1.28 -0.56,-0.48 -1.56,-0.68 -0.96,-0.2 -2.44,-0.2 h -20.48 v 19.84 h 20.48 q 1.48,0 2.44,-0.2 1,-0.2 1.56,-0.64 0.6,-0.44 0.84,-1.2 0.24,-0.76 0.24,-1.88 z"
         style="font-style:normal;font-variant:normal;font-weight:normal;font-stretch:normal;font-family:Pirulen;-inkscape-font-specification:Pirulen;fill:#353130;fill-opacity:1"
         id="path981"
         inkscape:connector-curvature="0" /><path
         d="m -1014.7367,290.21055 z m 8.84,0 q -2.4,0 -4.08,-0.48 -1.68,-0.52 -2.76,-1.4 -1.04,-0.92 -1.52,-2.16 -0.48,-1.24 -0.48,-2.76 v -14.56 q 0,-1.52 0.48,-2.76 0.48,-1.24 1.52,-2.12 1.08,-0.92 2.76,-1.4 1.68,-0.52 4.08,-0.52 h 18.59998 q 2.4,0 4.08,0.52 1.68,0.48 2.72,1.4 1.08,0.88 1.56,2.12 0.48,1.24 0.48,2.76 v 14.56 q 0,1.52 -0.48,2.76 -0.48,1.24 -1.56,2.16 -1.04,0.88 -2.72,1.4 -1.68,0.48 -4.08,0.48 z m 22.11998,-21.4 q 0,-2.6 -3.52,-2.6 h -18.59998 q -3.52,0 -3.52,2.6 v 14.64 q 0,2.6 3.52,2.6 h 18.59998 q 3.52,0 3.52,-2.6 z"
         style="font-style:normal;font-variant:normal;font-weight:normal;font-stretch:normal;font-family:Pirulen;-inkscape-font-specification:Pirulen;fill:#353130;fill-opacity:1"
         id="path983"
         inkscape:connector-curvature="0" /><path
         d="m -973.64297,290.21055 z m 8.84,0 q -2.4,0 -4.08,-0.48 -1.68,-0.52 -2.76,-1.4 -1.04,-0.92 -1.52,-2.16 -0.48,-1.24 -0.48,-2.76 v -14.56 q 0,-1.52 0.48,-2.76 0.48,-1.24 1.52,-2.12 1.08,-0.92 2.76,-1.4 1.68,-0.52 4.08,-0.52 h 22.68 v 4.16 h -22.68 q -3.52,0 -3.52,2.6 v 14.64 q 0,2.6 3.52,2.6 h 22.68 v 4.16 z"
         style="font-style:normal;font-variant:normal;font-weight:normal;font-stretch:normal;font-family:Pirulen;-inkscape-font-specification:Pirulen;fill:#353130;fill-opacity:1"
         id="path985"
         inkscape:connector-curvature="0" /><path
         d="m -938.22172,290.21055 z m 0.92,0 v -4.16 h 24.48 q 3.52,0 3.52,-2.6 v -3.56 q 0,-2.6 -3.52,-2.6 h -16.56 q -2.4,0 -4.08,-0.48 -1.68,-0.52 -2.76,-1.4 -1.04,-0.92 -1.52,-2.16 -0.48,-1.24 -0.48,-2.76 v -1.64 q 0,-1.52 0.48,-2.76 0.48,-1.24 1.52,-2.12 1.08,-0.92 2.76,-1.4 1.68,-0.52 4.08,-0.52 h 23.84 v 4.16 h -23.84 q -3.52,0 -3.52,2.6 v 1.72 q 0,2.6 3.52,2.6 h 16.56 q 2.4,0 4.08,0.52 1.68,0.48 2.72,1.4 1.08,0.88 1.56,2.12 0.48,1.24 0.48,2.76 v 3.48 q 0,1.52 -0.48,2.76 -0.48,1.24 -1.56,2.16 -1.04,0.88 -2.72,1.4 -1.68,0.48 -4.08,0.48 z"
         style="font-style:normal;font-variant:normal;font-weight:normal;font-stretch:normal;font-family:Pirulen;-inkscape-font-specification:Pirulen;fill:#353130;fill-opacity:1"
         id="path987"
         inkscape:connector-curvature="0" /></g></g></svg>