G04 #@! TF.GenerationSoftware,KiCad,Pcbnew,5.0.1*
G04 #@! TF.CreationDate,2018-11-17T22:40:09-02:00*
G04 #@! TF.ProjectId,plate,706C6174652E6B696361645F70636200,rev?*
G04 #@! TF.SameCoordinates,Original*
G04 #@! TF.FileFunction,Legend,Top*
G04 #@! TF.FilePolarity,Positive*
%FSLAX46Y46*%
G04 Gerber Fmt 4.6, Leading zero omitted, Abs format (unit mm)*
G04 Created by KiCad (PCBNEW 5.0.1) date Sat 17 Nov 2018 10:40:09 PM -02*
%MOMM*%
%LPD*%
G01*
G04 APERTURE LIST*
%ADD10C,0.150000*%
%ADD11C,0.300000*%
%ADD12C,0.250000*%
G04 APERTURE END LIST*
D10*
X243189252Y-102601728D02*
G75*
G03X243189252Y-102601728I-29688J0D01*
G01*
D11*
X26291071Y-108885714D02*
X26291071Y-107885714D01*
X27791071Y-108528571D01*
X26291071Y-106671428D02*
X26291071Y-106957142D01*
X26362500Y-107100000D01*
X26433928Y-107171428D01*
X26648214Y-107314285D01*
X26933928Y-107385714D01*
X27505357Y-107385714D01*
X27648214Y-107314285D01*
X27719642Y-107242857D01*
X27791071Y-107100000D01*
X27791071Y-106814285D01*
X27719642Y-106671428D01*
X27648214Y-106600000D01*
X27505357Y-106528571D01*
X27148214Y-106528571D01*
X27005357Y-106600000D01*
X26933928Y-106671428D01*
X26862500Y-106814285D01*
X26862500Y-107100000D01*
X26933928Y-107242857D01*
X27005357Y-107314285D01*
X27148214Y-107385714D01*
X27648214Y-105885714D02*
X27719642Y-105814285D01*
X27791071Y-105885714D01*
X27719642Y-105957142D01*
X27648214Y-105885714D01*
X27791071Y-105885714D01*
X27791071Y-105100000D02*
X27791071Y-104814285D01*
X27719642Y-104671428D01*
X27648214Y-104600000D01*
X27433928Y-104457142D01*
X27148214Y-104385714D01*
X26576785Y-104385714D01*
X26433928Y-104457142D01*
X26362500Y-104528571D01*
X26291071Y-104671428D01*
X26291071Y-104957142D01*
X26362500Y-105100000D01*
X26433928Y-105171428D01*
X26576785Y-105242857D01*
X26933928Y-105242857D01*
X27076785Y-105171428D01*
X27148214Y-105100000D01*
X27219642Y-104957142D01*
X27219642Y-104671428D01*
X27148214Y-104528571D01*
X27076785Y-104457142D01*
X26933928Y-104385714D01*
X26291071Y-103028571D02*
X26291071Y-103742857D01*
X27005357Y-103814285D01*
X26933928Y-103742857D01*
X26862500Y-103600000D01*
X26862500Y-103242857D01*
X26933928Y-103100000D01*
X27005357Y-103028571D01*
X27148214Y-102957142D01*
X27505357Y-102957142D01*
X27648214Y-103028571D01*
X27719642Y-103100000D01*
X27791071Y-103242857D01*
X27791071Y-103600000D01*
X27719642Y-103742857D01*
X27648214Y-103814285D01*
X26291071Y-102028571D02*
X26291071Y-101885714D01*
X26362500Y-101742857D01*
X26433928Y-101671428D01*
X26576785Y-101600000D01*
X26862500Y-101528571D01*
X27219642Y-101528571D01*
X27505357Y-101600000D01*
X27648214Y-101671428D01*
X27719642Y-101742857D01*
X27791071Y-101885714D01*
X27791071Y-102028571D01*
X27719642Y-102171428D01*
X27648214Y-102242857D01*
X27505357Y-102314285D01*
X27219642Y-102385714D01*
X26862500Y-102385714D01*
X26576785Y-102314285D01*
X26433928Y-102242857D01*
X26362500Y-102171428D01*
X26291071Y-102028571D01*
X27791071Y-99742857D02*
X26791071Y-99742857D01*
X26933928Y-99742857D02*
X26862500Y-99671428D01*
X26791071Y-99528571D01*
X26791071Y-99314285D01*
X26862500Y-99171428D01*
X27005357Y-99100000D01*
X27791071Y-99100000D01*
X27005357Y-99100000D02*
X26862500Y-99028571D01*
X26791071Y-98885714D01*
X26791071Y-98671428D01*
X26862500Y-98528571D01*
X27005357Y-98457142D01*
X27791071Y-98457142D01*
X27791071Y-97742857D02*
X26791071Y-97742857D01*
X26933928Y-97742857D02*
X26862500Y-97671428D01*
X26791071Y-97528571D01*
X26791071Y-97314285D01*
X26862500Y-97171428D01*
X27005357Y-97100000D01*
X27791071Y-97100000D01*
X27005357Y-97100000D02*
X26862500Y-97028571D01*
X26791071Y-96885714D01*
X26791071Y-96671428D01*
X26862500Y-96528571D01*
X27005357Y-96457142D01*
X27791071Y-96457142D01*
X29212500Y-141075000D02*
X29212500Y-64125000D01*
X33725000Y-141075000D02*
X28626079Y-141075000D01*
X33725000Y-64125000D02*
X28626079Y-64125000D01*
X29212500Y-64125000D02*
X29798921Y-65251504D01*
X29212500Y-64125000D02*
X28626079Y-65251504D01*
X29212500Y-141075000D02*
X29798921Y-139948496D01*
X29212500Y-141075000D02*
X28626079Y-139948496D01*
X141271428Y-151046428D02*
X141342857Y-150975000D01*
X141485714Y-150903571D01*
X141842857Y-150903571D01*
X141985714Y-150975000D01*
X142057142Y-151046428D01*
X142128571Y-151189285D01*
X142128571Y-151332142D01*
X142057142Y-151546428D01*
X141200000Y-152403571D01*
X142128571Y-152403571D01*
X142700000Y-151046428D02*
X142771428Y-150975000D01*
X142914285Y-150903571D01*
X143271428Y-150903571D01*
X143414285Y-150975000D01*
X143485714Y-151046428D01*
X143557142Y-151189285D01*
X143557142Y-151332142D01*
X143485714Y-151546428D01*
X142628571Y-152403571D01*
X143557142Y-152403571D01*
X144414285Y-151546428D02*
X144271428Y-151475000D01*
X144200000Y-151403571D01*
X144128571Y-151260714D01*
X144128571Y-151189285D01*
X144200000Y-151046428D01*
X144271428Y-150975000D01*
X144414285Y-150903571D01*
X144700000Y-150903571D01*
X144842857Y-150975000D01*
X144914285Y-151046428D01*
X144985714Y-151189285D01*
X144985714Y-151260714D01*
X144914285Y-151403571D01*
X144842857Y-151475000D01*
X144700000Y-151546428D01*
X144414285Y-151546428D01*
X144271428Y-151617857D01*
X144200000Y-151689285D01*
X144128571Y-151832142D01*
X144128571Y-152117857D01*
X144200000Y-152260714D01*
X144271428Y-152332142D01*
X144414285Y-152403571D01*
X144700000Y-152403571D01*
X144842857Y-152332142D01*
X144914285Y-152260714D01*
X144985714Y-152117857D01*
X144985714Y-151832142D01*
X144914285Y-151689285D01*
X144842857Y-151617857D01*
X144700000Y-151546428D01*
X145628571Y-152260714D02*
X145700000Y-152332142D01*
X145628571Y-152403571D01*
X145557142Y-152332142D01*
X145628571Y-152260714D01*
X145628571Y-152403571D01*
X146414285Y-152403571D02*
X146700000Y-152403571D01*
X146842857Y-152332142D01*
X146914285Y-152260714D01*
X147057142Y-152046428D01*
X147128571Y-151760714D01*
X147128571Y-151189285D01*
X147057142Y-151046428D01*
X146985714Y-150975000D01*
X146842857Y-150903571D01*
X146557142Y-150903571D01*
X146414285Y-150975000D01*
X146342857Y-151046428D01*
X146271428Y-151189285D01*
X146271428Y-151546428D01*
X146342857Y-151689285D01*
X146414285Y-151760714D01*
X146557142Y-151832142D01*
X146842857Y-151832142D01*
X146985714Y-151760714D01*
X147057142Y-151689285D01*
X147128571Y-151546428D01*
X148485714Y-150903571D02*
X147771428Y-150903571D01*
X147700000Y-151617857D01*
X147771428Y-151546428D01*
X147914285Y-151475000D01*
X148271428Y-151475000D01*
X148414285Y-151546428D01*
X148485714Y-151617857D01*
X148557142Y-151760714D01*
X148557142Y-152117857D01*
X148485714Y-152260714D01*
X148414285Y-152332142D01*
X148271428Y-152403571D01*
X147914285Y-152403571D01*
X147771428Y-152332142D01*
X147700000Y-152260714D01*
X149485714Y-150903571D02*
X149628571Y-150903571D01*
X149771428Y-150975000D01*
X149842857Y-151046428D01*
X149914285Y-151189285D01*
X149985714Y-151475000D01*
X149985714Y-151832142D01*
X149914285Y-152117857D01*
X149842857Y-152260714D01*
X149771428Y-152332142D01*
X149628571Y-152403571D01*
X149485714Y-152403571D01*
X149342857Y-152332142D01*
X149271428Y-152260714D01*
X149200000Y-152117857D01*
X149128571Y-151832142D01*
X149128571Y-151475000D01*
X149200000Y-151189285D01*
X149271428Y-151046428D01*
X149342857Y-150975000D01*
X149485714Y-150903571D01*
X151771428Y-152403571D02*
X151771428Y-151403571D01*
X151771428Y-151546428D02*
X151842857Y-151475000D01*
X151985714Y-151403571D01*
X152200000Y-151403571D01*
X152342857Y-151475000D01*
X152414285Y-151617857D01*
X152414285Y-152403571D01*
X152414285Y-151617857D02*
X152485714Y-151475000D01*
X152628571Y-151403571D01*
X152842857Y-151403571D01*
X152985714Y-151475000D01*
X153057142Y-151617857D01*
X153057142Y-152403571D01*
X153771428Y-152403571D02*
X153771428Y-151403571D01*
X153771428Y-151546428D02*
X153842857Y-151475000D01*
X153985714Y-151403571D01*
X154200000Y-151403571D01*
X154342857Y-151475000D01*
X154414285Y-151617857D01*
X154414285Y-152403571D01*
X154414285Y-151617857D02*
X154485714Y-151475000D01*
X154628571Y-151403571D01*
X154842857Y-151403571D01*
X154985714Y-151475000D01*
X155057142Y-151617857D01*
X155057142Y-152403571D01*
X33725000Y-149625000D02*
X262675000Y-149625000D01*
X33725000Y-142975000D02*
X33725000Y-150211421D01*
X262675000Y-142975000D02*
X262675000Y-150211421D01*
X262675000Y-149625000D02*
X261548496Y-150211421D01*
X262675000Y-149625000D02*
X261548496Y-149038579D01*
X33725000Y-149625000D02*
X34851504Y-150211421D01*
X33725000Y-149625000D02*
X34851504Y-149038579D01*
D12*
X47221428Y-120225000D02*
X47126190Y-120177380D01*
X46983333Y-120177380D01*
X46840476Y-120225000D01*
X46745238Y-120320238D01*
X46697619Y-120415476D01*
X46650000Y-120605952D01*
X46650000Y-120748809D01*
X46697619Y-120939285D01*
X46745238Y-121034523D01*
X46840476Y-121129761D01*
X46983333Y-121177380D01*
X47078571Y-121177380D01*
X47221428Y-121129761D01*
X47269047Y-121082142D01*
X47269047Y-120748809D01*
X47078571Y-120748809D01*
X47840476Y-121177380D02*
X47745238Y-121129761D01*
X47697619Y-121082142D01*
X47650000Y-120986904D01*
X47650000Y-120701190D01*
X47697619Y-120605952D01*
X47745238Y-120558333D01*
X47840476Y-120510714D01*
X47983333Y-120510714D01*
X48078571Y-120558333D01*
X48126190Y-120605952D01*
X48173809Y-120701190D01*
X48173809Y-120986904D01*
X48126190Y-121082142D01*
X48078571Y-121129761D01*
X47983333Y-121177380D01*
X47840476Y-121177380D01*
X48602380Y-120510714D02*
X48602380Y-121177380D01*
X48602380Y-120605952D02*
X48650000Y-120558333D01*
X48745238Y-120510714D01*
X48888095Y-120510714D01*
X48983333Y-120558333D01*
X49030952Y-120653571D01*
X49030952Y-121177380D01*
X49935714Y-121177380D02*
X49935714Y-120177380D01*
X49935714Y-121129761D02*
X49840476Y-121177380D01*
X49650000Y-121177380D01*
X49554761Y-121129761D01*
X49507142Y-121082142D01*
X49459523Y-120986904D01*
X49459523Y-120701190D01*
X49507142Y-120605952D01*
X49554761Y-120558333D01*
X49650000Y-120510714D01*
X49840476Y-120510714D01*
X49935714Y-120558333D01*
X50554761Y-121177380D02*
X50459523Y-121129761D01*
X50411904Y-121082142D01*
X50364285Y-120986904D01*
X50364285Y-120701190D01*
X50411904Y-120605952D01*
X50459523Y-120558333D01*
X50554761Y-120510714D01*
X50697619Y-120510714D01*
X50792857Y-120558333D01*
X50840476Y-120605952D01*
X50888095Y-120701190D01*
X50888095Y-120986904D01*
X50840476Y-121082142D01*
X50792857Y-121129761D01*
X50697619Y-121177380D01*
X50554761Y-121177380D01*
X51459523Y-121177380D02*
X51364285Y-121129761D01*
X51316666Y-121034523D01*
X51316666Y-120177380D01*
X51840476Y-121177380D02*
X51840476Y-120510714D01*
X51840476Y-120177380D02*
X51792857Y-120225000D01*
X51840476Y-120272619D01*
X51888095Y-120225000D01*
X51840476Y-120177380D01*
X51840476Y-120272619D01*
X52316666Y-120510714D02*
X52316666Y-121177380D01*
X52316666Y-120605952D02*
X52364285Y-120558333D01*
X52459523Y-120510714D01*
X52602380Y-120510714D01*
X52697619Y-120558333D01*
X52745238Y-120653571D01*
X52745238Y-121177380D01*
X53221428Y-120653571D02*
X53554761Y-120653571D01*
X53697619Y-121177380D02*
X53221428Y-121177380D01*
X53221428Y-120177380D01*
X53697619Y-120177380D01*
X54269047Y-121177380D02*
X54173809Y-121129761D01*
X54126190Y-121034523D01*
X54126190Y-120177380D01*
X55030952Y-121129761D02*
X54935714Y-121177380D01*
X54745238Y-121177380D01*
X54649999Y-121129761D01*
X54602380Y-121034523D01*
X54602380Y-120653571D01*
X54649999Y-120558333D01*
X54745238Y-120510714D01*
X54935714Y-120510714D01*
X55030952Y-120558333D01*
X55078571Y-120653571D01*
X55078571Y-120748809D01*
X54602380Y-120844047D01*
X55935714Y-121129761D02*
X55840476Y-121177380D01*
X55649999Y-121177380D01*
X55554761Y-121129761D01*
X55507142Y-121082142D01*
X55459523Y-120986904D01*
X55459523Y-120701190D01*
X55507142Y-120605952D01*
X55554761Y-120558333D01*
X55649999Y-120510714D01*
X55840476Y-120510714D01*
X55935714Y-120558333D01*
X56221428Y-120510714D02*
X56602380Y-120510714D01*
X56364285Y-120177380D02*
X56364285Y-121034523D01*
X56411904Y-121129761D01*
X56507142Y-121177380D01*
X56602380Y-121177380D01*
X56935714Y-121177380D02*
X56935714Y-120510714D01*
X56935714Y-120701190D02*
X56983333Y-120605952D01*
X57030952Y-120558333D01*
X57126190Y-120510714D01*
X57221428Y-120510714D01*
X57697619Y-121177380D02*
X57602380Y-121129761D01*
X57554761Y-121082142D01*
X57507142Y-120986904D01*
X57507142Y-120701190D01*
X57554761Y-120605952D01*
X57602380Y-120558333D01*
X57697619Y-120510714D01*
X57840476Y-120510714D01*
X57935714Y-120558333D01*
X57983333Y-120605952D01*
X58030952Y-120701190D01*
X58030952Y-120986904D01*
X57983333Y-121082142D01*
X57935714Y-121129761D01*
X57840476Y-121177380D01*
X57697619Y-121177380D01*
X58459523Y-120510714D02*
X58459523Y-121177380D01*
X58459523Y-120605952D02*
X58507142Y-120558333D01*
X58602380Y-120510714D01*
X58745238Y-120510714D01*
X58840476Y-120558333D01*
X58888095Y-120653571D01*
X58888095Y-121177380D01*
X59364285Y-121177380D02*
X59364285Y-120510714D01*
X59364285Y-120177380D02*
X59316666Y-120225000D01*
X59364285Y-120272619D01*
X59411904Y-120225000D01*
X59364285Y-120177380D01*
X59364285Y-120272619D01*
X60269047Y-121129761D02*
X60173809Y-121177380D01*
X59983333Y-121177380D01*
X59888095Y-121129761D01*
X59840476Y-121082142D01*
X59792857Y-120986904D01*
X59792857Y-120701190D01*
X59840476Y-120605952D01*
X59888095Y-120558333D01*
X59983333Y-120510714D01*
X60173809Y-120510714D01*
X60269047Y-120558333D01*
X60649999Y-121129761D02*
X60745238Y-121177380D01*
X60935714Y-121177380D01*
X61030952Y-121129761D01*
X61078571Y-121034523D01*
X61078571Y-120986904D01*
X61030952Y-120891666D01*
X60935714Y-120844047D01*
X60792857Y-120844047D01*
X60697619Y-120796428D01*
X60649999Y-120701190D01*
X60649999Y-120653571D01*
X60697619Y-120558333D01*
X60792857Y-120510714D01*
X60935714Y-120510714D01*
X61030952Y-120558333D01*
X62269047Y-120177380D02*
X62269047Y-120986904D01*
X62316666Y-121082142D01*
X62364285Y-121129761D01*
X62459523Y-121177380D01*
X62649999Y-121177380D01*
X62745238Y-121129761D01*
X62792857Y-121082142D01*
X62840476Y-120986904D01*
X62840476Y-120177380D01*
X63316666Y-120510714D02*
X63316666Y-121177380D01*
X63316666Y-120605952D02*
X63364285Y-120558333D01*
X63459523Y-120510714D01*
X63602380Y-120510714D01*
X63697619Y-120558333D01*
X63745238Y-120653571D01*
X63745238Y-121177380D01*
X64649999Y-121177380D02*
X64649999Y-120177380D01*
X64649999Y-121129761D02*
X64554761Y-121177380D01*
X64364285Y-121177380D01*
X64269047Y-121129761D01*
X64221428Y-121082142D01*
X64173809Y-120986904D01*
X64173809Y-120701190D01*
X64221428Y-120605952D01*
X64269047Y-120558333D01*
X64364285Y-120510714D01*
X64554761Y-120510714D01*
X64649999Y-120558333D01*
X65507142Y-121129761D02*
X65411904Y-121177380D01*
X65221428Y-121177380D01*
X65126190Y-121129761D01*
X65078571Y-121034523D01*
X65078571Y-120653571D01*
X65126190Y-120558333D01*
X65221428Y-120510714D01*
X65411904Y-120510714D01*
X65507142Y-120558333D01*
X65554761Y-120653571D01*
X65554761Y-120748809D01*
X65078571Y-120844047D01*
X66411904Y-121129761D02*
X66316666Y-121177380D01*
X66126190Y-121177380D01*
X66030952Y-121129761D01*
X65983333Y-121082142D01*
X65935714Y-120986904D01*
X65935714Y-120701190D01*
X65983333Y-120605952D01*
X66030952Y-120558333D01*
X66126190Y-120510714D01*
X66316666Y-120510714D01*
X66411904Y-120558333D01*
X66840476Y-121177380D02*
X66840476Y-120510714D01*
X66840476Y-120177380D02*
X66792857Y-120225000D01*
X66840476Y-120272619D01*
X66888095Y-120225000D01*
X66840476Y-120177380D01*
X66840476Y-120272619D01*
X67745238Y-121177380D02*
X67745238Y-120177380D01*
X67745238Y-121129761D02*
X67650000Y-121177380D01*
X67459523Y-121177380D01*
X67364285Y-121129761D01*
X67316666Y-121082142D01*
X67269047Y-120986904D01*
X67269047Y-120701190D01*
X67316666Y-120605952D01*
X67364285Y-120558333D01*
X67459523Y-120510714D01*
X67650000Y-120510714D01*
X67745238Y-120558333D01*
X68602380Y-121129761D02*
X68507142Y-121177380D01*
X68316666Y-121177380D01*
X68221428Y-121129761D01*
X68173809Y-121034523D01*
X68173809Y-120653571D01*
X68221428Y-120558333D01*
X68316666Y-120510714D01*
X68507142Y-120510714D01*
X68602380Y-120558333D01*
X68650000Y-120653571D01*
X68650000Y-120748809D01*
X68173809Y-120844047D01*
X69507142Y-121177380D02*
X69507142Y-120177380D01*
X69507142Y-121129761D02*
X69411904Y-121177380D01*
X69221428Y-121177380D01*
X69126190Y-121129761D01*
X69078571Y-121082142D01*
X69030952Y-120986904D01*
X69030952Y-120701190D01*
X69078571Y-120605952D01*
X69126190Y-120558333D01*
X69221428Y-120510714D01*
X69411904Y-120510714D01*
X69507142Y-120558333D01*
X69935714Y-121129761D02*
X70078571Y-121177380D01*
X70316666Y-121177380D01*
X70411904Y-121129761D01*
X70459523Y-121082142D01*
X70507142Y-120986904D01*
X70507142Y-120891666D01*
X70459523Y-120796428D01*
X70411904Y-120748809D01*
X70316666Y-120701190D01*
X70126190Y-120653571D01*
X70030952Y-120605952D01*
X69983333Y-120558333D01*
X69935714Y-120463095D01*
X69935714Y-120367857D01*
X69983333Y-120272619D01*
X70030952Y-120225000D01*
X70126190Y-120177380D01*
X70364285Y-120177380D01*
X70507142Y-120225000D01*
X70935714Y-121177380D02*
X70935714Y-120177380D01*
X71364285Y-121177380D02*
X71364285Y-120653571D01*
X71316666Y-120558333D01*
X71221428Y-120510714D01*
X71078571Y-120510714D01*
X70983333Y-120558333D01*
X70935714Y-120605952D01*
X72269047Y-121177380D02*
X72269047Y-120653571D01*
X72221428Y-120558333D01*
X72126190Y-120510714D01*
X71935714Y-120510714D01*
X71840476Y-120558333D01*
X72269047Y-121129761D02*
X72173809Y-121177380D01*
X71935714Y-121177380D01*
X71840476Y-121129761D01*
X71792857Y-121034523D01*
X71792857Y-120939285D01*
X71840476Y-120844047D01*
X71935714Y-120796428D01*
X72173809Y-120796428D01*
X72269047Y-120748809D01*
X72745238Y-121177380D02*
X72745238Y-120510714D01*
X72745238Y-120701190D02*
X72792857Y-120605952D01*
X72840476Y-120558333D01*
X72935714Y-120510714D01*
X73030952Y-120510714D01*
X73364285Y-121177380D02*
X73364285Y-120177380D01*
X73459523Y-120796428D02*
X73745238Y-121177380D01*
X73745238Y-120510714D02*
X73364285Y-120891666D01*
X74173809Y-121177380D02*
X74173809Y-120177380D01*
X74554761Y-120177380D01*
X74649999Y-120225000D01*
X74697619Y-120272619D01*
X74745238Y-120367857D01*
X74745238Y-120510714D01*
X74697619Y-120605952D01*
X74649999Y-120653571D01*
X74554761Y-120701190D01*
X74173809Y-120701190D01*
X75745238Y-121082142D02*
X75697619Y-121129761D01*
X75554761Y-121177380D01*
X75459523Y-121177380D01*
X75316666Y-121129761D01*
X75221428Y-121034523D01*
X75173809Y-120939285D01*
X75126190Y-120748809D01*
X75126190Y-120605952D01*
X75173809Y-120415476D01*
X75221428Y-120320238D01*
X75316666Y-120225000D01*
X75459523Y-120177380D01*
X75554761Y-120177380D01*
X75697619Y-120225000D01*
X75745238Y-120272619D01*
X76507142Y-120653571D02*
X76649999Y-120701190D01*
X76697619Y-120748809D01*
X76745238Y-120844047D01*
X76745238Y-120986904D01*
X76697619Y-121082142D01*
X76649999Y-121129761D01*
X76554761Y-121177380D01*
X76173809Y-121177380D01*
X76173809Y-120177380D01*
X76507142Y-120177380D01*
X76602380Y-120225000D01*
X76649999Y-120272619D01*
X76697619Y-120367857D01*
X76697619Y-120463095D01*
X76649999Y-120558333D01*
X76602380Y-120605952D01*
X76507142Y-120653571D01*
X76173809Y-120653571D01*
X77840476Y-120510714D02*
X78078571Y-121177380D01*
X78316666Y-120510714D01*
X79221428Y-121177380D02*
X78649999Y-121177380D01*
X78935714Y-121177380D02*
X78935714Y-120177380D01*
X78840476Y-120320238D01*
X78745238Y-120415476D01*
X78649999Y-120463095D01*
X79649999Y-121082142D02*
X79697619Y-121129761D01*
X79649999Y-121177380D01*
X79602380Y-121129761D01*
X79649999Y-121082142D01*
X79649999Y-121177380D01*
X80316666Y-120177380D02*
X80411904Y-120177380D01*
X80507142Y-120225000D01*
X80554761Y-120272619D01*
X80602380Y-120367857D01*
X80649999Y-120558333D01*
X80649999Y-120796428D01*
X80602380Y-120986904D01*
X80554761Y-121082142D01*
X80507142Y-121129761D01*
X80411904Y-121177380D01*
X80316666Y-121177380D01*
X80221428Y-121129761D01*
X80173809Y-121082142D01*
X80126190Y-120986904D01*
X80078571Y-120796428D01*
X80078571Y-120558333D01*
X80126190Y-120367857D01*
X80173809Y-120272619D01*
X80221428Y-120225000D01*
X80316666Y-120177380D01*
X45983333Y-121927380D02*
X45983333Y-122117857D01*
X46364285Y-121927380D02*
X46364285Y-122117857D01*
X46792857Y-122927380D02*
X46792857Y-121927380D01*
X48173809Y-122927380D02*
X48078571Y-122879761D01*
X48030952Y-122784523D01*
X48030952Y-121927380D01*
X48554761Y-122927380D02*
X48554761Y-122260714D01*
X48554761Y-121927380D02*
X48507142Y-121975000D01*
X48554761Y-122022619D01*
X48602380Y-121975000D01*
X48554761Y-121927380D01*
X48554761Y-122022619D01*
X49030952Y-122927380D02*
X49030952Y-121927380D01*
X49126190Y-122546428D02*
X49411904Y-122927380D01*
X49411904Y-122260714D02*
X49030952Y-122641666D01*
X50221428Y-122879761D02*
X50126190Y-122927380D01*
X49935714Y-122927380D01*
X49840476Y-122879761D01*
X49792857Y-122784523D01*
X49792857Y-122403571D01*
X49840476Y-122308333D01*
X49935714Y-122260714D01*
X50126190Y-122260714D01*
X50221428Y-122308333D01*
X50269047Y-122403571D01*
X50269047Y-122498809D01*
X49792857Y-122594047D01*
X51316666Y-122260714D02*
X51697619Y-122260714D01*
X51459523Y-121927380D02*
X51459523Y-122784523D01*
X51507142Y-122879761D01*
X51602380Y-122927380D01*
X51697619Y-122927380D01*
X52030952Y-122927380D02*
X52030952Y-121927380D01*
X52459523Y-122927380D02*
X52459523Y-122403571D01*
X52411904Y-122308333D01*
X52316666Y-122260714D01*
X52173809Y-122260714D01*
X52078571Y-122308333D01*
X52030952Y-122355952D01*
X53316666Y-122879761D02*
X53221428Y-122927380D01*
X53030952Y-122927380D01*
X52935714Y-122879761D01*
X52888095Y-122784523D01*
X52888095Y-122403571D01*
X52935714Y-122308333D01*
X53030952Y-122260714D01*
X53221428Y-122260714D01*
X53316666Y-122308333D01*
X53364285Y-122403571D01*
X53364285Y-122498809D01*
X52888095Y-122594047D01*
X54554761Y-122260714D02*
X54554761Y-122927380D01*
X54554761Y-122355952D02*
X54602380Y-122308333D01*
X54697619Y-122260714D01*
X54840476Y-122260714D01*
X54935714Y-122308333D01*
X54983333Y-122403571D01*
X54983333Y-122927380D01*
X55459523Y-122927380D02*
X55459523Y-122260714D01*
X55459523Y-121927380D02*
X55411904Y-121975000D01*
X55459523Y-122022619D01*
X55507142Y-121975000D01*
X55459523Y-121927380D01*
X55459523Y-122022619D01*
X56364285Y-122879761D02*
X56269047Y-122927380D01*
X56078571Y-122927380D01*
X55983333Y-122879761D01*
X55935714Y-122832142D01*
X55888095Y-122736904D01*
X55888095Y-122451190D01*
X55935714Y-122355952D01*
X55983333Y-122308333D01*
X56078571Y-122260714D01*
X56269047Y-122260714D01*
X56364285Y-122308333D01*
X56792857Y-122927380D02*
X56792857Y-121927380D01*
X56888095Y-122546428D02*
X57173809Y-122927380D01*
X57173809Y-122260714D02*
X56792857Y-122641666D01*
X58411904Y-121927380D02*
X58316666Y-122117857D01*
X58792857Y-122879761D02*
X58935714Y-122927380D01*
X59173809Y-122927380D01*
X59269047Y-122879761D01*
X59316666Y-122832142D01*
X59364285Y-122736904D01*
X59364285Y-122641666D01*
X59316666Y-122546428D01*
X59269047Y-122498809D01*
X59173809Y-122451190D01*
X58983333Y-122403571D01*
X58888095Y-122355952D01*
X58840476Y-122308333D01*
X58792857Y-122213095D01*
X58792857Y-122117857D01*
X58840476Y-122022619D01*
X58888095Y-121975000D01*
X58983333Y-121927380D01*
X59221428Y-121927380D01*
X59364285Y-121975000D01*
X59792857Y-122927380D02*
X59792857Y-121927380D01*
X60221428Y-122927380D02*
X60221428Y-122403571D01*
X60173809Y-122308333D01*
X60078571Y-122260714D01*
X59935714Y-122260714D01*
X59840476Y-122308333D01*
X59792857Y-122355952D01*
X61126190Y-122927380D02*
X61126190Y-122403571D01*
X61078571Y-122308333D01*
X60983333Y-122260714D01*
X60792857Y-122260714D01*
X60697619Y-122308333D01*
X61126190Y-122879761D02*
X61030952Y-122927380D01*
X60792857Y-122927380D01*
X60697619Y-122879761D01*
X60650000Y-122784523D01*
X60650000Y-122689285D01*
X60697619Y-122594047D01*
X60792857Y-122546428D01*
X61030952Y-122546428D01*
X61126190Y-122498809D01*
X61602380Y-122927380D02*
X61602380Y-122260714D01*
X61602380Y-122451190D02*
X61650000Y-122355952D01*
X61697619Y-122308333D01*
X61792857Y-122260714D01*
X61888095Y-122260714D01*
X62221428Y-122927380D02*
X62221428Y-121927380D01*
X62316666Y-122546428D02*
X62602380Y-122927380D01*
X62602380Y-122260714D02*
X62221428Y-122641666D01*
X63078571Y-121927380D02*
X62983333Y-122117857D01*
X63554761Y-122879761D02*
X63554761Y-122927380D01*
X63507142Y-123022619D01*
X63459523Y-123070238D01*
X64745238Y-122927380D02*
X64745238Y-121927380D01*
X64745238Y-122308333D02*
X64840476Y-122260714D01*
X65030952Y-122260714D01*
X65126190Y-122308333D01*
X65173809Y-122355952D01*
X65221428Y-122451190D01*
X65221428Y-122736904D01*
X65173809Y-122832142D01*
X65126190Y-122879761D01*
X65030952Y-122927380D01*
X64840476Y-122927380D01*
X64745238Y-122879761D01*
X66078571Y-122260714D02*
X66078571Y-122927380D01*
X65650000Y-122260714D02*
X65650000Y-122784523D01*
X65697619Y-122879761D01*
X65792857Y-122927380D01*
X65935714Y-122927380D01*
X66030952Y-122879761D01*
X66078571Y-122832142D01*
X66411904Y-122260714D02*
X66792857Y-122260714D01*
X66554761Y-121927380D02*
X66554761Y-122784523D01*
X66602380Y-122879761D01*
X66697619Y-122927380D01*
X66792857Y-122927380D01*
X67888095Y-122927380D02*
X67888095Y-121927380D01*
X68411904Y-121927380D02*
X68316666Y-122117857D01*
X68840476Y-122927380D02*
X68840476Y-122260714D01*
X68840476Y-122355952D02*
X68888095Y-122308333D01*
X68983333Y-122260714D01*
X69126190Y-122260714D01*
X69221428Y-122308333D01*
X69269047Y-122403571D01*
X69269047Y-122927380D01*
X69269047Y-122403571D02*
X69316666Y-122308333D01*
X69411904Y-122260714D01*
X69554761Y-122260714D01*
X69650000Y-122308333D01*
X69697619Y-122403571D01*
X69697619Y-122927380D01*
X70888095Y-122879761D02*
X70983333Y-122927380D01*
X71173809Y-122927380D01*
X71269047Y-122879761D01*
X71316666Y-122784523D01*
X71316666Y-122736904D01*
X71269047Y-122641666D01*
X71173809Y-122594047D01*
X71030952Y-122594047D01*
X70935714Y-122546428D01*
X70888095Y-122451190D01*
X70888095Y-122403571D01*
X70935714Y-122308333D01*
X71030952Y-122260714D01*
X71173809Y-122260714D01*
X71269047Y-122308333D01*
X71888095Y-122927380D02*
X71792857Y-122879761D01*
X71745238Y-122832142D01*
X71697619Y-122736904D01*
X71697619Y-122451190D01*
X71745238Y-122355952D01*
X71792857Y-122308333D01*
X71888095Y-122260714D01*
X72030952Y-122260714D01*
X72126190Y-122308333D01*
X72173809Y-122355952D01*
X72221428Y-122451190D01*
X72221428Y-122736904D01*
X72173809Y-122832142D01*
X72126190Y-122879761D01*
X72030952Y-122927380D01*
X71888095Y-122927380D01*
X73840476Y-122260714D02*
X73840476Y-122927380D01*
X73411904Y-122260714D02*
X73411904Y-122784523D01*
X73459523Y-122879761D01*
X73554761Y-122927380D01*
X73697619Y-122927380D01*
X73792857Y-122879761D01*
X73840476Y-122832142D01*
X74316666Y-122260714D02*
X74316666Y-122927380D01*
X74316666Y-122355952D02*
X74364285Y-122308333D01*
X74459523Y-122260714D01*
X74602380Y-122260714D01*
X74697619Y-122308333D01*
X74745238Y-122403571D01*
X74745238Y-122927380D01*
X75650000Y-122927380D02*
X75650000Y-121927380D01*
X75650000Y-122879761D02*
X75554761Y-122927380D01*
X75364285Y-122927380D01*
X75269047Y-122879761D01*
X75221428Y-122832142D01*
X75173809Y-122736904D01*
X75173809Y-122451190D01*
X75221428Y-122355952D01*
X75269047Y-122308333D01*
X75364285Y-122260714D01*
X75554761Y-122260714D01*
X75650000Y-122308333D01*
X76507142Y-122879761D02*
X76411904Y-122927380D01*
X76221428Y-122927380D01*
X76126190Y-122879761D01*
X76078571Y-122784523D01*
X76078571Y-122403571D01*
X76126190Y-122308333D01*
X76221428Y-122260714D01*
X76411904Y-122260714D01*
X76507142Y-122308333D01*
X76554761Y-122403571D01*
X76554761Y-122498809D01*
X76078571Y-122594047D01*
X77411904Y-122879761D02*
X77316666Y-122927380D01*
X77126190Y-122927380D01*
X77030952Y-122879761D01*
X76983333Y-122832142D01*
X76935714Y-122736904D01*
X76935714Y-122451190D01*
X76983333Y-122355952D01*
X77030952Y-122308333D01*
X77126190Y-122260714D01*
X77316666Y-122260714D01*
X77411904Y-122308333D01*
X77840476Y-122927380D02*
X77840476Y-122260714D01*
X77840476Y-121927380D02*
X77792857Y-121975000D01*
X77840476Y-122022619D01*
X77888095Y-121975000D01*
X77840476Y-121927380D01*
X77840476Y-122022619D01*
X78745238Y-122927380D02*
X78745238Y-121927380D01*
X78745238Y-122879761D02*
X78650000Y-122927380D01*
X78459523Y-122927380D01*
X78364285Y-122879761D01*
X78316666Y-122832142D01*
X78269047Y-122736904D01*
X78269047Y-122451190D01*
X78316666Y-122355952D01*
X78364285Y-122308333D01*
X78459523Y-122260714D01*
X78650000Y-122260714D01*
X78745238Y-122308333D01*
X79602380Y-122879761D02*
X79507142Y-122927380D01*
X79316666Y-122927380D01*
X79221428Y-122879761D01*
X79173809Y-122784523D01*
X79173809Y-122403571D01*
X79221428Y-122308333D01*
X79316666Y-122260714D01*
X79507142Y-122260714D01*
X79602380Y-122308333D01*
X79650000Y-122403571D01*
X79650000Y-122498809D01*
X79173809Y-122594047D01*
X80507142Y-122927380D02*
X80507142Y-121927380D01*
X80507142Y-122879761D02*
X80411904Y-122927380D01*
X80221428Y-122927380D01*
X80126190Y-122879761D01*
X80078571Y-122832142D01*
X80030952Y-122736904D01*
X80030952Y-122451190D01*
X80078571Y-122355952D01*
X80126190Y-122308333D01*
X80221428Y-122260714D01*
X80411904Y-122260714D01*
X80507142Y-122308333D01*
X80935714Y-121927380D02*
X80935714Y-122117857D01*
X81316666Y-121927380D02*
X81316666Y-122117857D01*
M02*
