G04 #@! TF.GenerationSoftware,KiCad,Pcbnew,5.0.1*
G04 #@! TF.CreationDate,2018-11-18T19:06:15-02:00*
G04 #@! TF.ProjectId,plate,706C6174652E6B696361645F70636200,rev?*
G04 #@! TF.SameCoordinates,Original*
G04 #@! TF.FileFunction,Soldermask,Bot*
G04 #@! TF.FilePolarity,Negative*
%FSLAX46Y46*%
G04 Gerber Fmt 4.6, Leading zero omitted, Abs format (unit mm)*
G04 Created by KiCad (PCBNEW 5.0.1) date Sun 18 Nov 2018 07:06:15 PM -02*
%MOMM*%
%LPD*%
G01*
G04 APERTURE LIST*
%ADD10C,0.100000*%
G04 APERTURE END LIST*
D10*
G36*
X205944096Y-119147033D02*
X205944098Y-119147034D01*
X205944099Y-119147034D01*
X206408352Y-119339333D01*
X206824284Y-119617250D01*
X206826171Y-119618511D01*
X207181489Y-119973829D01*
X207181491Y-119973832D01*
X207460667Y-120391648D01*
X207652966Y-120855901D01*
X207751000Y-121348748D01*
X207751000Y-121851252D01*
X207652966Y-122344099D01*
X207460667Y-122808352D01*
X207182750Y-123224284D01*
X207181489Y-123226171D01*
X206826171Y-123581489D01*
X206826168Y-123581491D01*
X206408352Y-123860667D01*
X205944099Y-124052966D01*
X205944098Y-124052966D01*
X205944096Y-124052967D01*
X205451253Y-124151000D01*
X204948747Y-124151000D01*
X204455904Y-124052967D01*
X204455902Y-124052966D01*
X204455901Y-124052966D01*
X203991648Y-123860667D01*
X203573832Y-123581491D01*
X203573829Y-123581489D01*
X203218511Y-123226171D01*
X203217250Y-123224284D01*
X202939333Y-122808352D01*
X202747034Y-122344099D01*
X202649000Y-121851252D01*
X202649000Y-121348748D01*
X202747034Y-120855901D01*
X202939333Y-120391648D01*
X203218509Y-119973832D01*
X203218511Y-119973829D01*
X203573829Y-119618511D01*
X203575716Y-119617250D01*
X203991648Y-119339333D01*
X204455901Y-119147034D01*
X204455902Y-119147034D01*
X204455904Y-119147033D01*
X204948747Y-119049000D01*
X205451253Y-119049000D01*
X205944096Y-119147033D01*
X205944096Y-119147033D01*
G37*
G36*
X91944096Y-119147033D02*
X91944098Y-119147034D01*
X91944099Y-119147034D01*
X92408352Y-119339333D01*
X92824284Y-119617250D01*
X92826171Y-119618511D01*
X93181489Y-119973829D01*
X93181491Y-119973832D01*
X93460667Y-120391648D01*
X93652966Y-120855901D01*
X93751000Y-121348748D01*
X93751000Y-121851252D01*
X93652966Y-122344099D01*
X93460667Y-122808352D01*
X93182750Y-123224284D01*
X93181489Y-123226171D01*
X92826171Y-123581489D01*
X92826168Y-123581491D01*
X92408352Y-123860667D01*
X91944099Y-124052966D01*
X91944098Y-124052966D01*
X91944096Y-124052967D01*
X91451253Y-124151000D01*
X90948747Y-124151000D01*
X90455904Y-124052967D01*
X90455902Y-124052966D01*
X90455901Y-124052966D01*
X89991648Y-123860667D01*
X89573832Y-123581491D01*
X89573829Y-123581489D01*
X89218511Y-123226171D01*
X89217250Y-123224284D01*
X88939333Y-122808352D01*
X88747034Y-122344099D01*
X88649000Y-121851252D01*
X88649000Y-121348748D01*
X88747034Y-120855901D01*
X88939333Y-120391648D01*
X89218509Y-119973832D01*
X89218511Y-119973829D01*
X89573829Y-119618511D01*
X89575716Y-119617250D01*
X89991648Y-119339333D01*
X90455901Y-119147034D01*
X90455902Y-119147034D01*
X90455904Y-119147033D01*
X90948747Y-119049000D01*
X91451253Y-119049000D01*
X91944096Y-119147033D01*
X91944096Y-119147033D01*
G37*
G36*
X243944096Y-100147033D02*
X243944098Y-100147034D01*
X243944099Y-100147034D01*
X244408352Y-100339333D01*
X244824284Y-100617250D01*
X244826171Y-100618511D01*
X245181489Y-100973829D01*
X245181491Y-100973832D01*
X245460667Y-101391648D01*
X245652966Y-101855901D01*
X245751000Y-102348748D01*
X245751000Y-102851252D01*
X245652966Y-103344099D01*
X245460667Y-103808352D01*
X245182750Y-104224284D01*
X245181489Y-104226171D01*
X244826171Y-104581489D01*
X244826168Y-104581491D01*
X244408352Y-104860667D01*
X243944099Y-105052966D01*
X243944098Y-105052966D01*
X243944096Y-105052967D01*
X243451253Y-105151000D01*
X242948747Y-105151000D01*
X242455904Y-105052967D01*
X242455902Y-105052966D01*
X242455901Y-105052966D01*
X241991648Y-104860667D01*
X241573832Y-104581491D01*
X241573829Y-104581489D01*
X241218511Y-104226171D01*
X241217250Y-104224284D01*
X240939333Y-103808352D01*
X240747034Y-103344099D01*
X240649000Y-102851252D01*
X240649000Y-102348748D01*
X240747034Y-101855901D01*
X240939333Y-101391648D01*
X241218509Y-100973832D01*
X241218511Y-100973829D01*
X241573829Y-100618511D01*
X241575716Y-100617250D01*
X241991648Y-100339333D01*
X242455901Y-100147034D01*
X242455902Y-100147034D01*
X242455904Y-100147033D01*
X242948747Y-100049000D01*
X243451253Y-100049000D01*
X243944096Y-100147033D01*
X243944096Y-100147033D01*
G37*
G36*
X53944096Y-100147033D02*
X53944098Y-100147034D01*
X53944099Y-100147034D01*
X54408352Y-100339333D01*
X54824284Y-100617250D01*
X54826171Y-100618511D01*
X55181489Y-100973829D01*
X55181491Y-100973832D01*
X55460667Y-101391648D01*
X55652966Y-101855901D01*
X55751000Y-102348748D01*
X55751000Y-102851252D01*
X55652966Y-103344099D01*
X55460667Y-103808352D01*
X55182750Y-104224284D01*
X55181489Y-104226171D01*
X54826171Y-104581489D01*
X54826168Y-104581491D01*
X54408352Y-104860667D01*
X53944099Y-105052966D01*
X53944098Y-105052966D01*
X53944096Y-105052967D01*
X53451253Y-105151000D01*
X52948747Y-105151000D01*
X52455904Y-105052967D01*
X52455902Y-105052966D01*
X52455901Y-105052966D01*
X51991648Y-104860667D01*
X51573832Y-104581491D01*
X51573829Y-104581489D01*
X51218511Y-104226171D01*
X51217250Y-104224284D01*
X50939333Y-103808352D01*
X50747034Y-103344099D01*
X50649000Y-102851252D01*
X50649000Y-102348748D01*
X50747034Y-101855901D01*
X50939333Y-101391648D01*
X51218509Y-100973832D01*
X51218511Y-100973829D01*
X51573829Y-100618511D01*
X51575716Y-100617250D01*
X51991648Y-100339333D01*
X52455901Y-100147034D01*
X52455902Y-100147034D01*
X52455904Y-100147033D01*
X52948747Y-100049000D01*
X53451253Y-100049000D01*
X53944096Y-100147033D01*
X53944096Y-100147033D01*
G37*
G36*
X205944096Y-81147033D02*
X205944098Y-81147034D01*
X205944099Y-81147034D01*
X206408352Y-81339333D01*
X206824284Y-81617250D01*
X206826171Y-81618511D01*
X207181489Y-81973829D01*
X207181491Y-81973832D01*
X207460667Y-82391648D01*
X207652966Y-82855901D01*
X207751000Y-83348748D01*
X207751000Y-83851252D01*
X207652966Y-84344099D01*
X207460667Y-84808352D01*
X207182750Y-85224284D01*
X207181489Y-85226171D01*
X206826171Y-85581489D01*
X206826168Y-85581491D01*
X206408352Y-85860667D01*
X205944099Y-86052966D01*
X205944098Y-86052966D01*
X205944096Y-86052967D01*
X205451253Y-86151000D01*
X204948747Y-86151000D01*
X204455904Y-86052967D01*
X204455902Y-86052966D01*
X204455901Y-86052966D01*
X203991648Y-85860667D01*
X203573832Y-85581491D01*
X203573829Y-85581489D01*
X203218511Y-85226171D01*
X203217250Y-85224284D01*
X202939333Y-84808352D01*
X202747034Y-84344099D01*
X202649000Y-83851252D01*
X202649000Y-83348748D01*
X202747034Y-82855901D01*
X202939333Y-82391648D01*
X203218509Y-81973832D01*
X203218511Y-81973829D01*
X203573829Y-81618511D01*
X203575716Y-81617250D01*
X203991648Y-81339333D01*
X204455901Y-81147034D01*
X204455902Y-81147034D01*
X204455904Y-81147033D01*
X204948747Y-81049000D01*
X205451253Y-81049000D01*
X205944096Y-81147033D01*
X205944096Y-81147033D01*
G37*
G36*
X91944096Y-81147033D02*
X91944098Y-81147034D01*
X91944099Y-81147034D01*
X92408352Y-81339333D01*
X92824284Y-81617250D01*
X92826171Y-81618511D01*
X93181489Y-81973829D01*
X93181491Y-81973832D01*
X93460667Y-82391648D01*
X93652966Y-82855901D01*
X93751000Y-83348748D01*
X93751000Y-83851252D01*
X93652966Y-84344099D01*
X93460667Y-84808352D01*
X93182750Y-85224284D01*
X93181489Y-85226171D01*
X92826171Y-85581489D01*
X92826168Y-85581491D01*
X92408352Y-85860667D01*
X91944099Y-86052966D01*
X91944098Y-86052966D01*
X91944096Y-86052967D01*
X91451253Y-86151000D01*
X90948747Y-86151000D01*
X90455904Y-86052967D01*
X90455902Y-86052966D01*
X90455901Y-86052966D01*
X89991648Y-85860667D01*
X89573832Y-85581491D01*
X89573829Y-85581489D01*
X89218511Y-85226171D01*
X89217250Y-85224284D01*
X88939333Y-84808352D01*
X88747034Y-84344099D01*
X88649000Y-83851252D01*
X88649000Y-83348748D01*
X88747034Y-82855901D01*
X88939333Y-82391648D01*
X89218509Y-81973832D01*
X89218511Y-81973829D01*
X89573829Y-81618511D01*
X89575716Y-81617250D01*
X89991648Y-81339333D01*
X90455901Y-81147034D01*
X90455902Y-81147034D01*
X90455904Y-81147033D01*
X90948747Y-81049000D01*
X91451253Y-81049000D01*
X91944096Y-81147033D01*
X91944096Y-81147033D01*
G37*
M02*
