G04 #@! TF.GenerationSoftware,KiCad,Pcbnew,5.0.1*
G04 #@! TF.CreationDate,2018-11-18T19:06:15-02:00*
G04 #@! TF.ProjectId,plate,706C6174652E6B696361645F70636200,rev?*
G04 #@! TF.SameCoordinates,Original*
G04 #@! TF.FileFunction,Legend,Top*
G04 #@! TF.FilePolarity,Positive*
%FSLAX46Y46*%
G04 Gerber Fmt 4.6, Leading zero omitted, Abs format (unit mm)*
G04 Created by KiCad (PCBNEW 5.0.1) date Sun 18 Nov 2018 07:06:15 PM -02*
%MOMM*%
%LPD*%
G01*
G04 APERTURE LIST*
%ADD10C,0.150000*%
%ADD11C,0.300000*%
G04 APERTURE END LIST*
D10*
X36575000Y-66975000D02*
X36812500Y-66975000D01*
D11*
X26291071Y-108885714D02*
X26291071Y-107885714D01*
X27791071Y-108528571D01*
X26291071Y-106600000D02*
X26291071Y-107314285D01*
X27005357Y-107385714D01*
X26933928Y-107314285D01*
X26862500Y-107171428D01*
X26862500Y-106814285D01*
X26933928Y-106671428D01*
X27005357Y-106600000D01*
X27148214Y-106528571D01*
X27505357Y-106528571D01*
X27648214Y-106600000D01*
X27719642Y-106671428D01*
X27791071Y-106814285D01*
X27791071Y-107171428D01*
X27719642Y-107314285D01*
X27648214Y-107385714D01*
X27648214Y-105885714D02*
X27719642Y-105814285D01*
X27791071Y-105885714D01*
X27719642Y-105957142D01*
X27648214Y-105885714D01*
X27791071Y-105885714D01*
X26291071Y-104885714D02*
X26291071Y-104742857D01*
X26362500Y-104600000D01*
X26433928Y-104528571D01*
X26576785Y-104457142D01*
X26862500Y-104385714D01*
X27219642Y-104385714D01*
X27505357Y-104457142D01*
X27648214Y-104528571D01*
X27719642Y-104600000D01*
X27791071Y-104742857D01*
X27791071Y-104885714D01*
X27719642Y-105028571D01*
X27648214Y-105100000D01*
X27505357Y-105171428D01*
X27219642Y-105242857D01*
X26862500Y-105242857D01*
X26576785Y-105171428D01*
X26433928Y-105100000D01*
X26362500Y-105028571D01*
X26291071Y-104885714D01*
X26291071Y-103028571D02*
X26291071Y-103742857D01*
X27005357Y-103814285D01*
X26933928Y-103742857D01*
X26862500Y-103600000D01*
X26862500Y-103242857D01*
X26933928Y-103100000D01*
X27005357Y-103028571D01*
X27148214Y-102957142D01*
X27505357Y-102957142D01*
X27648214Y-103028571D01*
X27719642Y-103100000D01*
X27791071Y-103242857D01*
X27791071Y-103600000D01*
X27719642Y-103742857D01*
X27648214Y-103814285D01*
X26291071Y-102028571D02*
X26291071Y-101885714D01*
X26362500Y-101742857D01*
X26433928Y-101671428D01*
X26576785Y-101600000D01*
X26862500Y-101528571D01*
X27219642Y-101528571D01*
X27505357Y-101600000D01*
X27648214Y-101671428D01*
X27719642Y-101742857D01*
X27791071Y-101885714D01*
X27791071Y-102028571D01*
X27719642Y-102171428D01*
X27648214Y-102242857D01*
X27505357Y-102314285D01*
X27219642Y-102385714D01*
X26862500Y-102385714D01*
X26576785Y-102314285D01*
X26433928Y-102242857D01*
X26362500Y-102171428D01*
X26291071Y-102028571D01*
X27791071Y-99742857D02*
X26791071Y-99742857D01*
X26933928Y-99742857D02*
X26862500Y-99671428D01*
X26791071Y-99528571D01*
X26791071Y-99314285D01*
X26862500Y-99171428D01*
X27005357Y-99100000D01*
X27791071Y-99100000D01*
X27005357Y-99100000D02*
X26862500Y-99028571D01*
X26791071Y-98885714D01*
X26791071Y-98671428D01*
X26862500Y-98528571D01*
X27005357Y-98457142D01*
X27791071Y-98457142D01*
X27791071Y-97742857D02*
X26791071Y-97742857D01*
X26933928Y-97742857D02*
X26862500Y-97671428D01*
X26791071Y-97528571D01*
X26791071Y-97314285D01*
X26862500Y-97171428D01*
X27005357Y-97100000D01*
X27791071Y-97100000D01*
X27005357Y-97100000D02*
X26862500Y-97028571D01*
X26791071Y-96885714D01*
X26791071Y-96671428D01*
X26862500Y-96528571D01*
X27005357Y-96457142D01*
X27791071Y-96457142D01*
X29212500Y-140125000D02*
X29212500Y-65075000D01*
X33725000Y-140125000D02*
X28626079Y-140125000D01*
X33725000Y-65075000D02*
X28626079Y-65075000D01*
X29212500Y-65075000D02*
X29798921Y-66201504D01*
X29212500Y-65075000D02*
X28626079Y-66201504D01*
X29212500Y-140125000D02*
X29798921Y-138998496D01*
X29212500Y-140125000D02*
X28626079Y-138998496D01*
X141271428Y-151046428D02*
X141342857Y-150975000D01*
X141485714Y-150903571D01*
X141842857Y-150903571D01*
X141985714Y-150975000D01*
X142057142Y-151046428D01*
X142128571Y-151189285D01*
X142128571Y-151332142D01*
X142057142Y-151546428D01*
X141200000Y-152403571D01*
X142128571Y-152403571D01*
X142700000Y-151046428D02*
X142771428Y-150975000D01*
X142914285Y-150903571D01*
X143271428Y-150903571D01*
X143414285Y-150975000D01*
X143485714Y-151046428D01*
X143557142Y-151189285D01*
X143557142Y-151332142D01*
X143485714Y-151546428D01*
X142628571Y-152403571D01*
X143557142Y-152403571D01*
X144057142Y-150903571D02*
X145057142Y-150903571D01*
X144414285Y-152403571D01*
X145628571Y-152260714D02*
X145700000Y-152332142D01*
X145628571Y-152403571D01*
X145557142Y-152332142D01*
X145628571Y-152260714D01*
X145628571Y-152403571D01*
X146628571Y-150903571D02*
X146771428Y-150903571D01*
X146914285Y-150975000D01*
X146985714Y-151046428D01*
X147057142Y-151189285D01*
X147128571Y-151475000D01*
X147128571Y-151832142D01*
X147057142Y-152117857D01*
X146985714Y-152260714D01*
X146914285Y-152332142D01*
X146771428Y-152403571D01*
X146628571Y-152403571D01*
X146485714Y-152332142D01*
X146414285Y-152260714D01*
X146342857Y-152117857D01*
X146271428Y-151832142D01*
X146271428Y-151475000D01*
X146342857Y-151189285D01*
X146414285Y-151046428D01*
X146485714Y-150975000D01*
X146628571Y-150903571D01*
X148485714Y-150903571D02*
X147771428Y-150903571D01*
X147700000Y-151617857D01*
X147771428Y-151546428D01*
X147914285Y-151475000D01*
X148271428Y-151475000D01*
X148414285Y-151546428D01*
X148485714Y-151617857D01*
X148557142Y-151760714D01*
X148557142Y-152117857D01*
X148485714Y-152260714D01*
X148414285Y-152332142D01*
X148271428Y-152403571D01*
X147914285Y-152403571D01*
X147771428Y-152332142D01*
X147700000Y-152260714D01*
X149485714Y-150903571D02*
X149628571Y-150903571D01*
X149771428Y-150975000D01*
X149842857Y-151046428D01*
X149914285Y-151189285D01*
X149985714Y-151475000D01*
X149985714Y-151832142D01*
X149914285Y-152117857D01*
X149842857Y-152260714D01*
X149771428Y-152332142D01*
X149628571Y-152403571D01*
X149485714Y-152403571D01*
X149342857Y-152332142D01*
X149271428Y-152260714D01*
X149200000Y-152117857D01*
X149128571Y-151832142D01*
X149128571Y-151475000D01*
X149200000Y-151189285D01*
X149271428Y-151046428D01*
X149342857Y-150975000D01*
X149485714Y-150903571D01*
X151771428Y-152403571D02*
X151771428Y-151403571D01*
X151771428Y-151546428D02*
X151842857Y-151475000D01*
X151985714Y-151403571D01*
X152200000Y-151403571D01*
X152342857Y-151475000D01*
X152414285Y-151617857D01*
X152414285Y-152403571D01*
X152414285Y-151617857D02*
X152485714Y-151475000D01*
X152628571Y-151403571D01*
X152842857Y-151403571D01*
X152985714Y-151475000D01*
X153057142Y-151617857D01*
X153057142Y-152403571D01*
X153771428Y-152403571D02*
X153771428Y-151403571D01*
X153771428Y-151546428D02*
X153842857Y-151475000D01*
X153985714Y-151403571D01*
X154200000Y-151403571D01*
X154342857Y-151475000D01*
X154414285Y-151617857D01*
X154414285Y-152403571D01*
X154414285Y-151617857D02*
X154485714Y-151475000D01*
X154628571Y-151403571D01*
X154842857Y-151403571D01*
X154985714Y-151475000D01*
X155057142Y-151617857D01*
X155057142Y-152403571D01*
X34675000Y-149625000D02*
X261725000Y-149625000D01*
X34675000Y-142975000D02*
X34675000Y-150211421D01*
X261725000Y-142975000D02*
X261725000Y-150211421D01*
X261725000Y-149625000D02*
X260598496Y-150211421D01*
X261725000Y-149625000D02*
X260598496Y-149038579D01*
X34675000Y-149625000D02*
X35801504Y-150211421D01*
X34675000Y-149625000D02*
X35801504Y-149038579D01*
G04 #@! TO.C,H5*
D10*
X204438095Y-84052380D02*
X204438095Y-83052380D01*
X204438095Y-83528571D02*
X205009523Y-83528571D01*
X205009523Y-84052380D02*
X205009523Y-83052380D01*
X205961904Y-83052380D02*
X205485714Y-83052380D01*
X205438095Y-83528571D01*
X205485714Y-83480952D01*
X205580952Y-83433333D01*
X205819047Y-83433333D01*
X205914285Y-83480952D01*
X205961904Y-83528571D01*
X206009523Y-83623809D01*
X206009523Y-83861904D01*
X205961904Y-83957142D01*
X205914285Y-84004761D01*
X205819047Y-84052380D01*
X205580952Y-84052380D01*
X205485714Y-84004761D01*
X205438095Y-83957142D01*
G04 #@! TO.C,H1*
X90438095Y-122052380D02*
X90438095Y-121052380D01*
X90438095Y-121528571D02*
X91009523Y-121528571D01*
X91009523Y-122052380D02*
X91009523Y-121052380D01*
X92009523Y-122052380D02*
X91438095Y-122052380D01*
X91723809Y-122052380D02*
X91723809Y-121052380D01*
X91628571Y-121195238D01*
X91533333Y-121290476D01*
X91438095Y-121338095D01*
G04 #@! TO.C,H2*
X52438095Y-103052380D02*
X52438095Y-102052380D01*
X52438095Y-102528571D02*
X53009523Y-102528571D01*
X53009523Y-103052380D02*
X53009523Y-102052380D01*
X53438095Y-102147619D02*
X53485714Y-102100000D01*
X53580952Y-102052380D01*
X53819047Y-102052380D01*
X53914285Y-102100000D01*
X53961904Y-102147619D01*
X54009523Y-102242857D01*
X54009523Y-102338095D01*
X53961904Y-102480952D01*
X53390476Y-103052380D01*
X54009523Y-103052380D01*
G04 #@! TO.C,H3*
X90438095Y-84052380D02*
X90438095Y-83052380D01*
X90438095Y-83528571D02*
X91009523Y-83528571D01*
X91009523Y-84052380D02*
X91009523Y-83052380D01*
X91390476Y-83052380D02*
X92009523Y-83052380D01*
X91676190Y-83433333D01*
X91819047Y-83433333D01*
X91914285Y-83480952D01*
X91961904Y-83528571D01*
X92009523Y-83623809D01*
X92009523Y-83861904D01*
X91961904Y-83957142D01*
X91914285Y-84004761D01*
X91819047Y-84052380D01*
X91533333Y-84052380D01*
X91438095Y-84004761D01*
X91390476Y-83957142D01*
G04 #@! TO.C,H4*
X242438095Y-103052380D02*
X242438095Y-102052380D01*
X242438095Y-102528571D02*
X243009523Y-102528571D01*
X243009523Y-103052380D02*
X243009523Y-102052380D01*
X243914285Y-102385714D02*
X243914285Y-103052380D01*
X243676190Y-102004761D02*
X243438095Y-102719047D01*
X244057142Y-102719047D01*
G04 #@! TO.C,H6*
X204438095Y-122052380D02*
X204438095Y-121052380D01*
X204438095Y-121528571D02*
X205009523Y-121528571D01*
X205009523Y-122052380D02*
X205009523Y-121052380D01*
X205914285Y-121052380D02*
X205723809Y-121052380D01*
X205628571Y-121100000D01*
X205580952Y-121147619D01*
X205485714Y-121290476D01*
X205438095Y-121480952D01*
X205438095Y-121861904D01*
X205485714Y-121957142D01*
X205533333Y-122004761D01*
X205628571Y-122052380D01*
X205819047Y-122052380D01*
X205914285Y-122004761D01*
X205961904Y-121957142D01*
X206009523Y-121861904D01*
X206009523Y-121623809D01*
X205961904Y-121528571D01*
X205914285Y-121480952D01*
X205819047Y-121433333D01*
X205628571Y-121433333D01*
X205533333Y-121480952D01*
X205485714Y-121528571D01*
X205438095Y-121623809D01*
G04 #@! TD*
M02*
