M48
;DRILL file {KiCad 5.0.1} date Sun 18 Nov 2018 07:06:36 PM -02
;FORMAT={-:-/ absolute / metric / decimal}
FMAT,2
METRIC,TZ
T1C0.450
T2C0.500
T3C0.750
T4C1.100
T5C1.500
T6C2.500
T7C1.702
T8C3.048
T9C3.988
%
G90
G05
M71
T2
X227.287Y-69.825
T3
X243.2Y-68.4
X243.2Y-70.94
X53.2Y-92.46
X53.2Y-95.
X148.2Y-92.46
X148.2Y-95.
X91.2Y-130.46
X91.2Y-133.
X186.2Y-92.46
X186.2Y-95.
X205.2Y-130.46
X205.2Y-133.
X91.2Y-92.46
X91.2Y-95.
X186.2Y-111.623
X186.2Y-114.163
X53.2Y-111.46
X53.2Y-114.
X120.96Y-121.6
X123.5Y-121.6
X243.2Y-86.12
X243.2Y-88.66
X129.2Y-92.46
X129.2Y-95.
X243.2Y-123.5
X243.2Y-126.04
X186.2Y-73.46
X186.2Y-76.
X110.2Y-73.46
X110.2Y-76.
X167.2Y-73.46
X167.2Y-76.
X72.2Y-92.46
X72.2Y-95.
X72.2Y-111.46
X72.2Y-114.
X167.2Y-92.46
X167.2Y-95.
X53.2Y-73.46
X53.2Y-76.
X91.2Y-111.46
X91.2Y-114.
X224.2Y-73.46
X224.2Y-76.
X243.2Y-95.
X243.2Y-97.54
X186.2Y-130.46
X186.2Y-133.
X91.2Y-73.46
X91.2Y-76.
X72.2Y-130.46
X72.2Y-133.
X168.697Y-121.6
X171.237Y-121.6
X224.2Y-92.46
X224.2Y-95.
X110.2Y-92.46
X110.2Y-95.
X148.2Y-111.46
X148.2Y-114.
X194.512Y-84.787
X197.052Y-84.787
X224.2Y-130.46
X224.2Y-133.
X243.2Y-117.16
X243.2Y-119.7
X129.2Y-73.46
X129.2Y-76.
X243.2Y-107.35
X243.2Y-109.89
X110.2Y-130.46
X110.2Y-133.
X53.2Y-130.46
X53.2Y-133.
X205.2Y-73.46
X205.2Y-76.
X72.2Y-73.46
X72.2Y-76.
X243.2Y-134.26
X243.2Y-136.8
X205.2Y-113.525
X205.2Y-116.065
X110.2Y-111.46
X110.2Y-114.
X224.2Y-111.46
X224.2Y-114.
X146.775Y-121.6
X149.315Y-121.6
X129.2Y-111.46
X129.2Y-114.
X167.2Y-111.46
X167.2Y-114.
X243.2Y-79.16
X243.2Y-81.7
X148.2Y-73.46
X148.2Y-76.
T4
X69.825Y-99.425
X69.825Y-105.925
X74.325Y-99.425
X74.325Y-105.925
T6
X205.2Y-121.6
X91.2Y-83.6
X91.2Y-121.6
X205.2Y-83.6
X243.2Y-102.6
X53.2Y-102.6
T7
X57.62Y-112.1
X67.78Y-112.1
X114.62Y-112.1
X124.78Y-112.1
X190.62Y-112.1
X200.78Y-112.1
X76.62Y-112.1
X86.78Y-112.1
X209.62Y-131.1
X219.78Y-131.1
X247.62Y-74.1
X257.78Y-74.1
X209.62Y-112.1
X219.78Y-112.1
X143.12Y-131.1
X153.28Y-131.1
X95.62Y-74.1
X105.78Y-74.1
X190.62Y-131.1
X200.78Y-131.1
X76.62Y-93.1
X86.78Y-93.1
X228.62Y-112.1
X238.78Y-112.1
X95.62Y-112.1
X105.78Y-112.1
X152.62Y-112.1
X162.78Y-112.1
X247.62Y-112.1
X257.78Y-112.1
X171.62Y-93.1
X181.78Y-93.1
X247.62Y-93.1
X257.78Y-93.1
X190.62Y-74.1
X200.78Y-74.1
X124.12Y-131.1
X134.28Y-131.1
X114.62Y-131.1
X124.78Y-131.1
X57.62Y-93.1
X67.78Y-93.1
X76.62Y-74.1
X86.78Y-74.1
X171.62Y-112.1
X181.78Y-112.1
X133.62Y-74.1
X143.78Y-74.1
X171.62Y-131.1
X181.78Y-131.1
X76.62Y-131.1
X86.78Y-131.1
X38.62Y-112.1
X48.78Y-112.1
X95.62Y-131.1
X105.78Y-131.1
X228.62Y-74.1
X238.78Y-74.1
X228.62Y-131.1
X238.78Y-131.1
X171.62Y-74.1
X181.78Y-74.1
X190.62Y-93.1
X200.78Y-93.1
X152.62Y-74.1
X162.78Y-74.1
X152.62Y-131.1
X162.78Y-131.1
X133.62Y-131.1
X143.78Y-131.1
X209.62Y-93.1
X219.78Y-93.1
X38.62Y-131.1
X48.78Y-131.1
X162.12Y-131.1
X172.28Y-131.1
X38.62Y-93.1
X48.78Y-93.1
X114.62Y-74.1
X124.78Y-74.1
X57.62Y-131.1
X67.78Y-131.1
X114.62Y-93.1
X124.78Y-93.1
X247.62Y-131.1
X257.78Y-131.1
X133.62Y-93.1
X143.78Y-93.1
X209.62Y-74.1
X219.78Y-74.1
X152.62Y-93.1
X162.78Y-93.1
X38.62Y-74.1
X48.78Y-74.1
X133.62Y-112.1
X143.78Y-112.1
X95.62Y-93.1
X105.78Y-93.1
X228.62Y-93.1
X238.78Y-93.1
X57.62Y-74.1
X67.78Y-74.1
T8
X136.262Y-124.115
X160.138Y-124.115
X117.262Y-124.115
X141.138Y-124.115
X155.262Y-124.115
X179.138Y-124.115
T9
X157.7Y-93.1
X43.7Y-74.1
X138.7Y-112.1
X100.7Y-93.1
X233.7Y-93.1
X62.7Y-74.1
X62.7Y-112.1
X119.7Y-112.1
X195.7Y-112.1
X81.7Y-112.1
X214.7Y-131.1
X252.7Y-74.1
X214.7Y-112.1
X136.262Y-139.355
X148.2Y-131.1
X160.138Y-139.355
X100.7Y-74.1
X195.7Y-131.1
X81.7Y-93.1
X233.7Y-112.1
X100.7Y-112.1
X157.7Y-112.1
X252.7Y-112.1
X176.7Y-93.1
X252.7Y-93.1
X195.7Y-74.1
X117.262Y-139.355
X129.2Y-131.1
X141.138Y-139.355
X119.7Y-131.1
X62.7Y-93.1
X81.7Y-74.1
X176.7Y-112.1
X138.7Y-74.1
X176.7Y-131.1
X81.7Y-131.1
X43.7Y-112.1
X100.7Y-131.1
X233.7Y-74.1
X233.7Y-131.1
X176.7Y-74.1
X195.7Y-93.1
X157.7Y-74.1
X157.7Y-131.1
X138.7Y-131.1
X214.7Y-93.1
X43.7Y-131.1
X155.262Y-139.355
X167.2Y-131.1
X179.138Y-139.355
X43.7Y-93.1
X119.7Y-74.1
X62.7Y-131.1
X119.7Y-93.1
X252.7Y-131.1
X138.7Y-93.1
X214.7Y-74.1
T1
X220.325Y-65.95G85X220.325Y-65.15
G05
X227.475Y-65.15G85X227.475Y-65.95
G05
T5
X154.7Y-70.1G85X153.89Y-71.56
G05
X160.24Y-69.021G85X160.2Y-69.599
G05
X154.7Y-127.1G85X153.89Y-128.56
G05
X160.24Y-126.021G85X160.2Y-126.599
G05
X135.7Y-127.1G85X134.89Y-128.56
G05
X141.24Y-126.021G85X141.2Y-126.599
G05
X211.7Y-89.1G85X210.89Y-90.56
G05
X217.24Y-88.021G85X217.2Y-88.599
G05
X40.7Y-127.1G85X39.89Y-128.56
G05
X46.24Y-126.021G85X46.2Y-126.599
G05
X164.2Y-127.1G85X163.39Y-128.56
G05
X169.74Y-126.021G85X169.7Y-126.599
G05
X40.7Y-89.1G85X39.89Y-90.56
G05
X46.24Y-88.021G85X46.2Y-88.599
G05
X116.7Y-70.1G85X115.89Y-71.56
G05
X122.24Y-69.021G85X122.2Y-69.599
G05
X59.7Y-127.1G85X58.89Y-128.56
G05
X65.24Y-126.021G85X65.2Y-126.599
G05
X116.7Y-89.1G85X115.89Y-90.56
G05
X122.24Y-88.021G85X122.2Y-88.599
G05
X249.7Y-127.1G85X248.89Y-128.56
G05
X255.24Y-126.021G85X255.2Y-126.599
G05
X135.7Y-89.1G85X134.89Y-90.56
G05
X141.24Y-88.021G85X141.2Y-88.599
G05
X211.7Y-70.1G85X210.89Y-71.56
G05
X217.24Y-69.021G85X217.2Y-69.599
G05
X154.7Y-89.1G85X153.89Y-90.56
G05
X160.24Y-88.021G85X160.2Y-88.599
G05
X40.7Y-70.1G85X39.89Y-71.56
G05
X46.24Y-69.021G85X46.2Y-69.599
G05
X135.7Y-108.1G85X134.89Y-109.56
G05
X141.24Y-107.021G85X141.2Y-107.599
G05
X97.7Y-89.1G85X96.89Y-90.56
G05
X103.24Y-88.021G85X103.2Y-88.599
G05
X230.7Y-89.1G85X229.89Y-90.56
G05
X236.24Y-88.021G85X236.2Y-88.599
G05
X59.7Y-70.1G85X58.89Y-71.56
G05
X65.24Y-69.021G85X65.2Y-69.599
G05
X59.7Y-108.1G85X58.89Y-109.56
G05
X65.24Y-107.021G85X65.2Y-107.599
G05
X116.7Y-108.1G85X115.89Y-109.56
G05
X122.24Y-107.021G85X122.2Y-107.599
G05
X192.7Y-108.1G85X191.89Y-109.56
G05
X198.24Y-107.021G85X198.2Y-107.599
G05
X78.7Y-108.1G85X77.89Y-109.56
G05
X84.24Y-107.021G85X84.2Y-107.599
G05
X211.7Y-127.1G85X210.89Y-128.56
G05
X217.24Y-126.021G85X217.2Y-126.599
G05
X249.7Y-70.1G85X248.89Y-71.56
G05
X255.24Y-69.021G85X255.2Y-69.599
G05
X211.7Y-108.1G85X210.89Y-109.56
G05
X217.24Y-107.021G85X217.2Y-107.599
G05
X145.2Y-127.1G85X144.39Y-128.56
G05
X150.74Y-126.021G85X150.7Y-126.599
G05
X97.7Y-70.1G85X96.89Y-71.56
G05
X103.24Y-69.021G85X103.2Y-69.599
G05
X192.7Y-127.1G85X191.89Y-128.56
G05
X198.24Y-126.021G85X198.2Y-126.599
G05
X78.7Y-89.1G85X77.89Y-90.56
G05
X84.24Y-88.021G85X84.2Y-88.599
G05
X230.7Y-108.1G85X229.89Y-109.56
G05
X236.24Y-107.021G85X236.2Y-107.599
G05
X97.7Y-108.1G85X96.89Y-109.56
G05
X103.24Y-107.021G85X103.2Y-107.599
G05
X154.7Y-108.1G85X153.89Y-109.56
G05
X160.24Y-107.021G85X160.2Y-107.599
G05
X249.7Y-108.1G85X248.89Y-109.56
G05
X255.24Y-107.021G85X255.2Y-107.599
G05
X173.7Y-89.1G85X172.89Y-90.56
G05
X179.24Y-88.021G85X179.2Y-88.599
G05
X249.7Y-89.1G85X248.89Y-90.56
G05
X255.24Y-88.021G85X255.2Y-88.599
G05
X192.7Y-70.1G85X191.89Y-71.56
G05
X198.24Y-69.021G85X198.2Y-69.599
G05
X126.2Y-127.1G85X125.39Y-128.56
G05
X131.74Y-126.021G85X131.7Y-126.599
G05
X116.7Y-127.1G85X115.89Y-128.56
G05
X122.24Y-126.021G85X122.2Y-126.599
G05
X59.7Y-89.1G85X58.89Y-90.56
G05
X65.24Y-88.021G85X65.2Y-88.599
G05
X78.7Y-70.1G85X77.89Y-71.56
G05
X84.24Y-69.021G85X84.2Y-69.599
G05
X173.7Y-108.1G85X172.89Y-109.56
G05
X179.24Y-107.021G85X179.2Y-107.599
G05
X135.7Y-70.1G85X134.89Y-71.56
G05
X141.24Y-69.021G85X141.2Y-69.599
G05
X173.7Y-127.1G85X172.89Y-128.56
G05
X179.24Y-126.021G85X179.2Y-126.599
G05
X78.7Y-127.1G85X77.89Y-128.56
G05
X84.24Y-126.021G85X84.2Y-126.599
G05
X40.7Y-108.1G85X39.89Y-109.56
G05
X46.24Y-107.021G85X46.2Y-107.599
G05
X97.7Y-127.1G85X96.89Y-128.56
G05
X103.24Y-126.021G85X103.2Y-126.599
G05
X230.7Y-70.1G85X229.89Y-71.56
G05
X236.24Y-69.021G85X236.2Y-69.599
G05
X230.7Y-127.1G85X229.89Y-128.56
G05
X236.24Y-126.021G85X236.2Y-126.599
G05
X173.7Y-70.1G85X172.89Y-71.56
G05
X179.24Y-69.021G85X179.2Y-69.599
G05
X192.7Y-89.1G85X191.89Y-90.56
G05
X198.24Y-88.021G85X198.2Y-88.599
G05
T0
M30
