G04 #@! TF.GenerationSoftware,KiCad,Pcbnew,5.0.1*
G04 #@! TF.CreationDate,2018-11-17T21:30:07-02:00*
G04 #@! TF.ProjectId,ortho40,6F7274686F34302E6B696361645F7063,rev?*
G04 #@! TF.SameCoordinates,Original*
G04 #@! TF.FileFunction,Legend,Top*
G04 #@! TF.FilePolarity,Positive*
%FSLAX46Y46*%
G04 Gerber Fmt 4.6, Leading zero omitted, Abs format (unit mm)*
G04 Created by KiCad (PCBNEW 5.0.1) date Sat 17 Nov 2018 09:30:07 PM -02*
%MOMM*%
%LPD*%
G01*
G04 APERTURE LIST*
%ADD10C,0.300000*%
%ADD11C,0.250000*%
%ADD12C,0.381000*%
%ADD13C,0.120000*%
%ADD14C,0.150000*%
G04 APERTURE END LIST*
D10*
X26291071Y-108885714D02*
X26291071Y-107885714D01*
X27791071Y-108528571D01*
X26291071Y-106671428D02*
X26291071Y-106957142D01*
X26362500Y-107100000D01*
X26433928Y-107171428D01*
X26648214Y-107314285D01*
X26933928Y-107385714D01*
X27505357Y-107385714D01*
X27648214Y-107314285D01*
X27719642Y-107242857D01*
X27791071Y-107100000D01*
X27791071Y-106814285D01*
X27719642Y-106671428D01*
X27648214Y-106600000D01*
X27505357Y-106528571D01*
X27148214Y-106528571D01*
X27005357Y-106600000D01*
X26933928Y-106671428D01*
X26862500Y-106814285D01*
X26862500Y-107100000D01*
X26933928Y-107242857D01*
X27005357Y-107314285D01*
X27148214Y-107385714D01*
X27648214Y-105885714D02*
X27719642Y-105814285D01*
X27791071Y-105885714D01*
X27719642Y-105957142D01*
X27648214Y-105885714D01*
X27791071Y-105885714D01*
X27791071Y-105100000D02*
X27791071Y-104814285D01*
X27719642Y-104671428D01*
X27648214Y-104600000D01*
X27433928Y-104457142D01*
X27148214Y-104385714D01*
X26576785Y-104385714D01*
X26433928Y-104457142D01*
X26362500Y-104528571D01*
X26291071Y-104671428D01*
X26291071Y-104957142D01*
X26362500Y-105100000D01*
X26433928Y-105171428D01*
X26576785Y-105242857D01*
X26933928Y-105242857D01*
X27076785Y-105171428D01*
X27148214Y-105100000D01*
X27219642Y-104957142D01*
X27219642Y-104671428D01*
X27148214Y-104528571D01*
X27076785Y-104457142D01*
X26933928Y-104385714D01*
X26291071Y-103028571D02*
X26291071Y-103742857D01*
X27005357Y-103814285D01*
X26933928Y-103742857D01*
X26862500Y-103600000D01*
X26862500Y-103242857D01*
X26933928Y-103100000D01*
X27005357Y-103028571D01*
X27148214Y-102957142D01*
X27505357Y-102957142D01*
X27648214Y-103028571D01*
X27719642Y-103100000D01*
X27791071Y-103242857D01*
X27791071Y-103600000D01*
X27719642Y-103742857D01*
X27648214Y-103814285D01*
X26291071Y-102028571D02*
X26291071Y-101885714D01*
X26362500Y-101742857D01*
X26433928Y-101671428D01*
X26576785Y-101600000D01*
X26862500Y-101528571D01*
X27219642Y-101528571D01*
X27505357Y-101600000D01*
X27648214Y-101671428D01*
X27719642Y-101742857D01*
X27791071Y-101885714D01*
X27791071Y-102028571D01*
X27719642Y-102171428D01*
X27648214Y-102242857D01*
X27505357Y-102314285D01*
X27219642Y-102385714D01*
X26862500Y-102385714D01*
X26576785Y-102314285D01*
X26433928Y-102242857D01*
X26362500Y-102171428D01*
X26291071Y-102028571D01*
X27791071Y-99742857D02*
X26791071Y-99742857D01*
X26933928Y-99742857D02*
X26862500Y-99671428D01*
X26791071Y-99528571D01*
X26791071Y-99314285D01*
X26862500Y-99171428D01*
X27005357Y-99100000D01*
X27791071Y-99100000D01*
X27005357Y-99100000D02*
X26862500Y-99028571D01*
X26791071Y-98885714D01*
X26791071Y-98671428D01*
X26862500Y-98528571D01*
X27005357Y-98457142D01*
X27791071Y-98457142D01*
X27791071Y-97742857D02*
X26791071Y-97742857D01*
X26933928Y-97742857D02*
X26862500Y-97671428D01*
X26791071Y-97528571D01*
X26791071Y-97314285D01*
X26862500Y-97171428D01*
X27005357Y-97100000D01*
X27791071Y-97100000D01*
X27005357Y-97100000D02*
X26862500Y-97028571D01*
X26791071Y-96885714D01*
X26791071Y-96671428D01*
X26862500Y-96528571D01*
X27005357Y-96457142D01*
X27791071Y-96457142D01*
X29212500Y-141075000D02*
X29212500Y-64125000D01*
X33725000Y-141075000D02*
X28626079Y-141075000D01*
X33725000Y-64125000D02*
X28626079Y-64125000D01*
X29212500Y-64125000D02*
X29798921Y-65251504D01*
X29212500Y-64125000D02*
X28626079Y-65251504D01*
X29212500Y-141075000D02*
X29798921Y-139948496D01*
X29212500Y-141075000D02*
X28626079Y-139948496D01*
X141271428Y-151046428D02*
X141342857Y-150975000D01*
X141485714Y-150903571D01*
X141842857Y-150903571D01*
X141985714Y-150975000D01*
X142057142Y-151046428D01*
X142128571Y-151189285D01*
X142128571Y-151332142D01*
X142057142Y-151546428D01*
X141200000Y-152403571D01*
X142128571Y-152403571D01*
X142700000Y-151046428D02*
X142771428Y-150975000D01*
X142914285Y-150903571D01*
X143271428Y-150903571D01*
X143414285Y-150975000D01*
X143485714Y-151046428D01*
X143557142Y-151189285D01*
X143557142Y-151332142D01*
X143485714Y-151546428D01*
X142628571Y-152403571D01*
X143557142Y-152403571D01*
X144414285Y-151546428D02*
X144271428Y-151475000D01*
X144200000Y-151403571D01*
X144128571Y-151260714D01*
X144128571Y-151189285D01*
X144200000Y-151046428D01*
X144271428Y-150975000D01*
X144414285Y-150903571D01*
X144700000Y-150903571D01*
X144842857Y-150975000D01*
X144914285Y-151046428D01*
X144985714Y-151189285D01*
X144985714Y-151260714D01*
X144914285Y-151403571D01*
X144842857Y-151475000D01*
X144700000Y-151546428D01*
X144414285Y-151546428D01*
X144271428Y-151617857D01*
X144200000Y-151689285D01*
X144128571Y-151832142D01*
X144128571Y-152117857D01*
X144200000Y-152260714D01*
X144271428Y-152332142D01*
X144414285Y-152403571D01*
X144700000Y-152403571D01*
X144842857Y-152332142D01*
X144914285Y-152260714D01*
X144985714Y-152117857D01*
X144985714Y-151832142D01*
X144914285Y-151689285D01*
X144842857Y-151617857D01*
X144700000Y-151546428D01*
X145628571Y-152260714D02*
X145700000Y-152332142D01*
X145628571Y-152403571D01*
X145557142Y-152332142D01*
X145628571Y-152260714D01*
X145628571Y-152403571D01*
X146414285Y-152403571D02*
X146700000Y-152403571D01*
X146842857Y-152332142D01*
X146914285Y-152260714D01*
X147057142Y-152046428D01*
X147128571Y-151760714D01*
X147128571Y-151189285D01*
X147057142Y-151046428D01*
X146985714Y-150975000D01*
X146842857Y-150903571D01*
X146557142Y-150903571D01*
X146414285Y-150975000D01*
X146342857Y-151046428D01*
X146271428Y-151189285D01*
X146271428Y-151546428D01*
X146342857Y-151689285D01*
X146414285Y-151760714D01*
X146557142Y-151832142D01*
X146842857Y-151832142D01*
X146985714Y-151760714D01*
X147057142Y-151689285D01*
X147128571Y-151546428D01*
X148485714Y-150903571D02*
X147771428Y-150903571D01*
X147700000Y-151617857D01*
X147771428Y-151546428D01*
X147914285Y-151475000D01*
X148271428Y-151475000D01*
X148414285Y-151546428D01*
X148485714Y-151617857D01*
X148557142Y-151760714D01*
X148557142Y-152117857D01*
X148485714Y-152260714D01*
X148414285Y-152332142D01*
X148271428Y-152403571D01*
X147914285Y-152403571D01*
X147771428Y-152332142D01*
X147700000Y-152260714D01*
X149485714Y-150903571D02*
X149628571Y-150903571D01*
X149771428Y-150975000D01*
X149842857Y-151046428D01*
X149914285Y-151189285D01*
X149985714Y-151475000D01*
X149985714Y-151832142D01*
X149914285Y-152117857D01*
X149842857Y-152260714D01*
X149771428Y-152332142D01*
X149628571Y-152403571D01*
X149485714Y-152403571D01*
X149342857Y-152332142D01*
X149271428Y-152260714D01*
X149200000Y-152117857D01*
X149128571Y-151832142D01*
X149128571Y-151475000D01*
X149200000Y-151189285D01*
X149271428Y-151046428D01*
X149342857Y-150975000D01*
X149485714Y-150903571D01*
X151771428Y-152403571D02*
X151771428Y-151403571D01*
X151771428Y-151546428D02*
X151842857Y-151475000D01*
X151985714Y-151403571D01*
X152200000Y-151403571D01*
X152342857Y-151475000D01*
X152414285Y-151617857D01*
X152414285Y-152403571D01*
X152414285Y-151617857D02*
X152485714Y-151475000D01*
X152628571Y-151403571D01*
X152842857Y-151403571D01*
X152985714Y-151475000D01*
X153057142Y-151617857D01*
X153057142Y-152403571D01*
X153771428Y-152403571D02*
X153771428Y-151403571D01*
X153771428Y-151546428D02*
X153842857Y-151475000D01*
X153985714Y-151403571D01*
X154200000Y-151403571D01*
X154342857Y-151475000D01*
X154414285Y-151617857D01*
X154414285Y-152403571D01*
X154414285Y-151617857D02*
X154485714Y-151475000D01*
X154628571Y-151403571D01*
X154842857Y-151403571D01*
X154985714Y-151475000D01*
X155057142Y-151617857D01*
X155057142Y-152403571D01*
X33725000Y-149625000D02*
X262675000Y-149625000D01*
X33725000Y-142975000D02*
X33725000Y-150211421D01*
X262675000Y-142975000D02*
X262675000Y-150211421D01*
X262675000Y-149625000D02*
X261548496Y-150211421D01*
X262675000Y-149625000D02*
X261548496Y-149038579D01*
X33725000Y-149625000D02*
X34851504Y-150211421D01*
X33725000Y-149625000D02*
X34851504Y-149038579D01*
D11*
X47221428Y-120225000D02*
X47126190Y-120177380D01*
X46983333Y-120177380D01*
X46840476Y-120225000D01*
X46745238Y-120320238D01*
X46697619Y-120415476D01*
X46650000Y-120605952D01*
X46650000Y-120748809D01*
X46697619Y-120939285D01*
X46745238Y-121034523D01*
X46840476Y-121129761D01*
X46983333Y-121177380D01*
X47078571Y-121177380D01*
X47221428Y-121129761D01*
X47269047Y-121082142D01*
X47269047Y-120748809D01*
X47078571Y-120748809D01*
X47840476Y-121177380D02*
X47745238Y-121129761D01*
X47697619Y-121082142D01*
X47650000Y-120986904D01*
X47650000Y-120701190D01*
X47697619Y-120605952D01*
X47745238Y-120558333D01*
X47840476Y-120510714D01*
X47983333Y-120510714D01*
X48078571Y-120558333D01*
X48126190Y-120605952D01*
X48173809Y-120701190D01*
X48173809Y-120986904D01*
X48126190Y-121082142D01*
X48078571Y-121129761D01*
X47983333Y-121177380D01*
X47840476Y-121177380D01*
X48602380Y-120510714D02*
X48602380Y-121177380D01*
X48602380Y-120605952D02*
X48650000Y-120558333D01*
X48745238Y-120510714D01*
X48888095Y-120510714D01*
X48983333Y-120558333D01*
X49030952Y-120653571D01*
X49030952Y-121177380D01*
X49935714Y-121177380D02*
X49935714Y-120177380D01*
X49935714Y-121129761D02*
X49840476Y-121177380D01*
X49650000Y-121177380D01*
X49554761Y-121129761D01*
X49507142Y-121082142D01*
X49459523Y-120986904D01*
X49459523Y-120701190D01*
X49507142Y-120605952D01*
X49554761Y-120558333D01*
X49650000Y-120510714D01*
X49840476Y-120510714D01*
X49935714Y-120558333D01*
X50554761Y-121177380D02*
X50459523Y-121129761D01*
X50411904Y-121082142D01*
X50364285Y-120986904D01*
X50364285Y-120701190D01*
X50411904Y-120605952D01*
X50459523Y-120558333D01*
X50554761Y-120510714D01*
X50697619Y-120510714D01*
X50792857Y-120558333D01*
X50840476Y-120605952D01*
X50888095Y-120701190D01*
X50888095Y-120986904D01*
X50840476Y-121082142D01*
X50792857Y-121129761D01*
X50697619Y-121177380D01*
X50554761Y-121177380D01*
X51459523Y-121177380D02*
X51364285Y-121129761D01*
X51316666Y-121034523D01*
X51316666Y-120177380D01*
X51840476Y-121177380D02*
X51840476Y-120510714D01*
X51840476Y-120177380D02*
X51792857Y-120225000D01*
X51840476Y-120272619D01*
X51888095Y-120225000D01*
X51840476Y-120177380D01*
X51840476Y-120272619D01*
X52316666Y-120510714D02*
X52316666Y-121177380D01*
X52316666Y-120605952D02*
X52364285Y-120558333D01*
X52459523Y-120510714D01*
X52602380Y-120510714D01*
X52697619Y-120558333D01*
X52745238Y-120653571D01*
X52745238Y-121177380D01*
X53221428Y-120653571D02*
X53554761Y-120653571D01*
X53697619Y-121177380D02*
X53221428Y-121177380D01*
X53221428Y-120177380D01*
X53697619Y-120177380D01*
X54269047Y-121177380D02*
X54173809Y-121129761D01*
X54126190Y-121034523D01*
X54126190Y-120177380D01*
X55030952Y-121129761D02*
X54935714Y-121177380D01*
X54745238Y-121177380D01*
X54649999Y-121129761D01*
X54602380Y-121034523D01*
X54602380Y-120653571D01*
X54649999Y-120558333D01*
X54745238Y-120510714D01*
X54935714Y-120510714D01*
X55030952Y-120558333D01*
X55078571Y-120653571D01*
X55078571Y-120748809D01*
X54602380Y-120844047D01*
X55935714Y-121129761D02*
X55840476Y-121177380D01*
X55649999Y-121177380D01*
X55554761Y-121129761D01*
X55507142Y-121082142D01*
X55459523Y-120986904D01*
X55459523Y-120701190D01*
X55507142Y-120605952D01*
X55554761Y-120558333D01*
X55649999Y-120510714D01*
X55840476Y-120510714D01*
X55935714Y-120558333D01*
X56221428Y-120510714D02*
X56602380Y-120510714D01*
X56364285Y-120177380D02*
X56364285Y-121034523D01*
X56411904Y-121129761D01*
X56507142Y-121177380D01*
X56602380Y-121177380D01*
X56935714Y-121177380D02*
X56935714Y-120510714D01*
X56935714Y-120701190D02*
X56983333Y-120605952D01*
X57030952Y-120558333D01*
X57126190Y-120510714D01*
X57221428Y-120510714D01*
X57697619Y-121177380D02*
X57602380Y-121129761D01*
X57554761Y-121082142D01*
X57507142Y-120986904D01*
X57507142Y-120701190D01*
X57554761Y-120605952D01*
X57602380Y-120558333D01*
X57697619Y-120510714D01*
X57840476Y-120510714D01*
X57935714Y-120558333D01*
X57983333Y-120605952D01*
X58030952Y-120701190D01*
X58030952Y-120986904D01*
X57983333Y-121082142D01*
X57935714Y-121129761D01*
X57840476Y-121177380D01*
X57697619Y-121177380D01*
X58459523Y-120510714D02*
X58459523Y-121177380D01*
X58459523Y-120605952D02*
X58507142Y-120558333D01*
X58602380Y-120510714D01*
X58745238Y-120510714D01*
X58840476Y-120558333D01*
X58888095Y-120653571D01*
X58888095Y-121177380D01*
X59364285Y-121177380D02*
X59364285Y-120510714D01*
X59364285Y-120177380D02*
X59316666Y-120225000D01*
X59364285Y-120272619D01*
X59411904Y-120225000D01*
X59364285Y-120177380D01*
X59364285Y-120272619D01*
X60269047Y-121129761D02*
X60173809Y-121177380D01*
X59983333Y-121177380D01*
X59888095Y-121129761D01*
X59840476Y-121082142D01*
X59792857Y-120986904D01*
X59792857Y-120701190D01*
X59840476Y-120605952D01*
X59888095Y-120558333D01*
X59983333Y-120510714D01*
X60173809Y-120510714D01*
X60269047Y-120558333D01*
X60649999Y-121129761D02*
X60745238Y-121177380D01*
X60935714Y-121177380D01*
X61030952Y-121129761D01*
X61078571Y-121034523D01*
X61078571Y-120986904D01*
X61030952Y-120891666D01*
X60935714Y-120844047D01*
X60792857Y-120844047D01*
X60697619Y-120796428D01*
X60649999Y-120701190D01*
X60649999Y-120653571D01*
X60697619Y-120558333D01*
X60792857Y-120510714D01*
X60935714Y-120510714D01*
X61030952Y-120558333D01*
X62269047Y-120177380D02*
X62269047Y-120986904D01*
X62316666Y-121082142D01*
X62364285Y-121129761D01*
X62459523Y-121177380D01*
X62649999Y-121177380D01*
X62745238Y-121129761D01*
X62792857Y-121082142D01*
X62840476Y-120986904D01*
X62840476Y-120177380D01*
X63316666Y-120510714D02*
X63316666Y-121177380D01*
X63316666Y-120605952D02*
X63364285Y-120558333D01*
X63459523Y-120510714D01*
X63602380Y-120510714D01*
X63697619Y-120558333D01*
X63745238Y-120653571D01*
X63745238Y-121177380D01*
X64649999Y-121177380D02*
X64649999Y-120177380D01*
X64649999Y-121129761D02*
X64554761Y-121177380D01*
X64364285Y-121177380D01*
X64269047Y-121129761D01*
X64221428Y-121082142D01*
X64173809Y-120986904D01*
X64173809Y-120701190D01*
X64221428Y-120605952D01*
X64269047Y-120558333D01*
X64364285Y-120510714D01*
X64554761Y-120510714D01*
X64649999Y-120558333D01*
X65507142Y-121129761D02*
X65411904Y-121177380D01*
X65221428Y-121177380D01*
X65126190Y-121129761D01*
X65078571Y-121034523D01*
X65078571Y-120653571D01*
X65126190Y-120558333D01*
X65221428Y-120510714D01*
X65411904Y-120510714D01*
X65507142Y-120558333D01*
X65554761Y-120653571D01*
X65554761Y-120748809D01*
X65078571Y-120844047D01*
X66411904Y-121129761D02*
X66316666Y-121177380D01*
X66126190Y-121177380D01*
X66030952Y-121129761D01*
X65983333Y-121082142D01*
X65935714Y-120986904D01*
X65935714Y-120701190D01*
X65983333Y-120605952D01*
X66030952Y-120558333D01*
X66126190Y-120510714D01*
X66316666Y-120510714D01*
X66411904Y-120558333D01*
X66840476Y-121177380D02*
X66840476Y-120510714D01*
X66840476Y-120177380D02*
X66792857Y-120225000D01*
X66840476Y-120272619D01*
X66888095Y-120225000D01*
X66840476Y-120177380D01*
X66840476Y-120272619D01*
X67745238Y-121177380D02*
X67745238Y-120177380D01*
X67745238Y-121129761D02*
X67650000Y-121177380D01*
X67459523Y-121177380D01*
X67364285Y-121129761D01*
X67316666Y-121082142D01*
X67269047Y-120986904D01*
X67269047Y-120701190D01*
X67316666Y-120605952D01*
X67364285Y-120558333D01*
X67459523Y-120510714D01*
X67650000Y-120510714D01*
X67745238Y-120558333D01*
X68602380Y-121129761D02*
X68507142Y-121177380D01*
X68316666Y-121177380D01*
X68221428Y-121129761D01*
X68173809Y-121034523D01*
X68173809Y-120653571D01*
X68221428Y-120558333D01*
X68316666Y-120510714D01*
X68507142Y-120510714D01*
X68602380Y-120558333D01*
X68650000Y-120653571D01*
X68650000Y-120748809D01*
X68173809Y-120844047D01*
X69507142Y-121177380D02*
X69507142Y-120177380D01*
X69507142Y-121129761D02*
X69411904Y-121177380D01*
X69221428Y-121177380D01*
X69126190Y-121129761D01*
X69078571Y-121082142D01*
X69030952Y-120986904D01*
X69030952Y-120701190D01*
X69078571Y-120605952D01*
X69126190Y-120558333D01*
X69221428Y-120510714D01*
X69411904Y-120510714D01*
X69507142Y-120558333D01*
X69935714Y-121129761D02*
X70078571Y-121177380D01*
X70316666Y-121177380D01*
X70411904Y-121129761D01*
X70459523Y-121082142D01*
X70507142Y-120986904D01*
X70507142Y-120891666D01*
X70459523Y-120796428D01*
X70411904Y-120748809D01*
X70316666Y-120701190D01*
X70126190Y-120653571D01*
X70030952Y-120605952D01*
X69983333Y-120558333D01*
X69935714Y-120463095D01*
X69935714Y-120367857D01*
X69983333Y-120272619D01*
X70030952Y-120225000D01*
X70126190Y-120177380D01*
X70364285Y-120177380D01*
X70507142Y-120225000D01*
X70935714Y-121177380D02*
X70935714Y-120177380D01*
X71364285Y-121177380D02*
X71364285Y-120653571D01*
X71316666Y-120558333D01*
X71221428Y-120510714D01*
X71078571Y-120510714D01*
X70983333Y-120558333D01*
X70935714Y-120605952D01*
X72269047Y-121177380D02*
X72269047Y-120653571D01*
X72221428Y-120558333D01*
X72126190Y-120510714D01*
X71935714Y-120510714D01*
X71840476Y-120558333D01*
X72269047Y-121129761D02*
X72173809Y-121177380D01*
X71935714Y-121177380D01*
X71840476Y-121129761D01*
X71792857Y-121034523D01*
X71792857Y-120939285D01*
X71840476Y-120844047D01*
X71935714Y-120796428D01*
X72173809Y-120796428D01*
X72269047Y-120748809D01*
X72745238Y-121177380D02*
X72745238Y-120510714D01*
X72745238Y-120701190D02*
X72792857Y-120605952D01*
X72840476Y-120558333D01*
X72935714Y-120510714D01*
X73030952Y-120510714D01*
X73364285Y-121177380D02*
X73364285Y-120177380D01*
X73459523Y-120796428D02*
X73745238Y-121177380D01*
X73745238Y-120510714D02*
X73364285Y-120891666D01*
X74173809Y-121177380D02*
X74173809Y-120177380D01*
X74554761Y-120177380D01*
X74649999Y-120225000D01*
X74697619Y-120272619D01*
X74745238Y-120367857D01*
X74745238Y-120510714D01*
X74697619Y-120605952D01*
X74649999Y-120653571D01*
X74554761Y-120701190D01*
X74173809Y-120701190D01*
X75745238Y-121082142D02*
X75697619Y-121129761D01*
X75554761Y-121177380D01*
X75459523Y-121177380D01*
X75316666Y-121129761D01*
X75221428Y-121034523D01*
X75173809Y-120939285D01*
X75126190Y-120748809D01*
X75126190Y-120605952D01*
X75173809Y-120415476D01*
X75221428Y-120320238D01*
X75316666Y-120225000D01*
X75459523Y-120177380D01*
X75554761Y-120177380D01*
X75697619Y-120225000D01*
X75745238Y-120272619D01*
X76507142Y-120653571D02*
X76649999Y-120701190D01*
X76697619Y-120748809D01*
X76745238Y-120844047D01*
X76745238Y-120986904D01*
X76697619Y-121082142D01*
X76649999Y-121129761D01*
X76554761Y-121177380D01*
X76173809Y-121177380D01*
X76173809Y-120177380D01*
X76507142Y-120177380D01*
X76602380Y-120225000D01*
X76649999Y-120272619D01*
X76697619Y-120367857D01*
X76697619Y-120463095D01*
X76649999Y-120558333D01*
X76602380Y-120605952D01*
X76507142Y-120653571D01*
X76173809Y-120653571D01*
X77840476Y-120510714D02*
X78078571Y-121177380D01*
X78316666Y-120510714D01*
X79221428Y-121177380D02*
X78649999Y-121177380D01*
X78935714Y-121177380D02*
X78935714Y-120177380D01*
X78840476Y-120320238D01*
X78745238Y-120415476D01*
X78649999Y-120463095D01*
X79649999Y-121082142D02*
X79697619Y-121129761D01*
X79649999Y-121177380D01*
X79602380Y-121129761D01*
X79649999Y-121082142D01*
X79649999Y-121177380D01*
X80316666Y-120177380D02*
X80411904Y-120177380D01*
X80507142Y-120225000D01*
X80554761Y-120272619D01*
X80602380Y-120367857D01*
X80649999Y-120558333D01*
X80649999Y-120796428D01*
X80602380Y-120986904D01*
X80554761Y-121082142D01*
X80507142Y-121129761D01*
X80411904Y-121177380D01*
X80316666Y-121177380D01*
X80221428Y-121129761D01*
X80173809Y-121082142D01*
X80126190Y-120986904D01*
X80078571Y-120796428D01*
X80078571Y-120558333D01*
X80126190Y-120367857D01*
X80173809Y-120272619D01*
X80221428Y-120225000D01*
X80316666Y-120177380D01*
X45983333Y-121927380D02*
X45983333Y-122117857D01*
X46364285Y-121927380D02*
X46364285Y-122117857D01*
X46792857Y-122927380D02*
X46792857Y-121927380D01*
X48173809Y-122927380D02*
X48078571Y-122879761D01*
X48030952Y-122784523D01*
X48030952Y-121927380D01*
X48554761Y-122927380D02*
X48554761Y-122260714D01*
X48554761Y-121927380D02*
X48507142Y-121975000D01*
X48554761Y-122022619D01*
X48602380Y-121975000D01*
X48554761Y-121927380D01*
X48554761Y-122022619D01*
X49030952Y-122927380D02*
X49030952Y-121927380D01*
X49126190Y-122546428D02*
X49411904Y-122927380D01*
X49411904Y-122260714D02*
X49030952Y-122641666D01*
X50221428Y-122879761D02*
X50126190Y-122927380D01*
X49935714Y-122927380D01*
X49840476Y-122879761D01*
X49792857Y-122784523D01*
X49792857Y-122403571D01*
X49840476Y-122308333D01*
X49935714Y-122260714D01*
X50126190Y-122260714D01*
X50221428Y-122308333D01*
X50269047Y-122403571D01*
X50269047Y-122498809D01*
X49792857Y-122594047D01*
X51316666Y-122260714D02*
X51697619Y-122260714D01*
X51459523Y-121927380D02*
X51459523Y-122784523D01*
X51507142Y-122879761D01*
X51602380Y-122927380D01*
X51697619Y-122927380D01*
X52030952Y-122927380D02*
X52030952Y-121927380D01*
X52459523Y-122927380D02*
X52459523Y-122403571D01*
X52411904Y-122308333D01*
X52316666Y-122260714D01*
X52173809Y-122260714D01*
X52078571Y-122308333D01*
X52030952Y-122355952D01*
X53316666Y-122879761D02*
X53221428Y-122927380D01*
X53030952Y-122927380D01*
X52935714Y-122879761D01*
X52888095Y-122784523D01*
X52888095Y-122403571D01*
X52935714Y-122308333D01*
X53030952Y-122260714D01*
X53221428Y-122260714D01*
X53316666Y-122308333D01*
X53364285Y-122403571D01*
X53364285Y-122498809D01*
X52888095Y-122594047D01*
X54554761Y-122260714D02*
X54554761Y-122927380D01*
X54554761Y-122355952D02*
X54602380Y-122308333D01*
X54697619Y-122260714D01*
X54840476Y-122260714D01*
X54935714Y-122308333D01*
X54983333Y-122403571D01*
X54983333Y-122927380D01*
X55459523Y-122927380D02*
X55459523Y-122260714D01*
X55459523Y-121927380D02*
X55411904Y-121975000D01*
X55459523Y-122022619D01*
X55507142Y-121975000D01*
X55459523Y-121927380D01*
X55459523Y-122022619D01*
X56364285Y-122879761D02*
X56269047Y-122927380D01*
X56078571Y-122927380D01*
X55983333Y-122879761D01*
X55935714Y-122832142D01*
X55888095Y-122736904D01*
X55888095Y-122451190D01*
X55935714Y-122355952D01*
X55983333Y-122308333D01*
X56078571Y-122260714D01*
X56269047Y-122260714D01*
X56364285Y-122308333D01*
X56792857Y-122927380D02*
X56792857Y-121927380D01*
X56888095Y-122546428D02*
X57173809Y-122927380D01*
X57173809Y-122260714D02*
X56792857Y-122641666D01*
X58411904Y-121927380D02*
X58316666Y-122117857D01*
X58792857Y-122879761D02*
X58935714Y-122927380D01*
X59173809Y-122927380D01*
X59269047Y-122879761D01*
X59316666Y-122832142D01*
X59364285Y-122736904D01*
X59364285Y-122641666D01*
X59316666Y-122546428D01*
X59269047Y-122498809D01*
X59173809Y-122451190D01*
X58983333Y-122403571D01*
X58888095Y-122355952D01*
X58840476Y-122308333D01*
X58792857Y-122213095D01*
X58792857Y-122117857D01*
X58840476Y-122022619D01*
X58888095Y-121975000D01*
X58983333Y-121927380D01*
X59221428Y-121927380D01*
X59364285Y-121975000D01*
X59792857Y-122927380D02*
X59792857Y-121927380D01*
X60221428Y-122927380D02*
X60221428Y-122403571D01*
X60173809Y-122308333D01*
X60078571Y-122260714D01*
X59935714Y-122260714D01*
X59840476Y-122308333D01*
X59792857Y-122355952D01*
X61126190Y-122927380D02*
X61126190Y-122403571D01*
X61078571Y-122308333D01*
X60983333Y-122260714D01*
X60792857Y-122260714D01*
X60697619Y-122308333D01*
X61126190Y-122879761D02*
X61030952Y-122927380D01*
X60792857Y-122927380D01*
X60697619Y-122879761D01*
X60650000Y-122784523D01*
X60650000Y-122689285D01*
X60697619Y-122594047D01*
X60792857Y-122546428D01*
X61030952Y-122546428D01*
X61126190Y-122498809D01*
X61602380Y-122927380D02*
X61602380Y-122260714D01*
X61602380Y-122451190D02*
X61650000Y-122355952D01*
X61697619Y-122308333D01*
X61792857Y-122260714D01*
X61888095Y-122260714D01*
X62221428Y-122927380D02*
X62221428Y-121927380D01*
X62316666Y-122546428D02*
X62602380Y-122927380D01*
X62602380Y-122260714D02*
X62221428Y-122641666D01*
X63078571Y-121927380D02*
X62983333Y-122117857D01*
X63554761Y-122879761D02*
X63554761Y-122927380D01*
X63507142Y-123022619D01*
X63459523Y-123070238D01*
X64745238Y-122927380D02*
X64745238Y-121927380D01*
X64745238Y-122308333D02*
X64840476Y-122260714D01*
X65030952Y-122260714D01*
X65126190Y-122308333D01*
X65173809Y-122355952D01*
X65221428Y-122451190D01*
X65221428Y-122736904D01*
X65173809Y-122832142D01*
X65126190Y-122879761D01*
X65030952Y-122927380D01*
X64840476Y-122927380D01*
X64745238Y-122879761D01*
X66078571Y-122260714D02*
X66078571Y-122927380D01*
X65650000Y-122260714D02*
X65650000Y-122784523D01*
X65697619Y-122879761D01*
X65792857Y-122927380D01*
X65935714Y-122927380D01*
X66030952Y-122879761D01*
X66078571Y-122832142D01*
X66411904Y-122260714D02*
X66792857Y-122260714D01*
X66554761Y-121927380D02*
X66554761Y-122784523D01*
X66602380Y-122879761D01*
X66697619Y-122927380D01*
X66792857Y-122927380D01*
X67888095Y-122927380D02*
X67888095Y-121927380D01*
X68411904Y-121927380D02*
X68316666Y-122117857D01*
X68840476Y-122927380D02*
X68840476Y-122260714D01*
X68840476Y-122355952D02*
X68888095Y-122308333D01*
X68983333Y-122260714D01*
X69126190Y-122260714D01*
X69221428Y-122308333D01*
X69269047Y-122403571D01*
X69269047Y-122927380D01*
X69269047Y-122403571D02*
X69316666Y-122308333D01*
X69411904Y-122260714D01*
X69554761Y-122260714D01*
X69650000Y-122308333D01*
X69697619Y-122403571D01*
X69697619Y-122927380D01*
X70888095Y-122879761D02*
X70983333Y-122927380D01*
X71173809Y-122927380D01*
X71269047Y-122879761D01*
X71316666Y-122784523D01*
X71316666Y-122736904D01*
X71269047Y-122641666D01*
X71173809Y-122594047D01*
X71030952Y-122594047D01*
X70935714Y-122546428D01*
X70888095Y-122451190D01*
X70888095Y-122403571D01*
X70935714Y-122308333D01*
X71030952Y-122260714D01*
X71173809Y-122260714D01*
X71269047Y-122308333D01*
X71888095Y-122927380D02*
X71792857Y-122879761D01*
X71745238Y-122832142D01*
X71697619Y-122736904D01*
X71697619Y-122451190D01*
X71745238Y-122355952D01*
X71792857Y-122308333D01*
X71888095Y-122260714D01*
X72030952Y-122260714D01*
X72126190Y-122308333D01*
X72173809Y-122355952D01*
X72221428Y-122451190D01*
X72221428Y-122736904D01*
X72173809Y-122832142D01*
X72126190Y-122879761D01*
X72030952Y-122927380D01*
X71888095Y-122927380D01*
X73840476Y-122260714D02*
X73840476Y-122927380D01*
X73411904Y-122260714D02*
X73411904Y-122784523D01*
X73459523Y-122879761D01*
X73554761Y-122927380D01*
X73697619Y-122927380D01*
X73792857Y-122879761D01*
X73840476Y-122832142D01*
X74316666Y-122260714D02*
X74316666Y-122927380D01*
X74316666Y-122355952D02*
X74364285Y-122308333D01*
X74459523Y-122260714D01*
X74602380Y-122260714D01*
X74697619Y-122308333D01*
X74745238Y-122403571D01*
X74745238Y-122927380D01*
X75650000Y-122927380D02*
X75650000Y-121927380D01*
X75650000Y-122879761D02*
X75554761Y-122927380D01*
X75364285Y-122927380D01*
X75269047Y-122879761D01*
X75221428Y-122832142D01*
X75173809Y-122736904D01*
X75173809Y-122451190D01*
X75221428Y-122355952D01*
X75269047Y-122308333D01*
X75364285Y-122260714D01*
X75554761Y-122260714D01*
X75650000Y-122308333D01*
X76507142Y-122879761D02*
X76411904Y-122927380D01*
X76221428Y-122927380D01*
X76126190Y-122879761D01*
X76078571Y-122784523D01*
X76078571Y-122403571D01*
X76126190Y-122308333D01*
X76221428Y-122260714D01*
X76411904Y-122260714D01*
X76507142Y-122308333D01*
X76554761Y-122403571D01*
X76554761Y-122498809D01*
X76078571Y-122594047D01*
X77411904Y-122879761D02*
X77316666Y-122927380D01*
X77126190Y-122927380D01*
X77030952Y-122879761D01*
X76983333Y-122832142D01*
X76935714Y-122736904D01*
X76935714Y-122451190D01*
X76983333Y-122355952D01*
X77030952Y-122308333D01*
X77126190Y-122260714D01*
X77316666Y-122260714D01*
X77411904Y-122308333D01*
X77840476Y-122927380D02*
X77840476Y-122260714D01*
X77840476Y-121927380D02*
X77792857Y-121975000D01*
X77840476Y-122022619D01*
X77888095Y-121975000D01*
X77840476Y-121927380D01*
X77840476Y-122022619D01*
X78745238Y-122927380D02*
X78745238Y-121927380D01*
X78745238Y-122879761D02*
X78650000Y-122927380D01*
X78459523Y-122927380D01*
X78364285Y-122879761D01*
X78316666Y-122832142D01*
X78269047Y-122736904D01*
X78269047Y-122451190D01*
X78316666Y-122355952D01*
X78364285Y-122308333D01*
X78459523Y-122260714D01*
X78650000Y-122260714D01*
X78745238Y-122308333D01*
X79602380Y-122879761D02*
X79507142Y-122927380D01*
X79316666Y-122927380D01*
X79221428Y-122879761D01*
X79173809Y-122784523D01*
X79173809Y-122403571D01*
X79221428Y-122308333D01*
X79316666Y-122260714D01*
X79507142Y-122260714D01*
X79602380Y-122308333D01*
X79650000Y-122403571D01*
X79650000Y-122498809D01*
X79173809Y-122594047D01*
X80507142Y-122927380D02*
X80507142Y-121927380D01*
X80507142Y-122879761D02*
X80411904Y-122927380D01*
X80221428Y-122927380D01*
X80126190Y-122879761D01*
X80078571Y-122832142D01*
X80030952Y-122736904D01*
X80030952Y-122451190D01*
X80078571Y-122355952D01*
X80126190Y-122308333D01*
X80221428Y-122260714D01*
X80411904Y-122260714D01*
X80507142Y-122308333D01*
X80935714Y-121927380D02*
X80935714Y-122117857D01*
X81316666Y-121927380D02*
X81316666Y-122117857D01*
D12*
G04 #@! TO.C,K47*
X151350000Y-124750000D02*
X153128000Y-124750000D01*
X162272000Y-124750000D02*
X164050000Y-124750000D01*
X164050000Y-124750000D02*
X164050000Y-126528000D01*
X164050000Y-135672000D02*
X164050000Y-137450000D01*
X164050000Y-137450000D02*
X162272000Y-137450000D01*
X153128000Y-137450000D02*
X151350000Y-137450000D01*
X151350000Y-137450000D02*
X151350000Y-135672000D01*
X151350000Y-126528000D02*
X151350000Y-124750000D01*
G04 #@! TO.C,K310*
X208350000Y-105750000D02*
X210128000Y-105750000D01*
X219272000Y-105750000D02*
X221050000Y-105750000D01*
X221050000Y-105750000D02*
X221050000Y-107528000D01*
X221050000Y-116672000D02*
X221050000Y-118450000D01*
X221050000Y-118450000D02*
X219272000Y-118450000D01*
X210128000Y-118450000D02*
X208350000Y-118450000D01*
X208350000Y-118450000D02*
X208350000Y-116672000D01*
X208350000Y-107528000D02*
X208350000Y-105750000D01*
G04 #@! TO.C,K29*
X189350000Y-88528000D02*
X189350000Y-86750000D01*
X189350000Y-99450000D02*
X189350000Y-97672000D01*
X191128000Y-99450000D02*
X189350000Y-99450000D01*
X202050000Y-99450000D02*
X200272000Y-99450000D01*
X202050000Y-97672000D02*
X202050000Y-99450000D01*
X202050000Y-86750000D02*
X202050000Y-88528000D01*
X200272000Y-86750000D02*
X202050000Y-86750000D01*
X189350000Y-86750000D02*
X191128000Y-86750000D01*
G04 #@! TO.C,K210*
X208350000Y-88528000D02*
X208350000Y-86750000D01*
X208350000Y-99450000D02*
X208350000Y-97672000D01*
X210128000Y-99450000D02*
X208350000Y-99450000D01*
X221050000Y-99450000D02*
X219272000Y-99450000D01*
X221050000Y-97672000D02*
X221050000Y-99450000D01*
X221050000Y-86750000D02*
X221050000Y-88528000D01*
X219272000Y-86750000D02*
X221050000Y-86750000D01*
X208350000Y-86750000D02*
X210128000Y-86750000D01*
G04 #@! TO.C,K112*
X246350000Y-69528000D02*
X246350000Y-67750000D01*
X246350000Y-80450000D02*
X246350000Y-78672000D01*
X248128000Y-80450000D02*
X246350000Y-80450000D01*
X259050000Y-80450000D02*
X257272000Y-80450000D01*
X259050000Y-78672000D02*
X259050000Y-80450000D01*
X259050000Y-67750000D02*
X259050000Y-69528000D01*
X257272000Y-67750000D02*
X259050000Y-67750000D01*
X246350000Y-67750000D02*
X248128000Y-67750000D01*
D13*
G04 #@! TO.C,D26*
X149455660Y-95000000D02*
G75*
G03X149455660Y-95000000I-1255660J0D01*
G01*
X148200000Y-93744340D02*
X148200000Y-93510000D01*
D12*
G04 #@! TO.C,K26*
X132350000Y-86750000D02*
X134128000Y-86750000D01*
X143272000Y-86750000D02*
X145050000Y-86750000D01*
X145050000Y-86750000D02*
X145050000Y-88528000D01*
X145050000Y-97672000D02*
X145050000Y-99450000D01*
X145050000Y-99450000D02*
X143272000Y-99450000D01*
X134128000Y-99450000D02*
X132350000Y-99450000D01*
X132350000Y-99450000D02*
X132350000Y-97672000D01*
X132350000Y-88528000D02*
X132350000Y-86750000D01*
G04 #@! TO.C,K27*
X151350000Y-86750000D02*
X153128000Y-86750000D01*
X162272000Y-86750000D02*
X164050000Y-86750000D01*
X164050000Y-86750000D02*
X164050000Y-88528000D01*
X164050000Y-97672000D02*
X164050000Y-99450000D01*
X164050000Y-99450000D02*
X162272000Y-99450000D01*
X153128000Y-99450000D02*
X151350000Y-99450000D01*
X151350000Y-99450000D02*
X151350000Y-97672000D01*
X151350000Y-88528000D02*
X151350000Y-86750000D01*
G04 #@! TO.C,K13*
X75350000Y-67750000D02*
X77128000Y-67750000D01*
X86272000Y-67750000D02*
X88050000Y-67750000D01*
X88050000Y-67750000D02*
X88050000Y-69528000D01*
X88050000Y-78672000D02*
X88050000Y-80450000D01*
X88050000Y-80450000D02*
X86272000Y-80450000D01*
X77128000Y-80450000D02*
X75350000Y-80450000D01*
X75350000Y-80450000D02*
X75350000Y-78672000D01*
X75350000Y-69528000D02*
X75350000Y-67750000D01*
G04 #@! TO.C,K39*
X189350000Y-105750000D02*
X191128000Y-105750000D01*
X200272000Y-105750000D02*
X202050000Y-105750000D01*
X202050000Y-105750000D02*
X202050000Y-107528000D01*
X202050000Y-116672000D02*
X202050000Y-118450000D01*
X202050000Y-118450000D02*
X200272000Y-118450000D01*
X191128000Y-118450000D02*
X189350000Y-118450000D01*
X189350000Y-118450000D02*
X189350000Y-116672000D01*
X189350000Y-107528000D02*
X189350000Y-105750000D01*
D14*
G04 #@! TO.C,U1*
X210850000Y-106350000D02*
X210850000Y-105750000D01*
X200500000Y-106350000D02*
X200499999Y-105680000D01*
X200500000Y-96000000D02*
X200499999Y-96670000D01*
X210850000Y-96000000D02*
X210850001Y-96670000D01*
X210850000Y-106350000D02*
X210180000Y-106350001D01*
X210850000Y-96000000D02*
X210180000Y-95999999D01*
X200500000Y-96000000D02*
X201170000Y-95999999D01*
X200500000Y-106350000D02*
X201170000Y-106350001D01*
X210850000Y-105750000D02*
X212325001Y-105750000D01*
D12*
G04 #@! TO.C,K22*
X56350000Y-86750000D02*
X58128000Y-86750000D01*
X67272000Y-86750000D02*
X69050000Y-86750000D01*
X69050000Y-86750000D02*
X69050000Y-88528000D01*
X69050000Y-97672000D02*
X69050000Y-99450000D01*
X69050000Y-99450000D02*
X67272000Y-99450000D01*
X58128000Y-99450000D02*
X56350000Y-99450000D01*
X56350000Y-99450000D02*
X56350000Y-97672000D01*
X56350000Y-88528000D02*
X56350000Y-86750000D01*
D13*
G04 #@! TO.C,C1*
X189760000Y-83338748D02*
X189760000Y-83861252D01*
X188340000Y-83338748D02*
X188340000Y-83861252D01*
G04 #@! TO.C,C2*
X183822500Y-83861252D02*
X183822500Y-83338748D01*
X182402500Y-83861252D02*
X182402500Y-83338748D01*
G04 #@! TO.C,C3*
X215890000Y-101436252D02*
X215890000Y-100913748D01*
X217310000Y-101436252D02*
X217310000Y-100913748D01*
G04 #@! TO.C,C4*
X219210000Y-101436252D02*
X219210000Y-100913748D01*
X217790000Y-101436252D02*
X217790000Y-100913748D01*
G04 #@! TO.C,C5*
X221590000Y-101436252D02*
X221590000Y-100913748D01*
X223010000Y-101436252D02*
X223010000Y-100913748D01*
G04 #@! TO.C,C6*
X221110000Y-101436252D02*
X221110000Y-100913748D01*
X219690000Y-101436252D02*
X219690000Y-100913748D01*
G04 #@! TO.C,C8*
X215410000Y-100913748D02*
X215410000Y-101436252D01*
X213990000Y-100913748D02*
X213990000Y-101436252D01*
G04 #@! TO.C,J1*
X228185000Y-67510000D02*
X227525000Y-67510000D01*
X228185000Y-65780000D02*
X228185000Y-67510000D01*
X220565000Y-63210000D02*
X220565000Y-63420000D01*
X228185000Y-63210000D02*
X228185000Y-63420000D01*
X220565000Y-65780000D02*
X220565000Y-67510000D01*
X220565000Y-67510000D02*
X221215000Y-67510000D01*
X226135000Y-68210000D02*
X225685000Y-68210000D01*
X226135000Y-68210000D02*
X226135000Y-67820000D01*
D12*
G04 #@! TO.C,K11*
X37350000Y-67750000D02*
X39128000Y-67750000D01*
X48272000Y-67750000D02*
X50050000Y-67750000D01*
X50050000Y-67750000D02*
X50050000Y-69528000D01*
X50050000Y-78672000D02*
X50050000Y-80450000D01*
X50050000Y-80450000D02*
X48272000Y-80450000D01*
X39128000Y-80450000D02*
X37350000Y-80450000D01*
X37350000Y-80450000D02*
X37350000Y-78672000D01*
X37350000Y-69528000D02*
X37350000Y-67750000D01*
G04 #@! TO.C,K12*
X56350000Y-67750000D02*
X58128000Y-67750000D01*
X67272000Y-67750000D02*
X69050000Y-67750000D01*
X69050000Y-67750000D02*
X69050000Y-69528000D01*
X69050000Y-78672000D02*
X69050000Y-80450000D01*
X69050000Y-80450000D02*
X67272000Y-80450000D01*
X58128000Y-80450000D02*
X56350000Y-80450000D01*
X56350000Y-80450000D02*
X56350000Y-78672000D01*
X56350000Y-69528000D02*
X56350000Y-67750000D01*
G04 #@! TO.C,K14*
X94350000Y-67750000D02*
X96128000Y-67750000D01*
X105272000Y-67750000D02*
X107050000Y-67750000D01*
X107050000Y-67750000D02*
X107050000Y-69528000D01*
X107050000Y-78672000D02*
X107050000Y-80450000D01*
X107050000Y-80450000D02*
X105272000Y-80450000D01*
X96128000Y-80450000D02*
X94350000Y-80450000D01*
X94350000Y-80450000D02*
X94350000Y-78672000D01*
X94350000Y-69528000D02*
X94350000Y-67750000D01*
G04 #@! TO.C,K15*
X113350000Y-67750000D02*
X115128000Y-67750000D01*
X124272000Y-67750000D02*
X126050000Y-67750000D01*
X126050000Y-67750000D02*
X126050000Y-69528000D01*
X126050000Y-78672000D02*
X126050000Y-80450000D01*
X126050000Y-80450000D02*
X124272000Y-80450000D01*
X115128000Y-80450000D02*
X113350000Y-80450000D01*
X113350000Y-80450000D02*
X113350000Y-78672000D01*
X113350000Y-69528000D02*
X113350000Y-67750000D01*
G04 #@! TO.C,K16*
X132350000Y-67750000D02*
X134128000Y-67750000D01*
X143272000Y-67750000D02*
X145050000Y-67750000D01*
X145050000Y-67750000D02*
X145050000Y-69528000D01*
X145050000Y-78672000D02*
X145050000Y-80450000D01*
X145050000Y-80450000D02*
X143272000Y-80450000D01*
X134128000Y-80450000D02*
X132350000Y-80450000D01*
X132350000Y-80450000D02*
X132350000Y-78672000D01*
X132350000Y-69528000D02*
X132350000Y-67750000D01*
G04 #@! TO.C,K17*
X151350000Y-69528000D02*
X151350000Y-67750000D01*
X151350000Y-80450000D02*
X151350000Y-78672000D01*
X153128000Y-80450000D02*
X151350000Y-80450000D01*
X164050000Y-80450000D02*
X162272000Y-80450000D01*
X164050000Y-78672000D02*
X164050000Y-80450000D01*
X164050000Y-67750000D02*
X164050000Y-69528000D01*
X162272000Y-67750000D02*
X164050000Y-67750000D01*
X151350000Y-67750000D02*
X153128000Y-67750000D01*
G04 #@! TO.C,K18*
X170350000Y-69528000D02*
X170350000Y-67750000D01*
X170350000Y-80450000D02*
X170350000Y-78672000D01*
X172128000Y-80450000D02*
X170350000Y-80450000D01*
X183050000Y-80450000D02*
X181272000Y-80450000D01*
X183050000Y-78672000D02*
X183050000Y-80450000D01*
X183050000Y-67750000D02*
X183050000Y-69528000D01*
X181272000Y-67750000D02*
X183050000Y-67750000D01*
X170350000Y-67750000D02*
X172128000Y-67750000D01*
G04 #@! TO.C,K19*
X189350000Y-69528000D02*
X189350000Y-67750000D01*
X189350000Y-80450000D02*
X189350000Y-78672000D01*
X191128000Y-80450000D02*
X189350000Y-80450000D01*
X202050000Y-80450000D02*
X200272000Y-80450000D01*
X202050000Y-78672000D02*
X202050000Y-80450000D01*
X202050000Y-67750000D02*
X202050000Y-69528000D01*
X200272000Y-67750000D02*
X202050000Y-67750000D01*
X189350000Y-67750000D02*
X191128000Y-67750000D01*
G04 #@! TO.C,K21*
X37350000Y-86750000D02*
X39128000Y-86750000D01*
X48272000Y-86750000D02*
X50050000Y-86750000D01*
X50050000Y-86750000D02*
X50050000Y-88528000D01*
X50050000Y-97672000D02*
X50050000Y-99450000D01*
X50050000Y-99450000D02*
X48272000Y-99450000D01*
X39128000Y-99450000D02*
X37350000Y-99450000D01*
X37350000Y-99450000D02*
X37350000Y-97672000D01*
X37350000Y-88528000D02*
X37350000Y-86750000D01*
G04 #@! TO.C,K23*
X75350000Y-88528000D02*
X75350000Y-86750000D01*
X75350000Y-99450000D02*
X75350000Y-97672000D01*
X77128000Y-99450000D02*
X75350000Y-99450000D01*
X88050000Y-99450000D02*
X86272000Y-99450000D01*
X88050000Y-97672000D02*
X88050000Y-99450000D01*
X88050000Y-86750000D02*
X88050000Y-88528000D01*
X86272000Y-86750000D02*
X88050000Y-86750000D01*
X75350000Y-86750000D02*
X77128000Y-86750000D01*
G04 #@! TO.C,K24*
X94350000Y-86750000D02*
X96128000Y-86750000D01*
X105272000Y-86750000D02*
X107050000Y-86750000D01*
X107050000Y-86750000D02*
X107050000Y-88528000D01*
X107050000Y-97672000D02*
X107050000Y-99450000D01*
X107050000Y-99450000D02*
X105272000Y-99450000D01*
X96128000Y-99450000D02*
X94350000Y-99450000D01*
X94350000Y-99450000D02*
X94350000Y-97672000D01*
X94350000Y-88528000D02*
X94350000Y-86750000D01*
G04 #@! TO.C,K25*
X113350000Y-88528000D02*
X113350000Y-86750000D01*
X113350000Y-99450000D02*
X113350000Y-97672000D01*
X115128000Y-99450000D02*
X113350000Y-99450000D01*
X126050000Y-99450000D02*
X124272000Y-99450000D01*
X126050000Y-97672000D02*
X126050000Y-99450000D01*
X126050000Y-86750000D02*
X126050000Y-88528000D01*
X124272000Y-86750000D02*
X126050000Y-86750000D01*
X113350000Y-86750000D02*
X115128000Y-86750000D01*
G04 #@! TO.C,K28*
X170350000Y-88528000D02*
X170350000Y-86750000D01*
X170350000Y-99450000D02*
X170350000Y-97672000D01*
X172128000Y-99450000D02*
X170350000Y-99450000D01*
X183050000Y-99450000D02*
X181272000Y-99450000D01*
X183050000Y-97672000D02*
X183050000Y-99450000D01*
X183050000Y-86750000D02*
X183050000Y-88528000D01*
X181272000Y-86750000D02*
X183050000Y-86750000D01*
X170350000Y-86750000D02*
X172128000Y-86750000D01*
G04 #@! TO.C,K31*
X37350000Y-107528000D02*
X37350000Y-105750000D01*
X37350000Y-118450000D02*
X37350000Y-116672000D01*
X39128000Y-118450000D02*
X37350000Y-118450000D01*
X50050000Y-118450000D02*
X48272000Y-118450000D01*
X50050000Y-116672000D02*
X50050000Y-118450000D01*
X50050000Y-105750000D02*
X50050000Y-107528000D01*
X48272000Y-105750000D02*
X50050000Y-105750000D01*
X37350000Y-105750000D02*
X39128000Y-105750000D01*
G04 #@! TO.C,K32*
X56350000Y-107528000D02*
X56350000Y-105750000D01*
X56350000Y-118450000D02*
X56350000Y-116672000D01*
X58128000Y-118450000D02*
X56350000Y-118450000D01*
X69050000Y-118450000D02*
X67272000Y-118450000D01*
X69050000Y-116672000D02*
X69050000Y-118450000D01*
X69050000Y-105750000D02*
X69050000Y-107528000D01*
X67272000Y-105750000D02*
X69050000Y-105750000D01*
X56350000Y-105750000D02*
X58128000Y-105750000D01*
G04 #@! TO.C,K33*
X75350000Y-107528000D02*
X75350000Y-105750000D01*
X75350000Y-118450000D02*
X75350000Y-116672000D01*
X77128000Y-118450000D02*
X75350000Y-118450000D01*
X88050000Y-118450000D02*
X86272000Y-118450000D01*
X88050000Y-116672000D02*
X88050000Y-118450000D01*
X88050000Y-105750000D02*
X88050000Y-107528000D01*
X86272000Y-105750000D02*
X88050000Y-105750000D01*
X75350000Y-105750000D02*
X77128000Y-105750000D01*
G04 #@! TO.C,K34*
X94350000Y-105750000D02*
X96128000Y-105750000D01*
X105272000Y-105750000D02*
X107050000Y-105750000D01*
X107050000Y-105750000D02*
X107050000Y-107528000D01*
X107050000Y-116672000D02*
X107050000Y-118450000D01*
X107050000Y-118450000D02*
X105272000Y-118450000D01*
X96128000Y-118450000D02*
X94350000Y-118450000D01*
X94350000Y-118450000D02*
X94350000Y-116672000D01*
X94350000Y-107528000D02*
X94350000Y-105750000D01*
G04 #@! TO.C,K35*
X113350000Y-107528000D02*
X113350000Y-105750000D01*
X113350000Y-118450000D02*
X113350000Y-116672000D01*
X115128000Y-118450000D02*
X113350000Y-118450000D01*
X126050000Y-118450000D02*
X124272000Y-118450000D01*
X126050000Y-116672000D02*
X126050000Y-118450000D01*
X126050000Y-105750000D02*
X126050000Y-107528000D01*
X124272000Y-105750000D02*
X126050000Y-105750000D01*
X113350000Y-105750000D02*
X115128000Y-105750000D01*
G04 #@! TO.C,K36*
X132350000Y-107528000D02*
X132350000Y-105750000D01*
X132350000Y-118450000D02*
X132350000Y-116672000D01*
X134128000Y-118450000D02*
X132350000Y-118450000D01*
X145050000Y-118450000D02*
X143272000Y-118450000D01*
X145050000Y-116672000D02*
X145050000Y-118450000D01*
X145050000Y-105750000D02*
X145050000Y-107528000D01*
X143272000Y-105750000D02*
X145050000Y-105750000D01*
X132350000Y-105750000D02*
X134128000Y-105750000D01*
G04 #@! TO.C,K37*
X151350000Y-105750000D02*
X153128000Y-105750000D01*
X162272000Y-105750000D02*
X164050000Y-105750000D01*
X164050000Y-105750000D02*
X164050000Y-107528000D01*
X164050000Y-116672000D02*
X164050000Y-118450000D01*
X164050000Y-118450000D02*
X162272000Y-118450000D01*
X153128000Y-118450000D02*
X151350000Y-118450000D01*
X151350000Y-118450000D02*
X151350000Y-116672000D01*
X151350000Y-107528000D02*
X151350000Y-105750000D01*
G04 #@! TO.C,K38*
X170350000Y-105750000D02*
X172128000Y-105750000D01*
X181272000Y-105750000D02*
X183050000Y-105750000D01*
X183050000Y-105750000D02*
X183050000Y-107528000D01*
X183050000Y-116672000D02*
X183050000Y-118450000D01*
X183050000Y-118450000D02*
X181272000Y-118450000D01*
X172128000Y-118450000D02*
X170350000Y-118450000D01*
X170350000Y-118450000D02*
X170350000Y-116672000D01*
X170350000Y-107528000D02*
X170350000Y-105750000D01*
G04 #@! TO.C,K41*
X37350000Y-126528000D02*
X37350000Y-124750000D01*
X37350000Y-137450000D02*
X37350000Y-135672000D01*
X39128000Y-137450000D02*
X37350000Y-137450000D01*
X50050000Y-137450000D02*
X48272000Y-137450000D01*
X50050000Y-135672000D02*
X50050000Y-137450000D01*
X50050000Y-124750000D02*
X50050000Y-126528000D01*
X48272000Y-124750000D02*
X50050000Y-124750000D01*
X37350000Y-124750000D02*
X39128000Y-124750000D01*
G04 #@! TO.C,K42*
X56350000Y-124750000D02*
X58128000Y-124750000D01*
X67272000Y-124750000D02*
X69050000Y-124750000D01*
X69050000Y-124750000D02*
X69050000Y-126528000D01*
X69050000Y-135672000D02*
X69050000Y-137450000D01*
X69050000Y-137450000D02*
X67272000Y-137450000D01*
X58128000Y-137450000D02*
X56350000Y-137450000D01*
X56350000Y-137450000D02*
X56350000Y-135672000D01*
X56350000Y-126528000D02*
X56350000Y-124750000D01*
G04 #@! TO.C,K43*
X75350000Y-124750000D02*
X77128000Y-124750000D01*
X86272000Y-124750000D02*
X88050000Y-124750000D01*
X88050000Y-124750000D02*
X88050000Y-126528000D01*
X88050000Y-135672000D02*
X88050000Y-137450000D01*
X88050000Y-137450000D02*
X86272000Y-137450000D01*
X77128000Y-137450000D02*
X75350000Y-137450000D01*
X75350000Y-137450000D02*
X75350000Y-135672000D01*
X75350000Y-126528000D02*
X75350000Y-124750000D01*
G04 #@! TO.C,K44*
X94350000Y-124750000D02*
X96128000Y-124750000D01*
X105272000Y-124750000D02*
X107050000Y-124750000D01*
X107050000Y-124750000D02*
X107050000Y-126528000D01*
X107050000Y-135672000D02*
X107050000Y-137450000D01*
X107050000Y-137450000D02*
X105272000Y-137450000D01*
X96128000Y-137450000D02*
X94350000Y-137450000D01*
X94350000Y-137450000D02*
X94350000Y-135672000D01*
X94350000Y-126528000D02*
X94350000Y-124750000D01*
G04 #@! TO.C,K45*
X113350000Y-126528000D02*
X113350000Y-124750000D01*
X113350000Y-137450000D02*
X113350000Y-135672000D01*
X115128000Y-137450000D02*
X113350000Y-137450000D01*
X126050000Y-137450000D02*
X124272000Y-137450000D01*
X126050000Y-135672000D02*
X126050000Y-137450000D01*
X126050000Y-124750000D02*
X126050000Y-126528000D01*
X124272000Y-124750000D02*
X126050000Y-124750000D01*
X113350000Y-124750000D02*
X115128000Y-124750000D01*
G04 #@! TO.C,K48*
X170350000Y-126528000D02*
X170350000Y-124750000D01*
X170350000Y-137450000D02*
X170350000Y-135672000D01*
X172128000Y-137450000D02*
X170350000Y-137450000D01*
X183050000Y-137450000D02*
X181272000Y-137450000D01*
X183050000Y-135672000D02*
X183050000Y-137450000D01*
X183050000Y-124750000D02*
X183050000Y-126528000D01*
X181272000Y-124750000D02*
X183050000Y-124750000D01*
X170350000Y-124750000D02*
X172128000Y-124750000D01*
G04 #@! TO.C,K49*
X189350000Y-126528000D02*
X189350000Y-124750000D01*
X189350000Y-137450000D02*
X189350000Y-135672000D01*
X191128000Y-137450000D02*
X189350000Y-137450000D01*
X202050000Y-137450000D02*
X200272000Y-137450000D01*
X202050000Y-135672000D02*
X202050000Y-137450000D01*
X202050000Y-124750000D02*
X202050000Y-126528000D01*
X200272000Y-124750000D02*
X202050000Y-124750000D01*
X189350000Y-124750000D02*
X191128000Y-124750000D01*
G04 #@! TO.C,K110*
X208350000Y-67750000D02*
X210128000Y-67750000D01*
X219272000Y-67750000D02*
X221050000Y-67750000D01*
X221050000Y-67750000D02*
X221050000Y-69528000D01*
X221050000Y-78672000D02*
X221050000Y-80450000D01*
X221050000Y-80450000D02*
X219272000Y-80450000D01*
X210128000Y-80450000D02*
X208350000Y-80450000D01*
X208350000Y-80450000D02*
X208350000Y-78672000D01*
X208350000Y-69528000D02*
X208350000Y-67750000D01*
G04 #@! TO.C,K111*
X227350000Y-67750000D02*
X229128000Y-67750000D01*
X238272000Y-67750000D02*
X240050000Y-67750000D01*
X240050000Y-67750000D02*
X240050000Y-69528000D01*
X240050000Y-78672000D02*
X240050000Y-80450000D01*
X240050000Y-80450000D02*
X238272000Y-80450000D01*
X229128000Y-80450000D02*
X227350000Y-80450000D01*
X227350000Y-80450000D02*
X227350000Y-78672000D01*
X227350000Y-69528000D02*
X227350000Y-67750000D01*
G04 #@! TO.C,K211*
X227350000Y-86750000D02*
X229128000Y-86750000D01*
X238272000Y-86750000D02*
X240050000Y-86750000D01*
X240050000Y-86750000D02*
X240050000Y-88528000D01*
X240050000Y-97672000D02*
X240050000Y-99450000D01*
X240050000Y-99450000D02*
X238272000Y-99450000D01*
X229128000Y-99450000D02*
X227350000Y-99450000D01*
X227350000Y-99450000D02*
X227350000Y-97672000D01*
X227350000Y-88528000D02*
X227350000Y-86750000D01*
G04 #@! TO.C,K212*
X246350000Y-88528000D02*
X246350000Y-86750000D01*
X246350000Y-99450000D02*
X246350000Y-97672000D01*
X248128000Y-99450000D02*
X246350000Y-99450000D01*
X259050000Y-99450000D02*
X257272000Y-99450000D01*
X259050000Y-97672000D02*
X259050000Y-99450000D01*
X259050000Y-86750000D02*
X259050000Y-88528000D01*
X257272000Y-86750000D02*
X259050000Y-86750000D01*
X246350000Y-86750000D02*
X248128000Y-86750000D01*
G04 #@! TO.C,K311*
X227350000Y-105750000D02*
X229128000Y-105750000D01*
X238272000Y-105750000D02*
X240050000Y-105750000D01*
X240050000Y-105750000D02*
X240050000Y-107528000D01*
X240050000Y-116672000D02*
X240050000Y-118450000D01*
X240050000Y-118450000D02*
X238272000Y-118450000D01*
X229128000Y-118450000D02*
X227350000Y-118450000D01*
X227350000Y-118450000D02*
X227350000Y-116672000D01*
X227350000Y-107528000D02*
X227350000Y-105750000D01*
G04 #@! TO.C,K312*
X246350000Y-107528000D02*
X246350000Y-105750000D01*
X246350000Y-118450000D02*
X246350000Y-116672000D01*
X248128000Y-118450000D02*
X246350000Y-118450000D01*
X259050000Y-118450000D02*
X257272000Y-118450000D01*
X259050000Y-116672000D02*
X259050000Y-118450000D01*
X259050000Y-105750000D02*
X259050000Y-107528000D01*
X257272000Y-105750000D02*
X259050000Y-105750000D01*
X246350000Y-105750000D02*
X248128000Y-105750000D01*
G04 #@! TO.C,K410*
X208350000Y-126528000D02*
X208350000Y-124750000D01*
X208350000Y-137450000D02*
X208350000Y-135672000D01*
X210128000Y-137450000D02*
X208350000Y-137450000D01*
X221050000Y-137450000D02*
X219272000Y-137450000D01*
X221050000Y-135672000D02*
X221050000Y-137450000D01*
X221050000Y-124750000D02*
X221050000Y-126528000D01*
X219272000Y-124750000D02*
X221050000Y-124750000D01*
X208350000Y-124750000D02*
X210128000Y-124750000D01*
G04 #@! TO.C,K411*
X227350000Y-126528000D02*
X227350000Y-124750000D01*
X227350000Y-137450000D02*
X227350000Y-135672000D01*
X229128000Y-137450000D02*
X227350000Y-137450000D01*
X240050000Y-137450000D02*
X238272000Y-137450000D01*
X240050000Y-135672000D02*
X240050000Y-137450000D01*
X240050000Y-124750000D02*
X240050000Y-126528000D01*
X238272000Y-124750000D02*
X240050000Y-124750000D01*
X227350000Y-124750000D02*
X229128000Y-124750000D01*
G04 #@! TO.C,K412*
X246350000Y-126528000D02*
X246350000Y-124750000D01*
X246350000Y-137450000D02*
X246350000Y-135672000D01*
X248128000Y-137450000D02*
X246350000Y-137450000D01*
X259050000Y-137450000D02*
X257272000Y-137450000D01*
X259050000Y-135672000D02*
X259050000Y-137450000D01*
X259050000Y-124750000D02*
X259050000Y-126528000D01*
X257272000Y-124750000D02*
X259050000Y-124750000D01*
X246350000Y-124750000D02*
X248128000Y-124750000D01*
D13*
G04 #@! TO.C,SW1*
X75325000Y-104925000D02*
X75325000Y-100425000D01*
X71325000Y-106175000D02*
X72825000Y-106175000D01*
X68825000Y-100425000D02*
X68825000Y-104925000D01*
X72825000Y-99175000D02*
X71325000Y-99175000D01*
G04 #@! TO.C,X1*
X188000000Y-86300000D02*
X188000000Y-79050000D01*
X188000000Y-79050000D02*
X184400000Y-79050000D01*
X184400000Y-79050000D02*
X184400000Y-86300000D01*
G04 #@! TO.C,D11*
X53200000Y-74744340D02*
X53200000Y-74510000D01*
X54455660Y-76000000D02*
G75*
G03X54455660Y-76000000I-1255660J0D01*
G01*
G04 #@! TO.C,D12*
X72200000Y-74744340D02*
X72200000Y-74510000D01*
X73455660Y-76000000D02*
G75*
G03X73455660Y-76000000I-1255660J0D01*
G01*
G04 #@! TO.C,D13*
X91200000Y-74744340D02*
X91200000Y-74510000D01*
X92455660Y-76000000D02*
G75*
G03X92455660Y-76000000I-1255660J0D01*
G01*
G04 #@! TO.C,D14*
X110200000Y-74744340D02*
X110200000Y-74510000D01*
X111455660Y-76000000D02*
G75*
G03X111455660Y-76000000I-1255660J0D01*
G01*
G04 #@! TO.C,D15*
X130455660Y-76000000D02*
G75*
G03X130455660Y-76000000I-1255660J0D01*
G01*
X129200000Y-74744340D02*
X129200000Y-74510000D01*
G04 #@! TO.C,D16*
X148200000Y-74744340D02*
X148200000Y-74510000D01*
X149455660Y-76000000D02*
G75*
G03X149455660Y-76000000I-1255660J0D01*
G01*
G04 #@! TO.C,D17*
X167200000Y-74744340D02*
X167200000Y-74510000D01*
X168455660Y-76000000D02*
G75*
G03X168455660Y-76000000I-1255660J0D01*
G01*
G04 #@! TO.C,D18*
X186200000Y-74744340D02*
X186200000Y-74510000D01*
X187455660Y-76000000D02*
G75*
G03X187455660Y-76000000I-1255660J0D01*
G01*
G04 #@! TO.C,D19*
X206455660Y-76000000D02*
G75*
G03X206455660Y-76000000I-1255660J0D01*
G01*
X205200000Y-74744340D02*
X205200000Y-74510000D01*
G04 #@! TO.C,D21*
X54455660Y-95000000D02*
G75*
G03X54455660Y-95000000I-1255660J0D01*
G01*
X53200000Y-93744340D02*
X53200000Y-93510000D01*
G04 #@! TO.C,D22*
X73455660Y-95000000D02*
G75*
G03X73455660Y-95000000I-1255660J0D01*
G01*
X72200000Y-93744340D02*
X72200000Y-93510000D01*
G04 #@! TO.C,D23*
X92455660Y-95000000D02*
G75*
G03X92455660Y-95000000I-1255660J0D01*
G01*
X91200000Y-93744340D02*
X91200000Y-93510000D01*
G04 #@! TO.C,D24*
X111455660Y-95000000D02*
G75*
G03X111455660Y-95000000I-1255660J0D01*
G01*
X110200000Y-93744340D02*
X110200000Y-93510000D01*
G04 #@! TO.C,D25*
X129200000Y-93744340D02*
X129200000Y-93510000D01*
X130455660Y-95000000D02*
G75*
G03X130455660Y-95000000I-1255660J0D01*
G01*
G04 #@! TO.C,D27*
X168455660Y-95000000D02*
G75*
G03X168455660Y-95000000I-1255660J0D01*
G01*
X167200000Y-93744340D02*
X167200000Y-93510000D01*
G04 #@! TO.C,D28*
X187455660Y-95000000D02*
G75*
G03X187455660Y-95000000I-1255660J0D01*
G01*
X186200000Y-93744340D02*
X186200000Y-93510000D01*
G04 #@! TO.C,D29*
X195768160Y-84787500D02*
X196002500Y-84787500D01*
X195768160Y-84787500D02*
G75*
G03X195768160Y-84787500I-1255660J0D01*
G01*
G04 #@! TO.C,D31*
X53200000Y-112744340D02*
X53200000Y-112510000D01*
X54455660Y-114000000D02*
G75*
G03X54455660Y-114000000I-1255660J0D01*
G01*
G04 #@! TO.C,D32*
X72200000Y-112744340D02*
X72200000Y-112510000D01*
X73455660Y-114000000D02*
G75*
G03X73455660Y-114000000I-1255660J0D01*
G01*
G04 #@! TO.C,D33*
X91200000Y-112744340D02*
X91200000Y-112510000D01*
X92455660Y-114000000D02*
G75*
G03X92455660Y-114000000I-1255660J0D01*
G01*
G04 #@! TO.C,D34*
X111455660Y-114000000D02*
G75*
G03X111455660Y-114000000I-1255660J0D01*
G01*
X110200000Y-112744340D02*
X110200000Y-112510000D01*
G04 #@! TO.C,D35*
X130455660Y-114000000D02*
G75*
G03X130455660Y-114000000I-1255660J0D01*
G01*
X129200000Y-112744340D02*
X129200000Y-112510000D01*
G04 #@! TO.C,D36*
X148200000Y-112744340D02*
X148200000Y-112510000D01*
X149455660Y-114000000D02*
G75*
G03X149455660Y-114000000I-1255660J0D01*
G01*
G04 #@! TO.C,D37*
X168455660Y-114000000D02*
G75*
G03X168455660Y-114000000I-1255660J0D01*
G01*
X167200000Y-112744340D02*
X167200000Y-112510000D01*
G04 #@! TO.C,D38*
X186200000Y-112907341D02*
X186200000Y-112673001D01*
X187455660Y-114163001D02*
G75*
G03X187455660Y-114163001I-1255660J0D01*
G01*
G04 #@! TO.C,D39*
X206455660Y-116065000D02*
G75*
G03X206455660Y-116065000I-1255660J0D01*
G01*
X205200000Y-114809340D02*
X205200000Y-114575000D01*
G04 #@! TO.C,D41*
X54455660Y-133000000D02*
G75*
G03X54455660Y-133000000I-1255660J0D01*
G01*
X53200000Y-131744340D02*
X53200000Y-131510000D01*
G04 #@! TO.C,D42*
X73455660Y-133000000D02*
G75*
G03X73455660Y-133000000I-1255660J0D01*
G01*
X72200000Y-131744340D02*
X72200000Y-131510000D01*
G04 #@! TO.C,D43*
X92455660Y-133000000D02*
G75*
G03X92455660Y-133000000I-1255660J0D01*
G01*
X91200000Y-131744340D02*
X91200000Y-131510000D01*
G04 #@! TO.C,D44*
X110200000Y-131744340D02*
X110200000Y-131510000D01*
X111455660Y-133000000D02*
G75*
G03X111455660Y-133000000I-1255660J0D01*
G01*
G04 #@! TO.C,D45*
X122215660Y-121600000D02*
X122450000Y-121600000D01*
X122215660Y-121600000D02*
G75*
G03X122215660Y-121600000I-1255660J0D01*
G01*
G04 #@! TO.C,D46*
X172493160Y-121600000D02*
G75*
G03X172493160Y-121600000I-1255660J0D01*
G01*
X169981840Y-121600000D02*
X169747500Y-121600000D01*
G04 #@! TO.C,D48*
X186200000Y-131744340D02*
X186200000Y-131510000D01*
X187455660Y-133000000D02*
G75*
G03X187455660Y-133000000I-1255660J0D01*
G01*
G04 #@! TO.C,D49*
X205200000Y-131744340D02*
X205200000Y-131510000D01*
X206455660Y-133000000D02*
G75*
G03X206455660Y-133000000I-1255660J0D01*
G01*
G04 #@! TO.C,D110*
X225455660Y-76000000D02*
G75*
G03X225455660Y-76000000I-1255660J0D01*
G01*
X224200000Y-74744340D02*
X224200000Y-74510000D01*
G04 #@! TO.C,D111*
X244455660Y-68400000D02*
G75*
G03X244455660Y-68400000I-1255660J0D01*
G01*
X243200000Y-69655660D02*
X243200000Y-69890000D01*
G04 #@! TO.C,D112*
X244455660Y-81700000D02*
G75*
G03X244455660Y-81700000I-1255660J0D01*
G01*
X243200000Y-80444340D02*
X243200000Y-80210000D01*
G04 #@! TO.C,D210*
X225455660Y-95000000D02*
G75*
G03X225455660Y-95000000I-1255660J0D01*
G01*
X224200000Y-93744340D02*
X224200000Y-93510000D01*
G04 #@! TO.C,D211*
X243200000Y-87375660D02*
X243200000Y-87610000D01*
X244455660Y-86120000D02*
G75*
G03X244455660Y-86120000I-1255660J0D01*
G01*
G04 #@! TO.C,D212*
X243200000Y-96284340D02*
X243200000Y-96050000D01*
X244455660Y-97540000D02*
G75*
G03X244455660Y-97540000I-1255660J0D01*
G01*
G04 #@! TO.C,D310*
X225455660Y-114000000D02*
G75*
G03X225455660Y-114000000I-1255660J0D01*
G01*
X224200000Y-112744340D02*
X224200000Y-112510000D01*
G04 #@! TO.C,D311*
X244455660Y-119700000D02*
G75*
G03X244455660Y-119700000I-1255660J0D01*
G01*
X243200000Y-118444340D02*
X243200000Y-118210000D01*
G04 #@! TO.C,D312*
X244455660Y-107350000D02*
G75*
G03X244455660Y-107350000I-1255660J0D01*
G01*
X243200000Y-108605660D02*
X243200000Y-108840000D01*
G04 #@! TO.C,D410*
X224200000Y-131744340D02*
X224200000Y-131510000D01*
X225455660Y-133000000D02*
G75*
G03X225455660Y-133000000I-1255660J0D01*
G01*
G04 #@! TO.C,D411*
X243200000Y-135544340D02*
X243200000Y-135310000D01*
X244455660Y-136800000D02*
G75*
G03X244455660Y-136800000I-1255660J0D01*
G01*
G04 #@! TO.C,D412*
X243200000Y-124755660D02*
X243200000Y-124990000D01*
X244455660Y-123500000D02*
G75*
G03X244455660Y-123500000I-1255660J0D01*
G01*
G04 #@! TO.C,R1*
X208485000Y-68464564D02*
X208485000Y-67260436D01*
X206665000Y-68464564D02*
X206665000Y-67260436D01*
G04 #@! TO.C,R2*
X185765000Y-108014564D02*
X185765000Y-106810436D01*
X187585000Y-108014564D02*
X187585000Y-106810436D01*
G04 #@! TO.C,R3*
X227010000Y-83789564D02*
X227010000Y-82585436D01*
X225190000Y-83789564D02*
X225190000Y-82585436D01*
G04 #@! TO.C,R4*
X222340000Y-83789564D02*
X222340000Y-82585436D01*
X224160000Y-83789564D02*
X224160000Y-82585436D01*
G04 #@! TO.C,D47*
X148030660Y-121600000D02*
G75*
G03X148030660Y-121600000I-1255660J0D01*
G01*
X148030660Y-121600000D02*
X148265000Y-121600000D01*
D12*
G04 #@! TO.C,K46*
X132350000Y-124750000D02*
X134128000Y-124750000D01*
X143272000Y-124750000D02*
X145050000Y-124750000D01*
X145050000Y-124750000D02*
X145050000Y-126528000D01*
X145050000Y-135672000D02*
X145050000Y-137450000D01*
X145050000Y-137450000D02*
X143272000Y-137450000D01*
X134128000Y-137450000D02*
X132350000Y-137450000D01*
X132350000Y-137450000D02*
X132350000Y-135672000D01*
X132350000Y-126528000D02*
X132350000Y-124750000D01*
G04 #@! TO.C,K2U1*
X122850000Y-126528000D02*
X122850000Y-124750000D01*
X122850000Y-137450000D02*
X122850000Y-135672000D01*
X124628000Y-137450000D02*
X122850000Y-137450000D01*
X135550000Y-137450000D02*
X133772000Y-137450000D01*
X135550000Y-135672000D02*
X135550000Y-137450000D01*
X135550000Y-124750000D02*
X135550000Y-126528000D01*
X133772000Y-124750000D02*
X135550000Y-124750000D01*
X122850000Y-124750000D02*
X124628000Y-124750000D01*
G04 #@! TO.C,K2U2*
X160850000Y-124750000D02*
X162628000Y-124750000D01*
X171772000Y-124750000D02*
X173550000Y-124750000D01*
X173550000Y-124750000D02*
X173550000Y-126528000D01*
X173550000Y-135672000D02*
X173550000Y-137450000D01*
X173550000Y-137450000D02*
X171772000Y-137450000D01*
X162628000Y-137450000D02*
X160850000Y-137450000D01*
X160850000Y-137450000D02*
X160850000Y-135672000D01*
X160850000Y-126528000D02*
X160850000Y-124750000D01*
G04 #@! TO.C,K2U3*
X141850000Y-124750000D02*
X143628000Y-124750000D01*
X152772000Y-124750000D02*
X154550000Y-124750000D01*
X154550000Y-124750000D02*
X154550000Y-126528000D01*
X154550000Y-135672000D02*
X154550000Y-137450000D01*
X154550000Y-137450000D02*
X152772000Y-137450000D01*
X143628000Y-137450000D02*
X141850000Y-137450000D01*
X141850000Y-137450000D02*
X141850000Y-135672000D01*
X141850000Y-126528000D02*
X141850000Y-124750000D01*
G04 #@! TO.C,D26*
D14*
X146396720Y-94944285D02*
X145396720Y-94944285D01*
X145396720Y-94706190D01*
X145444340Y-94563333D01*
X145539578Y-94468095D01*
X145634816Y-94420476D01*
X145825292Y-94372857D01*
X145968149Y-94372857D01*
X146158625Y-94420476D01*
X146253863Y-94468095D01*
X146349101Y-94563333D01*
X146396720Y-94706190D01*
X146396720Y-94944285D01*
X145491959Y-93991904D02*
X145444340Y-93944285D01*
X145396720Y-93849047D01*
X145396720Y-93610952D01*
X145444340Y-93515714D01*
X145491959Y-93468095D01*
X145587197Y-93420476D01*
X145682435Y-93420476D01*
X145825292Y-93468095D01*
X146396720Y-94039523D01*
X146396720Y-93420476D01*
X145396720Y-92563333D02*
X145396720Y-92753809D01*
X145444340Y-92849047D01*
X145491959Y-92896666D01*
X145634816Y-92991904D01*
X145825292Y-93039523D01*
X146206244Y-93039523D01*
X146301482Y-92991904D01*
X146349101Y-92944285D01*
X146396720Y-92849047D01*
X146396720Y-92658571D01*
X146349101Y-92563333D01*
X146301482Y-92515714D01*
X146206244Y-92468095D01*
X145968149Y-92468095D01*
X145872911Y-92515714D01*
X145825292Y-92563333D01*
X145777673Y-92658571D01*
X145777673Y-92849047D01*
X145825292Y-92944285D01*
X145872911Y-92991904D01*
X145968149Y-93039523D01*
X148366666Y-90948095D02*
X148366666Y-90471904D01*
X148652380Y-91043333D02*
X147652380Y-90710000D01*
X148652380Y-90376666D01*
G04 #@! TO.C,U1*
X204913095Y-108277380D02*
X204913095Y-109086904D01*
X204960714Y-109182142D01*
X205008333Y-109229761D01*
X205103571Y-109277380D01*
X205294047Y-109277380D01*
X205389285Y-109229761D01*
X205436904Y-109182142D01*
X205484523Y-109086904D01*
X205484523Y-108277380D01*
X206484523Y-109277380D02*
X205913095Y-109277380D01*
X206198809Y-109277380D02*
X206198809Y-108277380D01*
X206103571Y-108420238D01*
X206008333Y-108515476D01*
X205913095Y-108563095D01*
G04 #@! TO.C,C1*
X191057142Y-83766666D02*
X191104761Y-83814285D01*
X191152380Y-83957142D01*
X191152380Y-84052380D01*
X191104761Y-84195238D01*
X191009523Y-84290476D01*
X190914285Y-84338095D01*
X190723809Y-84385714D01*
X190580952Y-84385714D01*
X190390476Y-84338095D01*
X190295238Y-84290476D01*
X190200000Y-84195238D01*
X190152380Y-84052380D01*
X190152380Y-83957142D01*
X190200000Y-83814285D01*
X190247619Y-83766666D01*
X191152380Y-82814285D02*
X191152380Y-83385714D01*
X191152380Y-83100000D02*
X190152380Y-83100000D01*
X190295238Y-83195238D01*
X190390476Y-83290476D01*
X190438095Y-83385714D01*
G04 #@! TO.C,C2*
X181819642Y-83766666D02*
X181867261Y-83814285D01*
X181914880Y-83957142D01*
X181914880Y-84052380D01*
X181867261Y-84195238D01*
X181772023Y-84290476D01*
X181676785Y-84338095D01*
X181486309Y-84385714D01*
X181343452Y-84385714D01*
X181152976Y-84338095D01*
X181057738Y-84290476D01*
X180962500Y-84195238D01*
X180914880Y-84052380D01*
X180914880Y-83957142D01*
X180962500Y-83814285D01*
X181010119Y-83766666D01*
X181010119Y-83385714D02*
X180962500Y-83338095D01*
X180914880Y-83242857D01*
X180914880Y-83004761D01*
X180962500Y-82909523D01*
X181010119Y-82861904D01*
X181105357Y-82814285D01*
X181200595Y-82814285D01*
X181343452Y-82861904D01*
X181914880Y-83433333D01*
X181914880Y-82814285D01*
G04 #@! TO.C,C3*
X216957142Y-104191666D02*
X217004761Y-104239285D01*
X217052380Y-104382142D01*
X217052380Y-104477380D01*
X217004761Y-104620238D01*
X216909523Y-104715476D01*
X216814285Y-104763095D01*
X216623809Y-104810714D01*
X216480952Y-104810714D01*
X216290476Y-104763095D01*
X216195238Y-104715476D01*
X216100000Y-104620238D01*
X216052380Y-104477380D01*
X216052380Y-104382142D01*
X216100000Y-104239285D01*
X216147619Y-104191666D01*
X216052380Y-103858333D02*
X216052380Y-103239285D01*
X216433333Y-103572619D01*
X216433333Y-103429761D01*
X216480952Y-103334523D01*
X216528571Y-103286904D01*
X216623809Y-103239285D01*
X216861904Y-103239285D01*
X216957142Y-103286904D01*
X217004761Y-103334523D01*
X217052380Y-103429761D01*
X217052380Y-103715476D01*
X217004761Y-103810714D01*
X216957142Y-103858333D01*
G04 #@! TO.C,C4*
X218857142Y-104191666D02*
X218904761Y-104239285D01*
X218952380Y-104382142D01*
X218952380Y-104477380D01*
X218904761Y-104620238D01*
X218809523Y-104715476D01*
X218714285Y-104763095D01*
X218523809Y-104810714D01*
X218380952Y-104810714D01*
X218190476Y-104763095D01*
X218095238Y-104715476D01*
X218000000Y-104620238D01*
X217952380Y-104477380D01*
X217952380Y-104382142D01*
X218000000Y-104239285D01*
X218047619Y-104191666D01*
X218285714Y-103334523D02*
X218952380Y-103334523D01*
X217904761Y-103572619D02*
X218619047Y-103810714D01*
X218619047Y-103191666D01*
G04 #@! TO.C,C5*
X220757142Y-104191666D02*
X220804761Y-104239285D01*
X220852380Y-104382142D01*
X220852380Y-104477380D01*
X220804761Y-104620238D01*
X220709523Y-104715476D01*
X220614285Y-104763095D01*
X220423809Y-104810714D01*
X220280952Y-104810714D01*
X220090476Y-104763095D01*
X219995238Y-104715476D01*
X219900000Y-104620238D01*
X219852380Y-104477380D01*
X219852380Y-104382142D01*
X219900000Y-104239285D01*
X219947619Y-104191666D01*
X219852380Y-103286904D02*
X219852380Y-103763095D01*
X220328571Y-103810714D01*
X220280952Y-103763095D01*
X220233333Y-103667857D01*
X220233333Y-103429761D01*
X220280952Y-103334523D01*
X220328571Y-103286904D01*
X220423809Y-103239285D01*
X220661904Y-103239285D01*
X220757142Y-103286904D01*
X220804761Y-103334523D01*
X220852380Y-103429761D01*
X220852380Y-103667857D01*
X220804761Y-103763095D01*
X220757142Y-103810714D01*
G04 #@! TO.C,C6*
X222657142Y-104191666D02*
X222704761Y-104239285D01*
X222752380Y-104382142D01*
X222752380Y-104477380D01*
X222704761Y-104620238D01*
X222609523Y-104715476D01*
X222514285Y-104763095D01*
X222323809Y-104810714D01*
X222180952Y-104810714D01*
X221990476Y-104763095D01*
X221895238Y-104715476D01*
X221800000Y-104620238D01*
X221752380Y-104477380D01*
X221752380Y-104382142D01*
X221800000Y-104239285D01*
X221847619Y-104191666D01*
X221752380Y-103334523D02*
X221752380Y-103525000D01*
X221800000Y-103620238D01*
X221847619Y-103667857D01*
X221990476Y-103763095D01*
X222180952Y-103810714D01*
X222561904Y-103810714D01*
X222657142Y-103763095D01*
X222704761Y-103715476D01*
X222752380Y-103620238D01*
X222752380Y-103429761D01*
X222704761Y-103334523D01*
X222657142Y-103286904D01*
X222561904Y-103239285D01*
X222323809Y-103239285D01*
X222228571Y-103286904D01*
X222180952Y-103334523D01*
X222133333Y-103429761D01*
X222133333Y-103620238D01*
X222180952Y-103715476D01*
X222228571Y-103763095D01*
X222323809Y-103810714D01*
G04 #@! TO.C,C8*
X215057142Y-98491666D02*
X215104761Y-98539285D01*
X215152380Y-98682142D01*
X215152380Y-98777380D01*
X215104761Y-98920238D01*
X215009523Y-99015476D01*
X214914285Y-99063095D01*
X214723809Y-99110714D01*
X214580952Y-99110714D01*
X214390476Y-99063095D01*
X214295238Y-99015476D01*
X214200000Y-98920238D01*
X214152380Y-98777380D01*
X214152380Y-98682142D01*
X214200000Y-98539285D01*
X214247619Y-98491666D01*
X214580952Y-97920238D02*
X214533333Y-98015476D01*
X214485714Y-98063095D01*
X214390476Y-98110714D01*
X214342857Y-98110714D01*
X214247619Y-98063095D01*
X214200000Y-98015476D01*
X214152380Y-97920238D01*
X214152380Y-97729761D01*
X214200000Y-97634523D01*
X214247619Y-97586904D01*
X214342857Y-97539285D01*
X214390476Y-97539285D01*
X214485714Y-97586904D01*
X214533333Y-97634523D01*
X214580952Y-97729761D01*
X214580952Y-97920238D01*
X214628571Y-98015476D01*
X214676190Y-98063095D01*
X214771428Y-98110714D01*
X214961904Y-98110714D01*
X215057142Y-98063095D01*
X215104761Y-98015476D01*
X215152380Y-97920238D01*
X215152380Y-97729761D01*
X215104761Y-97634523D01*
X215057142Y-97586904D01*
X214961904Y-97539285D01*
X214771428Y-97539285D01*
X214676190Y-97586904D01*
X214628571Y-97634523D01*
X214580952Y-97729761D01*
G04 #@! TO.C,J1*
X224041666Y-68552380D02*
X224041666Y-69266666D01*
X223994047Y-69409523D01*
X223898809Y-69504761D01*
X223755952Y-69552380D01*
X223660714Y-69552380D01*
X225041666Y-69552380D02*
X224470238Y-69552380D01*
X224755952Y-69552380D02*
X224755952Y-68552380D01*
X224660714Y-68695238D01*
X224565476Y-68790476D01*
X224470238Y-68838095D01*
G04 #@! TO.C,SW1*
X68229761Y-104008333D02*
X68277380Y-103865476D01*
X68277380Y-103627380D01*
X68229761Y-103532142D01*
X68182142Y-103484523D01*
X68086904Y-103436904D01*
X67991666Y-103436904D01*
X67896428Y-103484523D01*
X67848809Y-103532142D01*
X67801190Y-103627380D01*
X67753571Y-103817857D01*
X67705952Y-103913095D01*
X67658333Y-103960714D01*
X67563095Y-104008333D01*
X67467857Y-104008333D01*
X67372619Y-103960714D01*
X67325000Y-103913095D01*
X67277380Y-103817857D01*
X67277380Y-103579761D01*
X67325000Y-103436904D01*
X67277380Y-103103571D02*
X68277380Y-102865476D01*
X67563095Y-102675000D01*
X68277380Y-102484523D01*
X67277380Y-102246428D01*
X68277380Y-101341666D02*
X68277380Y-101913095D01*
X68277380Y-101627380D02*
X67277380Y-101627380D01*
X67420238Y-101722619D01*
X67515476Y-101817857D01*
X67563095Y-101913095D01*
G04 #@! TO.C,X1*
X185652380Y-89872023D02*
X186652380Y-89205357D01*
X185652380Y-89205357D02*
X186652380Y-89872023D01*
X186652380Y-88300595D02*
X186652380Y-88872023D01*
X186652380Y-88586309D02*
X185652380Y-88586309D01*
X185795238Y-88681547D01*
X185890476Y-88776785D01*
X185938095Y-88872023D01*
G04 #@! TO.C,D11*
X51396720Y-75944285D02*
X50396720Y-75944285D01*
X50396720Y-75706190D01*
X50444340Y-75563333D01*
X50539578Y-75468095D01*
X50634816Y-75420476D01*
X50825292Y-75372857D01*
X50968149Y-75372857D01*
X51158625Y-75420476D01*
X51253863Y-75468095D01*
X51349101Y-75563333D01*
X51396720Y-75706190D01*
X51396720Y-75944285D01*
X51396720Y-74420476D02*
X51396720Y-74991904D01*
X51396720Y-74706190D02*
X50396720Y-74706190D01*
X50539578Y-74801428D01*
X50634816Y-74896666D01*
X50682435Y-74991904D01*
X51396720Y-73468095D02*
X51396720Y-74039523D01*
X51396720Y-73753809D02*
X50396720Y-73753809D01*
X50539578Y-73849047D01*
X50634816Y-73944285D01*
X50682435Y-74039523D01*
X53366666Y-71948095D02*
X53366666Y-71471904D01*
X53652380Y-72043333D02*
X52652380Y-71710000D01*
X53652380Y-71376666D01*
G04 #@! TO.C,D12*
X70396720Y-75944285D02*
X69396720Y-75944285D01*
X69396720Y-75706190D01*
X69444340Y-75563333D01*
X69539578Y-75468095D01*
X69634816Y-75420476D01*
X69825292Y-75372857D01*
X69968149Y-75372857D01*
X70158625Y-75420476D01*
X70253863Y-75468095D01*
X70349101Y-75563333D01*
X70396720Y-75706190D01*
X70396720Y-75944285D01*
X70396720Y-74420476D02*
X70396720Y-74991904D01*
X70396720Y-74706190D02*
X69396720Y-74706190D01*
X69539578Y-74801428D01*
X69634816Y-74896666D01*
X69682435Y-74991904D01*
X69491959Y-74039523D02*
X69444340Y-73991904D01*
X69396720Y-73896666D01*
X69396720Y-73658571D01*
X69444340Y-73563333D01*
X69491959Y-73515714D01*
X69587197Y-73468095D01*
X69682435Y-73468095D01*
X69825292Y-73515714D01*
X70396720Y-74087142D01*
X70396720Y-73468095D01*
X72366666Y-71948095D02*
X72366666Y-71471904D01*
X72652380Y-72043333D02*
X71652380Y-71710000D01*
X72652380Y-71376666D01*
G04 #@! TO.C,D13*
X89396720Y-75944285D02*
X88396720Y-75944285D01*
X88396720Y-75706190D01*
X88444340Y-75563333D01*
X88539578Y-75468095D01*
X88634816Y-75420476D01*
X88825292Y-75372857D01*
X88968149Y-75372857D01*
X89158625Y-75420476D01*
X89253863Y-75468095D01*
X89349101Y-75563333D01*
X89396720Y-75706190D01*
X89396720Y-75944285D01*
X89396720Y-74420476D02*
X89396720Y-74991904D01*
X89396720Y-74706190D02*
X88396720Y-74706190D01*
X88539578Y-74801428D01*
X88634816Y-74896666D01*
X88682435Y-74991904D01*
X88396720Y-74087142D02*
X88396720Y-73468095D01*
X88777673Y-73801428D01*
X88777673Y-73658571D01*
X88825292Y-73563333D01*
X88872911Y-73515714D01*
X88968149Y-73468095D01*
X89206244Y-73468095D01*
X89301482Y-73515714D01*
X89349101Y-73563333D01*
X89396720Y-73658571D01*
X89396720Y-73944285D01*
X89349101Y-74039523D01*
X89301482Y-74087142D01*
X91366666Y-71948095D02*
X91366666Y-71471904D01*
X91652380Y-72043333D02*
X90652380Y-71710000D01*
X91652380Y-71376666D01*
G04 #@! TO.C,D14*
X108396720Y-75944285D02*
X107396720Y-75944285D01*
X107396720Y-75706190D01*
X107444340Y-75563333D01*
X107539578Y-75468095D01*
X107634816Y-75420476D01*
X107825292Y-75372857D01*
X107968149Y-75372857D01*
X108158625Y-75420476D01*
X108253863Y-75468095D01*
X108349101Y-75563333D01*
X108396720Y-75706190D01*
X108396720Y-75944285D01*
X108396720Y-74420476D02*
X108396720Y-74991904D01*
X108396720Y-74706190D02*
X107396720Y-74706190D01*
X107539578Y-74801428D01*
X107634816Y-74896666D01*
X107682435Y-74991904D01*
X107730054Y-73563333D02*
X108396720Y-73563333D01*
X107349101Y-73801428D02*
X108063387Y-74039523D01*
X108063387Y-73420476D01*
X110366666Y-71948095D02*
X110366666Y-71471904D01*
X110652380Y-72043333D02*
X109652380Y-71710000D01*
X110652380Y-71376666D01*
G04 #@! TO.C,D15*
X127396720Y-75944285D02*
X126396720Y-75944285D01*
X126396720Y-75706190D01*
X126444340Y-75563333D01*
X126539578Y-75468095D01*
X126634816Y-75420476D01*
X126825292Y-75372857D01*
X126968149Y-75372857D01*
X127158625Y-75420476D01*
X127253863Y-75468095D01*
X127349101Y-75563333D01*
X127396720Y-75706190D01*
X127396720Y-75944285D01*
X127396720Y-74420476D02*
X127396720Y-74991904D01*
X127396720Y-74706190D02*
X126396720Y-74706190D01*
X126539578Y-74801428D01*
X126634816Y-74896666D01*
X126682435Y-74991904D01*
X126396720Y-73515714D02*
X126396720Y-73991904D01*
X126872911Y-74039523D01*
X126825292Y-73991904D01*
X126777673Y-73896666D01*
X126777673Y-73658571D01*
X126825292Y-73563333D01*
X126872911Y-73515714D01*
X126968149Y-73468095D01*
X127206244Y-73468095D01*
X127301482Y-73515714D01*
X127349101Y-73563333D01*
X127396720Y-73658571D01*
X127396720Y-73896666D01*
X127349101Y-73991904D01*
X127301482Y-74039523D01*
X129366666Y-71948095D02*
X129366666Y-71471904D01*
X129652380Y-72043333D02*
X128652380Y-71710000D01*
X129652380Y-71376666D01*
G04 #@! TO.C,D16*
X146396720Y-75944285D02*
X145396720Y-75944285D01*
X145396720Y-75706190D01*
X145444340Y-75563333D01*
X145539578Y-75468095D01*
X145634816Y-75420476D01*
X145825292Y-75372857D01*
X145968149Y-75372857D01*
X146158625Y-75420476D01*
X146253863Y-75468095D01*
X146349101Y-75563333D01*
X146396720Y-75706190D01*
X146396720Y-75944285D01*
X146396720Y-74420476D02*
X146396720Y-74991904D01*
X146396720Y-74706190D02*
X145396720Y-74706190D01*
X145539578Y-74801428D01*
X145634816Y-74896666D01*
X145682435Y-74991904D01*
X145396720Y-73563333D02*
X145396720Y-73753809D01*
X145444340Y-73849047D01*
X145491959Y-73896666D01*
X145634816Y-73991904D01*
X145825292Y-74039523D01*
X146206244Y-74039523D01*
X146301482Y-73991904D01*
X146349101Y-73944285D01*
X146396720Y-73849047D01*
X146396720Y-73658571D01*
X146349101Y-73563333D01*
X146301482Y-73515714D01*
X146206244Y-73468095D01*
X145968149Y-73468095D01*
X145872911Y-73515714D01*
X145825292Y-73563333D01*
X145777673Y-73658571D01*
X145777673Y-73849047D01*
X145825292Y-73944285D01*
X145872911Y-73991904D01*
X145968149Y-74039523D01*
X148366666Y-71948095D02*
X148366666Y-71471904D01*
X148652380Y-72043333D02*
X147652380Y-71710000D01*
X148652380Y-71376666D01*
G04 #@! TO.C,D17*
X165396720Y-75944285D02*
X164396720Y-75944285D01*
X164396720Y-75706190D01*
X164444340Y-75563333D01*
X164539578Y-75468095D01*
X164634816Y-75420476D01*
X164825292Y-75372857D01*
X164968149Y-75372857D01*
X165158625Y-75420476D01*
X165253863Y-75468095D01*
X165349101Y-75563333D01*
X165396720Y-75706190D01*
X165396720Y-75944285D01*
X165396720Y-74420476D02*
X165396720Y-74991904D01*
X165396720Y-74706190D02*
X164396720Y-74706190D01*
X164539578Y-74801428D01*
X164634816Y-74896666D01*
X164682435Y-74991904D01*
X164396720Y-74087142D02*
X164396720Y-73420476D01*
X165396720Y-73849047D01*
X167366666Y-71948095D02*
X167366666Y-71471904D01*
X167652380Y-72043333D02*
X166652380Y-71710000D01*
X167652380Y-71376666D01*
G04 #@! TO.C,D18*
X184396720Y-75944285D02*
X183396720Y-75944285D01*
X183396720Y-75706190D01*
X183444340Y-75563333D01*
X183539578Y-75468095D01*
X183634816Y-75420476D01*
X183825292Y-75372857D01*
X183968149Y-75372857D01*
X184158625Y-75420476D01*
X184253863Y-75468095D01*
X184349101Y-75563333D01*
X184396720Y-75706190D01*
X184396720Y-75944285D01*
X184396720Y-74420476D02*
X184396720Y-74991904D01*
X184396720Y-74706190D02*
X183396720Y-74706190D01*
X183539578Y-74801428D01*
X183634816Y-74896666D01*
X183682435Y-74991904D01*
X183825292Y-73849047D02*
X183777673Y-73944285D01*
X183730054Y-73991904D01*
X183634816Y-74039523D01*
X183587197Y-74039523D01*
X183491959Y-73991904D01*
X183444340Y-73944285D01*
X183396720Y-73849047D01*
X183396720Y-73658571D01*
X183444340Y-73563333D01*
X183491959Y-73515714D01*
X183587197Y-73468095D01*
X183634816Y-73468095D01*
X183730054Y-73515714D01*
X183777673Y-73563333D01*
X183825292Y-73658571D01*
X183825292Y-73849047D01*
X183872911Y-73944285D01*
X183920530Y-73991904D01*
X184015768Y-74039523D01*
X184206244Y-74039523D01*
X184301482Y-73991904D01*
X184349101Y-73944285D01*
X184396720Y-73849047D01*
X184396720Y-73658571D01*
X184349101Y-73563333D01*
X184301482Y-73515714D01*
X184206244Y-73468095D01*
X184015768Y-73468095D01*
X183920530Y-73515714D01*
X183872911Y-73563333D01*
X183825292Y-73658571D01*
X186366666Y-71948095D02*
X186366666Y-71471904D01*
X186652380Y-72043333D02*
X185652380Y-71710000D01*
X186652380Y-71376666D01*
G04 #@! TO.C,D19*
X203396720Y-75944285D02*
X202396720Y-75944285D01*
X202396720Y-75706190D01*
X202444340Y-75563333D01*
X202539578Y-75468095D01*
X202634816Y-75420476D01*
X202825292Y-75372857D01*
X202968149Y-75372857D01*
X203158625Y-75420476D01*
X203253863Y-75468095D01*
X203349101Y-75563333D01*
X203396720Y-75706190D01*
X203396720Y-75944285D01*
X203396720Y-74420476D02*
X203396720Y-74991904D01*
X203396720Y-74706190D02*
X202396720Y-74706190D01*
X202539578Y-74801428D01*
X202634816Y-74896666D01*
X202682435Y-74991904D01*
X203396720Y-73944285D02*
X203396720Y-73753809D01*
X203349101Y-73658571D01*
X203301482Y-73610952D01*
X203158625Y-73515714D01*
X202968149Y-73468095D01*
X202587197Y-73468095D01*
X202491959Y-73515714D01*
X202444340Y-73563333D01*
X202396720Y-73658571D01*
X202396720Y-73849047D01*
X202444340Y-73944285D01*
X202491959Y-73991904D01*
X202587197Y-74039523D01*
X202825292Y-74039523D01*
X202920530Y-73991904D01*
X202968149Y-73944285D01*
X203015768Y-73849047D01*
X203015768Y-73658571D01*
X202968149Y-73563333D01*
X202920530Y-73515714D01*
X202825292Y-73468095D01*
X205366666Y-71948095D02*
X205366666Y-71471904D01*
X205652380Y-72043333D02*
X204652380Y-71710000D01*
X205652380Y-71376666D01*
G04 #@! TO.C,D21*
X51396720Y-94944285D02*
X50396720Y-94944285D01*
X50396720Y-94706190D01*
X50444340Y-94563333D01*
X50539578Y-94468095D01*
X50634816Y-94420476D01*
X50825292Y-94372857D01*
X50968149Y-94372857D01*
X51158625Y-94420476D01*
X51253863Y-94468095D01*
X51349101Y-94563333D01*
X51396720Y-94706190D01*
X51396720Y-94944285D01*
X50491959Y-93991904D02*
X50444340Y-93944285D01*
X50396720Y-93849047D01*
X50396720Y-93610952D01*
X50444340Y-93515714D01*
X50491959Y-93468095D01*
X50587197Y-93420476D01*
X50682435Y-93420476D01*
X50825292Y-93468095D01*
X51396720Y-94039523D01*
X51396720Y-93420476D01*
X51396720Y-92468095D02*
X51396720Y-93039523D01*
X51396720Y-92753809D02*
X50396720Y-92753809D01*
X50539578Y-92849047D01*
X50634816Y-92944285D01*
X50682435Y-93039523D01*
X53366666Y-90948095D02*
X53366666Y-90471904D01*
X53652380Y-91043333D02*
X52652380Y-90710000D01*
X53652380Y-90376666D01*
G04 #@! TO.C,D22*
X70396720Y-94944285D02*
X69396720Y-94944285D01*
X69396720Y-94706190D01*
X69444340Y-94563333D01*
X69539578Y-94468095D01*
X69634816Y-94420476D01*
X69825292Y-94372857D01*
X69968149Y-94372857D01*
X70158625Y-94420476D01*
X70253863Y-94468095D01*
X70349101Y-94563333D01*
X70396720Y-94706190D01*
X70396720Y-94944285D01*
X69491959Y-93991904D02*
X69444340Y-93944285D01*
X69396720Y-93849047D01*
X69396720Y-93610952D01*
X69444340Y-93515714D01*
X69491959Y-93468095D01*
X69587197Y-93420476D01*
X69682435Y-93420476D01*
X69825292Y-93468095D01*
X70396720Y-94039523D01*
X70396720Y-93420476D01*
X69491959Y-93039523D02*
X69444340Y-92991904D01*
X69396720Y-92896666D01*
X69396720Y-92658571D01*
X69444340Y-92563333D01*
X69491959Y-92515714D01*
X69587197Y-92468095D01*
X69682435Y-92468095D01*
X69825292Y-92515714D01*
X70396720Y-93087142D01*
X70396720Y-92468095D01*
X72366666Y-90948095D02*
X72366666Y-90471904D01*
X72652380Y-91043333D02*
X71652380Y-90710000D01*
X72652380Y-90376666D01*
G04 #@! TO.C,D23*
X89396720Y-94944285D02*
X88396720Y-94944285D01*
X88396720Y-94706190D01*
X88444340Y-94563333D01*
X88539578Y-94468095D01*
X88634816Y-94420476D01*
X88825292Y-94372857D01*
X88968149Y-94372857D01*
X89158625Y-94420476D01*
X89253863Y-94468095D01*
X89349101Y-94563333D01*
X89396720Y-94706190D01*
X89396720Y-94944285D01*
X88491959Y-93991904D02*
X88444340Y-93944285D01*
X88396720Y-93849047D01*
X88396720Y-93610952D01*
X88444340Y-93515714D01*
X88491959Y-93468095D01*
X88587197Y-93420476D01*
X88682435Y-93420476D01*
X88825292Y-93468095D01*
X89396720Y-94039523D01*
X89396720Y-93420476D01*
X88396720Y-93087142D02*
X88396720Y-92468095D01*
X88777673Y-92801428D01*
X88777673Y-92658571D01*
X88825292Y-92563333D01*
X88872911Y-92515714D01*
X88968149Y-92468095D01*
X89206244Y-92468095D01*
X89301482Y-92515714D01*
X89349101Y-92563333D01*
X89396720Y-92658571D01*
X89396720Y-92944285D01*
X89349101Y-93039523D01*
X89301482Y-93087142D01*
X91366666Y-90948095D02*
X91366666Y-90471904D01*
X91652380Y-91043333D02*
X90652380Y-90710000D01*
X91652380Y-90376666D01*
G04 #@! TO.C,D24*
X108396720Y-94944285D02*
X107396720Y-94944285D01*
X107396720Y-94706190D01*
X107444340Y-94563333D01*
X107539578Y-94468095D01*
X107634816Y-94420476D01*
X107825292Y-94372857D01*
X107968149Y-94372857D01*
X108158625Y-94420476D01*
X108253863Y-94468095D01*
X108349101Y-94563333D01*
X108396720Y-94706190D01*
X108396720Y-94944285D01*
X107491959Y-93991904D02*
X107444340Y-93944285D01*
X107396720Y-93849047D01*
X107396720Y-93610952D01*
X107444340Y-93515714D01*
X107491959Y-93468095D01*
X107587197Y-93420476D01*
X107682435Y-93420476D01*
X107825292Y-93468095D01*
X108396720Y-94039523D01*
X108396720Y-93420476D01*
X107730054Y-92563333D02*
X108396720Y-92563333D01*
X107349101Y-92801428D02*
X108063387Y-93039523D01*
X108063387Y-92420476D01*
X110366666Y-90948095D02*
X110366666Y-90471904D01*
X110652380Y-91043333D02*
X109652380Y-90710000D01*
X110652380Y-90376666D01*
G04 #@! TO.C,D25*
X127396720Y-94944285D02*
X126396720Y-94944285D01*
X126396720Y-94706190D01*
X126444340Y-94563333D01*
X126539578Y-94468095D01*
X126634816Y-94420476D01*
X126825292Y-94372857D01*
X126968149Y-94372857D01*
X127158625Y-94420476D01*
X127253863Y-94468095D01*
X127349101Y-94563333D01*
X127396720Y-94706190D01*
X127396720Y-94944285D01*
X126491959Y-93991904D02*
X126444340Y-93944285D01*
X126396720Y-93849047D01*
X126396720Y-93610952D01*
X126444340Y-93515714D01*
X126491959Y-93468095D01*
X126587197Y-93420476D01*
X126682435Y-93420476D01*
X126825292Y-93468095D01*
X127396720Y-94039523D01*
X127396720Y-93420476D01*
X126396720Y-92515714D02*
X126396720Y-92991904D01*
X126872911Y-93039523D01*
X126825292Y-92991904D01*
X126777673Y-92896666D01*
X126777673Y-92658571D01*
X126825292Y-92563333D01*
X126872911Y-92515714D01*
X126968149Y-92468095D01*
X127206244Y-92468095D01*
X127301482Y-92515714D01*
X127349101Y-92563333D01*
X127396720Y-92658571D01*
X127396720Y-92896666D01*
X127349101Y-92991904D01*
X127301482Y-93039523D01*
X129366666Y-90948095D02*
X129366666Y-90471904D01*
X129652380Y-91043333D02*
X128652380Y-90710000D01*
X129652380Y-90376666D01*
G04 #@! TO.C,D27*
X165396720Y-94944285D02*
X164396720Y-94944285D01*
X164396720Y-94706190D01*
X164444340Y-94563333D01*
X164539578Y-94468095D01*
X164634816Y-94420476D01*
X164825292Y-94372857D01*
X164968149Y-94372857D01*
X165158625Y-94420476D01*
X165253863Y-94468095D01*
X165349101Y-94563333D01*
X165396720Y-94706190D01*
X165396720Y-94944285D01*
X164491959Y-93991904D02*
X164444340Y-93944285D01*
X164396720Y-93849047D01*
X164396720Y-93610952D01*
X164444340Y-93515714D01*
X164491959Y-93468095D01*
X164587197Y-93420476D01*
X164682435Y-93420476D01*
X164825292Y-93468095D01*
X165396720Y-94039523D01*
X165396720Y-93420476D01*
X164396720Y-93087142D02*
X164396720Y-92420476D01*
X165396720Y-92849047D01*
X167366666Y-90948095D02*
X167366666Y-90471904D01*
X167652380Y-91043333D02*
X166652380Y-90710000D01*
X167652380Y-90376666D01*
G04 #@! TO.C,D28*
X184396720Y-94944285D02*
X183396720Y-94944285D01*
X183396720Y-94706190D01*
X183444340Y-94563333D01*
X183539578Y-94468095D01*
X183634816Y-94420476D01*
X183825292Y-94372857D01*
X183968149Y-94372857D01*
X184158625Y-94420476D01*
X184253863Y-94468095D01*
X184349101Y-94563333D01*
X184396720Y-94706190D01*
X184396720Y-94944285D01*
X183491959Y-93991904D02*
X183444340Y-93944285D01*
X183396720Y-93849047D01*
X183396720Y-93610952D01*
X183444340Y-93515714D01*
X183491959Y-93468095D01*
X183587197Y-93420476D01*
X183682435Y-93420476D01*
X183825292Y-93468095D01*
X184396720Y-94039523D01*
X184396720Y-93420476D01*
X183825292Y-92849047D02*
X183777673Y-92944285D01*
X183730054Y-92991904D01*
X183634816Y-93039523D01*
X183587197Y-93039523D01*
X183491959Y-92991904D01*
X183444340Y-92944285D01*
X183396720Y-92849047D01*
X183396720Y-92658571D01*
X183444340Y-92563333D01*
X183491959Y-92515714D01*
X183587197Y-92468095D01*
X183634816Y-92468095D01*
X183730054Y-92515714D01*
X183777673Y-92563333D01*
X183825292Y-92658571D01*
X183825292Y-92849047D01*
X183872911Y-92944285D01*
X183920530Y-92991904D01*
X184015768Y-93039523D01*
X184206244Y-93039523D01*
X184301482Y-92991904D01*
X184349101Y-92944285D01*
X184396720Y-92849047D01*
X184396720Y-92658571D01*
X184349101Y-92563333D01*
X184301482Y-92515714D01*
X184206244Y-92468095D01*
X184015768Y-92468095D01*
X183920530Y-92515714D01*
X183872911Y-92563333D01*
X183825292Y-92658571D01*
X186366666Y-90948095D02*
X186366666Y-90471904D01*
X186652380Y-91043333D02*
X185652380Y-90710000D01*
X186652380Y-90376666D01*
G04 #@! TO.C,D29*
X194568214Y-82984220D02*
X194568214Y-81984220D01*
X194806309Y-81984220D01*
X194949166Y-82031840D01*
X195044404Y-82127078D01*
X195092023Y-82222316D01*
X195139642Y-82412792D01*
X195139642Y-82555649D01*
X195092023Y-82746125D01*
X195044404Y-82841363D01*
X194949166Y-82936601D01*
X194806309Y-82984220D01*
X194568214Y-82984220D01*
X195520595Y-82079459D02*
X195568214Y-82031840D01*
X195663452Y-81984220D01*
X195901547Y-81984220D01*
X195996785Y-82031840D01*
X196044404Y-82079459D01*
X196092023Y-82174697D01*
X196092023Y-82269935D01*
X196044404Y-82412792D01*
X195472976Y-82984220D01*
X196092023Y-82984220D01*
X196568214Y-82984220D02*
X196758690Y-82984220D01*
X196853928Y-82936601D01*
X196901547Y-82888982D01*
X196996785Y-82746125D01*
X197044404Y-82555649D01*
X197044404Y-82174697D01*
X196996785Y-82079459D01*
X196949166Y-82031840D01*
X196853928Y-81984220D01*
X196663452Y-81984220D01*
X196568214Y-82031840D01*
X196520595Y-82079459D01*
X196472976Y-82174697D01*
X196472976Y-82412792D01*
X196520595Y-82508030D01*
X196568214Y-82555649D01*
X196663452Y-82603268D01*
X196853928Y-82603268D01*
X196949166Y-82555649D01*
X196996785Y-82508030D01*
X197044404Y-82412792D01*
X198564404Y-84954166D02*
X199040595Y-84954166D01*
X198469166Y-85239880D02*
X198802500Y-84239880D01*
X199135833Y-85239880D01*
G04 #@! TO.C,D31*
X51396720Y-113944285D02*
X50396720Y-113944285D01*
X50396720Y-113706190D01*
X50444340Y-113563333D01*
X50539578Y-113468095D01*
X50634816Y-113420476D01*
X50825292Y-113372857D01*
X50968149Y-113372857D01*
X51158625Y-113420476D01*
X51253863Y-113468095D01*
X51349101Y-113563333D01*
X51396720Y-113706190D01*
X51396720Y-113944285D01*
X50396720Y-113039523D02*
X50396720Y-112420476D01*
X50777673Y-112753809D01*
X50777673Y-112610952D01*
X50825292Y-112515714D01*
X50872911Y-112468095D01*
X50968149Y-112420476D01*
X51206244Y-112420476D01*
X51301482Y-112468095D01*
X51349101Y-112515714D01*
X51396720Y-112610952D01*
X51396720Y-112896666D01*
X51349101Y-112991904D01*
X51301482Y-113039523D01*
X51396720Y-111468095D02*
X51396720Y-112039523D01*
X51396720Y-111753809D02*
X50396720Y-111753809D01*
X50539578Y-111849047D01*
X50634816Y-111944285D01*
X50682435Y-112039523D01*
X53366666Y-109948095D02*
X53366666Y-109471904D01*
X53652380Y-110043333D02*
X52652380Y-109710000D01*
X53652380Y-109376666D01*
G04 #@! TO.C,D32*
X70396720Y-113944285D02*
X69396720Y-113944285D01*
X69396720Y-113706190D01*
X69444340Y-113563333D01*
X69539578Y-113468095D01*
X69634816Y-113420476D01*
X69825292Y-113372857D01*
X69968149Y-113372857D01*
X70158625Y-113420476D01*
X70253863Y-113468095D01*
X70349101Y-113563333D01*
X70396720Y-113706190D01*
X70396720Y-113944285D01*
X69396720Y-113039523D02*
X69396720Y-112420476D01*
X69777673Y-112753809D01*
X69777673Y-112610952D01*
X69825292Y-112515714D01*
X69872911Y-112468095D01*
X69968149Y-112420476D01*
X70206244Y-112420476D01*
X70301482Y-112468095D01*
X70349101Y-112515714D01*
X70396720Y-112610952D01*
X70396720Y-112896666D01*
X70349101Y-112991904D01*
X70301482Y-113039523D01*
X69491959Y-112039523D02*
X69444340Y-111991904D01*
X69396720Y-111896666D01*
X69396720Y-111658571D01*
X69444340Y-111563333D01*
X69491959Y-111515714D01*
X69587197Y-111468095D01*
X69682435Y-111468095D01*
X69825292Y-111515714D01*
X70396720Y-112087142D01*
X70396720Y-111468095D01*
X72366666Y-109948095D02*
X72366666Y-109471904D01*
X72652380Y-110043333D02*
X71652380Y-109710000D01*
X72652380Y-109376666D01*
G04 #@! TO.C,D33*
X89396720Y-113944285D02*
X88396720Y-113944285D01*
X88396720Y-113706190D01*
X88444340Y-113563333D01*
X88539578Y-113468095D01*
X88634816Y-113420476D01*
X88825292Y-113372857D01*
X88968149Y-113372857D01*
X89158625Y-113420476D01*
X89253863Y-113468095D01*
X89349101Y-113563333D01*
X89396720Y-113706190D01*
X89396720Y-113944285D01*
X88396720Y-113039523D02*
X88396720Y-112420476D01*
X88777673Y-112753809D01*
X88777673Y-112610952D01*
X88825292Y-112515714D01*
X88872911Y-112468095D01*
X88968149Y-112420476D01*
X89206244Y-112420476D01*
X89301482Y-112468095D01*
X89349101Y-112515714D01*
X89396720Y-112610952D01*
X89396720Y-112896666D01*
X89349101Y-112991904D01*
X89301482Y-113039523D01*
X88396720Y-112087142D02*
X88396720Y-111468095D01*
X88777673Y-111801428D01*
X88777673Y-111658571D01*
X88825292Y-111563333D01*
X88872911Y-111515714D01*
X88968149Y-111468095D01*
X89206244Y-111468095D01*
X89301482Y-111515714D01*
X89349101Y-111563333D01*
X89396720Y-111658571D01*
X89396720Y-111944285D01*
X89349101Y-112039523D01*
X89301482Y-112087142D01*
X91366666Y-109948095D02*
X91366666Y-109471904D01*
X91652380Y-110043333D02*
X90652380Y-109710000D01*
X91652380Y-109376666D01*
G04 #@! TO.C,D34*
X108396720Y-113944285D02*
X107396720Y-113944285D01*
X107396720Y-113706190D01*
X107444340Y-113563333D01*
X107539578Y-113468095D01*
X107634816Y-113420476D01*
X107825292Y-113372857D01*
X107968149Y-113372857D01*
X108158625Y-113420476D01*
X108253863Y-113468095D01*
X108349101Y-113563333D01*
X108396720Y-113706190D01*
X108396720Y-113944285D01*
X107396720Y-113039523D02*
X107396720Y-112420476D01*
X107777673Y-112753809D01*
X107777673Y-112610952D01*
X107825292Y-112515714D01*
X107872911Y-112468095D01*
X107968149Y-112420476D01*
X108206244Y-112420476D01*
X108301482Y-112468095D01*
X108349101Y-112515714D01*
X108396720Y-112610952D01*
X108396720Y-112896666D01*
X108349101Y-112991904D01*
X108301482Y-113039523D01*
X107730054Y-111563333D02*
X108396720Y-111563333D01*
X107349101Y-111801428D02*
X108063387Y-112039523D01*
X108063387Y-111420476D01*
X110366666Y-109948095D02*
X110366666Y-109471904D01*
X110652380Y-110043333D02*
X109652380Y-109710000D01*
X110652380Y-109376666D01*
G04 #@! TO.C,D35*
X127396720Y-113944285D02*
X126396720Y-113944285D01*
X126396720Y-113706190D01*
X126444340Y-113563333D01*
X126539578Y-113468095D01*
X126634816Y-113420476D01*
X126825292Y-113372857D01*
X126968149Y-113372857D01*
X127158625Y-113420476D01*
X127253863Y-113468095D01*
X127349101Y-113563333D01*
X127396720Y-113706190D01*
X127396720Y-113944285D01*
X126396720Y-113039523D02*
X126396720Y-112420476D01*
X126777673Y-112753809D01*
X126777673Y-112610952D01*
X126825292Y-112515714D01*
X126872911Y-112468095D01*
X126968149Y-112420476D01*
X127206244Y-112420476D01*
X127301482Y-112468095D01*
X127349101Y-112515714D01*
X127396720Y-112610952D01*
X127396720Y-112896666D01*
X127349101Y-112991904D01*
X127301482Y-113039523D01*
X126396720Y-111515714D02*
X126396720Y-111991904D01*
X126872911Y-112039523D01*
X126825292Y-111991904D01*
X126777673Y-111896666D01*
X126777673Y-111658571D01*
X126825292Y-111563333D01*
X126872911Y-111515714D01*
X126968149Y-111468095D01*
X127206244Y-111468095D01*
X127301482Y-111515714D01*
X127349101Y-111563333D01*
X127396720Y-111658571D01*
X127396720Y-111896666D01*
X127349101Y-111991904D01*
X127301482Y-112039523D01*
X129366666Y-109948095D02*
X129366666Y-109471904D01*
X129652380Y-110043333D02*
X128652380Y-109710000D01*
X129652380Y-109376666D01*
G04 #@! TO.C,D36*
X146396720Y-113944285D02*
X145396720Y-113944285D01*
X145396720Y-113706190D01*
X145444340Y-113563333D01*
X145539578Y-113468095D01*
X145634816Y-113420476D01*
X145825292Y-113372857D01*
X145968149Y-113372857D01*
X146158625Y-113420476D01*
X146253863Y-113468095D01*
X146349101Y-113563333D01*
X146396720Y-113706190D01*
X146396720Y-113944285D01*
X145396720Y-113039523D02*
X145396720Y-112420476D01*
X145777673Y-112753809D01*
X145777673Y-112610952D01*
X145825292Y-112515714D01*
X145872911Y-112468095D01*
X145968149Y-112420476D01*
X146206244Y-112420476D01*
X146301482Y-112468095D01*
X146349101Y-112515714D01*
X146396720Y-112610952D01*
X146396720Y-112896666D01*
X146349101Y-112991904D01*
X146301482Y-113039523D01*
X145396720Y-111563333D02*
X145396720Y-111753809D01*
X145444340Y-111849047D01*
X145491959Y-111896666D01*
X145634816Y-111991904D01*
X145825292Y-112039523D01*
X146206244Y-112039523D01*
X146301482Y-111991904D01*
X146349101Y-111944285D01*
X146396720Y-111849047D01*
X146396720Y-111658571D01*
X146349101Y-111563333D01*
X146301482Y-111515714D01*
X146206244Y-111468095D01*
X145968149Y-111468095D01*
X145872911Y-111515714D01*
X145825292Y-111563333D01*
X145777673Y-111658571D01*
X145777673Y-111849047D01*
X145825292Y-111944285D01*
X145872911Y-111991904D01*
X145968149Y-112039523D01*
X148366666Y-109948095D02*
X148366666Y-109471904D01*
X148652380Y-110043333D02*
X147652380Y-109710000D01*
X148652380Y-109376666D01*
G04 #@! TO.C,D37*
X165396720Y-113944285D02*
X164396720Y-113944285D01*
X164396720Y-113706190D01*
X164444340Y-113563333D01*
X164539578Y-113468095D01*
X164634816Y-113420476D01*
X164825292Y-113372857D01*
X164968149Y-113372857D01*
X165158625Y-113420476D01*
X165253863Y-113468095D01*
X165349101Y-113563333D01*
X165396720Y-113706190D01*
X165396720Y-113944285D01*
X164396720Y-113039523D02*
X164396720Y-112420476D01*
X164777673Y-112753809D01*
X164777673Y-112610952D01*
X164825292Y-112515714D01*
X164872911Y-112468095D01*
X164968149Y-112420476D01*
X165206244Y-112420476D01*
X165301482Y-112468095D01*
X165349101Y-112515714D01*
X165396720Y-112610952D01*
X165396720Y-112896666D01*
X165349101Y-112991904D01*
X165301482Y-113039523D01*
X164396720Y-112087142D02*
X164396720Y-111420476D01*
X165396720Y-111849047D01*
X167366666Y-109948095D02*
X167366666Y-109471904D01*
X167652380Y-110043333D02*
X166652380Y-109710000D01*
X167652380Y-109376666D01*
G04 #@! TO.C,D38*
X184396720Y-114107286D02*
X183396720Y-114107286D01*
X183396720Y-113869191D01*
X183444340Y-113726334D01*
X183539578Y-113631096D01*
X183634816Y-113583477D01*
X183825292Y-113535858D01*
X183968149Y-113535858D01*
X184158625Y-113583477D01*
X184253863Y-113631096D01*
X184349101Y-113726334D01*
X184396720Y-113869191D01*
X184396720Y-114107286D01*
X183396720Y-113202524D02*
X183396720Y-112583477D01*
X183777673Y-112916810D01*
X183777673Y-112773953D01*
X183825292Y-112678715D01*
X183872911Y-112631096D01*
X183968149Y-112583477D01*
X184206244Y-112583477D01*
X184301482Y-112631096D01*
X184349101Y-112678715D01*
X184396720Y-112773953D01*
X184396720Y-113059667D01*
X184349101Y-113154905D01*
X184301482Y-113202524D01*
X183825292Y-112012048D02*
X183777673Y-112107286D01*
X183730054Y-112154905D01*
X183634816Y-112202524D01*
X183587197Y-112202524D01*
X183491959Y-112154905D01*
X183444340Y-112107286D01*
X183396720Y-112012048D01*
X183396720Y-111821572D01*
X183444340Y-111726334D01*
X183491959Y-111678715D01*
X183587197Y-111631096D01*
X183634816Y-111631096D01*
X183730054Y-111678715D01*
X183777673Y-111726334D01*
X183825292Y-111821572D01*
X183825292Y-112012048D01*
X183872911Y-112107286D01*
X183920530Y-112154905D01*
X184015768Y-112202524D01*
X184206244Y-112202524D01*
X184301482Y-112154905D01*
X184349101Y-112107286D01*
X184396720Y-112012048D01*
X184396720Y-111821572D01*
X184349101Y-111726334D01*
X184301482Y-111678715D01*
X184206244Y-111631096D01*
X184015768Y-111631096D01*
X183920530Y-111678715D01*
X183872911Y-111726334D01*
X183825292Y-111821572D01*
X186366666Y-110111096D02*
X186366666Y-109634905D01*
X186652380Y-110206334D02*
X185652380Y-109873001D01*
X186652380Y-109539667D01*
G04 #@! TO.C,D39*
X203396720Y-116009285D02*
X202396720Y-116009285D01*
X202396720Y-115771190D01*
X202444340Y-115628333D01*
X202539578Y-115533095D01*
X202634816Y-115485476D01*
X202825292Y-115437857D01*
X202968149Y-115437857D01*
X203158625Y-115485476D01*
X203253863Y-115533095D01*
X203349101Y-115628333D01*
X203396720Y-115771190D01*
X203396720Y-116009285D01*
X202396720Y-115104523D02*
X202396720Y-114485476D01*
X202777673Y-114818809D01*
X202777673Y-114675952D01*
X202825292Y-114580714D01*
X202872911Y-114533095D01*
X202968149Y-114485476D01*
X203206244Y-114485476D01*
X203301482Y-114533095D01*
X203349101Y-114580714D01*
X203396720Y-114675952D01*
X203396720Y-114961666D01*
X203349101Y-115056904D01*
X203301482Y-115104523D01*
X203396720Y-114009285D02*
X203396720Y-113818809D01*
X203349101Y-113723571D01*
X203301482Y-113675952D01*
X203158625Y-113580714D01*
X202968149Y-113533095D01*
X202587197Y-113533095D01*
X202491959Y-113580714D01*
X202444340Y-113628333D01*
X202396720Y-113723571D01*
X202396720Y-113914047D01*
X202444340Y-114009285D01*
X202491959Y-114056904D01*
X202587197Y-114104523D01*
X202825292Y-114104523D01*
X202920530Y-114056904D01*
X202968149Y-114009285D01*
X203015768Y-113914047D01*
X203015768Y-113723571D01*
X202968149Y-113628333D01*
X202920530Y-113580714D01*
X202825292Y-113533095D01*
X205366666Y-112013095D02*
X205366666Y-111536904D01*
X205652380Y-112108333D02*
X204652380Y-111775000D01*
X205652380Y-111441666D01*
G04 #@! TO.C,D41*
X51396720Y-132944285D02*
X50396720Y-132944285D01*
X50396720Y-132706190D01*
X50444340Y-132563333D01*
X50539578Y-132468095D01*
X50634816Y-132420476D01*
X50825292Y-132372857D01*
X50968149Y-132372857D01*
X51158625Y-132420476D01*
X51253863Y-132468095D01*
X51349101Y-132563333D01*
X51396720Y-132706190D01*
X51396720Y-132944285D01*
X50730054Y-131515714D02*
X51396720Y-131515714D01*
X50349101Y-131753809D02*
X51063387Y-131991904D01*
X51063387Y-131372857D01*
X51396720Y-130468095D02*
X51396720Y-131039523D01*
X51396720Y-130753809D02*
X50396720Y-130753809D01*
X50539578Y-130849047D01*
X50634816Y-130944285D01*
X50682435Y-131039523D01*
X53366666Y-128948095D02*
X53366666Y-128471904D01*
X53652380Y-129043333D02*
X52652380Y-128710000D01*
X53652380Y-128376666D01*
G04 #@! TO.C,D42*
X70396720Y-132944285D02*
X69396720Y-132944285D01*
X69396720Y-132706190D01*
X69444340Y-132563333D01*
X69539578Y-132468095D01*
X69634816Y-132420476D01*
X69825292Y-132372857D01*
X69968149Y-132372857D01*
X70158625Y-132420476D01*
X70253863Y-132468095D01*
X70349101Y-132563333D01*
X70396720Y-132706190D01*
X70396720Y-132944285D01*
X69730054Y-131515714D02*
X70396720Y-131515714D01*
X69349101Y-131753809D02*
X70063387Y-131991904D01*
X70063387Y-131372857D01*
X69491959Y-131039523D02*
X69444340Y-130991904D01*
X69396720Y-130896666D01*
X69396720Y-130658571D01*
X69444340Y-130563333D01*
X69491959Y-130515714D01*
X69587197Y-130468095D01*
X69682435Y-130468095D01*
X69825292Y-130515714D01*
X70396720Y-131087142D01*
X70396720Y-130468095D01*
X72366666Y-128948095D02*
X72366666Y-128471904D01*
X72652380Y-129043333D02*
X71652380Y-128710000D01*
X72652380Y-128376666D01*
G04 #@! TO.C,D43*
X89396720Y-132944285D02*
X88396720Y-132944285D01*
X88396720Y-132706190D01*
X88444340Y-132563333D01*
X88539578Y-132468095D01*
X88634816Y-132420476D01*
X88825292Y-132372857D01*
X88968149Y-132372857D01*
X89158625Y-132420476D01*
X89253863Y-132468095D01*
X89349101Y-132563333D01*
X89396720Y-132706190D01*
X89396720Y-132944285D01*
X88730054Y-131515714D02*
X89396720Y-131515714D01*
X88349101Y-131753809D02*
X89063387Y-131991904D01*
X89063387Y-131372857D01*
X88396720Y-131087142D02*
X88396720Y-130468095D01*
X88777673Y-130801428D01*
X88777673Y-130658571D01*
X88825292Y-130563333D01*
X88872911Y-130515714D01*
X88968149Y-130468095D01*
X89206244Y-130468095D01*
X89301482Y-130515714D01*
X89349101Y-130563333D01*
X89396720Y-130658571D01*
X89396720Y-130944285D01*
X89349101Y-131039523D01*
X89301482Y-131087142D01*
X91366666Y-128948095D02*
X91366666Y-128471904D01*
X91652380Y-129043333D02*
X90652380Y-128710000D01*
X91652380Y-128376666D01*
G04 #@! TO.C,D44*
X108396720Y-132944285D02*
X107396720Y-132944285D01*
X107396720Y-132706190D01*
X107444340Y-132563333D01*
X107539578Y-132468095D01*
X107634816Y-132420476D01*
X107825292Y-132372857D01*
X107968149Y-132372857D01*
X108158625Y-132420476D01*
X108253863Y-132468095D01*
X108349101Y-132563333D01*
X108396720Y-132706190D01*
X108396720Y-132944285D01*
X107730054Y-131515714D02*
X108396720Y-131515714D01*
X107349101Y-131753809D02*
X108063387Y-131991904D01*
X108063387Y-131372857D01*
X107730054Y-130563333D02*
X108396720Y-130563333D01*
X107349101Y-130801428D02*
X108063387Y-131039523D01*
X108063387Y-130420476D01*
X110366666Y-128948095D02*
X110366666Y-128471904D01*
X110652380Y-129043333D02*
X109652380Y-128710000D01*
X110652380Y-128376666D01*
G04 #@! TO.C,D45*
X121015714Y-119796720D02*
X121015714Y-118796720D01*
X121253809Y-118796720D01*
X121396666Y-118844340D01*
X121491904Y-118939578D01*
X121539523Y-119034816D01*
X121587142Y-119225292D01*
X121587142Y-119368149D01*
X121539523Y-119558625D01*
X121491904Y-119653863D01*
X121396666Y-119749101D01*
X121253809Y-119796720D01*
X121015714Y-119796720D01*
X122444285Y-119130054D02*
X122444285Y-119796720D01*
X122206190Y-118749101D02*
X121968095Y-119463387D01*
X122587142Y-119463387D01*
X123444285Y-118796720D02*
X122968095Y-118796720D01*
X122920476Y-119272911D01*
X122968095Y-119225292D01*
X123063333Y-119177673D01*
X123301428Y-119177673D01*
X123396666Y-119225292D01*
X123444285Y-119272911D01*
X123491904Y-119368149D01*
X123491904Y-119606244D01*
X123444285Y-119701482D01*
X123396666Y-119749101D01*
X123301428Y-119796720D01*
X123063333Y-119796720D01*
X122968095Y-119749101D01*
X122920476Y-119701482D01*
X125011904Y-121766666D02*
X125488095Y-121766666D01*
X124916666Y-122052380D02*
X125250000Y-121052380D01*
X125583333Y-122052380D01*
G04 #@! TO.C,D46*
X168753214Y-124308040D02*
X168753214Y-123308040D01*
X168991309Y-123308040D01*
X169134166Y-123355660D01*
X169229404Y-123450898D01*
X169277023Y-123546136D01*
X169324642Y-123736612D01*
X169324642Y-123879469D01*
X169277023Y-124069945D01*
X169229404Y-124165183D01*
X169134166Y-124260421D01*
X168991309Y-124308040D01*
X168753214Y-124308040D01*
X170181785Y-123641374D02*
X170181785Y-124308040D01*
X169943690Y-123260421D02*
X169705595Y-123974707D01*
X170324642Y-123974707D01*
X171134166Y-123308040D02*
X170943690Y-123308040D01*
X170848452Y-123355660D01*
X170800833Y-123403279D01*
X170705595Y-123546136D01*
X170657976Y-123736612D01*
X170657976Y-124117564D01*
X170705595Y-124212802D01*
X170753214Y-124260421D01*
X170848452Y-124308040D01*
X171038928Y-124308040D01*
X171134166Y-124260421D01*
X171181785Y-124212802D01*
X171229404Y-124117564D01*
X171229404Y-123879469D01*
X171181785Y-123784231D01*
X171134166Y-123736612D01*
X171038928Y-123688993D01*
X170848452Y-123688993D01*
X170753214Y-123736612D01*
X170705595Y-123784231D01*
X170657976Y-123879469D01*
X166709404Y-121766666D02*
X167185595Y-121766666D01*
X166614166Y-122052380D02*
X166947500Y-121052380D01*
X167280833Y-122052380D01*
G04 #@! TO.C,D48*
X184396720Y-132944285D02*
X183396720Y-132944285D01*
X183396720Y-132706190D01*
X183444340Y-132563333D01*
X183539578Y-132468095D01*
X183634816Y-132420476D01*
X183825292Y-132372857D01*
X183968149Y-132372857D01*
X184158625Y-132420476D01*
X184253863Y-132468095D01*
X184349101Y-132563333D01*
X184396720Y-132706190D01*
X184396720Y-132944285D01*
X183730054Y-131515714D02*
X184396720Y-131515714D01*
X183349101Y-131753809D02*
X184063387Y-131991904D01*
X184063387Y-131372857D01*
X183825292Y-130849047D02*
X183777673Y-130944285D01*
X183730054Y-130991904D01*
X183634816Y-131039523D01*
X183587197Y-131039523D01*
X183491959Y-130991904D01*
X183444340Y-130944285D01*
X183396720Y-130849047D01*
X183396720Y-130658571D01*
X183444340Y-130563333D01*
X183491959Y-130515714D01*
X183587197Y-130468095D01*
X183634816Y-130468095D01*
X183730054Y-130515714D01*
X183777673Y-130563333D01*
X183825292Y-130658571D01*
X183825292Y-130849047D01*
X183872911Y-130944285D01*
X183920530Y-130991904D01*
X184015768Y-131039523D01*
X184206244Y-131039523D01*
X184301482Y-130991904D01*
X184349101Y-130944285D01*
X184396720Y-130849047D01*
X184396720Y-130658571D01*
X184349101Y-130563333D01*
X184301482Y-130515714D01*
X184206244Y-130468095D01*
X184015768Y-130468095D01*
X183920530Y-130515714D01*
X183872911Y-130563333D01*
X183825292Y-130658571D01*
X186366666Y-128948095D02*
X186366666Y-128471904D01*
X186652380Y-129043333D02*
X185652380Y-128710000D01*
X186652380Y-128376666D01*
G04 #@! TO.C,D49*
X203396720Y-132944285D02*
X202396720Y-132944285D01*
X202396720Y-132706190D01*
X202444340Y-132563333D01*
X202539578Y-132468095D01*
X202634816Y-132420476D01*
X202825292Y-132372857D01*
X202968149Y-132372857D01*
X203158625Y-132420476D01*
X203253863Y-132468095D01*
X203349101Y-132563333D01*
X203396720Y-132706190D01*
X203396720Y-132944285D01*
X202730054Y-131515714D02*
X203396720Y-131515714D01*
X202349101Y-131753809D02*
X203063387Y-131991904D01*
X203063387Y-131372857D01*
X203396720Y-130944285D02*
X203396720Y-130753809D01*
X203349101Y-130658571D01*
X203301482Y-130610952D01*
X203158625Y-130515714D01*
X202968149Y-130468095D01*
X202587197Y-130468095D01*
X202491959Y-130515714D01*
X202444340Y-130563333D01*
X202396720Y-130658571D01*
X202396720Y-130849047D01*
X202444340Y-130944285D01*
X202491959Y-130991904D01*
X202587197Y-131039523D01*
X202825292Y-131039523D01*
X202920530Y-130991904D01*
X202968149Y-130944285D01*
X203015768Y-130849047D01*
X203015768Y-130658571D01*
X202968149Y-130563333D01*
X202920530Y-130515714D01*
X202825292Y-130468095D01*
X205366666Y-128948095D02*
X205366666Y-128471904D01*
X205652380Y-129043333D02*
X204652380Y-128710000D01*
X205652380Y-128376666D01*
G04 #@! TO.C,D110*
X222396720Y-76420476D02*
X221396720Y-76420476D01*
X221396720Y-76182380D01*
X221444340Y-76039523D01*
X221539578Y-75944285D01*
X221634816Y-75896666D01*
X221825292Y-75849047D01*
X221968149Y-75849047D01*
X222158625Y-75896666D01*
X222253863Y-75944285D01*
X222349101Y-76039523D01*
X222396720Y-76182380D01*
X222396720Y-76420476D01*
X222396720Y-74896666D02*
X222396720Y-75468095D01*
X222396720Y-75182380D02*
X221396720Y-75182380D01*
X221539578Y-75277619D01*
X221634816Y-75372857D01*
X221682435Y-75468095D01*
X222396720Y-73944285D02*
X222396720Y-74515714D01*
X222396720Y-74230000D02*
X221396720Y-74230000D01*
X221539578Y-74325238D01*
X221634816Y-74420476D01*
X221682435Y-74515714D01*
X221396720Y-73325238D02*
X221396720Y-73230000D01*
X221444340Y-73134761D01*
X221491959Y-73087142D01*
X221587197Y-73039523D01*
X221777673Y-72991904D01*
X222015768Y-72991904D01*
X222206244Y-73039523D01*
X222301482Y-73087142D01*
X222349101Y-73134761D01*
X222396720Y-73230000D01*
X222396720Y-73325238D01*
X222349101Y-73420476D01*
X222301482Y-73468095D01*
X222206244Y-73515714D01*
X222015768Y-73563333D01*
X221777673Y-73563333D01*
X221587197Y-73515714D01*
X221491959Y-73468095D01*
X221444340Y-73420476D01*
X221396720Y-73325238D01*
X224366666Y-71948095D02*
X224366666Y-71471904D01*
X224652380Y-72043333D02*
X223652380Y-71710000D01*
X224652380Y-71376666D01*
G04 #@! TO.C,D111*
X245908040Y-71360476D02*
X244908040Y-71360476D01*
X244908040Y-71122380D01*
X244955660Y-70979523D01*
X245050898Y-70884285D01*
X245146136Y-70836666D01*
X245336612Y-70789047D01*
X245479469Y-70789047D01*
X245669945Y-70836666D01*
X245765183Y-70884285D01*
X245860421Y-70979523D01*
X245908040Y-71122380D01*
X245908040Y-71360476D01*
X245908040Y-69836666D02*
X245908040Y-70408095D01*
X245908040Y-70122380D02*
X244908040Y-70122380D01*
X245050898Y-70217619D01*
X245146136Y-70312857D01*
X245193755Y-70408095D01*
X245908040Y-68884285D02*
X245908040Y-69455714D01*
X245908040Y-69170000D02*
X244908040Y-69170000D01*
X245050898Y-69265238D01*
X245146136Y-69360476D01*
X245193755Y-69455714D01*
X245908040Y-67931904D02*
X245908040Y-68503333D01*
X245908040Y-68217619D02*
X244908040Y-68217619D01*
X245050898Y-68312857D01*
X245146136Y-68408095D01*
X245193755Y-68503333D01*
X243366666Y-72928095D02*
X243366666Y-72451904D01*
X243652380Y-73023333D02*
X242652380Y-72690000D01*
X243652380Y-72356666D01*
G04 #@! TO.C,D112*
X241396720Y-82120476D02*
X240396720Y-82120476D01*
X240396720Y-81882380D01*
X240444340Y-81739523D01*
X240539578Y-81644285D01*
X240634816Y-81596666D01*
X240825292Y-81549047D01*
X240968149Y-81549047D01*
X241158625Y-81596666D01*
X241253863Y-81644285D01*
X241349101Y-81739523D01*
X241396720Y-81882380D01*
X241396720Y-82120476D01*
X241396720Y-80596666D02*
X241396720Y-81168095D01*
X241396720Y-80882380D02*
X240396720Y-80882380D01*
X240539578Y-80977619D01*
X240634816Y-81072857D01*
X240682435Y-81168095D01*
X241396720Y-79644285D02*
X241396720Y-80215714D01*
X241396720Y-79930000D02*
X240396720Y-79930000D01*
X240539578Y-80025238D01*
X240634816Y-80120476D01*
X240682435Y-80215714D01*
X240491959Y-79263333D02*
X240444340Y-79215714D01*
X240396720Y-79120476D01*
X240396720Y-78882380D01*
X240444340Y-78787142D01*
X240491959Y-78739523D01*
X240587197Y-78691904D01*
X240682435Y-78691904D01*
X240825292Y-78739523D01*
X241396720Y-79310952D01*
X241396720Y-78691904D01*
X243366666Y-77648095D02*
X243366666Y-77171904D01*
X243652380Y-77743333D02*
X242652380Y-77410000D01*
X243652380Y-77076666D01*
G04 #@! TO.C,D210*
X222396720Y-95420476D02*
X221396720Y-95420476D01*
X221396720Y-95182380D01*
X221444340Y-95039523D01*
X221539578Y-94944285D01*
X221634816Y-94896666D01*
X221825292Y-94849047D01*
X221968149Y-94849047D01*
X222158625Y-94896666D01*
X222253863Y-94944285D01*
X222349101Y-95039523D01*
X222396720Y-95182380D01*
X222396720Y-95420476D01*
X221491959Y-94468095D02*
X221444340Y-94420476D01*
X221396720Y-94325238D01*
X221396720Y-94087142D01*
X221444340Y-93991904D01*
X221491959Y-93944285D01*
X221587197Y-93896666D01*
X221682435Y-93896666D01*
X221825292Y-93944285D01*
X222396720Y-94515714D01*
X222396720Y-93896666D01*
X222396720Y-92944285D02*
X222396720Y-93515714D01*
X222396720Y-93230000D02*
X221396720Y-93230000D01*
X221539578Y-93325238D01*
X221634816Y-93420476D01*
X221682435Y-93515714D01*
X221396720Y-92325238D02*
X221396720Y-92230000D01*
X221444340Y-92134761D01*
X221491959Y-92087142D01*
X221587197Y-92039523D01*
X221777673Y-91991904D01*
X222015768Y-91991904D01*
X222206244Y-92039523D01*
X222301482Y-92087142D01*
X222349101Y-92134761D01*
X222396720Y-92230000D01*
X222396720Y-92325238D01*
X222349101Y-92420476D01*
X222301482Y-92468095D01*
X222206244Y-92515714D01*
X222015768Y-92563333D01*
X221777673Y-92563333D01*
X221587197Y-92515714D01*
X221491959Y-92468095D01*
X221444340Y-92420476D01*
X221396720Y-92325238D01*
X224366666Y-90948095D02*
X224366666Y-90471904D01*
X224652380Y-91043333D02*
X223652380Y-90710000D01*
X224652380Y-90376666D01*
G04 #@! TO.C,D211*
X245908040Y-89080476D02*
X244908040Y-89080476D01*
X244908040Y-88842380D01*
X244955660Y-88699523D01*
X245050898Y-88604285D01*
X245146136Y-88556666D01*
X245336612Y-88509047D01*
X245479469Y-88509047D01*
X245669945Y-88556666D01*
X245765183Y-88604285D01*
X245860421Y-88699523D01*
X245908040Y-88842380D01*
X245908040Y-89080476D01*
X245003279Y-88128095D02*
X244955660Y-88080476D01*
X244908040Y-87985238D01*
X244908040Y-87747142D01*
X244955660Y-87651904D01*
X245003279Y-87604285D01*
X245098517Y-87556666D01*
X245193755Y-87556666D01*
X245336612Y-87604285D01*
X245908040Y-88175714D01*
X245908040Y-87556666D01*
X245908040Y-86604285D02*
X245908040Y-87175714D01*
X245908040Y-86890000D02*
X244908040Y-86890000D01*
X245050898Y-86985238D01*
X245146136Y-87080476D01*
X245193755Y-87175714D01*
X245908040Y-85651904D02*
X245908040Y-86223333D01*
X245908040Y-85937619D02*
X244908040Y-85937619D01*
X245050898Y-86032857D01*
X245146136Y-86128095D01*
X245193755Y-86223333D01*
X243366666Y-90648095D02*
X243366666Y-90171904D01*
X243652380Y-90743333D02*
X242652380Y-90410000D01*
X243652380Y-90076666D01*
G04 #@! TO.C,D212*
X241396720Y-97960476D02*
X240396720Y-97960476D01*
X240396720Y-97722380D01*
X240444340Y-97579523D01*
X240539578Y-97484285D01*
X240634816Y-97436666D01*
X240825292Y-97389047D01*
X240968149Y-97389047D01*
X241158625Y-97436666D01*
X241253863Y-97484285D01*
X241349101Y-97579523D01*
X241396720Y-97722380D01*
X241396720Y-97960476D01*
X240491959Y-97008095D02*
X240444340Y-96960476D01*
X240396720Y-96865238D01*
X240396720Y-96627142D01*
X240444340Y-96531904D01*
X240491959Y-96484285D01*
X240587197Y-96436666D01*
X240682435Y-96436666D01*
X240825292Y-96484285D01*
X241396720Y-97055714D01*
X241396720Y-96436666D01*
X241396720Y-95484285D02*
X241396720Y-96055714D01*
X241396720Y-95770000D02*
X240396720Y-95770000D01*
X240539578Y-95865238D01*
X240634816Y-95960476D01*
X240682435Y-96055714D01*
X240491959Y-95103333D02*
X240444340Y-95055714D01*
X240396720Y-94960476D01*
X240396720Y-94722380D01*
X240444340Y-94627142D01*
X240491959Y-94579523D01*
X240587197Y-94531904D01*
X240682435Y-94531904D01*
X240825292Y-94579523D01*
X241396720Y-95150952D01*
X241396720Y-94531904D01*
X243366666Y-93488095D02*
X243366666Y-93011904D01*
X243652380Y-93583333D02*
X242652380Y-93250000D01*
X243652380Y-92916666D01*
G04 #@! TO.C,D310*
X222396720Y-114420476D02*
X221396720Y-114420476D01*
X221396720Y-114182380D01*
X221444340Y-114039523D01*
X221539578Y-113944285D01*
X221634816Y-113896666D01*
X221825292Y-113849047D01*
X221968149Y-113849047D01*
X222158625Y-113896666D01*
X222253863Y-113944285D01*
X222349101Y-114039523D01*
X222396720Y-114182380D01*
X222396720Y-114420476D01*
X221396720Y-113515714D02*
X221396720Y-112896666D01*
X221777673Y-113230000D01*
X221777673Y-113087142D01*
X221825292Y-112991904D01*
X221872911Y-112944285D01*
X221968149Y-112896666D01*
X222206244Y-112896666D01*
X222301482Y-112944285D01*
X222349101Y-112991904D01*
X222396720Y-113087142D01*
X222396720Y-113372857D01*
X222349101Y-113468095D01*
X222301482Y-113515714D01*
X222396720Y-111944285D02*
X222396720Y-112515714D01*
X222396720Y-112230000D02*
X221396720Y-112230000D01*
X221539578Y-112325238D01*
X221634816Y-112420476D01*
X221682435Y-112515714D01*
X221396720Y-111325238D02*
X221396720Y-111230000D01*
X221444340Y-111134761D01*
X221491959Y-111087142D01*
X221587197Y-111039523D01*
X221777673Y-110991904D01*
X222015768Y-110991904D01*
X222206244Y-111039523D01*
X222301482Y-111087142D01*
X222349101Y-111134761D01*
X222396720Y-111230000D01*
X222396720Y-111325238D01*
X222349101Y-111420476D01*
X222301482Y-111468095D01*
X222206244Y-111515714D01*
X222015768Y-111563333D01*
X221777673Y-111563333D01*
X221587197Y-111515714D01*
X221491959Y-111468095D01*
X221444340Y-111420476D01*
X221396720Y-111325238D01*
X224366666Y-109948095D02*
X224366666Y-109471904D01*
X224652380Y-110043333D02*
X223652380Y-109710000D01*
X224652380Y-109376666D01*
G04 #@! TO.C,D311*
X241396720Y-120120476D02*
X240396720Y-120120476D01*
X240396720Y-119882380D01*
X240444340Y-119739523D01*
X240539578Y-119644285D01*
X240634816Y-119596666D01*
X240825292Y-119549047D01*
X240968149Y-119549047D01*
X241158625Y-119596666D01*
X241253863Y-119644285D01*
X241349101Y-119739523D01*
X241396720Y-119882380D01*
X241396720Y-120120476D01*
X240396720Y-119215714D02*
X240396720Y-118596666D01*
X240777673Y-118930000D01*
X240777673Y-118787142D01*
X240825292Y-118691904D01*
X240872911Y-118644285D01*
X240968149Y-118596666D01*
X241206244Y-118596666D01*
X241301482Y-118644285D01*
X241349101Y-118691904D01*
X241396720Y-118787142D01*
X241396720Y-119072857D01*
X241349101Y-119168095D01*
X241301482Y-119215714D01*
X241396720Y-117644285D02*
X241396720Y-118215714D01*
X241396720Y-117930000D02*
X240396720Y-117930000D01*
X240539578Y-118025238D01*
X240634816Y-118120476D01*
X240682435Y-118215714D01*
X241396720Y-116691904D02*
X241396720Y-117263333D01*
X241396720Y-116977619D02*
X240396720Y-116977619D01*
X240539578Y-117072857D01*
X240634816Y-117168095D01*
X240682435Y-117263333D01*
X243366666Y-115648095D02*
X243366666Y-115171904D01*
X243652380Y-115743333D02*
X242652380Y-115410000D01*
X243652380Y-115076666D01*
G04 #@! TO.C,D312*
X245908040Y-110310476D02*
X244908040Y-110310476D01*
X244908040Y-110072380D01*
X244955660Y-109929523D01*
X245050898Y-109834285D01*
X245146136Y-109786666D01*
X245336612Y-109739047D01*
X245479469Y-109739047D01*
X245669945Y-109786666D01*
X245765183Y-109834285D01*
X245860421Y-109929523D01*
X245908040Y-110072380D01*
X245908040Y-110310476D01*
X244908040Y-109405714D02*
X244908040Y-108786666D01*
X245288993Y-109120000D01*
X245288993Y-108977142D01*
X245336612Y-108881904D01*
X245384231Y-108834285D01*
X245479469Y-108786666D01*
X245717564Y-108786666D01*
X245812802Y-108834285D01*
X245860421Y-108881904D01*
X245908040Y-108977142D01*
X245908040Y-109262857D01*
X245860421Y-109358095D01*
X245812802Y-109405714D01*
X245908040Y-107834285D02*
X245908040Y-108405714D01*
X245908040Y-108120000D02*
X244908040Y-108120000D01*
X245050898Y-108215238D01*
X245146136Y-108310476D01*
X245193755Y-108405714D01*
X245003279Y-107453333D02*
X244955660Y-107405714D01*
X244908040Y-107310476D01*
X244908040Y-107072380D01*
X244955660Y-106977142D01*
X245003279Y-106929523D01*
X245098517Y-106881904D01*
X245193755Y-106881904D01*
X245336612Y-106929523D01*
X245908040Y-107500952D01*
X245908040Y-106881904D01*
X243366666Y-111878095D02*
X243366666Y-111401904D01*
X243652380Y-111973333D02*
X242652380Y-111640000D01*
X243652380Y-111306666D01*
G04 #@! TO.C,D410*
X222396720Y-133420476D02*
X221396720Y-133420476D01*
X221396720Y-133182380D01*
X221444340Y-133039523D01*
X221539578Y-132944285D01*
X221634816Y-132896666D01*
X221825292Y-132849047D01*
X221968149Y-132849047D01*
X222158625Y-132896666D01*
X222253863Y-132944285D01*
X222349101Y-133039523D01*
X222396720Y-133182380D01*
X222396720Y-133420476D01*
X221730054Y-131991904D02*
X222396720Y-131991904D01*
X221349101Y-132230000D02*
X222063387Y-132468095D01*
X222063387Y-131849047D01*
X222396720Y-130944285D02*
X222396720Y-131515714D01*
X222396720Y-131230000D02*
X221396720Y-131230000D01*
X221539578Y-131325238D01*
X221634816Y-131420476D01*
X221682435Y-131515714D01*
X221396720Y-130325238D02*
X221396720Y-130230000D01*
X221444340Y-130134761D01*
X221491959Y-130087142D01*
X221587197Y-130039523D01*
X221777673Y-129991904D01*
X222015768Y-129991904D01*
X222206244Y-130039523D01*
X222301482Y-130087142D01*
X222349101Y-130134761D01*
X222396720Y-130230000D01*
X222396720Y-130325238D01*
X222349101Y-130420476D01*
X222301482Y-130468095D01*
X222206244Y-130515714D01*
X222015768Y-130563333D01*
X221777673Y-130563333D01*
X221587197Y-130515714D01*
X221491959Y-130468095D01*
X221444340Y-130420476D01*
X221396720Y-130325238D01*
X224366666Y-128948095D02*
X224366666Y-128471904D01*
X224652380Y-129043333D02*
X223652380Y-128710000D01*
X224652380Y-128376666D01*
G04 #@! TO.C,D411*
X241396720Y-137220476D02*
X240396720Y-137220476D01*
X240396720Y-136982380D01*
X240444340Y-136839523D01*
X240539578Y-136744285D01*
X240634816Y-136696666D01*
X240825292Y-136649047D01*
X240968149Y-136649047D01*
X241158625Y-136696666D01*
X241253863Y-136744285D01*
X241349101Y-136839523D01*
X241396720Y-136982380D01*
X241396720Y-137220476D01*
X240730054Y-135791904D02*
X241396720Y-135791904D01*
X240349101Y-136030000D02*
X241063387Y-136268095D01*
X241063387Y-135649047D01*
X241396720Y-134744285D02*
X241396720Y-135315714D01*
X241396720Y-135030000D02*
X240396720Y-135030000D01*
X240539578Y-135125238D01*
X240634816Y-135220476D01*
X240682435Y-135315714D01*
X241396720Y-133791904D02*
X241396720Y-134363333D01*
X241396720Y-134077619D02*
X240396720Y-134077619D01*
X240539578Y-134172857D01*
X240634816Y-134268095D01*
X240682435Y-134363333D01*
X243366666Y-132748095D02*
X243366666Y-132271904D01*
X243652380Y-132843333D02*
X242652380Y-132510000D01*
X243652380Y-132176666D01*
G04 #@! TO.C,D412*
X245908040Y-126460476D02*
X244908040Y-126460476D01*
X244908040Y-126222380D01*
X244955660Y-126079523D01*
X245050898Y-125984285D01*
X245146136Y-125936666D01*
X245336612Y-125889047D01*
X245479469Y-125889047D01*
X245669945Y-125936666D01*
X245765183Y-125984285D01*
X245860421Y-126079523D01*
X245908040Y-126222380D01*
X245908040Y-126460476D01*
X245241374Y-125031904D02*
X245908040Y-125031904D01*
X244860421Y-125270000D02*
X245574707Y-125508095D01*
X245574707Y-124889047D01*
X245908040Y-123984285D02*
X245908040Y-124555714D01*
X245908040Y-124270000D02*
X244908040Y-124270000D01*
X245050898Y-124365238D01*
X245146136Y-124460476D01*
X245193755Y-124555714D01*
X245003279Y-123603333D02*
X244955660Y-123555714D01*
X244908040Y-123460476D01*
X244908040Y-123222380D01*
X244955660Y-123127142D01*
X245003279Y-123079523D01*
X245098517Y-123031904D01*
X245193755Y-123031904D01*
X245336612Y-123079523D01*
X245908040Y-123650952D01*
X245908040Y-123031904D01*
X243366666Y-128028095D02*
X243366666Y-127551904D01*
X243652380Y-128123333D02*
X242652380Y-127790000D01*
X243652380Y-127456666D01*
G04 #@! TO.C,R1*
X206207380Y-68029166D02*
X205731190Y-68362500D01*
X206207380Y-68600595D02*
X205207380Y-68600595D01*
X205207380Y-68219642D01*
X205255000Y-68124404D01*
X205302619Y-68076785D01*
X205397857Y-68029166D01*
X205540714Y-68029166D01*
X205635952Y-68076785D01*
X205683571Y-68124404D01*
X205731190Y-68219642D01*
X205731190Y-68600595D01*
X206207380Y-67076785D02*
X206207380Y-67648214D01*
X206207380Y-67362500D02*
X205207380Y-67362500D01*
X205350238Y-67457738D01*
X205445476Y-67552976D01*
X205493095Y-67648214D01*
G04 #@! TO.C,R2*
X185307380Y-107579166D02*
X184831190Y-107912500D01*
X185307380Y-108150595D02*
X184307380Y-108150595D01*
X184307380Y-107769642D01*
X184355000Y-107674404D01*
X184402619Y-107626785D01*
X184497857Y-107579166D01*
X184640714Y-107579166D01*
X184735952Y-107626785D01*
X184783571Y-107674404D01*
X184831190Y-107769642D01*
X184831190Y-108150595D01*
X184402619Y-107198214D02*
X184355000Y-107150595D01*
X184307380Y-107055357D01*
X184307380Y-106817261D01*
X184355000Y-106722023D01*
X184402619Y-106674404D01*
X184497857Y-106626785D01*
X184593095Y-106626785D01*
X184735952Y-106674404D01*
X185307380Y-107245833D01*
X185307380Y-106626785D01*
G04 #@! TO.C,R3*
X224732380Y-83354166D02*
X224256190Y-83687500D01*
X224732380Y-83925595D02*
X223732380Y-83925595D01*
X223732380Y-83544642D01*
X223780000Y-83449404D01*
X223827619Y-83401785D01*
X223922857Y-83354166D01*
X224065714Y-83354166D01*
X224160952Y-83401785D01*
X224208571Y-83449404D01*
X224256190Y-83544642D01*
X224256190Y-83925595D01*
X223732380Y-83020833D02*
X223732380Y-82401785D01*
X224113333Y-82735119D01*
X224113333Y-82592261D01*
X224160952Y-82497023D01*
X224208571Y-82449404D01*
X224303809Y-82401785D01*
X224541904Y-82401785D01*
X224637142Y-82449404D01*
X224684761Y-82497023D01*
X224732380Y-82592261D01*
X224732380Y-82877976D01*
X224684761Y-82973214D01*
X224637142Y-83020833D01*
G04 #@! TO.C,R4*
X221882380Y-83354166D02*
X221406190Y-83687500D01*
X221882380Y-83925595D02*
X220882380Y-83925595D01*
X220882380Y-83544642D01*
X220930000Y-83449404D01*
X220977619Y-83401785D01*
X221072857Y-83354166D01*
X221215714Y-83354166D01*
X221310952Y-83401785D01*
X221358571Y-83449404D01*
X221406190Y-83544642D01*
X221406190Y-83925595D01*
X221215714Y-82497023D02*
X221882380Y-82497023D01*
X220834761Y-82735119D02*
X221549047Y-82973214D01*
X221549047Y-82354166D01*
G04 #@! TO.C,H1*
X90438095Y-118552380D02*
X90438095Y-117552380D01*
X90438095Y-118028571D02*
X91009523Y-118028571D01*
X91009523Y-118552380D02*
X91009523Y-117552380D01*
X92009523Y-118552380D02*
X91438095Y-118552380D01*
X91723809Y-118552380D02*
X91723809Y-117552380D01*
X91628571Y-117695238D01*
X91533333Y-117790476D01*
X91438095Y-117838095D01*
G04 #@! TO.C,H2*
X52438095Y-99552380D02*
X52438095Y-98552380D01*
X52438095Y-99028571D02*
X53009523Y-99028571D01*
X53009523Y-99552380D02*
X53009523Y-98552380D01*
X53438095Y-98647619D02*
X53485714Y-98600000D01*
X53580952Y-98552380D01*
X53819047Y-98552380D01*
X53914285Y-98600000D01*
X53961904Y-98647619D01*
X54009523Y-98742857D01*
X54009523Y-98838095D01*
X53961904Y-98980952D01*
X53390476Y-99552380D01*
X54009523Y-99552380D01*
G04 #@! TO.C,H3*
X90438095Y-80552380D02*
X90438095Y-79552380D01*
X90438095Y-80028571D02*
X91009523Y-80028571D01*
X91009523Y-80552380D02*
X91009523Y-79552380D01*
X91390476Y-79552380D02*
X92009523Y-79552380D01*
X91676190Y-79933333D01*
X91819047Y-79933333D01*
X91914285Y-79980952D01*
X91961904Y-80028571D01*
X92009523Y-80123809D01*
X92009523Y-80361904D01*
X91961904Y-80457142D01*
X91914285Y-80504761D01*
X91819047Y-80552380D01*
X91533333Y-80552380D01*
X91438095Y-80504761D01*
X91390476Y-80457142D01*
G04 #@! TO.C,H4*
X242438095Y-99552380D02*
X242438095Y-98552380D01*
X242438095Y-99028571D02*
X243009523Y-99028571D01*
X243009523Y-99552380D02*
X243009523Y-98552380D01*
X243914285Y-98885714D02*
X243914285Y-99552380D01*
X243676190Y-98504761D02*
X243438095Y-99219047D01*
X244057142Y-99219047D01*
G04 #@! TO.C,H5*
X204438095Y-80552380D02*
X204438095Y-79552380D01*
X204438095Y-80028571D02*
X205009523Y-80028571D01*
X205009523Y-80552380D02*
X205009523Y-79552380D01*
X205961904Y-79552380D02*
X205485714Y-79552380D01*
X205438095Y-80028571D01*
X205485714Y-79980952D01*
X205580952Y-79933333D01*
X205819047Y-79933333D01*
X205914285Y-79980952D01*
X205961904Y-80028571D01*
X206009523Y-80123809D01*
X206009523Y-80361904D01*
X205961904Y-80457142D01*
X205914285Y-80504761D01*
X205819047Y-80552380D01*
X205580952Y-80552380D01*
X205485714Y-80504761D01*
X205438095Y-80457142D01*
G04 #@! TO.C,H6*
X204438095Y-118552380D02*
X204438095Y-117552380D01*
X204438095Y-118028571D02*
X205009523Y-118028571D01*
X205009523Y-118552380D02*
X205009523Y-117552380D01*
X205914285Y-117552380D02*
X205723809Y-117552380D01*
X205628571Y-117600000D01*
X205580952Y-117647619D01*
X205485714Y-117790476D01*
X205438095Y-117980952D01*
X205438095Y-118361904D01*
X205485714Y-118457142D01*
X205533333Y-118504761D01*
X205628571Y-118552380D01*
X205819047Y-118552380D01*
X205914285Y-118504761D01*
X205961904Y-118457142D01*
X206009523Y-118361904D01*
X206009523Y-118123809D01*
X205961904Y-118028571D01*
X205914285Y-117980952D01*
X205819047Y-117933333D01*
X205628571Y-117933333D01*
X205533333Y-117980952D01*
X205485714Y-118028571D01*
X205438095Y-118123809D01*
G04 #@! TO.C,D47*
X146830714Y-119796720D02*
X146830714Y-118796720D01*
X147068809Y-118796720D01*
X147211666Y-118844340D01*
X147306904Y-118939578D01*
X147354523Y-119034816D01*
X147402142Y-119225292D01*
X147402142Y-119368149D01*
X147354523Y-119558625D01*
X147306904Y-119653863D01*
X147211666Y-119749101D01*
X147068809Y-119796720D01*
X146830714Y-119796720D01*
X148259285Y-119130054D02*
X148259285Y-119796720D01*
X148021190Y-118749101D02*
X147783095Y-119463387D01*
X148402142Y-119463387D01*
X148687857Y-118796720D02*
X149354523Y-118796720D01*
X148925952Y-119796720D01*
X150826904Y-121766666D02*
X151303095Y-121766666D01*
X150731666Y-122052380D02*
X151065000Y-121052380D01*
X151398333Y-122052380D01*
G04 #@! TD*
M02*
