G04 #@! TF.GenerationSoftware,KiCad,Pcbnew,5.0.1*
G04 #@! TF.CreationDate,2018-11-18T19:06:31-02:00*
G04 #@! TF.ProjectId,ortho40,6F7274686F34302E6B696361645F7063,rev?*
G04 #@! TF.SameCoordinates,Original*
G04 #@! TF.FileFunction,Other,ECO2*
%FSLAX46Y46*%
G04 Gerber Fmt 4.6, Leading zero omitted, Abs format (unit mm)*
G04 Created by KiCad (PCBNEW 5.0.1) date Sun 18 Nov 2018 07:06:31 PM -02*
%MOMM*%
%LPD*%
G01*
G04 APERTURE LIST*
%ADD10C,0.152400*%
G04 APERTURE END LIST*
D10*
G04 #@! TO.C,K47*
X150715000Y-124115000D02*
X164685000Y-124115000D01*
X164685000Y-124115000D02*
X164685000Y-138085000D01*
X164685000Y-138085000D02*
X150715000Y-138085000D01*
X150715000Y-138085000D02*
X150715000Y-124115000D01*
G04 #@! TO.C,K310*
X207715000Y-105115000D02*
X221685000Y-105115000D01*
X221685000Y-105115000D02*
X221685000Y-119085000D01*
X221685000Y-119085000D02*
X207715000Y-119085000D01*
X207715000Y-119085000D02*
X207715000Y-105115000D01*
G04 #@! TO.C,K29*
X188715000Y-100085000D02*
X188715000Y-86115000D01*
X202685000Y-100085000D02*
X188715000Y-100085000D01*
X202685000Y-86115000D02*
X202685000Y-100085000D01*
X188715000Y-86115000D02*
X202685000Y-86115000D01*
G04 #@! TO.C,K210*
X207715000Y-100085000D02*
X207715000Y-86115000D01*
X221685000Y-100085000D02*
X207715000Y-100085000D01*
X221685000Y-86115000D02*
X221685000Y-100085000D01*
X207715000Y-86115000D02*
X221685000Y-86115000D01*
G04 #@! TO.C,K112*
X245715000Y-81085000D02*
X245715000Y-67115000D01*
X259685000Y-81085000D02*
X245715000Y-81085000D01*
X259685000Y-67115000D02*
X259685000Y-81085000D01*
X245715000Y-67115000D02*
X259685000Y-67115000D01*
G04 #@! TO.C,K26*
X131715000Y-86115000D02*
X145685000Y-86115000D01*
X145685000Y-86115000D02*
X145685000Y-100085000D01*
X145685000Y-100085000D02*
X131715000Y-100085000D01*
X131715000Y-100085000D02*
X131715000Y-86115000D01*
G04 #@! TO.C,K27*
X150715000Y-86115000D02*
X164685000Y-86115000D01*
X164685000Y-86115000D02*
X164685000Y-100085000D01*
X164685000Y-100085000D02*
X150715000Y-100085000D01*
X150715000Y-100085000D02*
X150715000Y-86115000D01*
G04 #@! TO.C,K13*
X74715000Y-67115000D02*
X88685000Y-67115000D01*
X88685000Y-67115000D02*
X88685000Y-81085000D01*
X88685000Y-81085000D02*
X74715000Y-81085000D01*
X74715000Y-81085000D02*
X74715000Y-67115000D01*
G04 #@! TO.C,K39*
X188715000Y-105115000D02*
X202685000Y-105115000D01*
X202685000Y-105115000D02*
X202685000Y-119085000D01*
X202685000Y-119085000D02*
X188715000Y-119085000D01*
X188715000Y-119085000D02*
X188715000Y-105115000D01*
G04 #@! TO.C,K22*
X55715000Y-86115000D02*
X69685000Y-86115000D01*
X69685000Y-86115000D02*
X69685000Y-100085000D01*
X69685000Y-100085000D02*
X55715000Y-100085000D01*
X55715000Y-100085000D02*
X55715000Y-86115000D01*
G04 #@! TO.C,K11*
X36715000Y-67115000D02*
X50685000Y-67115000D01*
X50685000Y-67115000D02*
X50685000Y-81085000D01*
X50685000Y-81085000D02*
X36715000Y-81085000D01*
X36715000Y-81085000D02*
X36715000Y-67115000D01*
G04 #@! TO.C,K12*
X55715000Y-67115000D02*
X69685000Y-67115000D01*
X69685000Y-67115000D02*
X69685000Y-81085000D01*
X69685000Y-81085000D02*
X55715000Y-81085000D01*
X55715000Y-81085000D02*
X55715000Y-67115000D01*
G04 #@! TO.C,K14*
X93715000Y-67115000D02*
X107685000Y-67115000D01*
X107685000Y-67115000D02*
X107685000Y-81085000D01*
X107685000Y-81085000D02*
X93715000Y-81085000D01*
X93715000Y-81085000D02*
X93715000Y-67115000D01*
G04 #@! TO.C,K15*
X112715000Y-67115000D02*
X126685000Y-67115000D01*
X126685000Y-67115000D02*
X126685000Y-81085000D01*
X126685000Y-81085000D02*
X112715000Y-81085000D01*
X112715000Y-81085000D02*
X112715000Y-67115000D01*
G04 #@! TO.C,K16*
X131715000Y-67115000D02*
X145685000Y-67115000D01*
X145685000Y-67115000D02*
X145685000Y-81085000D01*
X145685000Y-81085000D02*
X131715000Y-81085000D01*
X131715000Y-81085000D02*
X131715000Y-67115000D01*
G04 #@! TO.C,K17*
X150715000Y-81085000D02*
X150715000Y-67115000D01*
X164685000Y-81085000D02*
X150715000Y-81085000D01*
X164685000Y-67115000D02*
X164685000Y-81085000D01*
X150715000Y-67115000D02*
X164685000Y-67115000D01*
G04 #@! TO.C,K18*
X169715000Y-81085000D02*
X169715000Y-67115000D01*
X183685000Y-81085000D02*
X169715000Y-81085000D01*
X183685000Y-67115000D02*
X183685000Y-81085000D01*
X169715000Y-67115000D02*
X183685000Y-67115000D01*
G04 #@! TO.C,K19*
X188715000Y-81085000D02*
X188715000Y-67115000D01*
X202685000Y-81085000D02*
X188715000Y-81085000D01*
X202685000Y-67115000D02*
X202685000Y-81085000D01*
X188715000Y-67115000D02*
X202685000Y-67115000D01*
G04 #@! TO.C,K21*
X36715000Y-86115000D02*
X50685000Y-86115000D01*
X50685000Y-86115000D02*
X50685000Y-100085000D01*
X50685000Y-100085000D02*
X36715000Y-100085000D01*
X36715000Y-100085000D02*
X36715000Y-86115000D01*
G04 #@! TO.C,K23*
X74715000Y-100085000D02*
X74715000Y-86115000D01*
X88685000Y-100085000D02*
X74715000Y-100085000D01*
X88685000Y-86115000D02*
X88685000Y-100085000D01*
X74715000Y-86115000D02*
X88685000Y-86115000D01*
G04 #@! TO.C,K24*
X93715000Y-86115000D02*
X107685000Y-86115000D01*
X107685000Y-86115000D02*
X107685000Y-100085000D01*
X107685000Y-100085000D02*
X93715000Y-100085000D01*
X93715000Y-100085000D02*
X93715000Y-86115000D01*
G04 #@! TO.C,K25*
X112715000Y-100085000D02*
X112715000Y-86115000D01*
X126685000Y-100085000D02*
X112715000Y-100085000D01*
X126685000Y-86115000D02*
X126685000Y-100085000D01*
X112715000Y-86115000D02*
X126685000Y-86115000D01*
G04 #@! TO.C,K28*
X169715000Y-100085000D02*
X169715000Y-86115000D01*
X183685000Y-100085000D02*
X169715000Y-100085000D01*
X183685000Y-86115000D02*
X183685000Y-100085000D01*
X169715000Y-86115000D02*
X183685000Y-86115000D01*
G04 #@! TO.C,K31*
X36715000Y-119085000D02*
X36715000Y-105115000D01*
X50685000Y-119085000D02*
X36715000Y-119085000D01*
X50685000Y-105115000D02*
X50685000Y-119085000D01*
X36715000Y-105115000D02*
X50685000Y-105115000D01*
G04 #@! TO.C,K32*
X55715000Y-119085000D02*
X55715000Y-105115000D01*
X69685000Y-119085000D02*
X55715000Y-119085000D01*
X69685000Y-105115000D02*
X69685000Y-119085000D01*
X55715000Y-105115000D02*
X69685000Y-105115000D01*
G04 #@! TO.C,K33*
X74715000Y-119085000D02*
X74715000Y-105115000D01*
X88685000Y-119085000D02*
X74715000Y-119085000D01*
X88685000Y-105115000D02*
X88685000Y-119085000D01*
X74715000Y-105115000D02*
X88685000Y-105115000D01*
G04 #@! TO.C,K34*
X93715000Y-105115000D02*
X107685000Y-105115000D01*
X107685000Y-105115000D02*
X107685000Y-119085000D01*
X107685000Y-119085000D02*
X93715000Y-119085000D01*
X93715000Y-119085000D02*
X93715000Y-105115000D01*
G04 #@! TO.C,K35*
X112715000Y-119085000D02*
X112715000Y-105115000D01*
X126685000Y-119085000D02*
X112715000Y-119085000D01*
X126685000Y-105115000D02*
X126685000Y-119085000D01*
X112715000Y-105115000D02*
X126685000Y-105115000D01*
G04 #@! TO.C,K36*
X131715000Y-119085000D02*
X131715000Y-105115000D01*
X145685000Y-119085000D02*
X131715000Y-119085000D01*
X145685000Y-105115000D02*
X145685000Y-119085000D01*
X131715000Y-105115000D02*
X145685000Y-105115000D01*
G04 #@! TO.C,K37*
X150715000Y-105115000D02*
X164685000Y-105115000D01*
X164685000Y-105115000D02*
X164685000Y-119085000D01*
X164685000Y-119085000D02*
X150715000Y-119085000D01*
X150715000Y-119085000D02*
X150715000Y-105115000D01*
G04 #@! TO.C,K38*
X169715000Y-105115000D02*
X183685000Y-105115000D01*
X183685000Y-105115000D02*
X183685000Y-119085000D01*
X183685000Y-119085000D02*
X169715000Y-119085000D01*
X169715000Y-119085000D02*
X169715000Y-105115000D01*
G04 #@! TO.C,K41*
X36715000Y-138085000D02*
X36715000Y-124115000D01*
X50685000Y-138085000D02*
X36715000Y-138085000D01*
X50685000Y-124115000D02*
X50685000Y-138085000D01*
X36715000Y-124115000D02*
X50685000Y-124115000D01*
G04 #@! TO.C,K42*
X55715000Y-124115000D02*
X69685000Y-124115000D01*
X69685000Y-124115000D02*
X69685000Y-138085000D01*
X69685000Y-138085000D02*
X55715000Y-138085000D01*
X55715000Y-138085000D02*
X55715000Y-124115000D01*
G04 #@! TO.C,K43*
X74715000Y-124115000D02*
X88685000Y-124115000D01*
X88685000Y-124115000D02*
X88685000Y-138085000D01*
X88685000Y-138085000D02*
X74715000Y-138085000D01*
X74715000Y-138085000D02*
X74715000Y-124115000D01*
G04 #@! TO.C,K44*
X93715000Y-124115000D02*
X107685000Y-124115000D01*
X107685000Y-124115000D02*
X107685000Y-138085000D01*
X107685000Y-138085000D02*
X93715000Y-138085000D01*
X93715000Y-138085000D02*
X93715000Y-124115000D01*
G04 #@! TO.C,K45*
X112715000Y-138085000D02*
X112715000Y-124115000D01*
X126685000Y-138085000D02*
X112715000Y-138085000D01*
X126685000Y-124115000D02*
X126685000Y-138085000D01*
X112715000Y-124115000D02*
X126685000Y-124115000D01*
G04 #@! TO.C,K48*
X169715000Y-138085000D02*
X169715000Y-124115000D01*
X183685000Y-138085000D02*
X169715000Y-138085000D01*
X183685000Y-124115000D02*
X183685000Y-138085000D01*
X169715000Y-124115000D02*
X183685000Y-124115000D01*
G04 #@! TO.C,K49*
X188715000Y-138085000D02*
X188715000Y-124115000D01*
X202685000Y-138085000D02*
X188715000Y-138085000D01*
X202685000Y-124115000D02*
X202685000Y-138085000D01*
X188715000Y-124115000D02*
X202685000Y-124115000D01*
G04 #@! TO.C,K110*
X207715000Y-67115000D02*
X221685000Y-67115000D01*
X221685000Y-67115000D02*
X221685000Y-81085000D01*
X221685000Y-81085000D02*
X207715000Y-81085000D01*
X207715000Y-81085000D02*
X207715000Y-67115000D01*
G04 #@! TO.C,K111*
X226715000Y-67115000D02*
X240685000Y-67115000D01*
X240685000Y-67115000D02*
X240685000Y-81085000D01*
X240685000Y-81085000D02*
X226715000Y-81085000D01*
X226715000Y-81085000D02*
X226715000Y-67115000D01*
G04 #@! TO.C,K211*
X226715000Y-86115000D02*
X240685000Y-86115000D01*
X240685000Y-86115000D02*
X240685000Y-100085000D01*
X240685000Y-100085000D02*
X226715000Y-100085000D01*
X226715000Y-100085000D02*
X226715000Y-86115000D01*
G04 #@! TO.C,K212*
X245715000Y-100085000D02*
X245715000Y-86115000D01*
X259685000Y-100085000D02*
X245715000Y-100085000D01*
X259685000Y-86115000D02*
X259685000Y-100085000D01*
X245715000Y-86115000D02*
X259685000Y-86115000D01*
G04 #@! TO.C,K311*
X226715000Y-105115000D02*
X240685000Y-105115000D01*
X240685000Y-105115000D02*
X240685000Y-119085000D01*
X240685000Y-119085000D02*
X226715000Y-119085000D01*
X226715000Y-119085000D02*
X226715000Y-105115000D01*
G04 #@! TO.C,K312*
X245715000Y-119085000D02*
X245715000Y-105115000D01*
X259685000Y-119085000D02*
X245715000Y-119085000D01*
X259685000Y-105115000D02*
X259685000Y-119085000D01*
X245715000Y-105115000D02*
X259685000Y-105115000D01*
G04 #@! TO.C,K410*
X207715000Y-138085000D02*
X207715000Y-124115000D01*
X221685000Y-138085000D02*
X207715000Y-138085000D01*
X221685000Y-124115000D02*
X221685000Y-138085000D01*
X207715000Y-124115000D02*
X221685000Y-124115000D01*
G04 #@! TO.C,K411*
X226715000Y-138085000D02*
X226715000Y-124115000D01*
X240685000Y-138085000D02*
X226715000Y-138085000D01*
X240685000Y-124115000D02*
X240685000Y-138085000D01*
X226715000Y-124115000D02*
X240685000Y-124115000D01*
G04 #@! TO.C,K412*
X245715000Y-138085000D02*
X245715000Y-124115000D01*
X259685000Y-138085000D02*
X245715000Y-138085000D01*
X259685000Y-124115000D02*
X259685000Y-138085000D01*
X245715000Y-124115000D02*
X259685000Y-124115000D01*
G04 #@! TO.C,K46*
X131715000Y-124115000D02*
X145685000Y-124115000D01*
X145685000Y-124115000D02*
X145685000Y-138085000D01*
X145685000Y-138085000D02*
X131715000Y-138085000D01*
X131715000Y-138085000D02*
X131715000Y-124115000D01*
G04 #@! TO.C,K2U1*
X122215000Y-126223200D02*
X122215000Y-124115000D01*
X120589400Y-126223200D02*
X122215000Y-126223200D01*
X120589400Y-125410400D02*
X120589400Y-126223200D01*
X113934600Y-125410400D02*
X120589400Y-125410400D01*
X113934600Y-128814000D02*
X113934600Y-125410400D01*
X113071000Y-128814000D02*
X113934600Y-128814000D01*
X113071000Y-131608000D02*
X113071000Y-128814000D01*
X113934600Y-131608000D02*
X113071000Y-131608000D01*
X113934600Y-137704000D02*
X113934600Y-131608000D01*
X114976000Y-137704000D02*
X113934600Y-137704000D01*
X114976000Y-138872400D02*
X114976000Y-137704000D01*
X119548000Y-138872400D02*
X114976000Y-138872400D01*
X119548000Y-137704000D02*
X119548000Y-138872400D01*
X120589400Y-137704000D02*
X119548000Y-137704000D01*
X120589400Y-136916600D02*
X120589400Y-137704000D01*
X122215000Y-136916600D02*
X120589400Y-136916600D01*
X122215000Y-138085000D02*
X122215000Y-136916600D01*
X136185000Y-138085000D02*
X122215000Y-138085000D01*
X136185000Y-136916600D02*
X136185000Y-138085000D01*
X137810600Y-136916600D02*
X136185000Y-136916600D01*
X137810600Y-137704000D02*
X137810600Y-136916600D01*
X138852000Y-137704000D02*
X137810600Y-137704000D01*
X138852000Y-138872400D02*
X138852000Y-137704000D01*
X143424000Y-138872400D02*
X138852000Y-138872400D01*
X143424000Y-137704000D02*
X143424000Y-138872400D01*
X144465400Y-137704000D02*
X143424000Y-137704000D01*
X144465400Y-131608000D02*
X144465400Y-137704000D01*
X145329000Y-131608000D02*
X144465400Y-131608000D01*
X145329000Y-128814000D02*
X145329000Y-131608000D01*
X144465400Y-128814000D02*
X145329000Y-128814000D01*
X144465400Y-125410400D02*
X144465400Y-128814000D01*
X137810600Y-125410400D02*
X144465400Y-125410400D01*
X137810600Y-126223200D02*
X137810600Y-125410400D01*
X136185000Y-126223200D02*
X137810600Y-126223200D01*
X136185000Y-124115000D02*
X136185000Y-126223200D01*
X122215000Y-124115000D02*
X136185000Y-124115000D01*
G04 #@! TO.C,K2U2*
X160215000Y-124115000D02*
X174185000Y-124115000D01*
X174185000Y-124115000D02*
X174185000Y-126223200D01*
X174185000Y-126223200D02*
X175810600Y-126223200D01*
X175810600Y-126223200D02*
X175810600Y-125410400D01*
X175810600Y-125410400D02*
X182465400Y-125410400D01*
X182465400Y-125410400D02*
X182465400Y-128814000D01*
X182465400Y-128814000D02*
X183329000Y-128814000D01*
X183329000Y-128814000D02*
X183329000Y-131608000D01*
X183329000Y-131608000D02*
X182465400Y-131608000D01*
X182465400Y-131608000D02*
X182465400Y-137704000D01*
X182465400Y-137704000D02*
X181424000Y-137704000D01*
X181424000Y-137704000D02*
X181424000Y-138872400D01*
X181424000Y-138872400D02*
X176852000Y-138872400D01*
X176852000Y-138872400D02*
X176852000Y-137704000D01*
X176852000Y-137704000D02*
X175810600Y-137704000D01*
X175810600Y-137704000D02*
X175810600Y-136916600D01*
X175810600Y-136916600D02*
X174185000Y-136916600D01*
X174185000Y-136916600D02*
X174185000Y-138085000D01*
X174185000Y-138085000D02*
X160215000Y-138085000D01*
X160215000Y-138085000D02*
X160215000Y-136916600D01*
X160215000Y-136916600D02*
X158589400Y-136916600D01*
X158589400Y-136916600D02*
X158589400Y-137704000D01*
X158589400Y-137704000D02*
X157548000Y-137704000D01*
X157548000Y-137704000D02*
X157548000Y-138872400D01*
X157548000Y-138872400D02*
X152976000Y-138872400D01*
X152976000Y-138872400D02*
X152976000Y-137704000D01*
X152976000Y-137704000D02*
X151934600Y-137704000D01*
X151934600Y-137704000D02*
X151934600Y-131608000D01*
X151934600Y-131608000D02*
X151071000Y-131608000D01*
X151071000Y-131608000D02*
X151071000Y-128814000D01*
X151071000Y-128814000D02*
X151934600Y-128814000D01*
X151934600Y-128814000D02*
X151934600Y-125410400D01*
X151934600Y-125410400D02*
X158589400Y-125410400D01*
X158589400Y-125410400D02*
X158589400Y-126223200D01*
X158589400Y-126223200D02*
X160215000Y-126223200D01*
X160215000Y-126223200D02*
X160215000Y-124115000D01*
G04 #@! TO.C,K2U3*
X141215000Y-124115000D02*
X155185000Y-124115000D01*
X155185000Y-124115000D02*
X155185000Y-126223200D01*
X155185000Y-126223200D02*
X156810600Y-126223200D01*
X156810600Y-126223200D02*
X156810600Y-125410400D01*
X156810600Y-125410400D02*
X163465400Y-125410400D01*
X163465400Y-125410400D02*
X163465400Y-128814000D01*
X163465400Y-128814000D02*
X164329000Y-128814000D01*
X164329000Y-128814000D02*
X164329000Y-131608000D01*
X164329000Y-131608000D02*
X163465400Y-131608000D01*
X163465400Y-131608000D02*
X163465400Y-137704000D01*
X163465400Y-137704000D02*
X162424000Y-137704000D01*
X162424000Y-137704000D02*
X162424000Y-138872400D01*
X162424000Y-138872400D02*
X157852000Y-138872400D01*
X157852000Y-138872400D02*
X157852000Y-137704000D01*
X157852000Y-137704000D02*
X156810600Y-137704000D01*
X156810600Y-137704000D02*
X156810600Y-136916600D01*
X156810600Y-136916600D02*
X155185000Y-136916600D01*
X155185000Y-136916600D02*
X155185000Y-138085000D01*
X155185000Y-138085000D02*
X141215000Y-138085000D01*
X141215000Y-138085000D02*
X141215000Y-136916600D01*
X141215000Y-136916600D02*
X139589400Y-136916600D01*
X139589400Y-136916600D02*
X139589400Y-137704000D01*
X139589400Y-137704000D02*
X138548000Y-137704000D01*
X138548000Y-137704000D02*
X138548000Y-138872400D01*
X138548000Y-138872400D02*
X133976000Y-138872400D01*
X133976000Y-138872400D02*
X133976000Y-137704000D01*
X133976000Y-137704000D02*
X132934600Y-137704000D01*
X132934600Y-137704000D02*
X132934600Y-131608000D01*
X132934600Y-131608000D02*
X132071000Y-131608000D01*
X132071000Y-131608000D02*
X132071000Y-128814000D01*
X132071000Y-128814000D02*
X132934600Y-128814000D01*
X132934600Y-128814000D02*
X132934600Y-125410400D01*
X132934600Y-125410400D02*
X139589400Y-125410400D01*
X139589400Y-125410400D02*
X139589400Y-126223200D01*
X139589400Y-126223200D02*
X141215000Y-126223200D01*
X141215000Y-126223200D02*
X141215000Y-124115000D01*
G04 #@! TD*
M02*
