M48
;DRILL file {KiCad 5.0.1} date Mon 21 Jan 2019 05:00:46 PM -02
;FORMAT={-:-/ absolute / metric / decimal}
FMAT,2
METRIC,TZ
T1C0.200
T2C0.203
T3C0.400
T4C0.500
T5C0.600
T6C0.700
T7C0.800
T8C0.991
T9C1.000
T10C1.016
T11C1.524
T12C2.500
T13C0.650
T14C1.702
T15C3.048
T16C3.988
%
G90
G05
M71
T1
X160.635Y-99.009
X160.635Y-100.009
X160.635Y-102.009
X160.635Y-103.009
X160.635Y-104.009
X161.525Y-98.509
X161.525Y-99.509
X161.525Y-100.509
X161.525Y-101.509
X161.525Y-102.509
X161.525Y-103.509
X164.713Y-95.321
X164.713Y-108.087
X165.213Y-94.43
X165.213Y-107.196
X165.713Y-95.321
X165.713Y-108.087
X166.213Y-94.43
X166.213Y-107.196
X166.713Y-108.087
X167.213Y-94.43
X167.213Y-107.196
X167.713Y-108.087
X168.213Y-94.43
X168.213Y-107.196
X168.713Y-108.087
X169.213Y-94.43
X169.213Y-107.196
X169.713Y-108.087
X170.213Y-94.43
X170.213Y-107.196
X173.4Y-98.509
X173.4Y-100.516
X173.4Y-101.509
X173.4Y-102.509
X173.4Y-103.509
X173.476Y-99.509
X174.291Y-99.009
X174.291Y-100.009
X174.291Y-101.009
X174.291Y-102.009
X174.291Y-103.009
X174.291Y-104.009
T2
X160.635Y-101.009
X165.979Y-92.652
X166.721Y-95.321
X167.463Y-85.118
X167.713Y-95.321
X168.713Y-95.321
X169.713Y-95.321
X200.416Y-101.852
X200.416Y-103.04
X210.213Y-101.852
X210.213Y-103.04
T3
X62.294Y-82.143
X67.194Y-123.343
X112.913Y-123.343
X121.075Y-82.143
X170.357Y-82.143
X186.354Y-105.177
X188.913Y-123.64
X221.197Y-73.352
X226.541Y-73.352
X234.038Y-85.343
X234.038Y-123.343
T4
X181.42Y-98.368
X188.11Y-107.196
X188.379Y-101.259
X190.322Y-102.978
X190.322Y-105.028
X222.088Y-78.402
X224.894Y-66.524
X226.244Y-78.399
T6
X73.65Y-71.703
X73.65Y-76.783
X207.101Y-71.628
X207.101Y-76.708
X92.65Y-90.703
X92.65Y-95.783
X54.702Y-71.703
X54.702Y-76.783
X129.463Y-119.203
X129.463Y-124.283
X111.65Y-90.703
X111.65Y-95.783
X131.838Y-119.203
X131.838Y-124.283
X244.65Y-128.703
X244.65Y-133.783
X92.65Y-109.728
X92.65Y-114.808
X188.051Y-71.703
X188.051Y-76.783
X136.398Y-83.743
X141.478Y-83.743
X168.057Y-119.203
X168.057Y-124.283
X149.65Y-90.703
X149.65Y-95.783
X168.65Y-71.703
X168.65Y-76.783
X183.923Y-83.743
X189.003Y-83.743
X188.051Y-90.678
X188.051Y-95.758
X242.275Y-71.703
X242.275Y-76.783
X92.65Y-71.703
X92.65Y-76.783
X149.65Y-71.703
X149.65Y-76.783
X206.65Y-90.703
X206.65Y-95.783
X250.423Y-82.555
X255.503Y-82.555
X130.65Y-71.703
X130.65Y-76.783
X225.65Y-90.703
X225.65Y-95.783
X111.65Y-109.703
X111.65Y-114.783
X111.65Y-71.703
X111.65Y-76.783
X41.149Y-84.884
X46.229Y-84.884
X165.682Y-117.422
X165.682Y-122.502
X244.65Y-90.703
X244.65Y-95.783
X130.65Y-109.703
X130.65Y-114.783
X54.651Y-90.703
X54.651Y-95.783
X206.65Y-128.703
X206.65Y-133.783
X41.423Y-120.602
X46.503Y-120.602
X149.951Y-110.297
X149.951Y-115.377
X41.149Y-82.503
X46.229Y-82.503
X54.651Y-109.703
X54.651Y-114.783
X73.65Y-109.703
X73.65Y-114.783
X41.423Y-122.93
X46.503Y-122.93
X212.597Y-122.983
X217.677Y-122.983
X168.65Y-110.297
X168.65Y-115.377
X225.65Y-128.703
X225.65Y-133.783
X187.65Y-109.703
X187.65Y-114.783
X206.65Y-109.703
X206.65Y-114.783
X54.651Y-128.703
X54.651Y-133.783
X225.65Y-109.703
X225.65Y-114.783
X73.752Y-129.075
X73.752Y-134.155
X73.65Y-90.703
X73.65Y-95.783
X244.65Y-109.703
X244.65Y-114.783
X92.802Y-128.778
X92.802Y-133.858
T7
X71.275Y-108.458
X71.275Y-116.078
X187.833Y-127.433
X187.833Y-135.053
X90.275Y-89.433
X90.275Y-97.053
X223.275Y-108.433
X223.275Y-116.053
X128.275Y-108.433
X128.275Y-116.053
X111.633Y-127.508
X111.633Y-135.128
X249.153Y-84.93
X256.773Y-84.93
X154.153Y-83.743
X161.773Y-83.743
X109.275Y-89.433
X109.275Y-97.053
X223.275Y-127.508
X223.275Y-135.128
X147.275Y-109.027
X147.275Y-116.647
X249.153Y-120.555
X256.773Y-120.555
X185.293Y-127.433
X185.293Y-135.053
X106.653Y-83.743
X114.273Y-83.743
X52.276Y-89.433
X52.276Y-97.053
X204.275Y-89.433
X204.275Y-97.053
X135.153Y-102.743
X142.773Y-102.743
X223.275Y-89.433
X223.275Y-97.053
X71.275Y-89.433
X71.275Y-97.053
X109.275Y-108.433
X109.275Y-116.053
X109.275Y-70.433
X109.275Y-78.053
X52.276Y-108.433
X52.276Y-116.053
X90.123Y-127.508
X90.123Y-135.128
X128.275Y-70.433
X128.275Y-78.053
X52.276Y-70.433
X52.276Y-78.053
X204.275Y-108.433
X204.275Y-116.053
X109.093Y-127.433
X109.093Y-135.053
X249.428Y-102.743
X257.048Y-102.743
X211.153Y-83.743
X218.773Y-83.743
X71.275Y-70.433
X71.275Y-78.053
X90.275Y-108.433
X90.275Y-116.053
X204.275Y-127.433
X204.275Y-135.053
X185.372Y-70.433
X185.372Y-78.053
X90.275Y-70.433
X90.275Y-78.053
X147.275Y-70.433
X147.275Y-78.053
X242.275Y-108.433
X242.275Y-116.053
X244.65Y-70.433
X244.65Y-78.053
X144.653Y-121.743
X152.273Y-121.743
X185.372Y-89.408
X185.372Y-97.028
X242.275Y-127.433
X242.275Y-135.053
X52.276Y-127.433
X52.276Y-135.053
X166.322Y-70.433
X166.322Y-78.053
X71.275Y-127.433
X71.275Y-135.053
X147.275Y-89.433
X147.275Y-97.053
X185.275Y-108.433
X185.275Y-116.053
X242.275Y-89.433
X242.275Y-97.053
X204.275Y-70.433
X204.275Y-78.053
X249.153Y-122.93
X256.773Y-122.93
T8
X64.233Y-98.323
X83.233Y-117.348
X216.233Y-117.323
X140.233Y-98.323
X178.233Y-136.323
X159.233Y-117.323
X64.233Y-79.323
X254.233Y-79.248
X140.208Y-136.323
X140.233Y-79.323
X254.233Y-136.323
X149.733Y-136.323
X197.358Y-79.323
X83.233Y-136.323
X121.233Y-79.323
X178.233Y-79.323
X64.233Y-136.323
X216.233Y-136.323
X216.233Y-98.323
X45.233Y-98.323
X64.233Y-117.348
X197.233Y-117.323
X102.233Y-79.323
X121.233Y-98.323
X130.683Y-136.323
X140.208Y-117.323
X197.233Y-98.323
X232.693Y-69.163
X121.158Y-136.323
X45.233Y-117.348
X102.233Y-98.323
X178.233Y-98.323
X159.233Y-79.323
X235.233Y-136.323
X45.233Y-136.323
X197.233Y-136.323
X102.233Y-117.323
X159.233Y-98.323
X178.233Y-117.323
X83.233Y-79.323
X121.233Y-117.323
X254.233Y-117.348
X159.233Y-136.323
X168.733Y-136.323
X45.233Y-79.323
X213.693Y-69.163
X102.233Y-136.323
X254.233Y-98.323
X83.233Y-98.323
X235.233Y-117.323
X235.233Y-98.323
T9
X39.243Y-103.378
T10
X61.693Y-136.323
X213.693Y-136.323
X213.693Y-98.323
X42.693Y-98.323
X61.693Y-117.348
X194.693Y-117.323
X99.693Y-79.323
X118.693Y-98.323
X128.143Y-136.323
X137.668Y-117.323
X194.693Y-98.323
X235.233Y-69.163
X118.618Y-136.323
X42.693Y-117.348
X99.693Y-98.323
X175.693Y-98.323
X156.693Y-79.323
X232.693Y-136.323
X42.693Y-136.323
X194.693Y-136.323
X99.693Y-117.323
X156.693Y-98.323
X175.693Y-117.323
X80.693Y-79.323
X118.693Y-117.323
X251.693Y-117.348
X156.693Y-136.323
X166.193Y-136.323
X42.693Y-79.323
X216.233Y-69.163
X99.693Y-136.323
X251.693Y-98.323
X80.693Y-98.323
X232.693Y-117.323
X232.693Y-98.323
X61.693Y-98.323
X80.693Y-117.348
X213.693Y-117.323
X137.693Y-98.323
X175.693Y-136.323
X156.693Y-117.323
X61.693Y-79.323
X251.693Y-79.248
X137.668Y-136.323
X137.693Y-79.323
X251.693Y-136.323
X147.193Y-136.323
X194.818Y-79.323
X80.693Y-136.323
X118.693Y-79.323
X175.693Y-79.323
T11
X145.923Y-126.163
X152.273Y-128.703
X193.423Y-88.163
X199.773Y-90.703
X231.423Y-107.163
X237.773Y-109.703
X117.423Y-126.163
X123.773Y-128.703
X117.423Y-88.163
X123.773Y-90.703
X250.423Y-69.088
X256.773Y-71.628
X231.423Y-88.163
X237.773Y-90.703
X212.423Y-107.163
X218.773Y-109.703
X98.423Y-69.163
X104.773Y-71.703
X136.423Y-69.163
X142.773Y-71.703
X193.423Y-107.163
X199.773Y-109.703
X41.423Y-126.163
X47.773Y-128.703
X136.423Y-126.163
X142.773Y-128.703
X174.423Y-126.163
X180.773Y-128.703
X41.423Y-88.163
X47.773Y-90.703
X126.923Y-126.163
X133.273Y-128.703
X136.423Y-88.163
X142.773Y-90.703
X250.423Y-88.163
X256.773Y-90.703
X193.548Y-69.163
X199.898Y-71.703
X155.423Y-126.163
X161.773Y-128.703
X174.423Y-107.163
X180.773Y-109.703
X41.423Y-69.163
X47.773Y-71.703
X79.423Y-69.163
X85.773Y-71.703
X60.423Y-88.163
X66.773Y-90.703
X164.923Y-126.163
X171.273Y-128.703
X98.423Y-107.163
X104.773Y-109.703
X155.423Y-88.163
X161.773Y-90.703
X155.423Y-107.163
X161.773Y-109.703
X136.398Y-107.163
X142.748Y-109.703
X60.423Y-126.163
X66.773Y-128.703
X98.423Y-88.163
X104.773Y-90.703
X250.423Y-107.188
X256.773Y-109.728
X212.423Y-88.163
X218.773Y-90.703
X212.423Y-126.163
X218.773Y-128.703
X60.423Y-69.163
X66.773Y-71.703
X117.423Y-69.163
X123.773Y-71.703
X41.423Y-107.188
X47.773Y-109.728
X193.423Y-126.163
X199.773Y-128.703
X79.423Y-126.163
X85.773Y-128.703
X79.423Y-107.188
X85.773Y-109.728
X231.423Y-126.163
X237.773Y-128.703
X60.423Y-107.188
X66.773Y-109.728
X174.423Y-88.163
X180.773Y-90.703
X79.423Y-88.163
X85.773Y-90.703
X98.423Y-126.163
X104.773Y-128.703
X230.153Y-76.783
X236.503Y-79.323
X117.423Y-107.163
X123.773Y-109.703
X155.423Y-69.163
X161.773Y-71.703
X174.423Y-69.163
X180.773Y-71.703
X211.153Y-76.783
X217.503Y-79.323
X250.423Y-126.163
X256.773Y-128.703
T12
X243.713Y-83.693
X205.463Y-83.743
X243.463Y-121.743
X243.713Y-102.743
X148.463Y-102.743
X53.463Y-121.793
X53.463Y-102.743
X91.463Y-83.743
X53.463Y-83.743
X91.463Y-121.743
X205.463Y-121.743
T13
X220.979Y-70.411
X226.759Y-70.411
T14
X133.858Y-112.243
X144.018Y-112.243
X57.883Y-131.243
X68.043Y-131.243
X95.883Y-93.243
X106.043Y-93.243
X247.883Y-112.268
X258.043Y-112.268
X209.883Y-93.243
X220.043Y-93.243
X209.883Y-131.243
X220.043Y-131.243
X57.883Y-74.243
X68.043Y-74.243
X114.883Y-74.243
X125.043Y-74.243
X38.883Y-112.268
X49.043Y-112.268
X190.883Y-131.243
X201.043Y-131.243
X76.883Y-131.243
X87.043Y-131.243
X76.883Y-112.268
X87.043Y-112.268
X228.883Y-131.243
X239.043Y-131.243
X57.883Y-112.268
X68.043Y-112.268
X171.883Y-93.243
X182.043Y-93.243
X76.883Y-93.243
X87.043Y-93.243
X95.883Y-131.243
X106.043Y-131.243
X228.883Y-74.243
X239.043Y-74.243
X114.883Y-112.243
X125.043Y-112.243
X152.883Y-74.243
X163.043Y-74.243
X171.883Y-74.243
X182.043Y-74.243
X209.883Y-74.243
X220.043Y-74.243
X247.883Y-131.243
X258.043Y-131.243
X143.383Y-131.243
X153.543Y-131.243
X190.883Y-93.243
X201.043Y-93.243
X228.883Y-112.243
X239.043Y-112.243
X114.883Y-131.243
X125.043Y-131.243
X114.883Y-93.243
X125.043Y-93.243
X247.883Y-74.168
X258.043Y-74.168
X228.883Y-93.243
X239.043Y-93.243
X209.883Y-112.243
X220.043Y-112.243
X95.883Y-74.243
X106.043Y-74.243
X133.883Y-74.243
X144.043Y-74.243
X190.883Y-112.243
X201.043Y-112.243
X38.883Y-131.243
X49.043Y-131.243
X133.883Y-131.243
X144.043Y-131.243
X171.883Y-131.243
X182.043Y-131.243
X38.883Y-93.243
X49.043Y-93.243
X124.383Y-131.243
X134.543Y-131.243
X133.883Y-93.243
X144.043Y-93.243
X247.883Y-93.243
X258.043Y-93.243
X191.008Y-74.243
X201.168Y-74.243
X152.883Y-131.243
X163.043Y-131.243
X171.883Y-112.243
X182.043Y-112.243
X38.883Y-74.243
X49.043Y-74.243
X76.883Y-74.243
X87.043Y-74.243
X57.883Y-93.243
X68.043Y-93.243
X162.383Y-131.243
X172.543Y-131.243
X95.883Y-112.243
X106.043Y-112.243
X152.883Y-93.243
X163.043Y-93.243
X152.883Y-112.243
X163.043Y-112.243
T15
X136.525Y-138.228
X160.401Y-138.228
X117.525Y-138.228
X141.401Y-138.228
X155.525Y-138.228
X179.401Y-138.228
T16
X62.963Y-112.268
X176.963Y-93.243
X81.963Y-93.243
X100.963Y-131.243
X233.963Y-74.243
X119.963Y-112.243
X157.963Y-74.243
X176.963Y-74.243
X214.963Y-74.243
X252.963Y-131.243
X136.525Y-122.988
X148.463Y-131.243
X160.401Y-122.988
X195.963Y-93.243
X233.963Y-112.243
X119.963Y-131.243
X119.963Y-93.243
X252.963Y-74.168
X233.963Y-93.243
X214.963Y-112.243
X100.963Y-74.243
X138.963Y-74.243
X195.963Y-112.243
X43.963Y-131.243
X138.963Y-131.243
X176.963Y-131.243
X43.963Y-93.243
X117.525Y-122.988
X129.463Y-131.243
X141.401Y-122.988
X138.963Y-93.243
X252.963Y-93.243
X196.088Y-74.243
X157.963Y-131.243
X176.963Y-112.243
X43.963Y-74.243
X81.963Y-74.243
X62.963Y-93.243
X155.525Y-122.988
X167.463Y-131.243
X179.401Y-122.988
X100.963Y-112.243
X157.963Y-93.243
X157.963Y-112.243
X138.938Y-112.243
X62.963Y-131.243
X100.963Y-93.243
X252.963Y-112.268
X214.963Y-93.243
X214.963Y-131.243
X62.963Y-74.243
X119.963Y-74.243
X43.963Y-112.268
X195.963Y-131.243
X81.963Y-131.243
X81.963Y-112.268
X233.963Y-131.243
T5
X219.569Y-67.062G85X219.569Y-66.462
G05
X219.569Y-71.512G85X219.569Y-70.412
G05
X228.169Y-67.062G85X228.169Y-66.462
G05
X228.169Y-71.512G85X228.169Y-70.412
G05
T0
M30
