  0
SECTION
  2
HEADER
  9
$ACADVER
  1
AC1014
  9
$HANDSEED
  5
FFFF
  9
$MEASUREMENT
 70
     1
  0
ENDSEC
  0
SECTION
  2
TABLES
  0
TABLE
  2
VPORT
  5
8
330
0
100
AcDbSymbolTable
 70
     4
  0
VPORT
  5
2E
330
8
100
AcDbSymbolTableRecord
100
AcDbViewportTableRecord
  2
*ACTIVE
 70
     0
 10
0.0
 20
0.0
 11
1.0
 21
1.0
 12
210.0
 22
148.5
 13
0.0
 23
0.0
 14
10.0
 24
10.0
 15
10.0
 25
10.0
 16
0.0
 26
0.0
 36
1.0
 17
0.0
 27
0.0
 37
0.0
 40
341.0
 41
1.24
 42
50.0
 43
0.0
 44
0.0
 50
0.0
 51
0.0
 71
     0
 72
   100
 73
     1
 74
     3
 75
     0
 76
     0
 77
     0
 78
     0
  0
ENDTAB
  0
TABLE
  2
LTYPE
  5
5
330
0
100
AcDbSymbolTable
 70
     1
  0
LTYPE
  5
14
330
5
100
AcDbSymbolTableRecord
100
AcDbLinetypeTableRecord
  2
BYBLOCK
 70
     0
  3

 72
    65
 73
     0
 40
0.0
  0
LTYPE
  5
15
330
5
100
AcDbSymbolTableRecord
100
AcDbLinetypeTableRecord
  2
BYLAYER
 70
     0
  3

 72
    65
 73
     0
 40
0.0
  0
LTYPE
  5
16
330
5
100
AcDbSymbolTableRecord
100
AcDbLinetypeTableRecord
  2
CONTINUOUS
 70
     0
  3
Solid line
 72
    65
 73
     0
 40
0.0
  0
ENDTAB
  0
TABLE
  2
LAYER
  5
2
100
AcDbSymbolTable
 70
1
  0
LAYER
  5
50
100
AcDbSymbolTableRecord
100
AcDbLayerTableRecord
  2
0
 70
0
  6
CONTINUOUS
  0
ENDTAB
  0
TABLE
  2
STYLE
  5
3
330
0
100
AcDbSymbolTable
 70
     1
  0
STYLE
  5
11
330
3
100
AcDbSymbolTableRecord
100
AcDbTextStyleTableRecord
  2
STANDARD
 70
     0
 40
0.0
 41
1.0
 50
0.0
 71
     0
 42
2.5
  3
txt
  4

  0
ENDTAB
  0
TABLE
  2
VIEW
  5
6
330
0
100
AcDbSymbolTable
 70
     0
  0
ENDTAB
  0
TABLE
  2
UCS
  5
7
330
0
100
AcDbSymbolTable
 70
     0
  0
ENDTAB
  0
TABLE
  2
APPID
  5
9
330
0
100
AcDbSymbolTable
 70
     2
  0
APPID
  5
12
330
9
100
AcDbSymbolTableRecord
100
AcDbRegAppTableRecord
  2
ACAD
 70
     0
  0
ENDTAB
  0
TABLE
  2
DIMSTYLE
  5
A
330
0
100
AcDbSymbolTable
 70
     1
  0
DIMSTYLE
105
27
330
A
100
AcDbSymbolTableRecord
100
AcDbDimStyleTableRecord
  2
ISO-25
 70
     0
  3

  4

  5

  6

  7

 40
1.0
 41
2.5
 42
0.625
 43
3.75
 44
1.25
 45
0.0
 46
0.0
 47
0.0
 48
0.0
140
2.5
141
2.5
142
0.0
143
0.03937007874016
144
1.0
145
0.0
146
1.0
147
0.625
 71
     0
 72
     0
 73
     0
 74
     0
 75
     0
 76
     0
 77
     1
 78
     8
170
     0
171
     3
172
     1
173
     0
174
     0
175
     0
176
     0
177
     0
178
     0
270
     2
271
     2
272
     2
273
     2
274
     3
340
11
275
     0
280
     0
281
     0
282
     0
283
     0
284
     8
285
     0
286
     0
287
     3
288
     0
  0
ENDTAB
  0
TABLE
  2
BLOCK_RECORD
  5
1
330
0
100
AcDbSymbolTable
 70
     1
  0
BLOCK_RECORD
  5
1F
330
1
100
AcDbSymbolTableRecord
100
AcDbBlockTableRecord
  2
*MODEL_SPACE
  0
BLOCK_RECORD
  5
1B
330
1
100
AcDbSymbolTableRecord
100
AcDbBlockTableRecord
  2
*PAPER_SPACE
  0
ENDTAB
  0
ENDSEC
  0
SECTION
  2
BLOCKS
  0
BLOCK
  5
20
330
1F
100
AcDbEntity
  8
0
100
AcDbBlockBegin
  2
*MODEL_SPACE
 70
     0
 10
0.0
 20
0.0
 30
0.0
  3
*MODEL_SPACE
  1

  0
ENDBLK
  5
21
330
1F
100
AcDbEntity
  8
0
100
AcDbBlockEnd
  0
BLOCK
  5
1C
330
1B
100
AcDbEntity
 67
     1
  8
0
100
AcDbBlockBegin
  2
*PAPER_SPACE
  1

  0
ENDBLK
  5
1D
330
1B
100
AcDbEntity
 67
     1
  8
0
100
AcDbBlockEnd
  0
ENDSEC
  0
SECTION
  2
ENTITIES
  0
SPLINE
  5
100
100
AcDbEntity
  8
0
 62
7
100
AcDbSpline
 70
8
 71
3
 72
8
 73
4
 74
0
 40
0
 40
0
 40
0
 40
0
 40
1
 40
1
 40
1
 40
1
 10
59.965347
 20
-19.168052
 30
0.0
 10
59.965347
 20
-20.150535
 30
0.0
 10
59.441198
 20
-21.058387
 30
0.0
 10
58.590343
 20
-21.549629
 30
0.0
  0
SPLINE
  5
101
100
AcDbEntity
  8
0
 62
7
100
AcDbSpline
 70
8
 71
3
 72
8
 73
4
 74
0
 40
0
 40
0
 40
0
 40
0
 40
1
 40
1
 40
1
 40
1
 10
58.590343
 20
-21.549629
 30
0.0
 10
57.739488
 20
-22.040870
 30
0.0
 10
56.691191
 20
-22.040870
 30
0.0
 10
55.840336
 20
-21.549629
 30
0.0
  0
SPLINE
  5
102
100
AcDbEntity
  8
0
 62
7
100
AcDbSpline
 70
8
 71
3
 72
8
 73
4
 74
0
 40
0
 40
0
 40
0
 40
0
 40
1
 40
1
 40
1
 40
1
 10
55.840336
 20
-21.549629
 30
0.0
 10
54.989481
 20
-21.058387
 30
0.0
 10
54.465332
 20
-20.150535
 30
0.0
 10
54.465332
 20
-19.168052
 30
0.0
  0
SPLINE
  5
103
100
AcDbEntity
  8
0
 62
7
100
AcDbSpline
 70
8
 71
3
 72
8
 73
4
 74
0
 40
0
 40
0
 40
0
 40
0
 40
1
 40
1
 40
1
 40
1
 10
54.465332
 20
-19.168052
 30
0.0
 10
54.465332
 20
-18.185569
 30
0.0
 10
54.989481
 20
-17.277718
 30
0.0
 10
55.840336
 20
-16.786476
 30
0.0
  0
SPLINE
  5
104
100
AcDbEntity
  8
0
 62
7
100
AcDbSpline
 70
8
 71
3
 72
8
 73
4
 74
0
 40
0
 40
0
 40
0
 40
0
 40
1
 40
1
 40
1
 40
1
 10
55.840336
 20
-16.786476
 30
0.0
 10
56.691191
 20
-16.295235
 30
0.0
 10
57.739488
 20
-16.295235
 30
0.0
 10
58.590343
 20
-16.786476
 30
0.0
  0
SPLINE
  5
105
100
AcDbEntity
  8
0
 62
7
100
AcDbSpline
 70
8
 71
3
 72
8
 73
4
 74
0
 40
0
 40
0
 40
0
 40
0
 40
1
 40
1
 40
1
 40
1
 10
58.590343
 20
-16.786476
 30
0.0
 10
59.441198
 20
-17.277718
 30
0.0
 10
59.965347
 20
-18.185569
 30
0.0
 10
59.965347
 20
-19.168052
 30
0.0
  0
LINE
  5
106
100
AcDbEntity
  8
0
 62
7
100
AcDbLine
 10
59.965347
 20
-19.168052
 30
0.0
 11
59.965347
 21
-19.168052
 31
0.0
  0
SPLINE
  5
107
100
AcDbEntity
  8
0
 62
7
100
AcDbSpline
 70
8
 71
3
 72
8
 73
4
 74
0
 40
0
 40
0
 40
0
 40
0
 40
1
 40
1
 40
1
 40
1
 10
21.865343
 20
-38.218155
 30
0.0
 10
21.865343
 20
-39.200638
 30
0.0
 10
21.341195
 20
-40.108490
 30
0.0
 10
20.490340
 20
-40.599731
 30
0.0
  0
SPLINE
  5
108
100
AcDbEntity
  8
0
 62
7
100
AcDbSpline
 70
8
 71
3
 72
8
 73
4
 74
0
 40
0
 40
0
 40
0
 40
0
 40
1
 40
1
 40
1
 40
1
 10
20.490340
 20
-40.599731
 30
0.0
 10
19.639484
 20
-41.090973
 30
0.0
 10
18.591188
 20
-41.090973
 30
0.0
 10
17.740332
 20
-40.599731
 30
0.0
  0
SPLINE
  5
109
100
AcDbEntity
  8
0
 62
7
100
AcDbSpline
 70
8
 71
3
 72
8
 73
4
 74
0
 40
0
 40
0
 40
0
 40
0
 40
1
 40
1
 40
1
 40
1
 10
17.740332
 20
-40.599731
 30
0.0
 10
16.889477
 20
-40.108490
 30
0.0
 10
16.365329
 20
-39.200638
 30
0.0
 10
16.365329
 20
-38.218155
 30
0.0
  0
SPLINE
  5
10a
100
AcDbEntity
  8
0
 62
7
100
AcDbSpline
 70
8
 71
3
 72
8
 73
4
 74
0
 40
0
 40
0
 40
0
 40
0
 40
1
 40
1
 40
1
 40
1
 10
16.365329
 20
-38.218155
 30
0.0
 10
16.365329
 20
-37.235672
 30
0.0
 10
16.889477
 20
-36.327820
 30
0.0
 10
17.740332
 20
-35.836579
 30
0.0
  0
SPLINE
  5
10b
100
AcDbEntity
  8
0
 62
7
100
AcDbSpline
 70
8
 71
3
 72
8
 73
4
 74
0
 40
0
 40
0
 40
0
 40
0
 40
1
 40
1
 40
1
 40
1
 10
17.740332
 20
-35.836579
 30
0.0
 10
18.591188
 20
-35.345337
 30
0.0
 10
19.639484
 20
-35.345337
 30
0.0
 10
20.490340
 20
-35.836579
 30
0.0
  0
SPLINE
  5
10c
100
AcDbEntity
  8
0
 62
7
100
AcDbSpline
 70
8
 71
3
 72
8
 73
4
 74
0
 40
0
 40
0
 40
0
 40
0
 40
1
 40
1
 40
1
 40
1
 10
20.490340
 20
-35.836579
 30
0.0
 10
21.341195
 20
-36.327820
 30
0.0
 10
21.865343
 20
-37.235672
 30
0.0
 10
21.865343
 20
-38.218155
 30
0.0
  0
LINE
  5
10d
100
AcDbEntity
  8
0
 62
7
100
AcDbLine
 10
21.865343
 20
-38.218155
 30
0.0
 11
21.865343
 21
-38.218155
 31
0.0
  0
SPLINE
  5
10e
100
AcDbEntity
  8
0
 62
7
100
AcDbSpline
 70
8
 71
3
 72
8
 73
4
 74
0
 40
0
 40
0
 40
0
 40
0
 40
1
 40
1
 40
1
 40
1
 10
59.965347
 20
-57.268152
 30
0.0
 10
59.965347
 20
-58.250635
 30
0.0
 10
59.441198
 20
-59.158486
 30
0.0
 10
58.590343
 20
-59.649728
 30
0.0
  0
SPLINE
  5
10f
100
AcDbEntity
  8
0
 62
7
100
AcDbSpline
 70
8
 71
3
 72
8
 73
4
 74
0
 40
0
 40
0
 40
0
 40
0
 40
1
 40
1
 40
1
 40
1
 10
58.590343
 20
-59.649728
 30
0.0
 10
57.739488
 20
-60.140969
 30
0.0
 10
56.691191
 20
-60.140969
 30
0.0
 10
55.840336
 20
-59.649728
 30
0.0
  0
SPLINE
  5
110
100
AcDbEntity
  8
0
 62
7
100
AcDbSpline
 70
8
 71
3
 72
8
 73
4
 74
0
 40
0
 40
0
 40
0
 40
0
 40
1
 40
1
 40
1
 40
1
 10
55.840336
 20
-59.649728
 30
0.0
 10
54.989481
 20
-59.158486
 30
0.0
 10
54.465332
 20
-58.250635
 30
0.0
 10
54.465332
 20
-57.268152
 30
0.0
  0
SPLINE
  5
111
100
AcDbEntity
  8
0
 62
7
100
AcDbSpline
 70
8
 71
3
 72
8
 73
4
 74
0
 40
0
 40
0
 40
0
 40
0
 40
1
 40
1
 40
1
 40
1
 10
54.465332
 20
-57.268152
 30
0.0
 10
54.465332
 20
-56.285669
 30
0.0
 10
54.989481
 20
-55.377817
 30
0.0
 10
55.840336
 20
-54.886575
 30
0.0
  0
SPLINE
  5
112
100
AcDbEntity
  8
0
 62
7
100
AcDbSpline
 70
8
 71
3
 72
8
 73
4
 74
0
 40
0
 40
0
 40
0
 40
0
 40
1
 40
1
 40
1
 40
1
 10
55.840336
 20
-54.886575
 30
0.0
 10
56.691191
 20
-54.395334
 30
0.0
 10
57.739488
 20
-54.395334
 30
0.0
 10
58.590343
 20
-54.886575
 30
0.0
  0
SPLINE
  5
113
100
AcDbEntity
  8
0
 62
7
100
AcDbSpline
 70
8
 71
3
 72
8
 73
4
 74
0
 40
0
 40
0
 40
0
 40
0
 40
1
 40
1
 40
1
 40
1
 10
58.590343
 20
-54.886575
 30
0.0
 10
59.441198
 20
-55.377817
 30
0.0
 10
59.965347
 20
-56.285669
 30
0.0
 10
59.965347
 20
-57.268152
 30
0.0
  0
LINE
  5
114
100
AcDbEntity
  8
0
 62
7
100
AcDbLine
 10
59.965347
 20
-57.268152
 30
0.0
 11
59.965347
 21
-57.268152
 31
0.0
  0
SPLINE
  5
115
100
AcDbEntity
  8
0
 62
7
100
AcDbSpline
 70
8
 71
3
 72
8
 73
4
 74
0
 40
0
 40
0
 40
0
 40
0
 40
1
 40
1
 40
1
 40
1
 10
174.265328
 20
-19.168052
 30
0.0
 10
174.265327
 20
-20.686839
 30
0.0
 10
173.034107
 20
-21.918059
 30
0.0
 10
171.515320
 20
-21.918059
 30
0.0
  0
SPLINE
  5
116
100
AcDbEntity
  8
0
 62
7
100
AcDbSpline
 70
8
 71
3
 72
8
 73
4
 74
0
 40
0
 40
0
 40
0
 40
0
 40
1
 40
1
 40
1
 40
1
 10
171.515320
 20
-21.918059
 30
0.0
 10
169.996533
 20
-21.918059
 30
0.0
 10
168.765313
 20
-20.686839
 30
0.0
 10
168.765313
 20
-19.168052
 30
0.0
  0
SPLINE
  5
117
100
AcDbEntity
  8
0
 62
7
100
AcDbSpline
 70
8
 71
3
 72
8
 73
4
 74
0
 40
0
 40
0
 40
0
 40
0
 40
1
 40
1
 40
1
 40
1
 10
168.765313
 20
-19.168052
 30
0.0
 10
168.765313
 20
-17.649265
 30
0.0
 10
169.996533
 20
-16.418045
 30
0.0
 10
171.515320
 20
-16.418045
 30
0.0
  0
SPLINE
  5
118
100
AcDbEntity
  8
0
 62
7
100
AcDbSpline
 70
8
 71
3
 72
8
 73
4
 74
0
 40
0
 40
0
 40
0
 40
0
 40
1
 40
1
 40
1
 40
1
 10
171.515320
 20
-16.418045
 30
0.0
 10
173.034107
 20
-16.418045
 30
0.0
 10
174.265327
 20
-17.649265
 30
0.0
 10
174.265328
 20
-19.168052
 30
0.0
  0
LINE
  5
119
100
AcDbEntity
  8
0
 62
7
100
AcDbLine
 10
174.265328
 20
-19.168052
 30
0.0
 11
174.265328
 21
-19.168052
 31
0.0
  0
SPLINE
  5
11a
100
AcDbEntity
  8
0
 62
7
100
AcDbSpline
 70
8
 71
3
 72
8
 73
4
 74
0
 40
0
 40
0
 40
0
 40
0
 40
1
 40
1
 40
1
 40
1
 10
212.365326
 20
-38.218155
 30
0.0
 10
212.365326
 20
-39.200638
 30
0.0
 10
211.841178
 20
-40.108490
 30
0.0
 10
210.990323
 20
-40.599731
 30
0.0
  0
SPLINE
  5
11b
100
AcDbEntity
  8
0
 62
7
100
AcDbSpline
 70
8
 71
3
 72
8
 73
4
 74
0
 40
0
 40
0
 40
0
 40
0
 40
1
 40
1
 40
1
 40
1
 10
210.990323
 20
-40.599731
 30
0.0
 10
210.139467
 20
-41.090973
 30
0.0
 10
209.091170
 20
-41.090973
 30
0.0
 10
208.240315
 20
-40.599731
 30
0.0
  0
SPLINE
  5
11c
100
AcDbEntity
  8
0
 62
7
100
AcDbSpline
 70
8
 71
3
 72
8
 73
4
 74
0
 40
0
 40
0
 40
0
 40
0
 40
1
 40
1
 40
1
 40
1
 10
208.240315
 20
-40.599731
 30
0.0
 10
207.389460
 20
-40.108490
 30
0.0
 10
206.865312
 20
-39.200638
 30
0.0
 10
206.865312
 20
-38.218155
 30
0.0
  0
SPLINE
  5
11d
100
AcDbEntity
  8
0
 62
7
100
AcDbSpline
 70
8
 71
3
 72
8
 73
4
 74
0
 40
0
 40
0
 40
0
 40
0
 40
1
 40
1
 40
1
 40
1
 10
206.865312
 20
-38.218155
 30
0.0
 10
206.865312
 20
-37.235672
 30
0.0
 10
207.389460
 20
-36.327820
 30
0.0
 10
208.240315
 20
-35.836579
 30
0.0
  0
SPLINE
  5
11e
100
AcDbEntity
  8
0
 62
7
100
AcDbSpline
 70
8
 71
3
 72
8
 73
4
 74
0
 40
0
 40
0
 40
0
 40
0
 40
1
 40
1
 40
1
 40
1
 10
208.240315
 20
-35.836579
 30
0.0
 10
209.091170
 20
-35.345337
 30
0.0
 10
210.139467
 20
-35.345337
 30
0.0
 10
210.990323
 20
-35.836579
 30
0.0
  0
SPLINE
  5
11f
100
AcDbEntity
  8
0
 62
7
100
AcDbSpline
 70
8
 71
3
 72
8
 73
4
 74
0
 40
0
 40
0
 40
0
 40
0
 40
1
 40
1
 40
1
 40
1
 10
210.990323
 20
-35.836579
 30
0.0
 10
211.841178
 20
-36.327820
 30
0.0
 10
212.365326
 20
-37.235672
 30
0.0
 10
212.365326
 20
-38.218155
 30
0.0
  0
LINE
  5
120
100
AcDbEntity
  8
0
 62
7
100
AcDbLine
 10
212.365326
 20
-38.218155
 30
0.0
 11
212.365326
 21
-38.218155
 31
0.0
  0
SPLINE
  5
121
100
AcDbEntity
  8
0
 62
7
100
AcDbSpline
 70
8
 71
3
 72
8
 73
4
 74
0
 40
0
 40
0
 40
0
 40
0
 40
1
 40
1
 40
1
 40
1
 10
174.265328
 20
-57.268152
 30
0.0
 10
174.265327
 20
-58.786939
 30
0.0
 10
173.034107
 20
-60.018159
 30
0.0
 10
171.515320
 20
-60.018159
 30
0.0
  0
SPLINE
  5
122
100
AcDbEntity
  8
0
 62
7
100
AcDbSpline
 70
8
 71
3
 72
8
 73
4
 74
0
 40
0
 40
0
 40
0
 40
0
 40
1
 40
1
 40
1
 40
1
 10
171.515320
 20
-60.018159
 30
0.0
 10
169.996533
 20
-60.018159
 30
0.0
 10
168.765313
 20
-58.786939
 30
0.0
 10
168.765313
 20
-57.268152
 30
0.0
  0
SPLINE
  5
123
100
AcDbEntity
  8
0
 62
7
100
AcDbSpline
 70
8
 71
3
 72
8
 73
4
 74
0
 40
0
 40
0
 40
0
 40
0
 40
1
 40
1
 40
1
 40
1
 10
168.765313
 20
-57.268152
 30
0.0
 10
168.765313
 20
-55.749365
 30
0.0
 10
169.996533
 20
-54.518144
 30
0.0
 10
171.515320
 20
-54.518144
 30
0.0
  0
SPLINE
  5
124
100
AcDbEntity
  8
0
 62
7
100
AcDbSpline
 70
8
 71
3
 72
8
 73
4
 74
0
 40
0
 40
0
 40
0
 40
0
 40
1
 40
1
 40
1
 40
1
 10
171.515320
 20
-54.518144
 30
0.0
 10
173.034107
 20
-54.518144
 30
0.0
 10
174.265327
 20
-55.749365
 30
0.0
 10
174.265328
 20
-57.268152
 30
0.0
  0
LINE
  5
125
100
AcDbEntity
  8
0
 62
7
100
AcDbLine
 10
174.265328
 20
-57.268152
 30
0.0
 11
174.265328
 21
-57.268152
 31
0.0
  0
SPLINE
  5
126
100
AcDbEntity
  8
0
 62
7
100
AcDbSpline
 70
8
 71
3
 72
8
 73
4
 74
0
 40
0
 40
0
 40
0
 40
0
 40
1
 40
1
 40
1
 40
1
 10
117.115340
 20
-38.218155
 30
0.0
 10
117.115340
 20
-39.200638
 30
0.0
 10
116.591191
 20
-40.108490
 30
0.0
 10
115.740336
 20
-40.599731
 30
0.0
  0
SPLINE
  5
127
100
AcDbEntity
  8
0
 62
7
100
AcDbSpline
 70
8
 71
3
 72
8
 73
4
 74
0
 40
0
 40
0
 40
0
 40
0
 40
1
 40
1
 40
1
 40
1
 10
115.740336
 20
-40.599731
 30
0.0
 10
114.889481
 20
-41.090973
 30
0.0
 10
113.841184
 20
-41.090973
 30
0.0
 10
112.990329
 20
-40.599731
 30
0.0
  0
SPLINE
  5
128
100
AcDbEntity
  8
0
 62
7
100
AcDbSpline
 70
8
 71
3
 72
8
 73
4
 74
0
 40
0
 40
0
 40
0
 40
0
 40
1
 40
1
 40
1
 40
1
 10
112.990329
 20
-40.599731
 30
0.0
 10
112.139474
 20
-40.108490
 30
0.0
 10
111.615325
 20
-39.200638
 30
0.0
 10
111.615325
 20
-38.218155
 30
0.0
  0
SPLINE
  5
129
100
AcDbEntity
  8
0
 62
7
100
AcDbSpline
 70
8
 71
3
 72
8
 73
4
 74
0
 40
0
 40
0
 40
0
 40
0
 40
1
 40
1
 40
1
 40
1
 10
111.615325
 20
-38.218155
 30
0.0
 10
111.615325
 20
-36.699368
 30
0.0
 10
112.846545
 20
-35.468148
 30
0.0
 10
114.365332
 20
-35.468148
 30
0.0
  0
SPLINE
  5
12a
100
AcDbEntity
  8
0
 62
7
100
AcDbSpline
 70
8
 71
3
 72
8
 73
4
 74
0
 40
0
 40
0
 40
0
 40
0
 40
1
 40
1
 40
1
 40
1
 10
114.365332
 20
-35.468148
 30
0.0
 10
115.884119
 20
-35.468148
 30
0.0
 10
117.115340
 20
-36.699368
 30
0.0
 10
117.115340
 20
-38.218155
 30
0.0
  0
LINE
  5
12b
100
AcDbEntity
  8
0
 62
7
100
AcDbLine
 10
117.115340
 20
-38.218155
 30
0.0
 11
117.115340
 21
-38.218155
 31
0.0
  0
SPLINE
  5
12c
100
AcDbEntity
  8
0
 62
7
100
AcDbSpline
 70
8
 71
3
 72
8
 73
4
 74
0
 40
0
 40
0
 40
0
 40
0
 40
1
 40
1
 40
1
 40
1
 10
21.865343
 20
-19.168052
 30
0.0
 10
21.865343
 20
-20.150535
 30
0.0
 10
21.341195
 20
-21.058387
 30
0.0
 10
20.490340
 20
-21.549629
 30
0.0
  0
SPLINE
  5
12d
100
AcDbEntity
  8
0
 62
7
100
AcDbSpline
 70
8
 71
3
 72
8
 73
4
 74
0
 40
0
 40
0
 40
0
 40
0
 40
1
 40
1
 40
1
 40
1
 10
20.490340
 20
-21.549629
 30
0.0
 10
19.639484
 20
-22.040870
 30
0.0
 10
18.591188
 20
-22.040870
 30
0.0
 10
17.740332
 20
-21.549629
 30
0.0
  0
SPLINE
  5
12e
100
AcDbEntity
  8
0
 62
7
100
AcDbSpline
 70
8
 71
3
 72
8
 73
4
 74
0
 40
0
 40
0
 40
0
 40
0
 40
1
 40
1
 40
1
 40
1
 10
17.740332
 20
-21.549629
 30
0.0
 10
16.889477
 20
-21.058387
 30
0.0
 10
16.365329
 20
-20.150535
 30
0.0
 10
16.365329
 20
-19.168052
 30
0.0
  0
SPLINE
  5
12f
100
AcDbEntity
  8
0
 62
7
100
AcDbSpline
 70
8
 71
3
 72
8
 73
4
 74
0
 40
0
 40
0
 40
0
 40
0
 40
1
 40
1
 40
1
 40
1
 10
16.365329
 20
-19.168052
 30
0.0
 10
16.365329
 20
-18.185569
 30
0.0
 10
16.889477
 20
-17.277718
 30
0.0
 10
17.740332
 20
-16.786476
 30
0.0
  0
SPLINE
  5
130
100
AcDbEntity
  8
0
 62
7
100
AcDbSpline
 70
8
 71
3
 72
8
 73
4
 74
0
 40
0
 40
0
 40
0
 40
0
 40
1
 40
1
 40
1
 40
1
 10
17.740332
 20
-16.786476
 30
0.0
 10
18.591188
 20
-16.295235
 30
0.0
 10
19.639484
 20
-16.295235
 30
0.0
 10
20.490340
 20
-16.786476
 30
0.0
  0
SPLINE
  5
131
100
AcDbEntity
  8
0
 62
7
100
AcDbSpline
 70
8
 71
3
 72
8
 73
4
 74
0
 40
0
 40
0
 40
0
 40
0
 40
1
 40
1
 40
1
 40
1
 10
20.490340
 20
-16.786476
 30
0.0
 10
21.341195
 20
-17.277718
 30
0.0
 10
21.865343
 20
-18.185569
 30
0.0
 10
21.865343
 20
-19.168052
 30
0.0
  0
LINE
  5
132
100
AcDbEntity
  8
0
 62
7
100
AcDbLine
 10
21.865343
 20
-19.168052
 30
0.0
 11
21.865343
 21
-19.168052
 31
0.0
  0
SPLINE
  5
133
100
AcDbEntity
  8
0
 62
7
100
AcDbSpline
 70
8
 71
3
 72
8
 73
4
 74
0
 40
0
 40
0
 40
0
 40
0
 40
1
 40
1
 40
1
 40
1
 10
21.865343
 20
-57.268152
 30
0.0
 10
21.865343
 20
-58.250635
 30
0.0
 10
21.341195
 20
-59.158486
 30
0.0
 10
20.490340
 20
-59.649728
 30
0.0
  0
SPLINE
  5
134
100
AcDbEntity
  8
0
 62
7
100
AcDbSpline
 70
8
 71
3
 72
8
 73
4
 74
0
 40
0
 40
0
 40
0
 40
0
 40
1
 40
1
 40
1
 40
1
 10
20.490340
 20
-59.649728
 30
0.0
 10
19.639484
 20
-60.140969
 30
0.0
 10
18.591188
 20
-60.140969
 30
0.0
 10
17.740332
 20
-59.649728
 30
0.0
  0
SPLINE
  5
135
100
AcDbEntity
  8
0
 62
7
100
AcDbSpline
 70
8
 71
3
 72
8
 73
4
 74
0
 40
0
 40
0
 40
0
 40
0
 40
1
 40
1
 40
1
 40
1
 10
17.740332
 20
-59.649728
 30
0.0
 10
16.889477
 20
-59.158486
 30
0.0
 10
16.365329
 20
-58.250635
 30
0.0
 10
16.365329
 20
-57.268152
 30
0.0
  0
SPLINE
  5
136
100
AcDbEntity
  8
0
 62
7
100
AcDbSpline
 70
8
 71
3
 72
8
 73
4
 74
0
 40
0
 40
0
 40
0
 40
0
 40
1
 40
1
 40
1
 40
1
 10
16.365329
 20
-57.268152
 30
0.0
 10
16.365329
 20
-56.285669
 30
0.0
 10
16.889477
 20
-55.377817
 30
0.0
 10
17.740332
 20
-54.886575
 30
0.0
  0
SPLINE
  5
137
100
AcDbEntity
  8
0
 62
7
100
AcDbSpline
 70
8
 71
3
 72
8
 73
4
 74
0
 40
0
 40
0
 40
0
 40
0
 40
1
 40
1
 40
1
 40
1
 10
17.740332
 20
-54.886575
 30
0.0
 10
18.591188
 20
-54.395334
 30
0.0
 10
19.639484
 20
-54.395334
 30
0.0
 10
20.490340
 20
-54.886575
 30
0.0
  0
SPLINE
  5
138
100
AcDbEntity
  8
0
 62
7
100
AcDbSpline
 70
8
 71
3
 72
8
 73
4
 74
0
 40
0
 40
0
 40
0
 40
0
 40
1
 40
1
 40
1
 40
1
 10
20.490340
 20
-54.886575
 30
0.0
 10
21.341195
 20
-55.377817
 30
0.0
 10
21.865343
 20
-56.285669
 30
0.0
 10
21.865343
 20
-57.268152
 30
0.0
  0
LINE
  5
139
100
AcDbEntity
  8
0
 62
7
100
AcDbLine
 10
21.865343
 20
-57.268152
 30
0.0
 11
21.865343
 21
-57.268152
 31
0.0
  0
SPLINE
  5
13a
100
AcDbEntity
  8
0
 62
7
100
AcDbSpline
 70
8
 71
3
 72
8
 73
4
 74
0
 40
0
 40
0
 40
0
 40
0
 40
1
 40
1
 40
1
 40
1
 10
212.365326
 20
-19.168052
 30
0.0
 10
212.365326
 20
-20.150535
 30
0.0
 10
211.841178
 20
-21.058387
 30
0.0
 10
210.990323
 20
-21.549629
 30
0.0
  0
SPLINE
  5
13b
100
AcDbEntity
  8
0
 62
7
100
AcDbSpline
 70
8
 71
3
 72
8
 73
4
 74
0
 40
0
 40
0
 40
0
 40
0
 40
1
 40
1
 40
1
 40
1
 10
210.990323
 20
-21.549629
 30
0.0
 10
210.139467
 20
-22.040870
 30
0.0
 10
209.091170
 20
-22.040870
 30
0.0
 10
208.240315
 20
-21.549629
 30
0.0
  0
SPLINE
  5
13c
100
AcDbEntity
  8
0
 62
7
100
AcDbSpline
 70
8
 71
3
 72
8
 73
4
 74
0
 40
0
 40
0
 40
0
 40
0
 40
1
 40
1
 40
1
 40
1
 10
208.240315
 20
-21.549629
 30
0.0
 10
207.389460
 20
-21.058387
 30
0.0
 10
206.865312
 20
-20.150535
 30
0.0
 10
206.865312
 20
-19.168052
 30
0.0
  0
SPLINE
  5
13d
100
AcDbEntity
  8
0
 62
7
100
AcDbSpline
 70
8
 71
3
 72
8
 73
4
 74
0
 40
0
 40
0
 40
0
 40
0
 40
1
 40
1
 40
1
 40
1
 10
206.865312
 20
-19.168052
 30
0.0
 10
206.865312
 20
-18.185569
 30
0.0
 10
207.389460
 20
-17.277718
 30
0.0
 10
208.240315
 20
-16.786476
 30
0.0
  0
SPLINE
  5
13e
100
AcDbEntity
  8
0
 62
7
100
AcDbSpline
 70
8
 71
3
 72
8
 73
4
 74
0
 40
0
 40
0
 40
0
 40
0
 40
1
 40
1
 40
1
 40
1
 10
208.240315
 20
-16.786476
 30
0.0
 10
209.091170
 20
-16.295235
 30
0.0
 10
210.139467
 20
-16.295235
 30
0.0
 10
210.990323
 20
-16.786476
 30
0.0
  0
SPLINE
  5
13f
100
AcDbEntity
  8
0
 62
7
100
AcDbSpline
 70
8
 71
3
 72
8
 73
4
 74
0
 40
0
 40
0
 40
0
 40
0
 40
1
 40
1
 40
1
 40
1
 10
210.990323
 20
-16.786476
 30
0.0
 10
211.841178
 20
-17.277718
 30
0.0
 10
212.365326
 20
-18.185569
 30
0.0
 10
212.365326
 20
-19.168052
 30
0.0
  0
LINE
  5
140
100
AcDbEntity
  8
0
 62
7
100
AcDbLine
 10
212.365326
 20
-19.168052
 30
0.0
 11
212.365326
 21
-19.168052
 31
0.0
  0
SPLINE
  5
141
100
AcDbEntity
  8
0
 62
7
100
AcDbSpline
 70
8
 71
3
 72
8
 73
4
 74
0
 40
0
 40
0
 40
0
 40
0
 40
1
 40
1
 40
1
 40
1
 10
212.365326
 20
-57.268152
 30
0.0
 10
212.365326
 20
-58.250635
 30
0.0
 10
211.841178
 20
-59.158486
 30
0.0
 10
210.990323
 20
-59.649728
 30
0.0
  0
SPLINE
  5
142
100
AcDbEntity
  8
0
 62
7
100
AcDbSpline
 70
8
 71
3
 72
8
 73
4
 74
0
 40
0
 40
0
 40
0
 40
0
 40
1
 40
1
 40
1
 40
1
 10
210.990323
 20
-59.649728
 30
0.0
 10
210.139467
 20
-60.140969
 30
0.0
 10
209.091170
 20
-60.140969
 30
0.0
 10
208.240315
 20
-59.649728
 30
0.0
  0
SPLINE
  5
143
100
AcDbEntity
  8
0
 62
7
100
AcDbSpline
 70
8
 71
3
 72
8
 73
4
 74
0
 40
0
 40
0
 40
0
 40
0
 40
1
 40
1
 40
1
 40
1
 10
208.240315
 20
-59.649728
 30
0.0
 10
207.389460
 20
-59.158486
 30
0.0
 10
206.865312
 20
-58.250635
 30
0.0
 10
206.865312
 20
-57.268152
 30
0.0
  0
SPLINE
  5
144
100
AcDbEntity
  8
0
 62
7
100
AcDbSpline
 70
8
 71
3
 72
8
 73
4
 74
0
 40
0
 40
0
 40
0
 40
0
 40
1
 40
1
 40
1
 40
1
 10
206.865312
 20
-57.268152
 30
0.0
 10
206.865312
 20
-56.285669
 30
0.0
 10
207.389460
 20
-55.377817
 30
0.0
 10
208.240315
 20
-54.886575
 30
0.0
  0
SPLINE
  5
145
100
AcDbEntity
  8
0
 62
7
100
AcDbSpline
 70
8
 71
3
 72
8
 73
4
 74
0
 40
0
 40
0
 40
0
 40
0
 40
1
 40
1
 40
1
 40
1
 10
208.240315
 20
-54.886575
 30
0.0
 10
209.091170
 20
-54.395334
 30
0.0
 10
210.139467
 20
-54.395334
 30
0.0
 10
210.990323
 20
-54.886575
 30
0.0
  0
SPLINE
  5
146
100
AcDbEntity
  8
0
 62
7
100
AcDbSpline
 70
8
 71
3
 72
8
 73
4
 74
0
 40
0
 40
0
 40
0
 40
0
 40
1
 40
1
 40
1
 40
1
 10
210.990323
 20
-54.886575
 30
0.0
 10
211.841178
 20
-55.377817
 30
0.0
 10
212.365326
 20
-56.285669
 30
0.0
 10
212.365326
 20
-57.268152
 30
0.0
  0
LINE
  5
147
100
AcDbEntity
  8
0
 62
7
100
AcDbLine
 10
212.365326
 20
-57.268152
 30
0.0
 11
212.365326
 21
-57.268152
 31
0.0
  0
SPLINE
  5
148
100
AcDbEntity
  8
0
 62
7
100
AcDbSpline
 70
8
 71
3
 72
8
 73
4
 74
0
 40
0
 40
0
 40
0
 40
0
 40
1
 40
1
 40
1
 40
1
 10
1.652838
 20
-0.118056
 30
0.0
 10
0.776087
 20
-0.118056
 30
0.0
 10
0.065339
 20
-0.828802
 30
0.0
 10
0.065338
 20
-1.705553
 30
0.0
  0
LINE
  5
149
100
AcDbEntity
  8
0
 62
7
100
AcDbLine
 10
0.063306
 20
-74.728112
 30
0.0
 11
0.063306
 21
-1.703115
 31
0.0
  0
LINE
  5
14a
100
AcDbEntity
  8
0
 62
7
100
AcDbLine
 10
1.650806
 20
-76.315612
 30
0.0
 11
3.238306
 21
-76.315612
 31
0.0
  0
SPLINE
  5
14b
100
AcDbEntity
  8
0
 62
7
100
AcDbSpline
 70
8
 71
3
 72
8
 73
4
 74
0
 40
0
 40
0
 40
0
 40
0
 40
1
 40
1
 40
1
 40
1
 10
0.065338
 20
-74.730652
 30
0.0
 10
0.065338
 20
-75.151683
 30
0.0
 10
0.232592
 20
-75.555470
 30
0.0
 10
0.530306
 20
-75.853184
 30
0.0
  0
SPLINE
  5
14c
100
AcDbEntity
  8
0
 62
7
100
AcDbSpline
 70
8
 71
3
 72
8
 73
4
 74
0
 40
0
 40
0
 40
0
 40
0
 40
1
 40
1
 40
1
 40
1
 10
0.530306
 20
-75.853184
 30
0.0
 10
0.828020
 20
-76.150898
 30
0.0
 10
1.231806
 20
-76.318152
 30
0.0
 10
1.652838
 20
-76.318152
 30
0.0
  0
LINE
  5
14d
100
AcDbEntity
  8
0
 62
7
100
AcDbLine
 10
227.075798
 20
-76.315612
 30
0.0
 11
3.238306
 21
-76.315612
 31
0.0
  0
SPLINE
  5
14e
100
AcDbEntity
  8
0
 62
7
100
AcDbSpline
 70
8
 71
3
 72
8
 73
4
 74
0
 40
0
 40
0
 40
0
 40
0
 40
1
 40
1
 40
1
 40
1
 10
227.077830
 20
-76.318152
 30
0.0
 10
227.498861
 20
-76.318152
 30
0.0
 10
227.902648
 20
-76.150898
 30
0.0
 10
228.200362
 20
-75.853184
 30
0.0
  0
SPLINE
  5
14f
100
AcDbEntity
  8
0
 62
7
100
AcDbSpline
 70
8
 71
3
 72
8
 73
4
 74
0
 40
0
 40
0
 40
0
 40
0
 40
1
 40
1
 40
1
 40
1
 10
228.200362
 20
-75.853184
 30
0.0
 10
228.498076
 20
-75.555470
 30
0.0
 10
228.665330
 20
-75.151683
 30
0.0
 10
228.665330
 20
-74.730652
 30
0.0
  0
LINE
  5
150
100
AcDbEntity
  8
0
 62
7
100
AcDbLine
 10
228.663298
 20
-1.703115
 30
0.0
 11
228.663298
 21
-74.728112
 31
0.0
  0
SPLINE
  5
151
100
AcDbEntity
  8
0
 62
7
100
AcDbSpline
 70
8
 71
3
 72
8
 73
4
 74
0
 40
0
 40
0
 40
0
 40
0
 40
1
 40
1
 40
1
 40
1
 10
228.665330
 20
-1.705553
 30
0.0
 10
228.665328
 20
-0.828802
 30
0.0
 10
227.954581
 20
-0.118056
 30
0.0
 10
227.077830
 20
-0.118056
 30
0.0
  0
SPLINE
  5
152
100
AcDbEntity
  8
0
 62
7
100
AcDbSpline
 70
8
 71
3
 72
8
 73
4
 74
0
 40
0
 40
0
 40
0
 40
0
 40
1
 40
1
 40
1
 40
1
 10
195.724833
 20
0.278819
 30
0.0
 10
195.724833
 20
0.059681
 30
0.0
 10
195.902442
 20
-0.117986
 30
0.0
 10
196.121581
 20
-0.118056
 30
0.0
  0
SPLINE
  5
153
100
AcDbEntity
  8
0
 62
7
100
AcDbSpline
 70
8
 71
3
 72
8
 73
4
 74
0
 40
0
 40
0
 40
0
 40
0
 40
1
 40
1
 40
1
 40
1
 10
195.724833
 20
0.278819
 30
0.0
 10
195.724833
 20
0.384099
 30
0.0
 10
195.683002
 20
0.485065
 30
0.0
 10
195.608546
 20
0.559497
 30
0.0
  0
SPLINE
  5
154
100
AcDbEntity
  8
0
 62
7
100
AcDbSpline
 70
8
 71
3
 72
8
 73
4
 74
0
 40
0
 40
0
 40
0
 40
0
 40
1
 40
1
 40
1
 40
1
 10
195.608546
 20
0.559497
 30
0.0
 10
195.534090
 20
0.633929
 30
0.0
 10
195.433111
 20
0.675728
 30
0.0
 10
195.327831
 20
0.675694
 30
0.0
  0
SPLINE
  5
155
100
AcDbEntity
  8
0
 62
7
100
AcDbSpline
 70
8
 71
3
 72
8
 73
4
 74
0
 40
0
 40
0
 40
0
 40
0
 40
1
 40
1
 40
1
 40
1
 10
185.802831
 20
0.675694
 30
0.0
 10
185.583693
 20
0.675624
 30
0.0
 10
185.406083
 20
0.497958
 30
0.0
 10
185.406083
 20
0.278819
 30
0.0
  0
SPLINE
  5
156
100
AcDbEntity
  8
0
 62
7
100
AcDbSpline
 70
8
 71
3
 72
8
 73
4
 74
0
 40
0
 40
0
 40
0
 40
0
 40
1
 40
1
 40
1
 40
1
 10
185.009081
 20
-0.118056
 30
0.0
 10
185.114361
 20
-0.118089
 30
0.0
 10
185.215340
 20
-0.076291
 30
0.0
 10
185.289796
 20
-0.001859
 30
0.0
  0
SPLINE
  5
157
100
AcDbEntity
  8
0
 62
7
100
AcDbSpline
 70
8
 71
3
 72
8
 73
4
 74
0
 40
0
 40
0
 40
0
 40
0
 40
1
 40
1
 40
1
 40
1
 10
185.289796
 20
-0.001859
 30
0.0
 10
185.364252
 20
0.072573
 30
0.0
 10
185.406083
 20
0.173539
 30
0.0
 10
185.406083
 20
0.278819
 30
0.0
  0
LINE
  5
158
100
AcDbEntity
  8
0
 62
7
100
AcDbLine
 10
195.325799
 20
0.676865
 30
0.0
 11
185.800799
 21
0.676865
 31
0.0
  0
LINE
  5
159
100
AcDbEntity
  8
0
 62
7
100
AcDbLine
 10
196.120819
 20
-0.115615
 30
0.0
 11
227.075798
 21
-0.115615
 31
0.0
  0
LINE
  5
15a
100
AcDbEntity
  8
0
 62
7
100
AcDbLine
 10
1.650806
 20
-0.115615
 30
0.0
 11
185.008319
 21
-0.115615
 31
0.0
  0
ENDSEC
  0
SECTION
  2
OBJECTS
  0
DICTIONARY
  5
C
330
0
100
AcDbDictionary
  3
ACAD_GROUP
350
D
  3
ACAD_MLINESTYLE
350
17
  0
DICTIONARY
  5
D
330
C
100
AcDbDictionary
  0
DICTIONARY
  5
1A
330
C
100
AcDbDictionary
  0
DICTIONARY
  5
17
330
C
100
AcDbDictionary
  3
STANDARD
350
18
  0
DICTIONARY
  5
19
330
C
100
AcDbDictionary
  0
ENDSEC
  0
EOF
