G04 #@! TF.GenerationSoftware,KiCad,Pcbnew,5.0.1*
G04 #@! TF.CreationDate,2019-02-20T21:52:04-03:00*
G04 #@! TF.ProjectId,2Space,3253706163652E6B696361645F706362,V3.0.7*
G04 #@! TF.SameCoordinates,Original*
G04 #@! TF.FileFunction,Legend,Bot*
G04 #@! TF.FilePolarity,Positive*
%FSLAX46Y46*%
G04 Gerber Fmt 4.6, Leading zero omitted, Abs format (unit mm)*
G04 Created by KiCad (PCBNEW 5.0.1) date Wed 20 Feb 2019 09:52:04 PM -03*
%MOMM*%
%LPD*%
G01*
G04 APERTURE LIST*
%ADD10C,0.150000*%
G04 #@! TA.AperFunction,NonConductor*
%ADD11C,0.150000*%
G04 #@! TD*
G04 APERTURE END LIST*
D10*
X207541125Y-102743000D02*
G75*
G03X207541125Y-102743000I-2078125J0D01*
G01*
X149963000Y-102743000D02*
G75*
G03X149963000Y-102743000I-1500000J0D01*
G01*
X244963000Y-83743000D02*
G75*
G03X244963000Y-83743000I-1500000J0D01*
G01*
X244963000Y-121743000D02*
G75*
G03X244963000Y-121743000I-1500000J0D01*
G01*
X54963000Y-121743000D02*
G75*
G03X54963000Y-121743000I-1500000J0D01*
G01*
X54963000Y-83743000D02*
G75*
G03X54963000Y-83743000I-1500000J0D01*
G01*
X31939170Y-64000682D02*
G75*
G02X33720426Y-62219426I1781256J0D01*
G01*
X31939170Y-64000682D02*
X31939170Y-141485318D01*
X33720426Y-143266574D02*
G75*
G02X31939170Y-141485318I0J1781256D01*
G01*
X264986830Y-141485318D02*
X264986830Y-64000682D01*
X264986830Y-141485318D02*
G75*
G02X263205574Y-143266574I-1781256J0D01*
G01*
X263205574Y-62219426D02*
G75*
G02X264986830Y-64000682I0J-1781256D01*
G01*
X33720426Y-143266574D02*
X263205574Y-143266574D01*
X33720426Y-62219426D02*
X263205574Y-62219426D01*
D11*
G04 #@! TO.C,REF\002A\002A*
X183663000Y-124243000D02*
X151263000Y-124243000D01*
X151263000Y-138243000D02*
X183663000Y-138243000D01*
X183963000Y-137943000D02*
X183963000Y-124543000D01*
X183663000Y-124243000D02*
G75*
G02X183963000Y-124543000I0J-300000D01*
G01*
X183963000Y-137943000D02*
G75*
G02X183663000Y-138243000I-300000J0D01*
G01*
X150963000Y-124543000D02*
G75*
G02X151263000Y-124243000I300000J0D01*
G01*
X150963000Y-124543000D02*
X150963000Y-137943000D01*
X151263000Y-138243000D02*
G75*
G02X150963000Y-137943000I0J300000D01*
G01*
X240663000Y-124243000D02*
X227263000Y-124243000D01*
X226963000Y-124543000D02*
X226963000Y-137943000D01*
X227263000Y-138243000D02*
X240663000Y-138243000D01*
X240963000Y-137943000D02*
X240963000Y-124543000D01*
X226963000Y-124543000D02*
G75*
G02X227263000Y-124243000I300000J0D01*
G01*
X240663000Y-124243000D02*
G75*
G02X240963000Y-124543000I0J-300000D01*
G01*
X240963000Y-137943000D02*
G75*
G02X240663000Y-138243000I-300000J0D01*
G01*
X227263000Y-138243000D02*
G75*
G02X226963000Y-137943000I0J300000D01*
G01*
X227263000Y-119243000D02*
G75*
G02X226963000Y-118943000I0J300000D01*
G01*
X240963000Y-118943000D02*
G75*
G02X240663000Y-119243000I-300000J0D01*
G01*
X240663000Y-105243000D02*
G75*
G02X240963000Y-105543000I0J-300000D01*
G01*
X226963000Y-105543000D02*
G75*
G02X227263000Y-105243000I300000J0D01*
G01*
X240963000Y-118943000D02*
X240963000Y-105543000D01*
X227263000Y-119243000D02*
X240663000Y-119243000D01*
X226963000Y-105543000D02*
X226963000Y-118943000D01*
X240663000Y-105243000D02*
X227263000Y-105243000D01*
X240663000Y-67243000D02*
X227263000Y-67243000D01*
X226963000Y-67543000D02*
X226963000Y-80943000D01*
X227263000Y-81243000D02*
X240663000Y-81243000D01*
X240963000Y-80943000D02*
X240963000Y-67543000D01*
X226963000Y-67543000D02*
G75*
G02X227263000Y-67243000I300000J0D01*
G01*
X240663000Y-67243000D02*
G75*
G02X240963000Y-67543000I0J-300000D01*
G01*
X240963000Y-80943000D02*
G75*
G02X240663000Y-81243000I-300000J0D01*
G01*
X227263000Y-81243000D02*
G75*
G02X226963000Y-80943000I0J300000D01*
G01*
X88663000Y-124243000D02*
X75263000Y-124243000D01*
X74963000Y-124543000D02*
X74963000Y-137943000D01*
X75263000Y-138243000D02*
X88663000Y-138243000D01*
X88963000Y-137943000D02*
X88963000Y-124543000D01*
X74963000Y-124543000D02*
G75*
G02X75263000Y-124243000I300000J0D01*
G01*
X88663000Y-124243000D02*
G75*
G02X88963000Y-124543000I0J-300000D01*
G01*
X88963000Y-137943000D02*
G75*
G02X88663000Y-138243000I-300000J0D01*
G01*
X75263000Y-138243000D02*
G75*
G02X74963000Y-137943000I0J300000D01*
G01*
X246263000Y-138243000D02*
G75*
G02X245963000Y-137943000I0J300000D01*
G01*
X259963000Y-137943000D02*
G75*
G02X259663000Y-138243000I-300000J0D01*
G01*
X259663000Y-124243000D02*
G75*
G02X259963000Y-124543000I0J-300000D01*
G01*
X245963000Y-124543000D02*
G75*
G02X246263000Y-124243000I300000J0D01*
G01*
X259963000Y-137943000D02*
X259963000Y-124543000D01*
X246263000Y-138243000D02*
X259663000Y-138243000D01*
X245963000Y-124543000D02*
X245963000Y-137943000D01*
X259663000Y-124243000D02*
X246263000Y-124243000D01*
X202663000Y-124243000D02*
X189263000Y-124243000D01*
X188963000Y-124543000D02*
X188963000Y-137943000D01*
X189263000Y-138243000D02*
X202663000Y-138243000D01*
X202963000Y-137943000D02*
X202963000Y-124543000D01*
X188963000Y-124543000D02*
G75*
G02X189263000Y-124243000I300000J0D01*
G01*
X202663000Y-124243000D02*
G75*
G02X202963000Y-124543000I0J-300000D01*
G01*
X202963000Y-137943000D02*
G75*
G02X202663000Y-138243000I-300000J0D01*
G01*
X189263000Y-138243000D02*
G75*
G02X188963000Y-137943000I0J300000D01*
G01*
X94263000Y-138243000D02*
G75*
G02X93963000Y-137943000I0J300000D01*
G01*
X107963000Y-137943000D02*
G75*
G02X107663000Y-138243000I-300000J0D01*
G01*
X107663000Y-124243000D02*
G75*
G02X107963000Y-124543000I0J-300000D01*
G01*
X93963000Y-124543000D02*
G75*
G02X94263000Y-124243000I300000J0D01*
G01*
X107963000Y-137943000D02*
X107963000Y-124543000D01*
X94263000Y-138243000D02*
X107663000Y-138243000D01*
X93963000Y-124543000D02*
X93963000Y-137943000D01*
X107663000Y-124243000D02*
X94263000Y-124243000D01*
X208263000Y-138243000D02*
G75*
G02X207963000Y-137943000I0J300000D01*
G01*
X221963000Y-137943000D02*
G75*
G02X221663000Y-138243000I-300000J0D01*
G01*
X221663000Y-124243000D02*
G75*
G02X221963000Y-124543000I0J-300000D01*
G01*
X207963000Y-124543000D02*
G75*
G02X208263000Y-124243000I300000J0D01*
G01*
X221963000Y-137943000D02*
X221963000Y-124543000D01*
X208263000Y-138243000D02*
X221663000Y-138243000D01*
X207963000Y-124543000D02*
X207963000Y-137943000D01*
X221663000Y-124243000D02*
X208263000Y-124243000D01*
X56263000Y-138243000D02*
G75*
G02X55963000Y-137943000I0J300000D01*
G01*
X69963000Y-137943000D02*
G75*
G02X69663000Y-138243000I-300000J0D01*
G01*
X69663000Y-124243000D02*
G75*
G02X69963000Y-124543000I0J-300000D01*
G01*
X55963000Y-124543000D02*
G75*
G02X56263000Y-124243000I300000J0D01*
G01*
X69963000Y-137943000D02*
X69963000Y-124543000D01*
X56263000Y-138243000D02*
X69663000Y-138243000D01*
X55963000Y-124543000D02*
X55963000Y-137943000D01*
X69663000Y-124243000D02*
X56263000Y-124243000D01*
X50663000Y-124243000D02*
X37263000Y-124243000D01*
X36963000Y-124543000D02*
X36963000Y-137943000D01*
X37263000Y-138243000D02*
X50663000Y-138243000D01*
X50963000Y-137943000D02*
X50963000Y-124543000D01*
X36963000Y-124543000D02*
G75*
G02X37263000Y-124243000I300000J0D01*
G01*
X50663000Y-124243000D02*
G75*
G02X50963000Y-124543000I0J-300000D01*
G01*
X50963000Y-137943000D02*
G75*
G02X50663000Y-138243000I-300000J0D01*
G01*
X37263000Y-138243000D02*
G75*
G02X36963000Y-137943000I0J300000D01*
G01*
X189263000Y-119243000D02*
G75*
G02X188963000Y-118943000I0J300000D01*
G01*
X202963000Y-118943000D02*
G75*
G02X202663000Y-119243000I-300000J0D01*
G01*
X202663000Y-105243000D02*
G75*
G02X202963000Y-105543000I0J-300000D01*
G01*
X188963000Y-105543000D02*
G75*
G02X189263000Y-105243000I300000J0D01*
G01*
X202963000Y-118943000D02*
X202963000Y-105543000D01*
X189263000Y-119243000D02*
X202663000Y-119243000D01*
X188963000Y-105543000D02*
X188963000Y-118943000D01*
X202663000Y-105243000D02*
X189263000Y-105243000D01*
X259663000Y-105243000D02*
X246263000Y-105243000D01*
X245963000Y-105543000D02*
X245963000Y-118943000D01*
X246263000Y-119243000D02*
X259663000Y-119243000D01*
X259963000Y-118943000D02*
X259963000Y-105543000D01*
X245963000Y-105543000D02*
G75*
G02X246263000Y-105243000I300000J0D01*
G01*
X259663000Y-105243000D02*
G75*
G02X259963000Y-105543000I0J-300000D01*
G01*
X259963000Y-118943000D02*
G75*
G02X259663000Y-119243000I-300000J0D01*
G01*
X246263000Y-119243000D02*
G75*
G02X245963000Y-118943000I0J300000D01*
G01*
X75263000Y-119243000D02*
G75*
G02X74963000Y-118943000I0J300000D01*
G01*
X88963000Y-118943000D02*
G75*
G02X88663000Y-119243000I-300000J0D01*
G01*
X88663000Y-105243000D02*
G75*
G02X88963000Y-105543000I0J-300000D01*
G01*
X74963000Y-105543000D02*
G75*
G02X75263000Y-105243000I300000J0D01*
G01*
X88963000Y-118943000D02*
X88963000Y-105543000D01*
X75263000Y-119243000D02*
X88663000Y-119243000D01*
X74963000Y-105543000D02*
X74963000Y-118943000D01*
X88663000Y-105243000D02*
X75263000Y-105243000D01*
X183663000Y-105243000D02*
X170263000Y-105243000D01*
X169963000Y-105543000D02*
X169963000Y-118943000D01*
X170263000Y-119243000D02*
X183663000Y-119243000D01*
X183963000Y-118943000D02*
X183963000Y-105543000D01*
X169963000Y-105543000D02*
G75*
G02X170263000Y-105243000I300000J0D01*
G01*
X183663000Y-105243000D02*
G75*
G02X183963000Y-105543000I0J-300000D01*
G01*
X183963000Y-118943000D02*
G75*
G02X183663000Y-119243000I-300000J0D01*
G01*
X170263000Y-119243000D02*
G75*
G02X169963000Y-118943000I0J300000D01*
G01*
X69663000Y-105243000D02*
X56263000Y-105243000D01*
X55963000Y-105543000D02*
X55963000Y-118943000D01*
X56263000Y-119243000D02*
X69663000Y-119243000D01*
X69963000Y-118943000D02*
X69963000Y-105543000D01*
X55963000Y-105543000D02*
G75*
G02X56263000Y-105243000I300000J0D01*
G01*
X69663000Y-105243000D02*
G75*
G02X69963000Y-105543000I0J-300000D01*
G01*
X69963000Y-118943000D02*
G75*
G02X69663000Y-119243000I-300000J0D01*
G01*
X56263000Y-119243000D02*
G75*
G02X55963000Y-118943000I0J300000D01*
G01*
X37263000Y-119243000D02*
G75*
G02X36963000Y-118943000I0J300000D01*
G01*
X50963000Y-118943000D02*
G75*
G02X50663000Y-119243000I-300000J0D01*
G01*
X50663000Y-105243000D02*
G75*
G02X50963000Y-105543000I0J-300000D01*
G01*
X36963000Y-105543000D02*
G75*
G02X37263000Y-105243000I300000J0D01*
G01*
X50963000Y-118943000D02*
X50963000Y-105543000D01*
X37263000Y-119243000D02*
X50663000Y-119243000D01*
X36963000Y-105543000D02*
X36963000Y-118943000D01*
X50663000Y-105243000D02*
X37263000Y-105243000D01*
X145663000Y-105243000D02*
X132263000Y-105243000D01*
X131963000Y-105543000D02*
X131963000Y-118943000D01*
X132263000Y-119243000D02*
X145663000Y-119243000D01*
X145963000Y-118943000D02*
X145963000Y-105543000D01*
X131963000Y-105543000D02*
G75*
G02X132263000Y-105243000I300000J0D01*
G01*
X145663000Y-105243000D02*
G75*
G02X145963000Y-105543000I0J-300000D01*
G01*
X145963000Y-118943000D02*
G75*
G02X145663000Y-119243000I-300000J0D01*
G01*
X132263000Y-119243000D02*
G75*
G02X131963000Y-118943000I0J300000D01*
G01*
X151263000Y-119243000D02*
G75*
G02X150963000Y-118943000I0J300000D01*
G01*
X164963000Y-118943000D02*
G75*
G02X164663000Y-119243000I-300000J0D01*
G01*
X164663000Y-105243000D02*
G75*
G02X164963000Y-105543000I0J-300000D01*
G01*
X150963000Y-105543000D02*
G75*
G02X151263000Y-105243000I300000J0D01*
G01*
X164963000Y-118943000D02*
X164963000Y-105543000D01*
X151263000Y-119243000D02*
X164663000Y-119243000D01*
X150963000Y-105543000D02*
X150963000Y-118943000D01*
X164663000Y-105243000D02*
X151263000Y-105243000D01*
X107663000Y-105243000D02*
X94263000Y-105243000D01*
X93963000Y-105543000D02*
X93963000Y-118943000D01*
X94263000Y-119243000D02*
X107663000Y-119243000D01*
X107963000Y-118943000D02*
X107963000Y-105543000D01*
X93963000Y-105543000D02*
G75*
G02X94263000Y-105243000I300000J0D01*
G01*
X107663000Y-105243000D02*
G75*
G02X107963000Y-105543000I0J-300000D01*
G01*
X107963000Y-118943000D02*
G75*
G02X107663000Y-119243000I-300000J0D01*
G01*
X94263000Y-119243000D02*
G75*
G02X93963000Y-118943000I0J300000D01*
G01*
X221663000Y-105243000D02*
X208263000Y-105243000D01*
X207963000Y-105543000D02*
X207963000Y-118943000D01*
X208263000Y-119243000D02*
X221663000Y-119243000D01*
X221963000Y-118943000D02*
X221963000Y-105543000D01*
X207963000Y-105543000D02*
G75*
G02X208263000Y-105243000I300000J0D01*
G01*
X221663000Y-105243000D02*
G75*
G02X221963000Y-105543000I0J-300000D01*
G01*
X221963000Y-118943000D02*
G75*
G02X221663000Y-119243000I-300000J0D01*
G01*
X208263000Y-119243000D02*
G75*
G02X207963000Y-118943000I0J300000D01*
G01*
X113263000Y-119243000D02*
G75*
G02X112963000Y-118943000I0J300000D01*
G01*
X126963000Y-118943000D02*
G75*
G02X126663000Y-119243000I-300000J0D01*
G01*
X126663000Y-105243000D02*
G75*
G02X126963000Y-105543000I0J-300000D01*
G01*
X112963000Y-105543000D02*
G75*
G02X113263000Y-105243000I300000J0D01*
G01*
X126963000Y-118943000D02*
X126963000Y-105543000D01*
X113263000Y-119243000D02*
X126663000Y-119243000D01*
X112963000Y-105543000D02*
X112963000Y-118943000D01*
X126663000Y-105243000D02*
X113263000Y-105243000D01*
X126663000Y-67243000D02*
X113263000Y-67243000D01*
X112963000Y-67543000D02*
X112963000Y-80943000D01*
X113263000Y-81243000D02*
X126663000Y-81243000D01*
X126963000Y-80943000D02*
X126963000Y-67543000D01*
X112963000Y-67543000D02*
G75*
G02X113263000Y-67243000I300000J0D01*
G01*
X126663000Y-67243000D02*
G75*
G02X126963000Y-67543000I0J-300000D01*
G01*
X126963000Y-80943000D02*
G75*
G02X126663000Y-81243000I-300000J0D01*
G01*
X113263000Y-81243000D02*
G75*
G02X112963000Y-80943000I0J300000D01*
G01*
X164663000Y-67243000D02*
X151263000Y-67243000D01*
X150963000Y-67543000D02*
X150963000Y-80943000D01*
X151263000Y-81243000D02*
X164663000Y-81243000D01*
X164963000Y-80943000D02*
X164963000Y-67543000D01*
X150963000Y-67543000D02*
G75*
G02X151263000Y-67243000I300000J0D01*
G01*
X164663000Y-67243000D02*
G75*
G02X164963000Y-67543000I0J-300000D01*
G01*
X164963000Y-80943000D02*
G75*
G02X164663000Y-81243000I-300000J0D01*
G01*
X151263000Y-81243000D02*
G75*
G02X150963000Y-80943000I0J300000D01*
G01*
X132263000Y-81243000D02*
G75*
G02X131963000Y-80943000I0J300000D01*
G01*
X145963000Y-80943000D02*
G75*
G02X145663000Y-81243000I-300000J0D01*
G01*
X145663000Y-67243000D02*
G75*
G02X145963000Y-67543000I0J-300000D01*
G01*
X131963000Y-67543000D02*
G75*
G02X132263000Y-67243000I300000J0D01*
G01*
X145963000Y-80943000D02*
X145963000Y-67543000D01*
X132263000Y-81243000D02*
X145663000Y-81243000D01*
X131963000Y-67543000D02*
X131963000Y-80943000D01*
X145663000Y-67243000D02*
X132263000Y-67243000D01*
X94263000Y-81243000D02*
G75*
G02X93963000Y-80943000I0J300000D01*
G01*
X107963000Y-80943000D02*
G75*
G02X107663000Y-81243000I-300000J0D01*
G01*
X107663000Y-67243000D02*
G75*
G02X107963000Y-67543000I0J-300000D01*
G01*
X93963000Y-67543000D02*
G75*
G02X94263000Y-67243000I300000J0D01*
G01*
X107963000Y-80943000D02*
X107963000Y-67543000D01*
X94263000Y-81243000D02*
X107663000Y-81243000D01*
X93963000Y-67543000D02*
X93963000Y-80943000D01*
X107663000Y-67243000D02*
X94263000Y-67243000D01*
X202663000Y-67243000D02*
X189263000Y-67243000D01*
X188963000Y-67543000D02*
X188963000Y-80943000D01*
X189263000Y-81243000D02*
X202663000Y-81243000D01*
X202963000Y-80943000D02*
X202963000Y-67543000D01*
X188963000Y-67543000D02*
G75*
G02X189263000Y-67243000I300000J0D01*
G01*
X202663000Y-67243000D02*
G75*
G02X202963000Y-67543000I0J-300000D01*
G01*
X202963000Y-80943000D02*
G75*
G02X202663000Y-81243000I-300000J0D01*
G01*
X189263000Y-81243000D02*
G75*
G02X188963000Y-80943000I0J300000D01*
G01*
X170263000Y-81243000D02*
G75*
G02X169963000Y-80943000I0J300000D01*
G01*
X183963000Y-80943000D02*
G75*
G02X183663000Y-81243000I-300000J0D01*
G01*
X183663000Y-67243000D02*
G75*
G02X183963000Y-67543000I0J-300000D01*
G01*
X169963000Y-67543000D02*
G75*
G02X170263000Y-67243000I300000J0D01*
G01*
X183963000Y-80943000D02*
X183963000Y-67543000D01*
X170263000Y-81243000D02*
X183663000Y-81243000D01*
X169963000Y-67543000D02*
X169963000Y-80943000D01*
X183663000Y-67243000D02*
X170263000Y-67243000D01*
X246263000Y-81243000D02*
G75*
G02X245963000Y-80943000I0J300000D01*
G01*
X259963000Y-80943000D02*
G75*
G02X259663000Y-81243000I-300000J0D01*
G01*
X259663000Y-67243000D02*
G75*
G02X259963000Y-67543000I0J-300000D01*
G01*
X245963000Y-67543000D02*
G75*
G02X246263000Y-67243000I300000J0D01*
G01*
X259963000Y-80943000D02*
X259963000Y-67543000D01*
X246263000Y-81243000D02*
X259663000Y-81243000D01*
X245963000Y-67543000D02*
X245963000Y-80943000D01*
X259663000Y-67243000D02*
X246263000Y-67243000D01*
X88663000Y-67243000D02*
X75263000Y-67243000D01*
X74963000Y-67543000D02*
X74963000Y-80943000D01*
X75263000Y-81243000D02*
X88663000Y-81243000D01*
X88963000Y-80943000D02*
X88963000Y-67543000D01*
X74963000Y-67543000D02*
G75*
G02X75263000Y-67243000I300000J0D01*
G01*
X88663000Y-67243000D02*
G75*
G02X88963000Y-67543000I0J-300000D01*
G01*
X88963000Y-80943000D02*
G75*
G02X88663000Y-81243000I-300000J0D01*
G01*
X75263000Y-81243000D02*
G75*
G02X74963000Y-80943000I0J300000D01*
G01*
X56263000Y-81243000D02*
G75*
G02X55963000Y-80943000I0J300000D01*
G01*
X69963000Y-80943000D02*
G75*
G02X69663000Y-81243000I-300000J0D01*
G01*
X69663000Y-67243000D02*
G75*
G02X69963000Y-67543000I0J-300000D01*
G01*
X55963000Y-67543000D02*
G75*
G02X56263000Y-67243000I300000J0D01*
G01*
X69963000Y-80943000D02*
X69963000Y-67543000D01*
X56263000Y-81243000D02*
X69663000Y-81243000D01*
X55963000Y-67543000D02*
X55963000Y-80943000D01*
X69663000Y-67243000D02*
X56263000Y-67243000D01*
X208263000Y-81243000D02*
G75*
G02X207963000Y-80943000I0J300000D01*
G01*
X221963000Y-80943000D02*
G75*
G02X221663000Y-81243000I-300000J0D01*
G01*
X221663000Y-67243000D02*
G75*
G02X221963000Y-67543000I0J-300000D01*
G01*
X207963000Y-67543000D02*
G75*
G02X208263000Y-67243000I300000J0D01*
G01*
X221963000Y-80943000D02*
X221963000Y-67543000D01*
X208263000Y-81243000D02*
X221663000Y-81243000D01*
X207963000Y-67543000D02*
X207963000Y-80943000D01*
X221663000Y-67243000D02*
X208263000Y-67243000D01*
X50663000Y-67243000D02*
X37263000Y-67243000D01*
X36963000Y-67543000D02*
X36963000Y-80943000D01*
X37263000Y-81243000D02*
X50663000Y-81243000D01*
X50963000Y-80943000D02*
X50963000Y-67543000D01*
X36963000Y-67543000D02*
G75*
G02X37263000Y-67243000I300000J0D01*
G01*
X50663000Y-67243000D02*
G75*
G02X50963000Y-67543000I0J-300000D01*
G01*
X50963000Y-80943000D02*
G75*
G02X50663000Y-81243000I-300000J0D01*
G01*
X37263000Y-81243000D02*
G75*
G02X36963000Y-80943000I0J300000D01*
G01*
X259663000Y-86243000D02*
X246263000Y-86243000D01*
X245963000Y-86543000D02*
X245963000Y-99943000D01*
X246263000Y-100243000D02*
X259663000Y-100243000D01*
X259963000Y-99943000D02*
X259963000Y-86543000D01*
X245963000Y-86543000D02*
G75*
G02X246263000Y-86243000I300000J0D01*
G01*
X259663000Y-86243000D02*
G75*
G02X259963000Y-86543000I0J-300000D01*
G01*
X259963000Y-99943000D02*
G75*
G02X259663000Y-100243000I-300000J0D01*
G01*
X246263000Y-100243000D02*
G75*
G02X245963000Y-99943000I0J300000D01*
G01*
X227263000Y-100243000D02*
G75*
G02X226963000Y-99943000I0J300000D01*
G01*
X240963000Y-99943000D02*
G75*
G02X240663000Y-100243000I-300000J0D01*
G01*
X240663000Y-86243000D02*
G75*
G02X240963000Y-86543000I0J-300000D01*
G01*
X226963000Y-86543000D02*
G75*
G02X227263000Y-86243000I300000J0D01*
G01*
X240963000Y-99943000D02*
X240963000Y-86543000D01*
X227263000Y-100243000D02*
X240663000Y-100243000D01*
X226963000Y-86543000D02*
X226963000Y-99943000D01*
X240663000Y-86243000D02*
X227263000Y-86243000D01*
X221663000Y-86243000D02*
X208263000Y-86243000D01*
X207963000Y-86543000D02*
X207963000Y-99943000D01*
X208263000Y-100243000D02*
X221663000Y-100243000D01*
X221963000Y-99943000D02*
X221963000Y-86543000D01*
X207963000Y-86543000D02*
G75*
G02X208263000Y-86243000I300000J0D01*
G01*
X221663000Y-86243000D02*
G75*
G02X221963000Y-86543000I0J-300000D01*
G01*
X221963000Y-99943000D02*
G75*
G02X221663000Y-100243000I-300000J0D01*
G01*
X208263000Y-100243000D02*
G75*
G02X207963000Y-99943000I0J300000D01*
G01*
X189263000Y-100243000D02*
G75*
G02X188963000Y-99943000I0J300000D01*
G01*
X202963000Y-99943000D02*
G75*
G02X202663000Y-100243000I-300000J0D01*
G01*
X202663000Y-86243000D02*
G75*
G02X202963000Y-86543000I0J-300000D01*
G01*
X188963000Y-86543000D02*
G75*
G02X189263000Y-86243000I300000J0D01*
G01*
X202963000Y-99943000D02*
X202963000Y-86543000D01*
X189263000Y-100243000D02*
X202663000Y-100243000D01*
X188963000Y-86543000D02*
X188963000Y-99943000D01*
X202663000Y-86243000D02*
X189263000Y-86243000D01*
X183663000Y-86243000D02*
X170263000Y-86243000D01*
X169963000Y-86543000D02*
X169963000Y-99943000D01*
X170263000Y-100243000D02*
X183663000Y-100243000D01*
X183963000Y-99943000D02*
X183963000Y-86543000D01*
X169963000Y-86543000D02*
G75*
G02X170263000Y-86243000I300000J0D01*
G01*
X183663000Y-86243000D02*
G75*
G02X183963000Y-86543000I0J-300000D01*
G01*
X183963000Y-99943000D02*
G75*
G02X183663000Y-100243000I-300000J0D01*
G01*
X170263000Y-100243000D02*
G75*
G02X169963000Y-99943000I0J300000D01*
G01*
X37263000Y-100243000D02*
G75*
G02X36963000Y-99943000I0J300000D01*
G01*
X50963000Y-99943000D02*
G75*
G02X50663000Y-100243000I-300000J0D01*
G01*
X50663000Y-86243000D02*
G75*
G02X50963000Y-86543000I0J-300000D01*
G01*
X36963000Y-86543000D02*
G75*
G02X37263000Y-86243000I300000J0D01*
G01*
X50963000Y-99943000D02*
X50963000Y-86543000D01*
X37263000Y-100243000D02*
X50663000Y-100243000D01*
X36963000Y-86543000D02*
X36963000Y-99943000D01*
X50663000Y-86243000D02*
X37263000Y-86243000D01*
X69663000Y-86243000D02*
X56263000Y-86243000D01*
X55963000Y-86543000D02*
X55963000Y-99943000D01*
X56263000Y-100243000D02*
X69663000Y-100243000D01*
X69963000Y-99943000D02*
X69963000Y-86543000D01*
X55963000Y-86543000D02*
G75*
G02X56263000Y-86243000I300000J0D01*
G01*
X69663000Y-86243000D02*
G75*
G02X69963000Y-86543000I0J-300000D01*
G01*
X69963000Y-99943000D02*
G75*
G02X69663000Y-100243000I-300000J0D01*
G01*
X56263000Y-100243000D02*
G75*
G02X55963000Y-99943000I0J300000D01*
G01*
X75263000Y-100243000D02*
G75*
G02X74963000Y-99943000I0J300000D01*
G01*
X88963000Y-99943000D02*
G75*
G02X88663000Y-100243000I-300000J0D01*
G01*
X88663000Y-86243000D02*
G75*
G02X88963000Y-86543000I0J-300000D01*
G01*
X74963000Y-86543000D02*
G75*
G02X75263000Y-86243000I300000J0D01*
G01*
X88963000Y-99943000D02*
X88963000Y-86543000D01*
X75263000Y-100243000D02*
X88663000Y-100243000D01*
X74963000Y-86543000D02*
X74963000Y-99943000D01*
X88663000Y-86243000D02*
X75263000Y-86243000D01*
X107663000Y-86243000D02*
X94263000Y-86243000D01*
X93963000Y-86543000D02*
X93963000Y-99943000D01*
X94263000Y-100243000D02*
X107663000Y-100243000D01*
X107963000Y-99943000D02*
X107963000Y-86543000D01*
X93963000Y-86543000D02*
G75*
G02X94263000Y-86243000I300000J0D01*
G01*
X107663000Y-86243000D02*
G75*
G02X107963000Y-86543000I0J-300000D01*
G01*
X107963000Y-99943000D02*
G75*
G02X107663000Y-100243000I-300000J0D01*
G01*
X94263000Y-100243000D02*
G75*
G02X93963000Y-99943000I0J300000D01*
G01*
X113263000Y-100243000D02*
G75*
G02X112963000Y-99943000I0J300000D01*
G01*
X126963000Y-99943000D02*
G75*
G02X126663000Y-100243000I-300000J0D01*
G01*
X126663000Y-86243000D02*
G75*
G02X126963000Y-86543000I0J-300000D01*
G01*
X112963000Y-86543000D02*
G75*
G02X113263000Y-86243000I300000J0D01*
G01*
X126963000Y-99943000D02*
X126963000Y-86543000D01*
X113263000Y-100243000D02*
X126663000Y-100243000D01*
X112963000Y-86543000D02*
X112963000Y-99943000D01*
X126663000Y-86243000D02*
X113263000Y-86243000D01*
X145663000Y-86243000D02*
X132263000Y-86243000D01*
X131963000Y-86543000D02*
X131963000Y-99943000D01*
X132263000Y-100243000D02*
X145663000Y-100243000D01*
X145963000Y-99943000D02*
X145963000Y-86543000D01*
X131963000Y-86543000D02*
G75*
G02X132263000Y-86243000I300000J0D01*
G01*
X145663000Y-86243000D02*
G75*
G02X145963000Y-86543000I0J-300000D01*
G01*
X145963000Y-99943000D02*
G75*
G02X145663000Y-100243000I-300000J0D01*
G01*
X132263000Y-100243000D02*
G75*
G02X131963000Y-99943000I0J300000D01*
G01*
X151263000Y-100243000D02*
G75*
G02X150963000Y-99943000I0J300000D01*
G01*
X164963000Y-99943000D02*
G75*
G02X164663000Y-100243000I-300000J0D01*
G01*
X164663000Y-86243000D02*
G75*
G02X164963000Y-86543000I0J-300000D01*
G01*
X150963000Y-86543000D02*
G75*
G02X151263000Y-86243000I300000J0D01*
G01*
X164963000Y-99943000D02*
X164963000Y-86543000D01*
X151263000Y-100243000D02*
X164663000Y-100243000D01*
X150963000Y-86543000D02*
X150963000Y-99943000D01*
X164663000Y-86243000D02*
X151263000Y-86243000D01*
X113263000Y-138243000D02*
G75*
G02X112963000Y-137943000I0J300000D01*
G01*
X112963000Y-124543000D02*
X112963000Y-137943000D01*
X112963000Y-124543000D02*
G75*
G02X113263000Y-124243000I300000J0D01*
G01*
X145963000Y-137943000D02*
G75*
G02X145663000Y-138243000I-300000J0D01*
G01*
X145663000Y-124243000D02*
G75*
G02X145963000Y-124543000I0J-300000D01*
G01*
X145963000Y-137943000D02*
X145963000Y-124543000D01*
X113263000Y-138243000D02*
X145663000Y-138243000D01*
X145663000Y-124243000D02*
X113263000Y-124243000D01*
G04 #@! TD*
G04 #@! TO.C,REF\002A\002A*
D10*
X166129666Y-132195380D02*
X165796333Y-131719190D01*
X165558238Y-132195380D02*
X165558238Y-131195380D01*
X165939190Y-131195380D01*
X166034428Y-131243000D01*
X166082047Y-131290619D01*
X166129666Y-131385857D01*
X166129666Y-131528714D01*
X166082047Y-131623952D01*
X166034428Y-131671571D01*
X165939190Y-131719190D01*
X165558238Y-131719190D01*
X166558238Y-131671571D02*
X166891571Y-131671571D01*
X167034428Y-132195380D02*
X166558238Y-132195380D01*
X166558238Y-131195380D01*
X167034428Y-131195380D01*
X167796333Y-131671571D02*
X167463000Y-131671571D01*
X167463000Y-132195380D02*
X167463000Y-131195380D01*
X167939190Y-131195380D01*
X168463000Y-131195380D02*
X168463000Y-131433476D01*
X168224904Y-131338238D02*
X168463000Y-131433476D01*
X168701095Y-131338238D01*
X168320142Y-131623952D02*
X168463000Y-131433476D01*
X168605857Y-131623952D01*
X169224904Y-131195380D02*
X169224904Y-131433476D01*
X168986809Y-131338238D02*
X169224904Y-131433476D01*
X169463000Y-131338238D01*
X169082047Y-131623952D02*
X169224904Y-131433476D01*
X169367761Y-131623952D01*
X232629666Y-132195380D02*
X232296333Y-131719190D01*
X232058238Y-132195380D02*
X232058238Y-131195380D01*
X232439190Y-131195380D01*
X232534428Y-131243000D01*
X232582047Y-131290619D01*
X232629666Y-131385857D01*
X232629666Y-131528714D01*
X232582047Y-131623952D01*
X232534428Y-131671571D01*
X232439190Y-131719190D01*
X232058238Y-131719190D01*
X233058238Y-131671571D02*
X233391571Y-131671571D01*
X233534428Y-132195380D02*
X233058238Y-132195380D01*
X233058238Y-131195380D01*
X233534428Y-131195380D01*
X234296333Y-131671571D02*
X233963000Y-131671571D01*
X233963000Y-132195380D02*
X233963000Y-131195380D01*
X234439190Y-131195380D01*
X234963000Y-131195380D02*
X234963000Y-131433476D01*
X234724904Y-131338238D02*
X234963000Y-131433476D01*
X235201095Y-131338238D01*
X234820142Y-131623952D02*
X234963000Y-131433476D01*
X235105857Y-131623952D01*
X235724904Y-131195380D02*
X235724904Y-131433476D01*
X235486809Y-131338238D02*
X235724904Y-131433476D01*
X235963000Y-131338238D01*
X235582047Y-131623952D02*
X235724904Y-131433476D01*
X235867761Y-131623952D01*
X232629666Y-113195380D02*
X232296333Y-112719190D01*
X232058238Y-113195380D02*
X232058238Y-112195380D01*
X232439190Y-112195380D01*
X232534428Y-112243000D01*
X232582047Y-112290619D01*
X232629666Y-112385857D01*
X232629666Y-112528714D01*
X232582047Y-112623952D01*
X232534428Y-112671571D01*
X232439190Y-112719190D01*
X232058238Y-112719190D01*
X233058238Y-112671571D02*
X233391571Y-112671571D01*
X233534428Y-113195380D02*
X233058238Y-113195380D01*
X233058238Y-112195380D01*
X233534428Y-112195380D01*
X234296333Y-112671571D02*
X233963000Y-112671571D01*
X233963000Y-113195380D02*
X233963000Y-112195380D01*
X234439190Y-112195380D01*
X234963000Y-112195380D02*
X234963000Y-112433476D01*
X234724904Y-112338238D02*
X234963000Y-112433476D01*
X235201095Y-112338238D01*
X234820142Y-112623952D02*
X234963000Y-112433476D01*
X235105857Y-112623952D01*
X235724904Y-112195380D02*
X235724904Y-112433476D01*
X235486809Y-112338238D02*
X235724904Y-112433476D01*
X235963000Y-112338238D01*
X235582047Y-112623952D02*
X235724904Y-112433476D01*
X235867761Y-112623952D01*
X232629666Y-75195380D02*
X232296333Y-74719190D01*
X232058238Y-75195380D02*
X232058238Y-74195380D01*
X232439190Y-74195380D01*
X232534428Y-74243000D01*
X232582047Y-74290619D01*
X232629666Y-74385857D01*
X232629666Y-74528714D01*
X232582047Y-74623952D01*
X232534428Y-74671571D01*
X232439190Y-74719190D01*
X232058238Y-74719190D01*
X233058238Y-74671571D02*
X233391571Y-74671571D01*
X233534428Y-75195380D02*
X233058238Y-75195380D01*
X233058238Y-74195380D01*
X233534428Y-74195380D01*
X234296333Y-74671571D02*
X233963000Y-74671571D01*
X233963000Y-75195380D02*
X233963000Y-74195380D01*
X234439190Y-74195380D01*
X234963000Y-74195380D02*
X234963000Y-74433476D01*
X234724904Y-74338238D02*
X234963000Y-74433476D01*
X235201095Y-74338238D01*
X234820142Y-74623952D02*
X234963000Y-74433476D01*
X235105857Y-74623952D01*
X235724904Y-74195380D02*
X235724904Y-74433476D01*
X235486809Y-74338238D02*
X235724904Y-74433476D01*
X235963000Y-74338238D01*
X235582047Y-74623952D02*
X235724904Y-74433476D01*
X235867761Y-74623952D01*
X80629666Y-132195380D02*
X80296333Y-131719190D01*
X80058238Y-132195380D02*
X80058238Y-131195380D01*
X80439190Y-131195380D01*
X80534428Y-131243000D01*
X80582047Y-131290619D01*
X80629666Y-131385857D01*
X80629666Y-131528714D01*
X80582047Y-131623952D01*
X80534428Y-131671571D01*
X80439190Y-131719190D01*
X80058238Y-131719190D01*
X81058238Y-131671571D02*
X81391571Y-131671571D01*
X81534428Y-132195380D02*
X81058238Y-132195380D01*
X81058238Y-131195380D01*
X81534428Y-131195380D01*
X82296333Y-131671571D02*
X81963000Y-131671571D01*
X81963000Y-132195380D02*
X81963000Y-131195380D01*
X82439190Y-131195380D01*
X82963000Y-131195380D02*
X82963000Y-131433476D01*
X82724904Y-131338238D02*
X82963000Y-131433476D01*
X83201095Y-131338238D01*
X82820142Y-131623952D02*
X82963000Y-131433476D01*
X83105857Y-131623952D01*
X83724904Y-131195380D02*
X83724904Y-131433476D01*
X83486809Y-131338238D02*
X83724904Y-131433476D01*
X83963000Y-131338238D01*
X83582047Y-131623952D02*
X83724904Y-131433476D01*
X83867761Y-131623952D01*
X251629666Y-132195380D02*
X251296333Y-131719190D01*
X251058238Y-132195380D02*
X251058238Y-131195380D01*
X251439190Y-131195380D01*
X251534428Y-131243000D01*
X251582047Y-131290619D01*
X251629666Y-131385857D01*
X251629666Y-131528714D01*
X251582047Y-131623952D01*
X251534428Y-131671571D01*
X251439190Y-131719190D01*
X251058238Y-131719190D01*
X252058238Y-131671571D02*
X252391571Y-131671571D01*
X252534428Y-132195380D02*
X252058238Y-132195380D01*
X252058238Y-131195380D01*
X252534428Y-131195380D01*
X253296333Y-131671571D02*
X252963000Y-131671571D01*
X252963000Y-132195380D02*
X252963000Y-131195380D01*
X253439190Y-131195380D01*
X253963000Y-131195380D02*
X253963000Y-131433476D01*
X253724904Y-131338238D02*
X253963000Y-131433476D01*
X254201095Y-131338238D01*
X253820142Y-131623952D02*
X253963000Y-131433476D01*
X254105857Y-131623952D01*
X254724904Y-131195380D02*
X254724904Y-131433476D01*
X254486809Y-131338238D02*
X254724904Y-131433476D01*
X254963000Y-131338238D01*
X254582047Y-131623952D02*
X254724904Y-131433476D01*
X254867761Y-131623952D01*
X194629666Y-132195380D02*
X194296333Y-131719190D01*
X194058238Y-132195380D02*
X194058238Y-131195380D01*
X194439190Y-131195380D01*
X194534428Y-131243000D01*
X194582047Y-131290619D01*
X194629666Y-131385857D01*
X194629666Y-131528714D01*
X194582047Y-131623952D01*
X194534428Y-131671571D01*
X194439190Y-131719190D01*
X194058238Y-131719190D01*
X195058238Y-131671571D02*
X195391571Y-131671571D01*
X195534428Y-132195380D02*
X195058238Y-132195380D01*
X195058238Y-131195380D01*
X195534428Y-131195380D01*
X196296333Y-131671571D02*
X195963000Y-131671571D01*
X195963000Y-132195380D02*
X195963000Y-131195380D01*
X196439190Y-131195380D01*
X196963000Y-131195380D02*
X196963000Y-131433476D01*
X196724904Y-131338238D02*
X196963000Y-131433476D01*
X197201095Y-131338238D01*
X196820142Y-131623952D02*
X196963000Y-131433476D01*
X197105857Y-131623952D01*
X197724904Y-131195380D02*
X197724904Y-131433476D01*
X197486809Y-131338238D02*
X197724904Y-131433476D01*
X197963000Y-131338238D01*
X197582047Y-131623952D02*
X197724904Y-131433476D01*
X197867761Y-131623952D01*
X99629666Y-132195380D02*
X99296333Y-131719190D01*
X99058238Y-132195380D02*
X99058238Y-131195380D01*
X99439190Y-131195380D01*
X99534428Y-131243000D01*
X99582047Y-131290619D01*
X99629666Y-131385857D01*
X99629666Y-131528714D01*
X99582047Y-131623952D01*
X99534428Y-131671571D01*
X99439190Y-131719190D01*
X99058238Y-131719190D01*
X100058238Y-131671571D02*
X100391571Y-131671571D01*
X100534428Y-132195380D02*
X100058238Y-132195380D01*
X100058238Y-131195380D01*
X100534428Y-131195380D01*
X101296333Y-131671571D02*
X100963000Y-131671571D01*
X100963000Y-132195380D02*
X100963000Y-131195380D01*
X101439190Y-131195380D01*
X101963000Y-131195380D02*
X101963000Y-131433476D01*
X101724904Y-131338238D02*
X101963000Y-131433476D01*
X102201095Y-131338238D01*
X101820142Y-131623952D02*
X101963000Y-131433476D01*
X102105857Y-131623952D01*
X102724904Y-131195380D02*
X102724904Y-131433476D01*
X102486809Y-131338238D02*
X102724904Y-131433476D01*
X102963000Y-131338238D01*
X102582047Y-131623952D02*
X102724904Y-131433476D01*
X102867761Y-131623952D01*
X213629666Y-132195380D02*
X213296333Y-131719190D01*
X213058238Y-132195380D02*
X213058238Y-131195380D01*
X213439190Y-131195380D01*
X213534428Y-131243000D01*
X213582047Y-131290619D01*
X213629666Y-131385857D01*
X213629666Y-131528714D01*
X213582047Y-131623952D01*
X213534428Y-131671571D01*
X213439190Y-131719190D01*
X213058238Y-131719190D01*
X214058238Y-131671571D02*
X214391571Y-131671571D01*
X214534428Y-132195380D02*
X214058238Y-132195380D01*
X214058238Y-131195380D01*
X214534428Y-131195380D01*
X215296333Y-131671571D02*
X214963000Y-131671571D01*
X214963000Y-132195380D02*
X214963000Y-131195380D01*
X215439190Y-131195380D01*
X215963000Y-131195380D02*
X215963000Y-131433476D01*
X215724904Y-131338238D02*
X215963000Y-131433476D01*
X216201095Y-131338238D01*
X215820142Y-131623952D02*
X215963000Y-131433476D01*
X216105857Y-131623952D01*
X216724904Y-131195380D02*
X216724904Y-131433476D01*
X216486809Y-131338238D02*
X216724904Y-131433476D01*
X216963000Y-131338238D01*
X216582047Y-131623952D02*
X216724904Y-131433476D01*
X216867761Y-131623952D01*
X61629666Y-132195380D02*
X61296333Y-131719190D01*
X61058238Y-132195380D02*
X61058238Y-131195380D01*
X61439190Y-131195380D01*
X61534428Y-131243000D01*
X61582047Y-131290619D01*
X61629666Y-131385857D01*
X61629666Y-131528714D01*
X61582047Y-131623952D01*
X61534428Y-131671571D01*
X61439190Y-131719190D01*
X61058238Y-131719190D01*
X62058238Y-131671571D02*
X62391571Y-131671571D01*
X62534428Y-132195380D02*
X62058238Y-132195380D01*
X62058238Y-131195380D01*
X62534428Y-131195380D01*
X63296333Y-131671571D02*
X62963000Y-131671571D01*
X62963000Y-132195380D02*
X62963000Y-131195380D01*
X63439190Y-131195380D01*
X63963000Y-131195380D02*
X63963000Y-131433476D01*
X63724904Y-131338238D02*
X63963000Y-131433476D01*
X64201095Y-131338238D01*
X63820142Y-131623952D02*
X63963000Y-131433476D01*
X64105857Y-131623952D01*
X64724904Y-131195380D02*
X64724904Y-131433476D01*
X64486809Y-131338238D02*
X64724904Y-131433476D01*
X64963000Y-131338238D01*
X64582047Y-131623952D02*
X64724904Y-131433476D01*
X64867761Y-131623952D01*
X42629666Y-132195380D02*
X42296333Y-131719190D01*
X42058238Y-132195380D02*
X42058238Y-131195380D01*
X42439190Y-131195380D01*
X42534428Y-131243000D01*
X42582047Y-131290619D01*
X42629666Y-131385857D01*
X42629666Y-131528714D01*
X42582047Y-131623952D01*
X42534428Y-131671571D01*
X42439190Y-131719190D01*
X42058238Y-131719190D01*
X43058238Y-131671571D02*
X43391571Y-131671571D01*
X43534428Y-132195380D02*
X43058238Y-132195380D01*
X43058238Y-131195380D01*
X43534428Y-131195380D01*
X44296333Y-131671571D02*
X43963000Y-131671571D01*
X43963000Y-132195380D02*
X43963000Y-131195380D01*
X44439190Y-131195380D01*
X44963000Y-131195380D02*
X44963000Y-131433476D01*
X44724904Y-131338238D02*
X44963000Y-131433476D01*
X45201095Y-131338238D01*
X44820142Y-131623952D02*
X44963000Y-131433476D01*
X45105857Y-131623952D01*
X45724904Y-131195380D02*
X45724904Y-131433476D01*
X45486809Y-131338238D02*
X45724904Y-131433476D01*
X45963000Y-131338238D01*
X45582047Y-131623952D02*
X45724904Y-131433476D01*
X45867761Y-131623952D01*
X194629666Y-113195380D02*
X194296333Y-112719190D01*
X194058238Y-113195380D02*
X194058238Y-112195380D01*
X194439190Y-112195380D01*
X194534428Y-112243000D01*
X194582047Y-112290619D01*
X194629666Y-112385857D01*
X194629666Y-112528714D01*
X194582047Y-112623952D01*
X194534428Y-112671571D01*
X194439190Y-112719190D01*
X194058238Y-112719190D01*
X195058238Y-112671571D02*
X195391571Y-112671571D01*
X195534428Y-113195380D02*
X195058238Y-113195380D01*
X195058238Y-112195380D01*
X195534428Y-112195380D01*
X196296333Y-112671571D02*
X195963000Y-112671571D01*
X195963000Y-113195380D02*
X195963000Y-112195380D01*
X196439190Y-112195380D01*
X196963000Y-112195380D02*
X196963000Y-112433476D01*
X196724904Y-112338238D02*
X196963000Y-112433476D01*
X197201095Y-112338238D01*
X196820142Y-112623952D02*
X196963000Y-112433476D01*
X197105857Y-112623952D01*
X197724904Y-112195380D02*
X197724904Y-112433476D01*
X197486809Y-112338238D02*
X197724904Y-112433476D01*
X197963000Y-112338238D01*
X197582047Y-112623952D02*
X197724904Y-112433476D01*
X197867761Y-112623952D01*
X251629666Y-113195380D02*
X251296333Y-112719190D01*
X251058238Y-113195380D02*
X251058238Y-112195380D01*
X251439190Y-112195380D01*
X251534428Y-112243000D01*
X251582047Y-112290619D01*
X251629666Y-112385857D01*
X251629666Y-112528714D01*
X251582047Y-112623952D01*
X251534428Y-112671571D01*
X251439190Y-112719190D01*
X251058238Y-112719190D01*
X252058238Y-112671571D02*
X252391571Y-112671571D01*
X252534428Y-113195380D02*
X252058238Y-113195380D01*
X252058238Y-112195380D01*
X252534428Y-112195380D01*
X253296333Y-112671571D02*
X252963000Y-112671571D01*
X252963000Y-113195380D02*
X252963000Y-112195380D01*
X253439190Y-112195380D01*
X253963000Y-112195380D02*
X253963000Y-112433476D01*
X253724904Y-112338238D02*
X253963000Y-112433476D01*
X254201095Y-112338238D01*
X253820142Y-112623952D02*
X253963000Y-112433476D01*
X254105857Y-112623952D01*
X254724904Y-112195380D02*
X254724904Y-112433476D01*
X254486809Y-112338238D02*
X254724904Y-112433476D01*
X254963000Y-112338238D01*
X254582047Y-112623952D02*
X254724904Y-112433476D01*
X254867761Y-112623952D01*
X80629666Y-113195380D02*
X80296333Y-112719190D01*
X80058238Y-113195380D02*
X80058238Y-112195380D01*
X80439190Y-112195380D01*
X80534428Y-112243000D01*
X80582047Y-112290619D01*
X80629666Y-112385857D01*
X80629666Y-112528714D01*
X80582047Y-112623952D01*
X80534428Y-112671571D01*
X80439190Y-112719190D01*
X80058238Y-112719190D01*
X81058238Y-112671571D02*
X81391571Y-112671571D01*
X81534428Y-113195380D02*
X81058238Y-113195380D01*
X81058238Y-112195380D01*
X81534428Y-112195380D01*
X82296333Y-112671571D02*
X81963000Y-112671571D01*
X81963000Y-113195380D02*
X81963000Y-112195380D01*
X82439190Y-112195380D01*
X82963000Y-112195380D02*
X82963000Y-112433476D01*
X82724904Y-112338238D02*
X82963000Y-112433476D01*
X83201095Y-112338238D01*
X82820142Y-112623952D02*
X82963000Y-112433476D01*
X83105857Y-112623952D01*
X83724904Y-112195380D02*
X83724904Y-112433476D01*
X83486809Y-112338238D02*
X83724904Y-112433476D01*
X83963000Y-112338238D01*
X83582047Y-112623952D02*
X83724904Y-112433476D01*
X83867761Y-112623952D01*
X175629666Y-113195380D02*
X175296333Y-112719190D01*
X175058238Y-113195380D02*
X175058238Y-112195380D01*
X175439190Y-112195380D01*
X175534428Y-112243000D01*
X175582047Y-112290619D01*
X175629666Y-112385857D01*
X175629666Y-112528714D01*
X175582047Y-112623952D01*
X175534428Y-112671571D01*
X175439190Y-112719190D01*
X175058238Y-112719190D01*
X176058238Y-112671571D02*
X176391571Y-112671571D01*
X176534428Y-113195380D02*
X176058238Y-113195380D01*
X176058238Y-112195380D01*
X176534428Y-112195380D01*
X177296333Y-112671571D02*
X176963000Y-112671571D01*
X176963000Y-113195380D02*
X176963000Y-112195380D01*
X177439190Y-112195380D01*
X177963000Y-112195380D02*
X177963000Y-112433476D01*
X177724904Y-112338238D02*
X177963000Y-112433476D01*
X178201095Y-112338238D01*
X177820142Y-112623952D02*
X177963000Y-112433476D01*
X178105857Y-112623952D01*
X178724904Y-112195380D02*
X178724904Y-112433476D01*
X178486809Y-112338238D02*
X178724904Y-112433476D01*
X178963000Y-112338238D01*
X178582047Y-112623952D02*
X178724904Y-112433476D01*
X178867761Y-112623952D01*
X61629666Y-113195380D02*
X61296333Y-112719190D01*
X61058238Y-113195380D02*
X61058238Y-112195380D01*
X61439190Y-112195380D01*
X61534428Y-112243000D01*
X61582047Y-112290619D01*
X61629666Y-112385857D01*
X61629666Y-112528714D01*
X61582047Y-112623952D01*
X61534428Y-112671571D01*
X61439190Y-112719190D01*
X61058238Y-112719190D01*
X62058238Y-112671571D02*
X62391571Y-112671571D01*
X62534428Y-113195380D02*
X62058238Y-113195380D01*
X62058238Y-112195380D01*
X62534428Y-112195380D01*
X63296333Y-112671571D02*
X62963000Y-112671571D01*
X62963000Y-113195380D02*
X62963000Y-112195380D01*
X63439190Y-112195380D01*
X63963000Y-112195380D02*
X63963000Y-112433476D01*
X63724904Y-112338238D02*
X63963000Y-112433476D01*
X64201095Y-112338238D01*
X63820142Y-112623952D02*
X63963000Y-112433476D01*
X64105857Y-112623952D01*
X64724904Y-112195380D02*
X64724904Y-112433476D01*
X64486809Y-112338238D02*
X64724904Y-112433476D01*
X64963000Y-112338238D01*
X64582047Y-112623952D02*
X64724904Y-112433476D01*
X64867761Y-112623952D01*
X42629666Y-113195380D02*
X42296333Y-112719190D01*
X42058238Y-113195380D02*
X42058238Y-112195380D01*
X42439190Y-112195380D01*
X42534428Y-112243000D01*
X42582047Y-112290619D01*
X42629666Y-112385857D01*
X42629666Y-112528714D01*
X42582047Y-112623952D01*
X42534428Y-112671571D01*
X42439190Y-112719190D01*
X42058238Y-112719190D01*
X43058238Y-112671571D02*
X43391571Y-112671571D01*
X43534428Y-113195380D02*
X43058238Y-113195380D01*
X43058238Y-112195380D01*
X43534428Y-112195380D01*
X44296333Y-112671571D02*
X43963000Y-112671571D01*
X43963000Y-113195380D02*
X43963000Y-112195380D01*
X44439190Y-112195380D01*
X44963000Y-112195380D02*
X44963000Y-112433476D01*
X44724904Y-112338238D02*
X44963000Y-112433476D01*
X45201095Y-112338238D01*
X44820142Y-112623952D02*
X44963000Y-112433476D01*
X45105857Y-112623952D01*
X45724904Y-112195380D02*
X45724904Y-112433476D01*
X45486809Y-112338238D02*
X45724904Y-112433476D01*
X45963000Y-112338238D01*
X45582047Y-112623952D02*
X45724904Y-112433476D01*
X45867761Y-112623952D01*
X137629666Y-113195380D02*
X137296333Y-112719190D01*
X137058238Y-113195380D02*
X137058238Y-112195380D01*
X137439190Y-112195380D01*
X137534428Y-112243000D01*
X137582047Y-112290619D01*
X137629666Y-112385857D01*
X137629666Y-112528714D01*
X137582047Y-112623952D01*
X137534428Y-112671571D01*
X137439190Y-112719190D01*
X137058238Y-112719190D01*
X138058238Y-112671571D02*
X138391571Y-112671571D01*
X138534428Y-113195380D02*
X138058238Y-113195380D01*
X138058238Y-112195380D01*
X138534428Y-112195380D01*
X139296333Y-112671571D02*
X138963000Y-112671571D01*
X138963000Y-113195380D02*
X138963000Y-112195380D01*
X139439190Y-112195380D01*
X139963000Y-112195380D02*
X139963000Y-112433476D01*
X139724904Y-112338238D02*
X139963000Y-112433476D01*
X140201095Y-112338238D01*
X139820142Y-112623952D02*
X139963000Y-112433476D01*
X140105857Y-112623952D01*
X140724904Y-112195380D02*
X140724904Y-112433476D01*
X140486809Y-112338238D02*
X140724904Y-112433476D01*
X140963000Y-112338238D01*
X140582047Y-112623952D02*
X140724904Y-112433476D01*
X140867761Y-112623952D01*
X156629666Y-113195380D02*
X156296333Y-112719190D01*
X156058238Y-113195380D02*
X156058238Y-112195380D01*
X156439190Y-112195380D01*
X156534428Y-112243000D01*
X156582047Y-112290619D01*
X156629666Y-112385857D01*
X156629666Y-112528714D01*
X156582047Y-112623952D01*
X156534428Y-112671571D01*
X156439190Y-112719190D01*
X156058238Y-112719190D01*
X157058238Y-112671571D02*
X157391571Y-112671571D01*
X157534428Y-113195380D02*
X157058238Y-113195380D01*
X157058238Y-112195380D01*
X157534428Y-112195380D01*
X158296333Y-112671571D02*
X157963000Y-112671571D01*
X157963000Y-113195380D02*
X157963000Y-112195380D01*
X158439190Y-112195380D01*
X158963000Y-112195380D02*
X158963000Y-112433476D01*
X158724904Y-112338238D02*
X158963000Y-112433476D01*
X159201095Y-112338238D01*
X158820142Y-112623952D02*
X158963000Y-112433476D01*
X159105857Y-112623952D01*
X159724904Y-112195380D02*
X159724904Y-112433476D01*
X159486809Y-112338238D02*
X159724904Y-112433476D01*
X159963000Y-112338238D01*
X159582047Y-112623952D02*
X159724904Y-112433476D01*
X159867761Y-112623952D01*
X99629666Y-113195380D02*
X99296333Y-112719190D01*
X99058238Y-113195380D02*
X99058238Y-112195380D01*
X99439190Y-112195380D01*
X99534428Y-112243000D01*
X99582047Y-112290619D01*
X99629666Y-112385857D01*
X99629666Y-112528714D01*
X99582047Y-112623952D01*
X99534428Y-112671571D01*
X99439190Y-112719190D01*
X99058238Y-112719190D01*
X100058238Y-112671571D02*
X100391571Y-112671571D01*
X100534428Y-113195380D02*
X100058238Y-113195380D01*
X100058238Y-112195380D01*
X100534428Y-112195380D01*
X101296333Y-112671571D02*
X100963000Y-112671571D01*
X100963000Y-113195380D02*
X100963000Y-112195380D01*
X101439190Y-112195380D01*
X101963000Y-112195380D02*
X101963000Y-112433476D01*
X101724904Y-112338238D02*
X101963000Y-112433476D01*
X102201095Y-112338238D01*
X101820142Y-112623952D02*
X101963000Y-112433476D01*
X102105857Y-112623952D01*
X102724904Y-112195380D02*
X102724904Y-112433476D01*
X102486809Y-112338238D02*
X102724904Y-112433476D01*
X102963000Y-112338238D01*
X102582047Y-112623952D02*
X102724904Y-112433476D01*
X102867761Y-112623952D01*
X213629666Y-113195380D02*
X213296333Y-112719190D01*
X213058238Y-113195380D02*
X213058238Y-112195380D01*
X213439190Y-112195380D01*
X213534428Y-112243000D01*
X213582047Y-112290619D01*
X213629666Y-112385857D01*
X213629666Y-112528714D01*
X213582047Y-112623952D01*
X213534428Y-112671571D01*
X213439190Y-112719190D01*
X213058238Y-112719190D01*
X214058238Y-112671571D02*
X214391571Y-112671571D01*
X214534428Y-113195380D02*
X214058238Y-113195380D01*
X214058238Y-112195380D01*
X214534428Y-112195380D01*
X215296333Y-112671571D02*
X214963000Y-112671571D01*
X214963000Y-113195380D02*
X214963000Y-112195380D01*
X215439190Y-112195380D01*
X215963000Y-112195380D02*
X215963000Y-112433476D01*
X215724904Y-112338238D02*
X215963000Y-112433476D01*
X216201095Y-112338238D01*
X215820142Y-112623952D02*
X215963000Y-112433476D01*
X216105857Y-112623952D01*
X216724904Y-112195380D02*
X216724904Y-112433476D01*
X216486809Y-112338238D02*
X216724904Y-112433476D01*
X216963000Y-112338238D01*
X216582047Y-112623952D02*
X216724904Y-112433476D01*
X216867761Y-112623952D01*
X118629666Y-113195380D02*
X118296333Y-112719190D01*
X118058238Y-113195380D02*
X118058238Y-112195380D01*
X118439190Y-112195380D01*
X118534428Y-112243000D01*
X118582047Y-112290619D01*
X118629666Y-112385857D01*
X118629666Y-112528714D01*
X118582047Y-112623952D01*
X118534428Y-112671571D01*
X118439190Y-112719190D01*
X118058238Y-112719190D01*
X119058238Y-112671571D02*
X119391571Y-112671571D01*
X119534428Y-113195380D02*
X119058238Y-113195380D01*
X119058238Y-112195380D01*
X119534428Y-112195380D01*
X120296333Y-112671571D02*
X119963000Y-112671571D01*
X119963000Y-113195380D02*
X119963000Y-112195380D01*
X120439190Y-112195380D01*
X120963000Y-112195380D02*
X120963000Y-112433476D01*
X120724904Y-112338238D02*
X120963000Y-112433476D01*
X121201095Y-112338238D01*
X120820142Y-112623952D02*
X120963000Y-112433476D01*
X121105857Y-112623952D01*
X121724904Y-112195380D02*
X121724904Y-112433476D01*
X121486809Y-112338238D02*
X121724904Y-112433476D01*
X121963000Y-112338238D01*
X121582047Y-112623952D02*
X121724904Y-112433476D01*
X121867761Y-112623952D01*
X118629666Y-75195380D02*
X118296333Y-74719190D01*
X118058238Y-75195380D02*
X118058238Y-74195380D01*
X118439190Y-74195380D01*
X118534428Y-74243000D01*
X118582047Y-74290619D01*
X118629666Y-74385857D01*
X118629666Y-74528714D01*
X118582047Y-74623952D01*
X118534428Y-74671571D01*
X118439190Y-74719190D01*
X118058238Y-74719190D01*
X119058238Y-74671571D02*
X119391571Y-74671571D01*
X119534428Y-75195380D02*
X119058238Y-75195380D01*
X119058238Y-74195380D01*
X119534428Y-74195380D01*
X120296333Y-74671571D02*
X119963000Y-74671571D01*
X119963000Y-75195380D02*
X119963000Y-74195380D01*
X120439190Y-74195380D01*
X120963000Y-74195380D02*
X120963000Y-74433476D01*
X120724904Y-74338238D02*
X120963000Y-74433476D01*
X121201095Y-74338238D01*
X120820142Y-74623952D02*
X120963000Y-74433476D01*
X121105857Y-74623952D01*
X121724904Y-74195380D02*
X121724904Y-74433476D01*
X121486809Y-74338238D02*
X121724904Y-74433476D01*
X121963000Y-74338238D01*
X121582047Y-74623952D02*
X121724904Y-74433476D01*
X121867761Y-74623952D01*
X156629666Y-75195380D02*
X156296333Y-74719190D01*
X156058238Y-75195380D02*
X156058238Y-74195380D01*
X156439190Y-74195380D01*
X156534428Y-74243000D01*
X156582047Y-74290619D01*
X156629666Y-74385857D01*
X156629666Y-74528714D01*
X156582047Y-74623952D01*
X156534428Y-74671571D01*
X156439190Y-74719190D01*
X156058238Y-74719190D01*
X157058238Y-74671571D02*
X157391571Y-74671571D01*
X157534428Y-75195380D02*
X157058238Y-75195380D01*
X157058238Y-74195380D01*
X157534428Y-74195380D01*
X158296333Y-74671571D02*
X157963000Y-74671571D01*
X157963000Y-75195380D02*
X157963000Y-74195380D01*
X158439190Y-74195380D01*
X158963000Y-74195380D02*
X158963000Y-74433476D01*
X158724904Y-74338238D02*
X158963000Y-74433476D01*
X159201095Y-74338238D01*
X158820142Y-74623952D02*
X158963000Y-74433476D01*
X159105857Y-74623952D01*
X159724904Y-74195380D02*
X159724904Y-74433476D01*
X159486809Y-74338238D02*
X159724904Y-74433476D01*
X159963000Y-74338238D01*
X159582047Y-74623952D02*
X159724904Y-74433476D01*
X159867761Y-74623952D01*
X137629666Y-75195380D02*
X137296333Y-74719190D01*
X137058238Y-75195380D02*
X137058238Y-74195380D01*
X137439190Y-74195380D01*
X137534428Y-74243000D01*
X137582047Y-74290619D01*
X137629666Y-74385857D01*
X137629666Y-74528714D01*
X137582047Y-74623952D01*
X137534428Y-74671571D01*
X137439190Y-74719190D01*
X137058238Y-74719190D01*
X138058238Y-74671571D02*
X138391571Y-74671571D01*
X138534428Y-75195380D02*
X138058238Y-75195380D01*
X138058238Y-74195380D01*
X138534428Y-74195380D01*
X139296333Y-74671571D02*
X138963000Y-74671571D01*
X138963000Y-75195380D02*
X138963000Y-74195380D01*
X139439190Y-74195380D01*
X139963000Y-74195380D02*
X139963000Y-74433476D01*
X139724904Y-74338238D02*
X139963000Y-74433476D01*
X140201095Y-74338238D01*
X139820142Y-74623952D02*
X139963000Y-74433476D01*
X140105857Y-74623952D01*
X140724904Y-74195380D02*
X140724904Y-74433476D01*
X140486809Y-74338238D02*
X140724904Y-74433476D01*
X140963000Y-74338238D01*
X140582047Y-74623952D02*
X140724904Y-74433476D01*
X140867761Y-74623952D01*
X99629666Y-75195380D02*
X99296333Y-74719190D01*
X99058238Y-75195380D02*
X99058238Y-74195380D01*
X99439190Y-74195380D01*
X99534428Y-74243000D01*
X99582047Y-74290619D01*
X99629666Y-74385857D01*
X99629666Y-74528714D01*
X99582047Y-74623952D01*
X99534428Y-74671571D01*
X99439190Y-74719190D01*
X99058238Y-74719190D01*
X100058238Y-74671571D02*
X100391571Y-74671571D01*
X100534428Y-75195380D02*
X100058238Y-75195380D01*
X100058238Y-74195380D01*
X100534428Y-74195380D01*
X101296333Y-74671571D02*
X100963000Y-74671571D01*
X100963000Y-75195380D02*
X100963000Y-74195380D01*
X101439190Y-74195380D01*
X101963000Y-74195380D02*
X101963000Y-74433476D01*
X101724904Y-74338238D02*
X101963000Y-74433476D01*
X102201095Y-74338238D01*
X101820142Y-74623952D02*
X101963000Y-74433476D01*
X102105857Y-74623952D01*
X102724904Y-74195380D02*
X102724904Y-74433476D01*
X102486809Y-74338238D02*
X102724904Y-74433476D01*
X102963000Y-74338238D01*
X102582047Y-74623952D02*
X102724904Y-74433476D01*
X102867761Y-74623952D01*
X194629666Y-75195380D02*
X194296333Y-74719190D01*
X194058238Y-75195380D02*
X194058238Y-74195380D01*
X194439190Y-74195380D01*
X194534428Y-74243000D01*
X194582047Y-74290619D01*
X194629666Y-74385857D01*
X194629666Y-74528714D01*
X194582047Y-74623952D01*
X194534428Y-74671571D01*
X194439190Y-74719190D01*
X194058238Y-74719190D01*
X195058238Y-74671571D02*
X195391571Y-74671571D01*
X195534428Y-75195380D02*
X195058238Y-75195380D01*
X195058238Y-74195380D01*
X195534428Y-74195380D01*
X196296333Y-74671571D02*
X195963000Y-74671571D01*
X195963000Y-75195380D02*
X195963000Y-74195380D01*
X196439190Y-74195380D01*
X196963000Y-74195380D02*
X196963000Y-74433476D01*
X196724904Y-74338238D02*
X196963000Y-74433476D01*
X197201095Y-74338238D01*
X196820142Y-74623952D02*
X196963000Y-74433476D01*
X197105857Y-74623952D01*
X197724904Y-74195380D02*
X197724904Y-74433476D01*
X197486809Y-74338238D02*
X197724904Y-74433476D01*
X197963000Y-74338238D01*
X197582047Y-74623952D02*
X197724904Y-74433476D01*
X197867761Y-74623952D01*
X175629666Y-75195380D02*
X175296333Y-74719190D01*
X175058238Y-75195380D02*
X175058238Y-74195380D01*
X175439190Y-74195380D01*
X175534428Y-74243000D01*
X175582047Y-74290619D01*
X175629666Y-74385857D01*
X175629666Y-74528714D01*
X175582047Y-74623952D01*
X175534428Y-74671571D01*
X175439190Y-74719190D01*
X175058238Y-74719190D01*
X176058238Y-74671571D02*
X176391571Y-74671571D01*
X176534428Y-75195380D02*
X176058238Y-75195380D01*
X176058238Y-74195380D01*
X176534428Y-74195380D01*
X177296333Y-74671571D02*
X176963000Y-74671571D01*
X176963000Y-75195380D02*
X176963000Y-74195380D01*
X177439190Y-74195380D01*
X177963000Y-74195380D02*
X177963000Y-74433476D01*
X177724904Y-74338238D02*
X177963000Y-74433476D01*
X178201095Y-74338238D01*
X177820142Y-74623952D02*
X177963000Y-74433476D01*
X178105857Y-74623952D01*
X178724904Y-74195380D02*
X178724904Y-74433476D01*
X178486809Y-74338238D02*
X178724904Y-74433476D01*
X178963000Y-74338238D01*
X178582047Y-74623952D02*
X178724904Y-74433476D01*
X178867761Y-74623952D01*
X251629666Y-75195380D02*
X251296333Y-74719190D01*
X251058238Y-75195380D02*
X251058238Y-74195380D01*
X251439190Y-74195380D01*
X251534428Y-74243000D01*
X251582047Y-74290619D01*
X251629666Y-74385857D01*
X251629666Y-74528714D01*
X251582047Y-74623952D01*
X251534428Y-74671571D01*
X251439190Y-74719190D01*
X251058238Y-74719190D01*
X252058238Y-74671571D02*
X252391571Y-74671571D01*
X252534428Y-75195380D02*
X252058238Y-75195380D01*
X252058238Y-74195380D01*
X252534428Y-74195380D01*
X253296333Y-74671571D02*
X252963000Y-74671571D01*
X252963000Y-75195380D02*
X252963000Y-74195380D01*
X253439190Y-74195380D01*
X253963000Y-74195380D02*
X253963000Y-74433476D01*
X253724904Y-74338238D02*
X253963000Y-74433476D01*
X254201095Y-74338238D01*
X253820142Y-74623952D02*
X253963000Y-74433476D01*
X254105857Y-74623952D01*
X254724904Y-74195380D02*
X254724904Y-74433476D01*
X254486809Y-74338238D02*
X254724904Y-74433476D01*
X254963000Y-74338238D01*
X254582047Y-74623952D02*
X254724904Y-74433476D01*
X254867761Y-74623952D01*
X80629666Y-75195380D02*
X80296333Y-74719190D01*
X80058238Y-75195380D02*
X80058238Y-74195380D01*
X80439190Y-74195380D01*
X80534428Y-74243000D01*
X80582047Y-74290619D01*
X80629666Y-74385857D01*
X80629666Y-74528714D01*
X80582047Y-74623952D01*
X80534428Y-74671571D01*
X80439190Y-74719190D01*
X80058238Y-74719190D01*
X81058238Y-74671571D02*
X81391571Y-74671571D01*
X81534428Y-75195380D02*
X81058238Y-75195380D01*
X81058238Y-74195380D01*
X81534428Y-74195380D01*
X82296333Y-74671571D02*
X81963000Y-74671571D01*
X81963000Y-75195380D02*
X81963000Y-74195380D01*
X82439190Y-74195380D01*
X82963000Y-74195380D02*
X82963000Y-74433476D01*
X82724904Y-74338238D02*
X82963000Y-74433476D01*
X83201095Y-74338238D01*
X82820142Y-74623952D02*
X82963000Y-74433476D01*
X83105857Y-74623952D01*
X83724904Y-74195380D02*
X83724904Y-74433476D01*
X83486809Y-74338238D02*
X83724904Y-74433476D01*
X83963000Y-74338238D01*
X83582047Y-74623952D02*
X83724904Y-74433476D01*
X83867761Y-74623952D01*
X61629666Y-75195380D02*
X61296333Y-74719190D01*
X61058238Y-75195380D02*
X61058238Y-74195380D01*
X61439190Y-74195380D01*
X61534428Y-74243000D01*
X61582047Y-74290619D01*
X61629666Y-74385857D01*
X61629666Y-74528714D01*
X61582047Y-74623952D01*
X61534428Y-74671571D01*
X61439190Y-74719190D01*
X61058238Y-74719190D01*
X62058238Y-74671571D02*
X62391571Y-74671571D01*
X62534428Y-75195380D02*
X62058238Y-75195380D01*
X62058238Y-74195380D01*
X62534428Y-74195380D01*
X63296333Y-74671571D02*
X62963000Y-74671571D01*
X62963000Y-75195380D02*
X62963000Y-74195380D01*
X63439190Y-74195380D01*
X63963000Y-74195380D02*
X63963000Y-74433476D01*
X63724904Y-74338238D02*
X63963000Y-74433476D01*
X64201095Y-74338238D01*
X63820142Y-74623952D02*
X63963000Y-74433476D01*
X64105857Y-74623952D01*
X64724904Y-74195380D02*
X64724904Y-74433476D01*
X64486809Y-74338238D02*
X64724904Y-74433476D01*
X64963000Y-74338238D01*
X64582047Y-74623952D02*
X64724904Y-74433476D01*
X64867761Y-74623952D01*
X213629666Y-75195380D02*
X213296333Y-74719190D01*
X213058238Y-75195380D02*
X213058238Y-74195380D01*
X213439190Y-74195380D01*
X213534428Y-74243000D01*
X213582047Y-74290619D01*
X213629666Y-74385857D01*
X213629666Y-74528714D01*
X213582047Y-74623952D01*
X213534428Y-74671571D01*
X213439190Y-74719190D01*
X213058238Y-74719190D01*
X214058238Y-74671571D02*
X214391571Y-74671571D01*
X214534428Y-75195380D02*
X214058238Y-75195380D01*
X214058238Y-74195380D01*
X214534428Y-74195380D01*
X215296333Y-74671571D02*
X214963000Y-74671571D01*
X214963000Y-75195380D02*
X214963000Y-74195380D01*
X215439190Y-74195380D01*
X215963000Y-74195380D02*
X215963000Y-74433476D01*
X215724904Y-74338238D02*
X215963000Y-74433476D01*
X216201095Y-74338238D01*
X215820142Y-74623952D02*
X215963000Y-74433476D01*
X216105857Y-74623952D01*
X216724904Y-74195380D02*
X216724904Y-74433476D01*
X216486809Y-74338238D02*
X216724904Y-74433476D01*
X216963000Y-74338238D01*
X216582047Y-74623952D02*
X216724904Y-74433476D01*
X216867761Y-74623952D01*
X42629666Y-75195380D02*
X42296333Y-74719190D01*
X42058238Y-75195380D02*
X42058238Y-74195380D01*
X42439190Y-74195380D01*
X42534428Y-74243000D01*
X42582047Y-74290619D01*
X42629666Y-74385857D01*
X42629666Y-74528714D01*
X42582047Y-74623952D01*
X42534428Y-74671571D01*
X42439190Y-74719190D01*
X42058238Y-74719190D01*
X43058238Y-74671571D02*
X43391571Y-74671571D01*
X43534428Y-75195380D02*
X43058238Y-75195380D01*
X43058238Y-74195380D01*
X43534428Y-74195380D01*
X44296333Y-74671571D02*
X43963000Y-74671571D01*
X43963000Y-75195380D02*
X43963000Y-74195380D01*
X44439190Y-74195380D01*
X44963000Y-74195380D02*
X44963000Y-74433476D01*
X44724904Y-74338238D02*
X44963000Y-74433476D01*
X45201095Y-74338238D01*
X44820142Y-74623952D02*
X44963000Y-74433476D01*
X45105857Y-74623952D01*
X45724904Y-74195380D02*
X45724904Y-74433476D01*
X45486809Y-74338238D02*
X45724904Y-74433476D01*
X45963000Y-74338238D01*
X45582047Y-74623952D02*
X45724904Y-74433476D01*
X45867761Y-74623952D01*
X251629666Y-94195380D02*
X251296333Y-93719190D01*
X251058238Y-94195380D02*
X251058238Y-93195380D01*
X251439190Y-93195380D01*
X251534428Y-93243000D01*
X251582047Y-93290619D01*
X251629666Y-93385857D01*
X251629666Y-93528714D01*
X251582047Y-93623952D01*
X251534428Y-93671571D01*
X251439190Y-93719190D01*
X251058238Y-93719190D01*
X252058238Y-93671571D02*
X252391571Y-93671571D01*
X252534428Y-94195380D02*
X252058238Y-94195380D01*
X252058238Y-93195380D01*
X252534428Y-93195380D01*
X253296333Y-93671571D02*
X252963000Y-93671571D01*
X252963000Y-94195380D02*
X252963000Y-93195380D01*
X253439190Y-93195380D01*
X253963000Y-93195380D02*
X253963000Y-93433476D01*
X253724904Y-93338238D02*
X253963000Y-93433476D01*
X254201095Y-93338238D01*
X253820142Y-93623952D02*
X253963000Y-93433476D01*
X254105857Y-93623952D01*
X254724904Y-93195380D02*
X254724904Y-93433476D01*
X254486809Y-93338238D02*
X254724904Y-93433476D01*
X254963000Y-93338238D01*
X254582047Y-93623952D02*
X254724904Y-93433476D01*
X254867761Y-93623952D01*
X232629666Y-94195380D02*
X232296333Y-93719190D01*
X232058238Y-94195380D02*
X232058238Y-93195380D01*
X232439190Y-93195380D01*
X232534428Y-93243000D01*
X232582047Y-93290619D01*
X232629666Y-93385857D01*
X232629666Y-93528714D01*
X232582047Y-93623952D01*
X232534428Y-93671571D01*
X232439190Y-93719190D01*
X232058238Y-93719190D01*
X233058238Y-93671571D02*
X233391571Y-93671571D01*
X233534428Y-94195380D02*
X233058238Y-94195380D01*
X233058238Y-93195380D01*
X233534428Y-93195380D01*
X234296333Y-93671571D02*
X233963000Y-93671571D01*
X233963000Y-94195380D02*
X233963000Y-93195380D01*
X234439190Y-93195380D01*
X234963000Y-93195380D02*
X234963000Y-93433476D01*
X234724904Y-93338238D02*
X234963000Y-93433476D01*
X235201095Y-93338238D01*
X234820142Y-93623952D02*
X234963000Y-93433476D01*
X235105857Y-93623952D01*
X235724904Y-93195380D02*
X235724904Y-93433476D01*
X235486809Y-93338238D02*
X235724904Y-93433476D01*
X235963000Y-93338238D01*
X235582047Y-93623952D02*
X235724904Y-93433476D01*
X235867761Y-93623952D01*
X213629666Y-94195380D02*
X213296333Y-93719190D01*
X213058238Y-94195380D02*
X213058238Y-93195380D01*
X213439190Y-93195380D01*
X213534428Y-93243000D01*
X213582047Y-93290619D01*
X213629666Y-93385857D01*
X213629666Y-93528714D01*
X213582047Y-93623952D01*
X213534428Y-93671571D01*
X213439190Y-93719190D01*
X213058238Y-93719190D01*
X214058238Y-93671571D02*
X214391571Y-93671571D01*
X214534428Y-94195380D02*
X214058238Y-94195380D01*
X214058238Y-93195380D01*
X214534428Y-93195380D01*
X215296333Y-93671571D02*
X214963000Y-93671571D01*
X214963000Y-94195380D02*
X214963000Y-93195380D01*
X215439190Y-93195380D01*
X215963000Y-93195380D02*
X215963000Y-93433476D01*
X215724904Y-93338238D02*
X215963000Y-93433476D01*
X216201095Y-93338238D01*
X215820142Y-93623952D02*
X215963000Y-93433476D01*
X216105857Y-93623952D01*
X216724904Y-93195380D02*
X216724904Y-93433476D01*
X216486809Y-93338238D02*
X216724904Y-93433476D01*
X216963000Y-93338238D01*
X216582047Y-93623952D02*
X216724904Y-93433476D01*
X216867761Y-93623952D01*
X194629666Y-94195380D02*
X194296333Y-93719190D01*
X194058238Y-94195380D02*
X194058238Y-93195380D01*
X194439190Y-93195380D01*
X194534428Y-93243000D01*
X194582047Y-93290619D01*
X194629666Y-93385857D01*
X194629666Y-93528714D01*
X194582047Y-93623952D01*
X194534428Y-93671571D01*
X194439190Y-93719190D01*
X194058238Y-93719190D01*
X195058238Y-93671571D02*
X195391571Y-93671571D01*
X195534428Y-94195380D02*
X195058238Y-94195380D01*
X195058238Y-93195380D01*
X195534428Y-93195380D01*
X196296333Y-93671571D02*
X195963000Y-93671571D01*
X195963000Y-94195380D02*
X195963000Y-93195380D01*
X196439190Y-93195380D01*
X196963000Y-93195380D02*
X196963000Y-93433476D01*
X196724904Y-93338238D02*
X196963000Y-93433476D01*
X197201095Y-93338238D01*
X196820142Y-93623952D02*
X196963000Y-93433476D01*
X197105857Y-93623952D01*
X197724904Y-93195380D02*
X197724904Y-93433476D01*
X197486809Y-93338238D02*
X197724904Y-93433476D01*
X197963000Y-93338238D01*
X197582047Y-93623952D02*
X197724904Y-93433476D01*
X197867761Y-93623952D01*
X175629666Y-94195380D02*
X175296333Y-93719190D01*
X175058238Y-94195380D02*
X175058238Y-93195380D01*
X175439190Y-93195380D01*
X175534428Y-93243000D01*
X175582047Y-93290619D01*
X175629666Y-93385857D01*
X175629666Y-93528714D01*
X175582047Y-93623952D01*
X175534428Y-93671571D01*
X175439190Y-93719190D01*
X175058238Y-93719190D01*
X176058238Y-93671571D02*
X176391571Y-93671571D01*
X176534428Y-94195380D02*
X176058238Y-94195380D01*
X176058238Y-93195380D01*
X176534428Y-93195380D01*
X177296333Y-93671571D02*
X176963000Y-93671571D01*
X176963000Y-94195380D02*
X176963000Y-93195380D01*
X177439190Y-93195380D01*
X177963000Y-93195380D02*
X177963000Y-93433476D01*
X177724904Y-93338238D02*
X177963000Y-93433476D01*
X178201095Y-93338238D01*
X177820142Y-93623952D02*
X177963000Y-93433476D01*
X178105857Y-93623952D01*
X178724904Y-93195380D02*
X178724904Y-93433476D01*
X178486809Y-93338238D02*
X178724904Y-93433476D01*
X178963000Y-93338238D01*
X178582047Y-93623952D02*
X178724904Y-93433476D01*
X178867761Y-93623952D01*
X42629666Y-94195380D02*
X42296333Y-93719190D01*
X42058238Y-94195380D02*
X42058238Y-93195380D01*
X42439190Y-93195380D01*
X42534428Y-93243000D01*
X42582047Y-93290619D01*
X42629666Y-93385857D01*
X42629666Y-93528714D01*
X42582047Y-93623952D01*
X42534428Y-93671571D01*
X42439190Y-93719190D01*
X42058238Y-93719190D01*
X43058238Y-93671571D02*
X43391571Y-93671571D01*
X43534428Y-94195380D02*
X43058238Y-94195380D01*
X43058238Y-93195380D01*
X43534428Y-93195380D01*
X44296333Y-93671571D02*
X43963000Y-93671571D01*
X43963000Y-94195380D02*
X43963000Y-93195380D01*
X44439190Y-93195380D01*
X44963000Y-93195380D02*
X44963000Y-93433476D01*
X44724904Y-93338238D02*
X44963000Y-93433476D01*
X45201095Y-93338238D01*
X44820142Y-93623952D02*
X44963000Y-93433476D01*
X45105857Y-93623952D01*
X45724904Y-93195380D02*
X45724904Y-93433476D01*
X45486809Y-93338238D02*
X45724904Y-93433476D01*
X45963000Y-93338238D01*
X45582047Y-93623952D02*
X45724904Y-93433476D01*
X45867761Y-93623952D01*
X61629666Y-94195380D02*
X61296333Y-93719190D01*
X61058238Y-94195380D02*
X61058238Y-93195380D01*
X61439190Y-93195380D01*
X61534428Y-93243000D01*
X61582047Y-93290619D01*
X61629666Y-93385857D01*
X61629666Y-93528714D01*
X61582047Y-93623952D01*
X61534428Y-93671571D01*
X61439190Y-93719190D01*
X61058238Y-93719190D01*
X62058238Y-93671571D02*
X62391571Y-93671571D01*
X62534428Y-94195380D02*
X62058238Y-94195380D01*
X62058238Y-93195380D01*
X62534428Y-93195380D01*
X63296333Y-93671571D02*
X62963000Y-93671571D01*
X62963000Y-94195380D02*
X62963000Y-93195380D01*
X63439190Y-93195380D01*
X63963000Y-93195380D02*
X63963000Y-93433476D01*
X63724904Y-93338238D02*
X63963000Y-93433476D01*
X64201095Y-93338238D01*
X63820142Y-93623952D02*
X63963000Y-93433476D01*
X64105857Y-93623952D01*
X64724904Y-93195380D02*
X64724904Y-93433476D01*
X64486809Y-93338238D02*
X64724904Y-93433476D01*
X64963000Y-93338238D01*
X64582047Y-93623952D02*
X64724904Y-93433476D01*
X64867761Y-93623952D01*
X80629666Y-94195380D02*
X80296333Y-93719190D01*
X80058238Y-94195380D02*
X80058238Y-93195380D01*
X80439190Y-93195380D01*
X80534428Y-93243000D01*
X80582047Y-93290619D01*
X80629666Y-93385857D01*
X80629666Y-93528714D01*
X80582047Y-93623952D01*
X80534428Y-93671571D01*
X80439190Y-93719190D01*
X80058238Y-93719190D01*
X81058238Y-93671571D02*
X81391571Y-93671571D01*
X81534428Y-94195380D02*
X81058238Y-94195380D01*
X81058238Y-93195380D01*
X81534428Y-93195380D01*
X82296333Y-93671571D02*
X81963000Y-93671571D01*
X81963000Y-94195380D02*
X81963000Y-93195380D01*
X82439190Y-93195380D01*
X82963000Y-93195380D02*
X82963000Y-93433476D01*
X82724904Y-93338238D02*
X82963000Y-93433476D01*
X83201095Y-93338238D01*
X82820142Y-93623952D02*
X82963000Y-93433476D01*
X83105857Y-93623952D01*
X83724904Y-93195380D02*
X83724904Y-93433476D01*
X83486809Y-93338238D02*
X83724904Y-93433476D01*
X83963000Y-93338238D01*
X83582047Y-93623952D02*
X83724904Y-93433476D01*
X83867761Y-93623952D01*
X99629666Y-94195380D02*
X99296333Y-93719190D01*
X99058238Y-94195380D02*
X99058238Y-93195380D01*
X99439190Y-93195380D01*
X99534428Y-93243000D01*
X99582047Y-93290619D01*
X99629666Y-93385857D01*
X99629666Y-93528714D01*
X99582047Y-93623952D01*
X99534428Y-93671571D01*
X99439190Y-93719190D01*
X99058238Y-93719190D01*
X100058238Y-93671571D02*
X100391571Y-93671571D01*
X100534428Y-94195380D02*
X100058238Y-94195380D01*
X100058238Y-93195380D01*
X100534428Y-93195380D01*
X101296333Y-93671571D02*
X100963000Y-93671571D01*
X100963000Y-94195380D02*
X100963000Y-93195380D01*
X101439190Y-93195380D01*
X101963000Y-93195380D02*
X101963000Y-93433476D01*
X101724904Y-93338238D02*
X101963000Y-93433476D01*
X102201095Y-93338238D01*
X101820142Y-93623952D02*
X101963000Y-93433476D01*
X102105857Y-93623952D01*
X102724904Y-93195380D02*
X102724904Y-93433476D01*
X102486809Y-93338238D02*
X102724904Y-93433476D01*
X102963000Y-93338238D01*
X102582047Y-93623952D02*
X102724904Y-93433476D01*
X102867761Y-93623952D01*
X118629666Y-94195380D02*
X118296333Y-93719190D01*
X118058238Y-94195380D02*
X118058238Y-93195380D01*
X118439190Y-93195380D01*
X118534428Y-93243000D01*
X118582047Y-93290619D01*
X118629666Y-93385857D01*
X118629666Y-93528714D01*
X118582047Y-93623952D01*
X118534428Y-93671571D01*
X118439190Y-93719190D01*
X118058238Y-93719190D01*
X119058238Y-93671571D02*
X119391571Y-93671571D01*
X119534428Y-94195380D02*
X119058238Y-94195380D01*
X119058238Y-93195380D01*
X119534428Y-93195380D01*
X120296333Y-93671571D02*
X119963000Y-93671571D01*
X119963000Y-94195380D02*
X119963000Y-93195380D01*
X120439190Y-93195380D01*
X120963000Y-93195380D02*
X120963000Y-93433476D01*
X120724904Y-93338238D02*
X120963000Y-93433476D01*
X121201095Y-93338238D01*
X120820142Y-93623952D02*
X120963000Y-93433476D01*
X121105857Y-93623952D01*
X121724904Y-93195380D02*
X121724904Y-93433476D01*
X121486809Y-93338238D02*
X121724904Y-93433476D01*
X121963000Y-93338238D01*
X121582047Y-93623952D02*
X121724904Y-93433476D01*
X121867761Y-93623952D01*
X137629666Y-94195380D02*
X137296333Y-93719190D01*
X137058238Y-94195380D02*
X137058238Y-93195380D01*
X137439190Y-93195380D01*
X137534428Y-93243000D01*
X137582047Y-93290619D01*
X137629666Y-93385857D01*
X137629666Y-93528714D01*
X137582047Y-93623952D01*
X137534428Y-93671571D01*
X137439190Y-93719190D01*
X137058238Y-93719190D01*
X138058238Y-93671571D02*
X138391571Y-93671571D01*
X138534428Y-94195380D02*
X138058238Y-94195380D01*
X138058238Y-93195380D01*
X138534428Y-93195380D01*
X139296333Y-93671571D02*
X138963000Y-93671571D01*
X138963000Y-94195380D02*
X138963000Y-93195380D01*
X139439190Y-93195380D01*
X139963000Y-93195380D02*
X139963000Y-93433476D01*
X139724904Y-93338238D02*
X139963000Y-93433476D01*
X140201095Y-93338238D01*
X139820142Y-93623952D02*
X139963000Y-93433476D01*
X140105857Y-93623952D01*
X140724904Y-93195380D02*
X140724904Y-93433476D01*
X140486809Y-93338238D02*
X140724904Y-93433476D01*
X140963000Y-93338238D01*
X140582047Y-93623952D02*
X140724904Y-93433476D01*
X140867761Y-93623952D01*
X156629666Y-94195380D02*
X156296333Y-93719190D01*
X156058238Y-94195380D02*
X156058238Y-93195380D01*
X156439190Y-93195380D01*
X156534428Y-93243000D01*
X156582047Y-93290619D01*
X156629666Y-93385857D01*
X156629666Y-93528714D01*
X156582047Y-93623952D01*
X156534428Y-93671571D01*
X156439190Y-93719190D01*
X156058238Y-93719190D01*
X157058238Y-93671571D02*
X157391571Y-93671571D01*
X157534428Y-94195380D02*
X157058238Y-94195380D01*
X157058238Y-93195380D01*
X157534428Y-93195380D01*
X158296333Y-93671571D02*
X157963000Y-93671571D01*
X157963000Y-94195380D02*
X157963000Y-93195380D01*
X158439190Y-93195380D01*
X158963000Y-93195380D02*
X158963000Y-93433476D01*
X158724904Y-93338238D02*
X158963000Y-93433476D01*
X159201095Y-93338238D01*
X158820142Y-93623952D02*
X158963000Y-93433476D01*
X159105857Y-93623952D01*
X159724904Y-93195380D02*
X159724904Y-93433476D01*
X159486809Y-93338238D02*
X159724904Y-93433476D01*
X159963000Y-93338238D01*
X159582047Y-93623952D02*
X159724904Y-93433476D01*
X159867761Y-93623952D01*
X128129666Y-132195380D02*
X127796333Y-131719190D01*
X127558238Y-132195380D02*
X127558238Y-131195380D01*
X127939190Y-131195380D01*
X128034428Y-131243000D01*
X128082047Y-131290619D01*
X128129666Y-131385857D01*
X128129666Y-131528714D01*
X128082047Y-131623952D01*
X128034428Y-131671571D01*
X127939190Y-131719190D01*
X127558238Y-131719190D01*
X128558238Y-131671571D02*
X128891571Y-131671571D01*
X129034428Y-132195380D02*
X128558238Y-132195380D01*
X128558238Y-131195380D01*
X129034428Y-131195380D01*
X129796333Y-131671571D02*
X129463000Y-131671571D01*
X129463000Y-132195380D02*
X129463000Y-131195380D01*
X129939190Y-131195380D01*
X130463000Y-131195380D02*
X130463000Y-131433476D01*
X130224904Y-131338238D02*
X130463000Y-131433476D01*
X130701095Y-131338238D01*
X130320142Y-131623952D02*
X130463000Y-131433476D01*
X130605857Y-131623952D01*
X131224904Y-131195380D02*
X131224904Y-131433476D01*
X130986809Y-131338238D02*
X131224904Y-131433476D01*
X131463000Y-131338238D01*
X131082047Y-131623952D02*
X131224904Y-131433476D01*
X131367761Y-131623952D01*
G04 #@! TD*
M02*
